<?xml version="1.0" encoding="UTF-8" standalone="no"?>
<!DOCTYPE svg PUBLIC "-//W3C//DTD SVG 1.1//EN"
 "http://www.w3.org/Graphics/SVG/1.1/DTD/svg11.dtd">
<!-- Generated by graphviz version 2.38.0 (20140413.2041)
 -->
<!-- Title: %3 Pages: 1 -->
<svg width="961pt" height="548pt"
 viewBox="0.00 0.00 961.38 548.00" xmlns="http://www.w3.org/2000/svg" xmlns:xlink="http://www.w3.org/1999/xlink">
<g id="graph0" class="graph" transform="scale(1 1) rotate(0) translate(4 544)">
<title>%3</title>
<polygon fill="white" stroke="none" points="-4,4 -4,-544 957.383,-544 957.383,4 -4,4"/>
<!-- dist_eastern_nosquash_nosoil -->
<g id="dist_eastern_nosquash_nosoil" class="node"><title>dist_eastern_nosquash_nosoil</title>
<g id="a_dist_eastern_nosquash_nosoil"><a xlink:href="javascript:void();" xlink:title="dist_eastern_nosquash_nosoil">
<ellipse fill="none" stroke="black" cx="115.69" cy="-18" rx="115.88" ry="18"/>
<text text-anchor="middle" x="115.69" y="-14.3" font-family="Times,serif" font-size="14.00">dist_eastern_nosquash_nosoil</text>
</a>
</g>
</g>
<!-- model_eastern_nosquash -->
<g id="model_eastern_nosquash" class="node"><title>model_eastern_nosquash</title>
<g id="a_model_eastern_nosquash"><a xlink:href="javascript:void();" xlink:title="model_eastern_nosquash">
<ellipse fill="none" stroke="black" cx="643.69" cy="-90" rx="99.3824" ry="18"/>
<text text-anchor="middle" x="643.69" y="-86.3" font-family="Times,serif" font-size="14.00">model_eastern_nosquash</text>
</a>
</g>
</g>
<!-- dist_eastern_nosquash -->
<g id="dist_eastern_nosquash" class="node"><title>dist_eastern_nosquash</title>
<g id="a_dist_eastern_nosquash"><a xlink:href="javascript:void();" xlink:title="dist_eastern_nosquash">
<ellipse fill="none" stroke="black" cx="706.69" cy="-18" rx="89.8845" ry="18"/>
<text text-anchor="middle" x="706.69" y="-14.3" font-family="Times,serif" font-size="14.00">dist_eastern_nosquash</text>
</a>
</g>
</g>
<!-- model_eastern_nosquash&#45;&gt;dist_eastern_nosquash -->
<g id="edge1" class="edge"><title>model_eastern_nosquash&#45;&gt;dist_eastern_nosquash</title>
<g id="a_edge1"><a xlink:title="test">
<path fill="none" stroke="black" d="M658.94,-72.055C666.679,-63.4567 676.219,-52.8566 684.732,-43.3974"/>
<polygon fill="black" stroke="black" points="687.491,-45.5634 691.58,-35.789 682.288,-40.8806 687.491,-45.5634"/>
</a>
</g>
</g>
<!-- latlon_eastern -->
<g id="latlon_eastern" class="node"><title>latlon_eastern</title>
<g id="a_latlon_eastern"><a xlink:href="javascript:void();" xlink:title="latlon_eastern">
<ellipse fill="none" stroke="black" cx="587.69" cy="-234" rx="59.5901" ry="18"/>
<text text-anchor="middle" x="587.69" y="-230.3" font-family="Times,serif" font-size="14.00">latlon_eastern</text>
</a>
</g>
</g>
<!-- latlon_eastern_vals -->
<g id="latlon_eastern_vals" class="node"><title>latlon_eastern_vals</title>
<g id="a_latlon_eastern_vals"><a xlink:href="javascript:void();" xlink:title="latlon_eastern_vals">
<ellipse fill="none" stroke="black" cx="437.69" cy="-162" rx="78.7863" ry="18"/>
<text text-anchor="middle" x="437.69" y="-158.3" font-family="Times,serif" font-size="14.00">latlon_eastern_vals</text>
</a>
</g>
</g>
<!-- latlon_eastern&#45;&gt;latlon_eastern_vals -->
<g id="edge2" class="edge"><title>latlon_eastern&#45;&gt;latlon_eastern_vals</title>
<g id="a_edge2"><a xlink:title="test">
<path fill="none" stroke="black" d="M556.61,-218.496C534.489,-208.173 504.498,-194.177 480.169,-182.823"/>
<polygon fill="black" stroke="black" points="481.353,-179.514 470.811,-178.457 478.393,-185.857 481.353,-179.514"/>
</a>
</g>
</g>
<!-- latlon_eastern_vals&#45;&gt;model_eastern_nosquash -->
<g id="edge5" class="edge"><title>latlon_eastern_vals&#45;&gt;model_eastern_nosquash</title>
<g id="a_edge5"><a xlink:title="test">
<path fill="none" stroke="black" d="M479.874,-146.666C511.479,-135.926 554.986,-121.142 589.22,-109.509"/>
<polygon fill="black" stroke="black" points="590.725,-112.694 599.067,-106.163 588.473,-106.067 590.725,-112.694"/>
</a>
</g>
</g>
<!-- model_eastern_nosoil -->
<g id="model_eastern_nosoil" class="node"><title>model_eastern_nosoil</title>
<g id="a_model_eastern_nosoil"><a xlink:href="javascript:void();" xlink:title="model_eastern_nosoil">
<ellipse fill="none" stroke="black" cx="437.69" cy="-90" rx="88.2844" ry="18"/>
<text text-anchor="middle" x="437.69" y="-86.3" font-family="Times,serif" font-size="14.00">model_eastern_nosoil</text>
</a>
</g>
</g>
<!-- latlon_eastern_vals&#45;&gt;model_eastern_nosoil -->
<g id="edge3" class="edge"><title>latlon_eastern_vals&#45;&gt;model_eastern_nosoil</title>
<g id="a_edge3"><a xlink:title="test">
<path fill="none" stroke="black" d="M437.69,-143.697C437.69,-135.983 437.69,-126.712 437.69,-118.112"/>
<polygon fill="black" stroke="black" points="441.19,-118.104 437.69,-108.104 434.19,-118.104 441.19,-118.104"/>
</a>
</g>
</g>
<!-- model_eastern_nosquash_nosoil -->
<g id="model_eastern_nosquash_nosoil" class="node"><title>model_eastern_nosquash_nosoil</title>
<g id="a_model_eastern_nosquash_nosoil"><a xlink:href="javascript:void();" xlink:title="model_eastern_nosquash_nosoil">
<ellipse fill="none" stroke="black" cx="168.69" cy="-90" rx="125.378" ry="18"/>
<text text-anchor="middle" x="168.69" y="-86.3" font-family="Times,serif" font-size="14.00">model_eastern_nosquash_nosoil</text>
</a>
</g>
</g>
<!-- latlon_eastern_vals&#45;&gt;model_eastern_nosquash_nosoil -->
<g id="edge4" class="edge"><title>latlon_eastern_vals&#45;&gt;model_eastern_nosquash_nosoil</title>
<g id="a_edge4"><a xlink:title="test">
<path fill="none" stroke="black" d="M387.723,-147.998C345.027,-136.887 283.217,-120.803 236.137,-108.551"/>
<polygon fill="black" stroke="black" points="236.885,-105.13 226.326,-105.998 235.122,-111.904 236.885,-105.13"/>
</a>
</g>
</g>
<!-- ext -->
<g id="ext" class="node"><title>ext</title>
<g id="a_ext"><a xlink:href="javascript:void();" xlink:title="ext">
<ellipse fill="none" stroke="black" cx="153.69" cy="-450" rx="27" ry="18"/>
<text text-anchor="middle" x="153.69" y="-446.3" font-family="Times,serif" font-size="14.00">ext</text>
</a>
</g>
</g>
<!-- hwsdNA_raster -->
<g id="hwsdNA_raster" class="node"><title>hwsdNA_raster</title>
<g id="a_hwsdNA_raster"><a xlink:href="javascript:void();" xlink:title="hwsdNA_raster">
<ellipse fill="none" stroke="black" cx="155.69" cy="-306" rx="65.7887" ry="18"/>
<text text-anchor="middle" x="155.69" y="-302.3" font-family="Times,serif" font-size="14.00">hwsdNA_raster</text>
</a>
</g>
</g>
<!-- ext&#45;&gt;hwsdNA_raster -->
<g id="edge6" class="edge"><title>ext&#45;&gt;hwsdNA_raster</title>
<g id="a_edge6"><a xlink:title="test">
<path fill="none" stroke="black" d="M153.931,-431.871C154.272,-407.67 154.898,-363.211 155.304,-334.393"/>
<polygon fill="black" stroke="black" points="158.806,-334.238 155.448,-324.189 151.807,-334.139 158.806,-334.238"/>
</a>
</g>
</g>
<!-- bioclimNA_raster -->
<g id="bioclimNA_raster" class="node"><title>bioclimNA_raster</title>
<g id="a_bioclimNA_raster"><a xlink:href="javascript:void();" xlink:title="bioclimNA_raster">
<ellipse fill="none" stroke="black" cx="256.69" cy="-378" rx="74.9875" ry="18"/>
<text text-anchor="middle" x="256.69" y="-374.3" font-family="Times,serif" font-size="14.00">bioclimNA_raster</text>
</a>
</g>
</g>
<!-- ext&#45;&gt;bioclimNA_raster -->
<g id="edge7" class="edge"><title>ext&#45;&gt;bioclimNA_raster</title>
<g id="a_edge7"><a xlink:title="test">
<path fill="none" stroke="black" d="M172.104,-436.485C186.591,-426.64 207.135,-412.678 224.349,-400.979"/>
<polygon fill="black" stroke="black" points="226.693,-403.618 232.997,-395.102 222.759,-397.828 226.693,-403.618"/>
</a>
</g>
</g>
<!-- gbif_data -->
<g id="gbif_data" class="node"><title>gbif_data</title>
<g id="a_gbif_data"><a xlink:href="javascript:void();" xlink:title="gbif_data">
<ellipse fill="none" stroke="black" cx="732.69" cy="-522" rx="44.393" ry="18"/>
<text text-anchor="middle" x="732.69" y="-518.3" font-family="Times,serif" font-size="14.00">gbif_data</text>
</a>
</g>
</g>
<!-- latlon_gbif -->
<g id="latlon_gbif" class="node"><title>latlon_gbif</title>
<g id="a_latlon_gbif"><a xlink:href="javascript:void();" xlink:title="latlon_gbif">
<ellipse fill="none" stroke="black" cx="732.69" cy="-450" rx="49.2915" ry="18"/>
<text text-anchor="middle" x="732.69" y="-446.3" font-family="Times,serif" font-size="14.00">latlon_gbif</text>
</a>
</g>
</g>
<!-- gbif_data&#45;&gt;latlon_gbif -->
<g id="edge8" class="edge"><title>gbif_data&#45;&gt;latlon_gbif</title>
<g id="a_edge8"><a xlink:title="test">
<path fill="none" stroke="black" d="M732.69,-503.697C732.69,-495.983 732.69,-486.712 732.69,-478.112"/>
<polygon fill="black" stroke="black" points="736.19,-478.104 732.69,-468.104 729.19,-478.104 736.19,-478.104"/>
</a>
</g>
</g>
<!-- dist_eastern_nosoil -->
<g id="dist_eastern_nosoil" class="node"><title>dist_eastern_nosoil</title>
<g id="a_dist_eastern_nosoil"><a xlink:href="javascript:void();" xlink:title="dist_eastern_nosoil">
<ellipse fill="none" stroke="black" cx="374.69" cy="-18" rx="78.7863" ry="18"/>
<text text-anchor="middle" x="374.69" y="-14.3" font-family="Times,serif" font-size="14.00">dist_eastern_nosoil</text>
</a>
</g>
</g>
<!-- model_eastern_nosoil&#45;&gt;dist_eastern_nosoil -->
<g id="edge9" class="edge"><title>model_eastern_nosoil&#45;&gt;dist_eastern_nosoil</title>
<g id="a_edge9"><a xlink:title="test">
<path fill="none" stroke="black" d="M422.439,-72.055C414.701,-63.4567 405.161,-52.8566 396.647,-43.3974"/>
<polygon fill="black" stroke="black" points="399.091,-40.8806 389.8,-35.789 393.888,-45.5634 399.091,-40.8806"/>
</a>
</g>
</g>
<!-- model_eastern_nosquash_nosoil&#45;&gt;dist_eastern_nosquash_nosoil -->
<g id="edge10" class="edge"><title>model_eastern_nosquash_nosoil&#45;&gt;dist_eastern_nosquash_nosoil</title>
<g id="a_edge10"><a xlink:title="test">
<path fill="none" stroke="black" d="M155.86,-72.055C149.574,-63.7526 141.875,-53.5837 134.904,-44.3778"/>
<polygon fill="black" stroke="black" points="137.596,-42.1352 128.77,-36.2753 132.016,-46.3606 137.596,-42.1352"/>
</a>
</g>
</g>
<!-- hwsdNAsp -->
<g id="hwsdNAsp" class="node"><title>hwsdNAsp</title>
<g id="a_hwsdNAsp"><a xlink:href="javascript:void();" xlink:title="hwsdNAsp">
<ellipse fill="none" stroke="black" cx="75.6897" cy="-378" rx="50.0912" ry="18"/>
<text text-anchor="middle" x="75.6897" y="-374.3" font-family="Times,serif" font-size="14.00">hwsdNAsp</text>
</a>
</g>
</g>
<!-- hwsdNAsp&#45;&gt;hwsdNA_raster -->
<g id="edge11" class="edge"><title>hwsdNAsp&#45;&gt;hwsdNA_raster</title>
<g id="a_edge11"><a xlink:title="test">
<path fill="none" stroke="black" d="M93.843,-361.116C104.331,-351.939 117.709,-340.233 129.338,-330.057"/>
<polygon fill="black" stroke="black" points="131.832,-332.526 137.053,-323.307 127.223,-327.258 131.832,-332.526"/>
</a>
</g>
</g>
<!-- cucurbit_distanceNA_raster -->
<g id="cucurbit_distanceNA_raster" class="node"><title>cucurbit_distanceNA_raster</title>
<g id="a_cucurbit_distanceNA_raster"><a xlink:href="javascript:void();" xlink:title="cucurbit_distanceNA_raster">
<ellipse fill="none" stroke="black" cx="390.69" cy="-306" rx="109.381" ry="18"/>
<text text-anchor="middle" x="390.69" y="-302.3" font-family="Times,serif" font-size="14.00">cucurbit_distanceNA_raster</text>
</a>
</g>
</g>
<!-- predictors -->
<g id="predictors" class="node"><title>predictors</title>
<g id="a_predictors"><a xlink:href="javascript:void();" xlink:title="predictors">
<ellipse fill="none" stroke="black" cx="321.69" cy="-234" rx="46.2923" ry="18"/>
<text text-anchor="middle" x="321.69" y="-230.3" font-family="Times,serif" font-size="14.00">predictors</text>
</a>
</g>
</g>
<!-- cucurbit_distanceNA_raster&#45;&gt;predictors -->
<g id="edge12" class="edge"><title>cucurbit_distanceNA_raster&#45;&gt;predictors</title>
<g id="a_edge12"><a xlink:title="test">
<path fill="none" stroke="black" d="M373.987,-288.055C365.301,-279.243 354.542,-268.328 345.046,-258.694"/>
<polygon fill="black" stroke="black" points="347.276,-255.972 337.764,-251.307 342.291,-260.886 347.276,-255.972"/>
</a>
</g>
</g>
<!-- latlon_constraint -->
<g id="latlon_constraint" class="node"><title>latlon_constraint</title>
<g id="a_latlon_constraint"><a xlink:href="javascript:void();" xlink:title="latlon_constraint">
<ellipse fill="none" stroke="black" cx="587.69" cy="-306" rx="69.5877" ry="18"/>
<text text-anchor="middle" x="587.69" y="-302.3" font-family="Times,serif" font-size="14.00">latlon_constraint</text>
</a>
</g>
</g>
<!-- latlon_constraint&#45;&gt;latlon_eastern -->
<g id="edge13" class="edge"><title>latlon_constraint&#45;&gt;latlon_eastern</title>
<g id="a_edge13"><a xlink:title="test">
<path fill="none" stroke="black" d="M587.69,-287.697C587.69,-279.983 587.69,-270.712 587.69,-262.112"/>
<polygon fill="black" stroke="black" points="591.19,-262.104 587.69,-252.104 584.19,-262.104 591.19,-262.104"/>
</a>
</g>
</g>
<!-- latlon_discoverlife -->
<g id="latlon_discoverlife" class="node"><title>latlon_discoverlife</title>
<g id="a_latlon_discoverlife"><a xlink:href="javascript:void();" xlink:title="latlon_discoverlife">
<ellipse fill="none" stroke="black" cx="876.69" cy="-450" rx="76.8869" ry="18"/>
<text text-anchor="middle" x="876.69" y="-446.3" font-family="Times,serif" font-size="14.00">latlon_discoverlife</text>
</a>
</g>
</g>
<!-- latlon -->
<g id="latlon" class="node"><title>latlon</title>
<g id="a_latlon"><a xlink:href="javascript:void();" xlink:title="latlon">
<ellipse fill="none" stroke="black" cx="732.69" cy="-378" rx="30.5947" ry="18"/>
<text text-anchor="middle" x="732.69" y="-374.3" font-family="Times,serif" font-size="14.00">latlon</text>
</a>
</g>
</g>
<!-- latlon_discoverlife&#45;&gt;latlon -->
<g id="edge14" class="edge"><title>latlon_discoverlife&#45;&gt;latlon</title>
<g id="a_edge14"><a xlink:title="test">
<path fill="none" stroke="black" d="M844.731,-433.465C820.885,-421.873 788.446,-406.104 764.609,-394.516"/>
<polygon fill="black" stroke="black" points="766.135,-391.367 755.611,-390.142 763.075,-397.662 766.135,-391.367"/>
</a>
</g>
</g>
<!-- predictors&#45;&gt;dist_eastern_nosquash_nosoil -->
<g id="edge15" class="edge"><title>predictors&#45;&gt;dist_eastern_nosquash_nosoil</title>
<g id="a_edge15"><a xlink:title="test">
<path fill="none" stroke="black" d="M277.471,-228.483C211.423,-219.088 88.9716,-190.849 34.6897,-108 25.9211,-94.6167 27.0794,-86.0742 34.6897,-72 41.8987,-58.6679 54.0814,-48.1516 66.8386,-40.1217"/>
<polygon fill="black" stroke="black" points="68.8286,-43.0131 75.7082,-34.9557 65.3055,-36.9642 68.8286,-43.0131"/>
</a>
</g>
</g>
<!-- predictors&#45;&gt;latlon_eastern_vals -->
<g id="edge18" class="edge"><title>predictors&#45;&gt;latlon_eastern_vals</title>
<g id="a_edge18"><a xlink:title="test">
<path fill="none" stroke="black" d="M345.725,-218.496C362.035,-208.653 383.879,-195.472 402.185,-184.426"/>
<polygon fill="black" stroke="black" points="404.093,-187.362 410.847,-179.198 400.477,-181.368 404.093,-187.362"/>
</a>
</g>
</g>
<!-- predictors&#45;&gt;dist_eastern_nosoil -->
<g id="edge17" class="edge"><title>predictors&#45;&gt;dist_eastern_nosoil</title>
<g id="a_edge17"><a xlink:title="test">
<path fill="none" stroke="black" d="M321.227,-215.979C320.945,-185.968 322.753,-122.08 340.69,-72 344.137,-62.3756 349.602,-52.7103 355.152,-44.3183"/>
<polygon fill="black" stroke="black" points="358.04,-46.295 360.884,-36.089 352.297,-42.2939 358.04,-46.295"/>
</a>
</g>
</g>
<!-- predictors&#45;&gt;dist_eastern_nosquash -->
<g id="edge16" class="edge"><title>predictors&#45;&gt;dist_eastern_nosquash</title>
<g id="a_edge16"><a xlink:title="test">
<path fill="none" stroke="black" d="M364.462,-227.177C463.819,-212.673 705.297,-171.47 751.69,-108 766.53,-87.6967 750.044,-61.7817 733.001,-43.1591"/>
<polygon fill="black" stroke="black" points="735.22,-40.4187 725.753,-35.6621 730.188,-45.2843 735.22,-40.4187"/>
</a>
</g>
</g>
<!-- hwsdNA_raster&#45;&gt;predictors -->
<g id="edge19" class="edge"><title>hwsdNA_raster&#45;&gt;predictors</title>
<g id="a_edge19"><a xlink:title="test">
<path fill="none" stroke="black" d="M190.085,-290.496C216.844,-279.212 254.01,-263.54 282.024,-251.727"/>
<polygon fill="black" stroke="black" points="283.664,-254.833 291.519,-247.723 280.944,-248.383 283.664,-254.833"/>
</a>
</g>
</g>
<!-- latlon_sparse -->
<g id="latlon_sparse" class="node"><title>latlon_sparse</title>
<g id="a_latlon_sparse"><a xlink:href="javascript:void();" xlink:title="latlon_sparse">
<ellipse fill="none" stroke="black" cx="732.69" cy="-306" rx="57.3905" ry="18"/>
<text text-anchor="middle" x="732.69" y="-302.3" font-family="Times,serif" font-size="14.00">latlon_sparse</text>
</a>
</g>
</g>
<!-- latlon&#45;&gt;latlon_sparse -->
<g id="edge20" class="edge"><title>latlon&#45;&gt;latlon_sparse</title>
<g id="a_edge20"><a xlink:title="test">
<path fill="none" stroke="black" d="M732.69,-359.697C732.69,-351.983 732.69,-342.712 732.69,-334.112"/>
<polygon fill="black" stroke="black" points="736.19,-334.104 732.69,-324.104 729.19,-334.104 736.19,-334.104"/>
</a>
</g>
</g>
<!-- latlon_bison -->
<g id="latlon_bison" class="node"><title>latlon_bison</title>
<g id="a_latlon_bison"><a xlink:href="javascript:void();" xlink:title="latlon_bison">
<ellipse fill="none" stroke="black" cx="611.69" cy="-450" rx="53.8905" ry="18"/>
<text text-anchor="middle" x="611.69" y="-446.3" font-family="Times,serif" font-size="14.00">latlon_bison</text>
</a>
</g>
</g>
<!-- latlon_bison&#45;&gt;latlon -->
<g id="edge21" class="edge"><title>latlon_bison&#45;&gt;latlon</title>
<g id="a_edge21"><a xlink:title="test">
<path fill="none" stroke="black" d="M637.351,-434.155C656.481,-423.088 682.661,-407.942 702.748,-396.322"/>
<polygon fill="black" stroke="black" points="704.597,-399.295 711.501,-391.258 701.092,-393.236 704.597,-399.295"/>
</a>
</g>
</g>
<!-- bioclim_raster -->
<g id="bioclim_raster" class="node"><title>bioclim_raster</title>
<g id="a_bioclim_raster"><a xlink:href="javascript:void();" xlink:title="bioclim_raster">
<ellipse fill="none" stroke="black" cx="260.69" cy="-450" rx="61.99" ry="18"/>
<text text-anchor="middle" x="260.69" y="-446.3" font-family="Times,serif" font-size="14.00">bioclim_raster</text>
</a>
</g>
</g>
<!-- bioclim_raster&#45;&gt;bioclimNA_raster -->
<g id="edge22" class="edge"><title>bioclim_raster&#45;&gt;bioclimNA_raster</title>
<g id="a_edge22"><a xlink:title="test">
<path fill="none" stroke="black" d="M259.701,-431.697C259.26,-423.983 258.73,-414.712 258.239,-406.112"/>
<polygon fill="black" stroke="black" points="261.732,-405.888 257.667,-396.104 254.743,-406.288 261.732,-405.888"/>
</a>
</g>
</g>
<!-- bioclimNA_raster&#45;&gt;cucurbit_distanceNA_raster -->
<g id="edge23" class="edge"><title>bioclimNA_raster&#45;&gt;cucurbit_distanceNA_raster</title>
<g id="a_edge23"><a xlink:title="test">
<path fill="none" stroke="black" d="M286.429,-361.465C305.151,-351.685 329.564,-338.931 350.06,-328.225"/>
<polygon fill="black" stroke="black" points="351.924,-331.2 359.167,-323.467 348.683,-324.995 351.924,-331.2"/>
</a>
</g>
</g>
<!-- bioclimNA_raster&#45;&gt;predictors -->
<g id="edge24" class="edge"><title>bioclimNA_raster&#45;&gt;predictors</title>
<g id="a_edge24"><a xlink:title="test">
<path fill="none" stroke="black" d="M256.957,-359.708C257.874,-341.091 261.213,-311.047 272.69,-288 278.22,-276.895 286.801,-266.453 295.246,-257.821"/>
<polygon fill="black" stroke="black" points="297.813,-260.207 302.552,-250.731 292.938,-255.184 297.813,-260.207"/>
</a>
</g>
</g>
<!-- bioclimNA_raster&#45;&gt;hwsdNA_raster -->
<g id="edge25" class="edge"><title>bioclimNA_raster&#45;&gt;hwsdNA_raster</title>
<g id="a_edge25"><a xlink:title="test">
<path fill="none" stroke="black" d="M233.264,-360.765C219.527,-351.244 201.995,-339.093 187.075,-328.752"/>
<polygon fill="black" stroke="black" points="188.853,-325.726 178.64,-322.906 184.865,-331.479 188.853,-325.726"/>
</a>
</g>
</g>
<!-- latlon_gbif&#45;&gt;latlon -->
<g id="edge26" class="edge"><title>latlon_gbif&#45;&gt;latlon</title>
<g id="a_edge26"><a xlink:title="test">
<path fill="none" stroke="black" d="M732.69,-431.697C732.69,-423.983 732.69,-414.712 732.69,-406.112"/>
<polygon fill="black" stroke="black" points="736.19,-406.104 732.69,-396.104 729.19,-406.104 736.19,-406.104"/>
</a>
</g>
</g>
<!-- bison_data -->
<g id="bison_data" class="node"><title>bison_data</title>
<g id="a_bison_data"><a xlink:href="javascript:void();" xlink:title="bison_data">
<ellipse fill="none" stroke="black" cx="611.69" cy="-522" rx="48.9926" ry="18"/>
<text text-anchor="middle" x="611.69" y="-518.3" font-family="Times,serif" font-size="14.00">bison_data</text>
</a>
</g>
</g>
<!-- bison_data&#45;&gt;latlon_bison -->
<g id="edge27" class="edge"><title>bison_data&#45;&gt;latlon_bison</title>
<g id="a_edge27"><a xlink:title="test">
<path fill="none" stroke="black" d="M611.69,-503.697C611.69,-495.983 611.69,-486.712 611.69,-478.112"/>
<polygon fill="black" stroke="black" points="615.19,-478.104 611.69,-468.104 608.19,-478.104 615.19,-478.104"/>
</a>
</g>
</g>
<!-- latlon_sparse&#45;&gt;latlon_eastern -->
<g id="edge28" class="edge"><title>latlon_sparse&#45;&gt;latlon_eastern</title>
<g id="a_edge28"><a xlink:title="test">
<path fill="none" stroke="black" d="M702.646,-290.496C680.823,-279.961 651.076,-265.6 627.31,-254.127"/>
<polygon fill="black" stroke="black" points="628.721,-250.922 618.194,-249.726 625.678,-257.226 628.721,-250.922"/>
</a>
</g>
</g>
<!-- cucurbit_points -->
<g id="cucurbit_points" class="node"><title>cucurbit_points</title>
<g id="a_cucurbit_points"><a xlink:href="javascript:void();" xlink:title="cucurbit_points">
<ellipse fill="none" stroke="black" cx="414.69" cy="-378" rx="65.7887" ry="18"/>
<text text-anchor="middle" x="414.69" y="-374.3" font-family="Times,serif" font-size="14.00">cucurbit_points</text>
</a>
</g>
</g>
<!-- cucurbit_points&#45;&gt;cucurbit_distanceNA_raster -->
<g id="edge29" class="edge"><title>cucurbit_points&#45;&gt;cucurbit_distanceNA_raster</title>
<g id="a_edge29"><a xlink:title="test">
<path fill="none" stroke="black" d="M408.88,-360.055C406.179,-352.176 402.901,-342.617 399.876,-333.794"/>
<polygon fill="black" stroke="black" points="403.167,-332.6 396.613,-324.275 396.545,-334.87 403.167,-332.6"/>
</a>
</g>
</g>
</g>
</svg>
