<?xml version="1.0" encoding="UTF-8" standalone="no"?>
<!DOCTYPE svg PUBLIC "-//W3C//DTD SVG 1.1//EN"
 "http://www.w3.org/Graphics/SVG/1.1/DTD/svg11.dtd">
<!-- Generated by graphviz version 2.38.0 (20140413.2041)
 -->
<!-- Title: %3 Pages: 1 -->
<svg width="1128pt" height="548pt"
 viewBox="0.00 0.00 1127.88 548.00" xmlns="http://www.w3.org/2000/svg" xmlns:xlink="http://www.w3.org/1999/xlink">
<g id="graph0" class="graph" transform="scale(1 1) rotate(0) translate(4 544)">
<title>%3</title>
<polygon fill="white" stroke="none" points="-4,4 -4,-544 1123.88,-544 1123.88,4 -4,4"/>
<!-- future_predictors_2050_rcp26 -->
<g id="future_predictors_2050_rcp26" class="node"><title>future_predictors_2050_rcp26</title>
<g id="a_future_predictors_2050_rcp26"><a xlink:href="javascript:void();" xlink:title="future_predictors_2050_rcp26">
<ellipse fill="none" stroke="black" cx="138.836" cy="-162" rx="117.779" ry="18"/>
<text text-anchor="middle" x="138.836" y="-158.3" font-family="Times,serif" font-size="14.00">future_predictors_2050_rcp26</text>
</a>
</g>
</g>
<!-- dist_2050_rcp26_eastern_nosquash_nosoil -->
<g id="dist_2050_rcp26_eastern_nosquash_nosoil" class="node"><title>dist_2050_rcp26_eastern_nosquash_nosoil</title>
<g id="a_dist_2050_rcp26_eastern_nosquash_nosoil"><a xlink:href="javascript:void();" xlink:title="dist_2050_rcp26_eastern_nosquash_nosoil">
<ellipse fill="none" stroke="black" cx="161.836" cy="-18" rx="161.671" ry="18"/>
<text text-anchor="middle" x="161.836" y="-14.3" font-family="Times,serif" font-size="14.00">dist_2050_rcp26_eastern_nosquash_nosoil</text>
</a>
</g>
</g>
<!-- future_predictors_2050_rcp26&#45;&gt;dist_2050_rcp26_eastern_nosquash_nosoil -->
<g id="edge1" class="edge"><title>future_predictors_2050_rcp26&#45;&gt;dist_2050_rcp26_eastern_nosquash_nosoil</title>
<g id="a_edge1"><a xlink:title="test">
<path fill="none" stroke="black" d="M141.61,-143.871C145.53,-119.67 152.731,-75.2108 157.399,-46.3932"/>
<polygon fill="black" stroke="black" points="160.907,-46.6203 159.051,-36.1893 153.998,-45.501 160.907,-46.6203"/>
</a>
</g>
</g>
<!-- bc_model_eastern_nosquash_nosoil -->
<g id="bc_model_eastern_nosquash_nosoil" class="node"><title>bc_model_eastern_nosquash_nosoil</title>
<g id="a_bc_model_eastern_nosquash_nosoil"><a xlink:href="javascript:void();" xlink:title="bc_model_eastern_nosquash_nosoil">
<ellipse fill="none" stroke="black" cx="300.836" cy="-90" rx="137.576" ry="18"/>
<text text-anchor="middle" x="300.836" y="-86.3" font-family="Times,serif" font-size="14.00">bc_model_eastern_nosquash_nosoil</text>
</a>
</g>
</g>
<!-- bc_model_eastern_nosquash_nosoil&#45;&gt;dist_2050_rcp26_eastern_nosquash_nosoil -->
<g id="edge2" class="edge"><title>bc_model_eastern_nosquash_nosoil&#45;&gt;dist_2050_rcp26_eastern_nosquash_nosoil</title>
<g id="a_edge2"><a xlink:title="test">
<path fill="none" stroke="black" d="M267.895,-72.411C248.819,-62.8045 224.607,-50.6112 204.133,-40.3011"/>
<polygon fill="black" stroke="black" points="205.528,-37.0844 195.022,-35.7125 202.379,-43.3364 205.528,-37.0844"/>
</a>
</g>
</g>
<!-- dist_eastern_nosquash_nosoil -->
<g id="dist_eastern_nosquash_nosoil" class="node"><title>dist_eastern_nosquash_nosoil</title>
<g id="a_dist_eastern_nosquash_nosoil"><a xlink:href="javascript:void();" xlink:title="dist_eastern_nosquash_nosoil">
<ellipse fill="none" stroke="black" cx="471.836" cy="-18" rx="115.88" ry="18"/>
<text text-anchor="middle" x="471.836" y="-14.3" font-family="Times,serif" font-size="14.00">dist_eastern_nosquash_nosoil</text>
</a>
</g>
</g>
<!-- bc_model_eastern_nosquash_nosoil&#45;&gt;dist_eastern_nosquash_nosoil -->
<g id="edge3" class="edge"><title>bc_model_eastern_nosquash_nosoil&#45;&gt;dist_eastern_nosquash_nosoil</title>
<g id="a_edge3"><a xlink:title="test">
<path fill="none" stroke="black" d="M340.928,-72.5881C365.545,-62.5109 397.237,-49.5375 423.272,-38.8798"/>
<polygon fill="black" stroke="black" points="424.656,-42.0953 432.585,-35.0676 422.004,-35.617 424.656,-42.0953"/>
</a>
</g>
</g>
<!-- latlon -->
<g id="latlon" class="node"><title>latlon</title>
<g id="a_latlon"><a xlink:href="javascript:void();" xlink:title="latlon">
<ellipse fill="none" stroke="black" cx="400.836" cy="-378" rx="30.5947" ry="18"/>
<text text-anchor="middle" x="400.836" y="-374.3" font-family="Times,serif" font-size="14.00">latlon</text>
</a>
</g>
</g>
<!-- latlon_sparse -->
<g id="latlon_sparse" class="node"><title>latlon_sparse</title>
<g id="a_latlon_sparse"><a xlink:href="javascript:void();" xlink:title="latlon_sparse">
<ellipse fill="none" stroke="black" cx="400.836" cy="-306" rx="57.3905" ry="18"/>
<text text-anchor="middle" x="400.836" y="-302.3" font-family="Times,serif" font-size="14.00">latlon_sparse</text>
</a>
</g>
</g>
<!-- latlon&#45;&gt;latlon_sparse -->
<g id="edge4" class="edge"><title>latlon&#45;&gt;latlon_sparse</title>
<g id="a_edge4"><a xlink:title="test">
<path fill="none" stroke="black" d="M400.836,-359.697C400.836,-351.983 400.836,-342.712 400.836,-334.112"/>
<polygon fill="black" stroke="black" points="404.336,-334.104 400.836,-324.104 397.336,-334.104 404.336,-334.104"/>
</a>
</g>
</g>
<!-- cucurbit_distanceNA_raster -->
<g id="cucurbit_distanceNA_raster" class="node"><title>cucurbit_distanceNA_raster</title>
<g id="a_cucurbit_distanceNA_raster"><a xlink:href="javascript:void();" xlink:title="cucurbit_distanceNA_raster">
<ellipse fill="none" stroke="black" cx="760.836" cy="-306" rx="109.381" ry="18"/>
<text text-anchor="middle" x="760.836" y="-302.3" font-family="Times,serif" font-size="14.00">cucurbit_distanceNA_raster</text>
</a>
</g>
</g>
<!-- predictors -->
<g id="predictors" class="node"><title>predictors</title>
<g id="a_predictors"><a xlink:href="javascript:void();" xlink:title="predictors">
<ellipse fill="none" stroke="black" cx="897.836" cy="-234" rx="46.2923" ry="18"/>
<text text-anchor="middle" x="897.836" y="-230.3" font-family="Times,serif" font-size="14.00">predictors</text>
</a>
</g>
</g>
<!-- cucurbit_distanceNA_raster&#45;&gt;predictors -->
<g id="edge5" class="edge"><title>cucurbit_distanceNA_raster&#45;&gt;predictors</title>
<g id="a_edge5"><a xlink:title="test">
<path fill="none" stroke="black" d="M792.611,-288.765C813.267,-278.21 840.25,-264.423 861.72,-253.453"/>
<polygon fill="black" stroke="black" points="863.538,-256.455 870.851,-248.788 860.353,-250.221 863.538,-256.455"/>
</a>
</g>
</g>
<!-- dist_eastern_nosoil -->
<g id="dist_eastern_nosoil" class="node"><title>dist_eastern_nosoil</title>
<g id="a_dist_eastern_nosoil"><a xlink:href="javascript:void();" xlink:title="dist_eastern_nosoil">
<ellipse fill="none" stroke="black" cx="945.836" cy="-18" rx="78.7863" ry="18"/>
<text text-anchor="middle" x="945.836" y="-14.3" font-family="Times,serif" font-size="14.00">dist_eastern_nosoil</text>
</a>
</g>
</g>
<!-- dist_eastern_nosquash -->
<g id="dist_eastern_nosquash" class="node"><title>dist_eastern_nosquash</title>
<g id="a_dist_eastern_nosquash"><a xlink:href="javascript:void();" xlink:title="dist_eastern_nosquash">
<ellipse fill="none" stroke="black" cx="701.836" cy="-18" rx="89.8845" ry="18"/>
<text text-anchor="middle" x="701.836" y="-14.3" font-family="Times,serif" font-size="14.00">dist_eastern_nosquash</text>
</a>
</g>
</g>
<!-- ext -->
<g id="ext" class="node"><title>ext</title>
<g id="a_ext"><a xlink:href="javascript:void();" xlink:title="ext">
<ellipse fill="none" stroke="black" cx="834.836" cy="-450" rx="27" ry="18"/>
<text text-anchor="middle" x="834.836" y="-446.3" font-family="Times,serif" font-size="14.00">ext</text>
</a>
</g>
</g>
<!-- hwsdNA_raster -->
<g id="hwsdNA_raster" class="node"><title>hwsdNA_raster</title>
<g id="a_hwsdNA_raster"><a xlink:href="javascript:void();" xlink:title="hwsdNA_raster">
<ellipse fill="none" stroke="black" cx="991.836" cy="-306" rx="65.7887" ry="18"/>
<text text-anchor="middle" x="991.836" y="-302.3" font-family="Times,serif" font-size="14.00">hwsdNA_raster</text>
</a>
</g>
</g>
<!-- ext&#45;&gt;hwsdNA_raster -->
<g id="edge8" class="edge"><title>ext&#45;&gt;hwsdNA_raster</title>
<g id="a_edge8"><a xlink:title="test">
<path fill="none" stroke="black" d="M855.996,-438.569C860.831,-436.308 865.978,-433.998 870.836,-432 915.295,-413.712 941.103,-432.113 972.836,-396 987.619,-379.176 991.856,-353.696 992.694,-334.305"/>
<polygon fill="black" stroke="black" points="996.194,-334.306 992.855,-324.251 989.195,-334.194 996.194,-334.306"/>
</a>
</g>
</g>
<!-- worldclim_2050_rcp26_NA -->
<g id="worldclim_2050_rcp26_NA" class="node"><title>worldclim_2050_rcp26_NA</title>
<g id="a_worldclim_2050_rcp26_NA"><a xlink:href="javascript:void();" xlink:title="worldclim_2050_rcp26_NA">
<ellipse fill="none" stroke="black" cx="223.836" cy="-378" rx="110.48" ry="18"/>
<text text-anchor="middle" x="223.836" y="-374.3" font-family="Times,serif" font-size="14.00">worldclim_2050_rcp26_NA</text>
</a>
</g>
</g>
<!-- ext&#45;&gt;worldclim_2050_rcp26_NA -->
<g id="edge6" class="edge"><title>ext&#45;&gt;worldclim_2050_rcp26_NA</title>
<g id="a_edge6"><a xlink:title="test">
<path fill="none" stroke="black" d="M808.357,-446.153C736.407,-438.392 531.267,-416.102 360.836,-396 347.141,-394.385 332.682,-392.637 318.494,-390.898"/>
<polygon fill="black" stroke="black" points="318.578,-387.382 308.226,-389.635 317.723,-394.329 318.578,-387.382"/>
</a>
</g>
</g>
<!-- bioclimNA_raster -->
<g id="bioclimNA_raster" class="node"><title>bioclimNA_raster</title>
<g id="a_bioclimNA_raster"><a xlink:href="javascript:void();" xlink:title="bioclimNA_raster">
<ellipse fill="none" stroke="black" cx="888.836" cy="-378" rx="74.9875" ry="18"/>
<text text-anchor="middle" x="888.836" y="-374.3" font-family="Times,serif" font-size="14.00">bioclimNA_raster</text>
</a>
</g>
</g>
<!-- ext&#45;&gt;bioclimNA_raster -->
<g id="edge7" class="edge"><title>ext&#45;&gt;bioclimNA_raster</title>
<g id="a_edge7"><a xlink:title="test">
<path fill="none" stroke="black" d="M846.82,-433.465C853.52,-424.78 862.028,-413.75 869.634,-403.891"/>
<polygon fill="black" stroke="black" points="872.414,-406.017 875.751,-395.962 866.872,-401.742 872.414,-406.017"/>
</a>
</g>
</g>
<!-- latlon_bison -->
<g id="latlon_bison" class="node"><title>latlon_bison</title>
<g id="a_latlon_bison"><a xlink:href="javascript:void();" xlink:title="latlon_bison">
<ellipse fill="none" stroke="black" cx="396.836" cy="-450" rx="53.8905" ry="18"/>
<text text-anchor="middle" x="396.836" y="-446.3" font-family="Times,serif" font-size="14.00">latlon_bison</text>
</a>
</g>
</g>
<!-- latlon_bison&#45;&gt;latlon -->
<g id="edge9" class="edge"><title>latlon_bison&#45;&gt;latlon</title>
<g id="a_edge9"><a xlink:title="test">
<path fill="none" stroke="black" d="M397.824,-431.697C398.265,-423.983 398.795,-414.712 399.286,-406.112"/>
<polygon fill="black" stroke="black" points="402.782,-406.288 399.858,-396.104 395.793,-405.888 402.782,-406.288"/>
</a>
</g>
</g>
<!-- eastern_boundaries -->
<g id="eastern_boundaries" class="node"><title>eastern_boundaries</title>
<g id="a_eastern_boundaries"><a xlink:href="javascript:void();" xlink:title="eastern_boundaries">
<ellipse fill="none" stroke="black" cx="554.836" cy="-306" rx="78.7863" ry="18"/>
<text text-anchor="middle" x="554.836" y="-302.3" font-family="Times,serif" font-size="14.00">eastern_boundaries</text>
</a>
</g>
</g>
<!-- latlon_eastern -->
<g id="latlon_eastern" class="node"><title>latlon_eastern</title>
<g id="a_latlon_eastern"><a xlink:href="javascript:void();" xlink:title="latlon_eastern">
<ellipse fill="none" stroke="black" cx="554.836" cy="-234" rx="59.5901" ry="18"/>
<text text-anchor="middle" x="554.836" y="-230.3" font-family="Times,serif" font-size="14.00">latlon_eastern</text>
</a>
</g>
</g>
<!-- eastern_boundaries&#45;&gt;latlon_eastern -->
<g id="edge10" class="edge"><title>eastern_boundaries&#45;&gt;latlon_eastern</title>
<g id="a_edge10"><a xlink:title="test">
<path fill="none" stroke="black" d="M554.836,-287.697C554.836,-279.983 554.836,-270.712 554.836,-262.112"/>
<polygon fill="black" stroke="black" points="558.336,-262.104 554.836,-252.104 551.336,-262.104 558.336,-262.104"/>
</a>
</g>
</g>
<!-- hwsdNA_raster&#45;&gt;predictors -->
<g id="edge11" class="edge"><title>hwsdNA_raster&#45;&gt;predictors</title>
<g id="a_edge11"><a xlink:title="test">
<path fill="none" stroke="black" d="M970.034,-288.765C957.099,-279.132 940.548,-266.807 926.558,-256.389"/>
<polygon fill="black" stroke="black" points="928.343,-253.355 918.232,-250.189 924.162,-258.969 928.343,-253.355"/>
</a>
</g>
</g>
<!-- worldclim_2050_rcp26 -->
<g id="worldclim_2050_rcp26" class="node"><title>worldclim_2050_rcp26</title>
<g id="a_worldclim_2050_rcp26"><a xlink:href="javascript:void();" xlink:title="worldclim_2050_rcp26">
<ellipse fill="none" stroke="black" cx="223.836" cy="-450" rx="93.6835" ry="18"/>
<text text-anchor="middle" x="223.836" y="-446.3" font-family="Times,serif" font-size="14.00">worldclim_2050_rcp26</text>
</a>
</g>
</g>
<!-- worldclim_2050_rcp26&#45;&gt;worldclim_2050_rcp26_NA -->
<g id="edge12" class="edge"><title>worldclim_2050_rcp26&#45;&gt;worldclim_2050_rcp26_NA</title>
<g id="a_edge12"><a xlink:title="test">
<path fill="none" stroke="black" d="M223.836,-431.697C223.836,-423.983 223.836,-414.712 223.836,-406.112"/>
<polygon fill="black" stroke="black" points="227.336,-406.104 223.836,-396.104 220.336,-406.104 227.336,-406.104"/>
</a>
</g>
</g>
<!-- cucurbit_points -->
<g id="cucurbit_points" class="node"><title>cucurbit_points</title>
<g id="a_cucurbit_points"><a xlink:href="javascript:void();" xlink:title="cucurbit_points">
<ellipse fill="none" stroke="black" cx="730.836" cy="-378" rx="65.7887" ry="18"/>
<text text-anchor="middle" x="730.836" y="-374.3" font-family="Times,serif" font-size="14.00">cucurbit_points</text>
</a>
</g>
</g>
<!-- cucurbit_points&#45;&gt;cucurbit_distanceNA_raster -->
<g id="edge13" class="edge"><title>cucurbit_points&#45;&gt;cucurbit_distanceNA_raster</title>
<g id="a_edge13"><a xlink:title="test">
<path fill="none" stroke="black" d="M738.098,-360.055C741.511,-352.091 745.66,-342.411 749.474,-333.51"/>
<polygon fill="black" stroke="black" points="752.71,-334.845 753.432,-324.275 746.276,-332.088 752.71,-334.845"/>
</a>
</g>
</g>
<!-- bioclim_raster -->
<g id="bioclim_raster" class="node"><title>bioclim_raster</title>
<g id="a_bioclim_raster"><a xlink:href="javascript:void();" xlink:title="bioclim_raster">
<ellipse fill="none" stroke="black" cx="941.836" cy="-450" rx="61.99" ry="18"/>
<text text-anchor="middle" x="941.836" y="-446.3" font-family="Times,serif" font-size="14.00">bioclim_raster</text>
</a>
</g>
</g>
<!-- bioclim_raster&#45;&gt;bioclimNA_raster -->
<g id="edge14" class="edge"><title>bioclim_raster&#45;&gt;bioclimNA_raster</title>
<g id="a_edge14"><a xlink:title="test">
<path fill="none" stroke="black" d="M929.006,-432.055C922.626,-423.629 914.79,-413.28 907.739,-403.966"/>
<polygon fill="black" stroke="black" points="910.374,-401.649 901.547,-395.789 904.793,-405.874 910.374,-401.649"/>
</a>
</g>
</g>
<!-- worldclim_2050_rcp26_NA&#45;&gt;future_predictors_2050_rcp26 -->
<g id="edge15" class="edge"><title>worldclim_2050_rcp26_NA&#45;&gt;future_predictors_2050_rcp26</title>
<g id="a_edge15"><a xlink:title="test">
<path fill="none" stroke="black" d="M217.023,-359.849C202.227,-322.597 167.063,-234.067 149.377,-189.539"/>
<polygon fill="black" stroke="black" points="152.625,-188.234 145.68,-180.232 146.119,-190.818 152.625,-188.234"/>
</a>
</g>
</g>
<!-- bc_model_eastern_nosquash -->
<g id="bc_model_eastern_nosquash" class="node"><title>bc_model_eastern_nosquash</title>
<g id="a_bc_model_eastern_nosquash"><a xlink:href="javascript:void();" xlink:title="bc_model_eastern_nosquash">
<ellipse fill="none" stroke="black" cx="568.836" cy="-90" rx="112.38" ry="18"/>
<text text-anchor="middle" x="568.836" y="-86.3" font-family="Times,serif" font-size="14.00">bc_model_eastern_nosquash</text>
</a>
</g>
</g>
<!-- bc_model_eastern_nosquash&#45;&gt;dist_eastern_nosquash -->
<g id="edge16" class="edge"><title>bc_model_eastern_nosquash&#45;&gt;dist_eastern_nosquash</title>
<g id="a_edge16"><a xlink:title="test">
<path fill="none" stroke="black" d="M600.018,-72.5881C618.661,-62.7761 642.521,-50.2183 662.456,-39.7259"/>
<polygon fill="black" stroke="black" points="664.088,-42.8224 671.307,-35.0676 660.828,-36.6279 664.088,-42.8224"/>
</a>
</g>
</g>
<!-- latlon_sparse&#45;&gt;latlon_eastern -->
<g id="edge17" class="edge"><title>latlon_sparse&#45;&gt;latlon_eastern</title>
<g id="a_edge17"><a xlink:title="test">
<path fill="none" stroke="black" d="M432,-290.834C455.639,-280.089 488.341,-265.225 514.06,-253.535"/>
<polygon fill="black" stroke="black" points="515.534,-256.709 523.189,-249.385 512.637,-250.337 515.534,-256.709"/>
</a>
</g>
</g>
<!-- latlon_gbif -->
<g id="latlon_gbif" class="node"><title>latlon_gbif</title>
<g id="a_latlon_gbif"><a xlink:href="javascript:void();" xlink:title="latlon_gbif">
<ellipse fill="none" stroke="black" cx="517.836" cy="-450" rx="49.2915" ry="18"/>
<text text-anchor="middle" x="517.836" y="-446.3" font-family="Times,serif" font-size="14.00">latlon_gbif</text>
</a>
</g>
</g>
<!-- latlon_gbif&#45;&gt;latlon -->
<g id="edge18" class="edge"><title>latlon_gbif&#45;&gt;latlon</title>
<g id="a_edge18"><a xlink:title="test">
<path fill="none" stroke="black" d="M493.309,-434.326C474.913,-423.32 449.66,-408.211 430.19,-396.563"/>
<polygon fill="black" stroke="black" points="431.804,-393.45 421.426,-391.319 428.21,-399.457 431.804,-393.45"/>
</a>
</g>
</g>
<!-- future_predictors_2070_rcp26 -->
<g id="future_predictors_2070_rcp26" class="node"><title>future_predictors_2070_rcp26</title>
<g id="a_future_predictors_2070_rcp26"><a xlink:href="javascript:void();" xlink:title="future_predictors_2070_rcp26">
<ellipse fill="none" stroke="black" cx="697.836" cy="-522" rx="117.779" ry="18"/>
<text text-anchor="middle" x="697.836" y="-518.3" font-family="Times,serif" font-size="14.00">future_predictors_2070_rcp26</text>
</a>
</g>
</g>
<!-- bc_model_eastern_nosoil -->
<g id="bc_model_eastern_nosoil" class="node"><title>bc_model_eastern_nosoil</title>
<g id="a_bc_model_eastern_nosoil"><a xlink:href="javascript:void();" xlink:title="bc_model_eastern_nosoil">
<ellipse fill="none" stroke="black" cx="837.836" cy="-90" rx="100.983" ry="18"/>
<text text-anchor="middle" x="837.836" y="-86.3" font-family="Times,serif" font-size="14.00">bc_model_eastern_nosoil</text>
</a>
</g>
</g>
<!-- bc_model_eastern_nosoil&#45;&gt;dist_eastern_nosoil -->
<g id="edge19" class="edge"><title>bc_model_eastern_nosoil&#45;&gt;dist_eastern_nosoil</title>
<g id="a_edge19"><a xlink:title="test">
<path fill="none" stroke="black" d="M863.43,-72.411C878.061,-62.9277 896.582,-50.9235 912.358,-40.6986"/>
<polygon fill="black" stroke="black" points="914.31,-43.6045 920.797,-35.2285 910.502,-37.7304 914.31,-43.6045"/>
</a>
</g>
</g>
<!-- bison_data -->
<g id="bison_data" class="node"><title>bison_data</title>
<g id="a_bison_data"><a xlink:href="javascript:void();" xlink:title="bison_data">
<ellipse fill="none" stroke="black" cx="396.836" cy="-522" rx="48.9926" ry="18"/>
<text text-anchor="middle" x="396.836" y="-518.3" font-family="Times,serif" font-size="14.00">bison_data</text>
</a>
</g>
</g>
<!-- bison_data&#45;&gt;latlon_bison -->
<g id="edge20" class="edge"><title>bison_data&#45;&gt;latlon_bison</title>
<g id="a_edge20"><a xlink:title="test">
<path fill="none" stroke="black" d="M396.836,-503.697C396.836,-495.983 396.836,-486.712 396.836,-478.112"/>
<polygon fill="black" stroke="black" points="400.336,-478.104 396.836,-468.104 393.336,-478.104 400.336,-478.104"/>
</a>
</g>
</g>
<!-- hwsdNAsp -->
<g id="hwsdNAsp" class="node"><title>hwsdNAsp</title>
<g id="a_hwsdNAsp"><a xlink:href="javascript:void();" xlink:title="hwsdNAsp">
<ellipse fill="none" stroke="black" cx="1069.84" cy="-378" rx="50.0912" ry="18"/>
<text text-anchor="middle" x="1069.84" y="-374.3" font-family="Times,serif" font-size="14.00">hwsdNAsp</text>
</a>
</g>
</g>
<!-- hwsdNAsp&#45;&gt;hwsdNA_raster -->
<g id="edge21" class="edge"><title>hwsdNAsp&#45;&gt;hwsdNA_raster</title>
<g id="a_edge21"><a xlink:title="test">
<path fill="none" stroke="black" d="M1052.14,-361.116C1041.91,-351.939 1028.87,-340.233 1017.53,-330.057"/>
<polygon fill="black" stroke="black" points="1019.79,-327.381 1010.01,-323.307 1015.11,-332.591 1019.79,-327.381"/>
</a>
</g>
</g>
<!-- latlon_eastern_vals -->
<g id="latlon_eastern_vals" class="node"><title>latlon_eastern_vals</title>
<g id="a_latlon_eastern_vals"><a xlink:href="javascript:void();" xlink:title="latlon_eastern_vals">
<ellipse fill="none" stroke="black" cx="568.836" cy="-162" rx="78.7863" ry="18"/>
<text text-anchor="middle" x="568.836" y="-158.3" font-family="Times,serif" font-size="14.00">latlon_eastern_vals</text>
</a>
</g>
</g>
<!-- latlon_eastern&#45;&gt;latlon_eastern_vals -->
<g id="edge22" class="edge"><title>latlon_eastern&#45;&gt;latlon_eastern_vals</title>
<g id="a_edge22"><a xlink:title="test">
<path fill="none" stroke="black" d="M558.296,-215.697C559.839,-207.983 561.693,-198.712 563.413,-190.112"/>
<polygon fill="black" stroke="black" points="566.886,-190.597 565.415,-180.104 560.022,-189.224 566.886,-190.597"/>
</a>
</g>
</g>
<!-- latlon_eastern_vals&#45;&gt;bc_model_eastern_nosquash_nosoil -->
<g id="edge24" class="edge"><title>latlon_eastern_vals&#45;&gt;bc_model_eastern_nosquash_nosoil</title>
<g id="a_edge24"><a xlink:title="test">
<path fill="none" stroke="black" d="M519.055,-147.998C476.941,-136.998 416.163,-121.123 369.439,-108.919"/>
<polygon fill="black" stroke="black" points="370.253,-105.514 359.693,-106.373 368.484,-112.287 370.253,-105.514"/>
</a>
</g>
</g>
<!-- latlon_eastern_vals&#45;&gt;bc_model_eastern_nosquash -->
<g id="edge23" class="edge"><title>latlon_eastern_vals&#45;&gt;bc_model_eastern_nosquash</title>
<g id="a_edge23"><a xlink:title="test">
<path fill="none" stroke="black" d="M568.836,-143.697C568.836,-135.983 568.836,-126.712 568.836,-118.112"/>
<polygon fill="black" stroke="black" points="572.336,-118.104 568.836,-108.104 565.336,-118.104 572.336,-118.104"/>
</a>
</g>
</g>
<!-- latlon_eastern_vals&#45;&gt;bc_model_eastern_nosoil -->
<g id="edge25" class="edge"><title>latlon_eastern_vals&#45;&gt;bc_model_eastern_nosoil</title>
<g id="a_edge25"><a xlink:title="test">
<path fill="none" stroke="black" d="M618.802,-147.998C662.35,-136.665 725.78,-120.159 773.186,-107.823"/>
<polygon fill="black" stroke="black" points="774.25,-111.163 783.046,-105.258 772.487,-104.389 774.25,-111.163"/>
</a>
</g>
</g>
<!-- predictors&#45;&gt;dist_eastern_nosoil -->
<g id="edge27" class="edge"><title>predictors&#45;&gt;dist_eastern_nosoil</title>
<g id="a_edge27"><a xlink:title="test">
<path fill="none" stroke="black" d="M930.601,-221.287C948.919,-212.855 970.155,-199.492 980.836,-180 1003.9,-137.905 994.645,-117.971 980.836,-72 977.869,-62.1243 972.399,-52.3913 966.651,-44.0146"/>
<polygon fill="black" stroke="black" points="969.387,-41.8258 960.654,-35.8271 963.74,-45.9625 969.387,-41.8258"/>
</a>
</g>
</g>
<!-- predictors&#45;&gt;dist_eastern_nosquash -->
<g id="edge28" class="edge"><title>predictors&#45;&gt;dist_eastern_nosquash</title>
<g id="a_edge28"><a xlink:title="test">
<path fill="none" stroke="black" d="M869.558,-219.65C831.667,-200.323 764.903,-160.979 727.836,-108 714.97,-89.6121 708.407,-64.8567 705.096,-46.1224"/>
<polygon fill="black" stroke="black" points="708.54,-45.4867 703.537,-36.1475 701.624,-46.5683 708.54,-45.4867"/>
</a>
</g>
</g>
<!-- predictors&#45;&gt;dist_eastern_nosquash_nosoil -->
<g id="edge29" class="edge"><title>predictors&#45;&gt;dist_eastern_nosquash_nosoil</title>
<g id="a_edge29"><a xlink:title="test">
<path fill="none" stroke="black" d="M911.902,-216.666C937.532,-184.891 985.845,-114.182 947.836,-72 922.036,-43.3678 641.116,-40.4803 602.836,-36 591.18,-34.6358 578.949,-33.1377 566.84,-31.6137"/>
<polygon fill="black" stroke="black" points="567.072,-28.1153 556.711,-30.3299 566.192,-35.0597 567.072,-28.1153"/>
</a>
</g>
</g>
<!-- predictors&#45;&gt;latlon_eastern_vals -->
<g id="edge26" class="edge"><title>predictors&#45;&gt;latlon_eastern_vals</title>
<g id="a_edge26"><a xlink:title="test">
<path fill="none" stroke="black" d="M858.151,-224.556C802.636,-212.745 701.113,-191.144 634.304,-176.93"/>
<polygon fill="black" stroke="black" points="634.81,-173.459 624.301,-174.801 633.353,-180.306 634.81,-173.459"/>
</a>
</g>
</g>
<!-- bioclimNA_raster&#45;&gt;cucurbit_distanceNA_raster -->
<g id="edge32" class="edge"><title>bioclimNA_raster&#45;&gt;cucurbit_distanceNA_raster</title>
<g id="a_edge32"><a xlink:title="test">
<path fill="none" stroke="black" d="M860.11,-361.291C842.293,-351.547 819.173,-338.903 799.727,-328.269"/>
<polygon fill="black" stroke="black" points="801.254,-325.114 790.8,-323.387 797.895,-331.256 801.254,-325.114"/>
</a>
</g>
</g>
<!-- bioclimNA_raster&#45;&gt;hwsdNA_raster -->
<g id="edge31" class="edge"><title>bioclimNA_raster&#45;&gt;hwsdNA_raster</title>
<g id="a_edge31"><a xlink:title="test">
<path fill="none" stroke="black" d="M912.725,-360.765C926.734,-351.244 944.613,-339.093 959.829,-328.752"/>
<polygon fill="black" stroke="black" points="962.128,-331.422 968.431,-322.906 958.193,-325.632 962.128,-331.422"/>
</a>
</g>
</g>
<!-- bioclimNA_raster&#45;&gt;predictors -->
<g id="edge30" class="edge"><title>bioclimNA_raster&#45;&gt;predictors</title>
<g id="a_edge30"><a xlink:title="test">
<path fill="none" stroke="black" d="M889.921,-359.871C891.455,-335.67 894.273,-291.211 896.099,-262.393"/>
<polygon fill="black" stroke="black" points="899.607,-262.391 896.746,-252.189 892.621,-261.948 899.607,-262.391"/>
</a>
</g>
</g>
<!-- gbif_data -->
<g id="gbif_data" class="node"><title>gbif_data</title>
<g id="a_gbif_data"><a xlink:href="javascript:void();" xlink:title="gbif_data">
<ellipse fill="none" stroke="black" cx="517.836" cy="-522" rx="44.393" ry="18"/>
<text text-anchor="middle" x="517.836" y="-518.3" font-family="Times,serif" font-size="14.00">gbif_data</text>
</a>
</g>
</g>
<!-- gbif_data&#45;&gt;latlon_gbif -->
<g id="edge33" class="edge"><title>gbif_data&#45;&gt;latlon_gbif</title>
<g id="a_edge33"><a xlink:title="test">
<path fill="none" stroke="black" d="M517.836,-503.697C517.836,-495.983 517.836,-486.712 517.836,-478.112"/>
<polygon fill="black" stroke="black" points="521.336,-478.104 517.836,-468.104 514.336,-478.104 521.336,-478.104"/>
</a>
</g>
</g>
</g>
</svg>
