<?xml version="1.0" encoding="UTF-8" standalone="no"?>
<!DOCTYPE svg PUBLIC "-//W3C//DTD SVG 1.1//EN"
 "http://www.w3.org/Graphics/SVG/1.1/DTD/svg11.dtd">
<!-- Generated by graphviz version 2.38.0 (20140413.2041)
 -->
<!-- Title: %3 Pages: 1 -->
<svg width="709pt" height="332pt"
 viewBox="0.00 0.00 709.03 332.00" xmlns="http://www.w3.org/2000/svg" xmlns:xlink="http://www.w3.org/1999/xlink">
<g id="graph0" class="graph" transform="scale(1 1) rotate(0) translate(4 328)">
<title>%3</title>
<polygon fill="white" stroke="none" points="-4,4 -4,-328 705.031,-328 705.031,4 -4,4"/>
<!-- worldclim_2050_rcp26 -->
<g id="worldclim_2050_rcp26" class="node"><title>worldclim_2050_rcp26</title>
<g id="a_worldclim_2050_rcp26"><a xlink:href="javascript:void();" xlink:title="worldclim_2050_rcp26">
<ellipse fill="none" stroke="black" cx="93.5917" cy="-234" rx="93.6835" ry="18"/>
<text text-anchor="middle" x="93.5917" y="-230.3" font-family="Times,serif" font-size="14.00">worldclim_2050_rcp26</text>
</a>
</g>
</g>
<!-- worldclim_2050_rcp26_NA -->
<g id="worldclim_2050_rcp26_NA" class="node"><title>worldclim_2050_rcp26_NA</title>
<g id="a_worldclim_2050_rcp26_NA"><a xlink:href="javascript:void();" xlink:title="worldclim_2050_rcp26_NA">
<ellipse fill="none" stroke="black" cx="172.592" cy="-162" rx="110.48" ry="18"/>
<text text-anchor="middle" x="172.592" y="-158.3" font-family="Times,serif" font-size="14.00">worldclim_2050_rcp26_NA</text>
</a>
</g>
</g>
<!-- worldclim_2050_rcp26&#45;&gt;worldclim_2050_rcp26_NA -->
<g id="edge1" class="edge"><title>worldclim_2050_rcp26&#45;&gt;worldclim_2050_rcp26_NA</title>
<g id="a_edge1"><a xlink:title="test">
<path fill="none" stroke="black" d="M112.715,-216.055C122.71,-207.199 135.102,-196.219 146.015,-186.549"/>
<polygon fill="black" stroke="black" points="148.481,-189.04 153.644,-179.789 143.838,-183.801 148.481,-189.04"/>
</a>
</g>
</g>
<!-- future_predictors_2050_rcp26 -->
<g id="future_predictors_2050_rcp26" class="node"><title>future_predictors_2050_rcp26</title>
<g id="a_future_predictors_2050_rcp26"><a xlink:href="javascript:void();" xlink:title="future_predictors_2050_rcp26">
<ellipse fill="none" stroke="black" cx="366.592" cy="-90" rx="117.779" ry="18"/>
<text text-anchor="middle" x="366.592" y="-86.3" font-family="Times,serif" font-size="14.00">future_predictors_2050_rcp26</text>
</a>
</g>
</g>
<!-- dist_2050_rcp26_eastern_nosquash_nosoil -->
<g id="dist_2050_rcp26_eastern_nosquash_nosoil" class="node"><title>dist_2050_rcp26_eastern_nosquash_nosoil</title>
<g id="a_dist_2050_rcp26_eastern_nosquash_nosoil"><a xlink:href="javascript:void();" xlink:title="dist_2050_rcp26_eastern_nosquash_nosoil">
<ellipse fill="none" stroke="black" cx="454.592" cy="-18" rx="161.671" ry="18"/>
<text text-anchor="middle" x="454.592" y="-14.3" font-family="Times,serif" font-size="14.00">dist_2050_rcp26_eastern_nosquash_nosoil</text>
</a>
</g>
</g>
<!-- future_predictors_2050_rcp26&#45;&gt;dist_2050_rcp26_eastern_nosquash_nosoil -->
<g id="edge2" class="edge"><title>future_predictors_2050_rcp26&#45;&gt;dist_2050_rcp26_eastern_nosquash_nosoil</title>
<g id="a_edge2"><a xlink:title="test">
<path fill="none" stroke="black" d="M387.894,-72.055C399.053,-63.1785 412.894,-52.1686 425.07,-42.483"/>
<polygon fill="black" stroke="black" points="427.533,-44.996 433.181,-36.0316 423.176,-39.5178 427.533,-44.996"/>
</a>
</g>
</g>
<!-- squash_bee_sdm_pipeline -->
<g id="squash_bee_sdm_pipeline" class="node"><title>squash_bee_sdm_pipeline</title>
<g id="a_squash_bee_sdm_pipeline"><a xlink:href="javascript:void();" xlink:title="squash_bee_sdm_pipeline">
<ellipse fill="none" stroke="black" cx="418.592" cy="-306" rx="103.182" ry="18"/>
<text text-anchor="middle" x="418.592" y="-302.3" font-family="Times,serif" font-size="14.00">squash_bee_sdm_pipeline</text>
</a>
</g>
</g>
<!-- model_eastern_nosquash_nosoil -->
<g id="model_eastern_nosquash_nosoil" class="node"><title>model_eastern_nosquash_nosoil</title>
<g id="a_model_eastern_nosquash_nosoil"><a xlink:href="javascript:void();" xlink:title="model_eastern_nosquash_nosoil">
<ellipse fill="none" stroke="black" cx="575.592" cy="-162" rx="125.378" ry="18"/>
<text text-anchor="middle" x="575.592" y="-158.3" font-family="Times,serif" font-size="14.00">model_eastern_nosquash_nosoil</text>
</a>
</g>
</g>
<!-- squash_bee_sdm_pipeline&#45;&gt;model_eastern_nosquash_nosoil -->
<g id="edge5" class="edge"><title>squash_bee_sdm_pipeline&#45;&gt;model_eastern_nosquash_nosoil</title>
<g id="a_edge5"><a xlink:title="test">
<path fill="none" stroke="black" d="M437.218,-288.153C465.074,-262.959 517.693,-215.367 549.405,-186.685"/>
<polygon fill="black" stroke="black" points="551.921,-189.129 556.989,-179.825 547.225,-183.937 551.921,-189.129"/>
</a>
</g>
</g>
<!-- squash_bee_sdm -->
<g id="squash_bee_sdm" class="node"><title>squash_bee_sdm</title>
<g id="a_squash_bee_sdm"><a xlink:href="javascript:void();" xlink:title="squash_bee_sdm">
<ellipse fill="none" stroke="black" cx="275.592" cy="-234" rx="70.6878" ry="18"/>
<text text-anchor="middle" x="275.592" y="-230.3" font-family="Times,serif" font-size="14.00">squash_bee_sdm</text>
</a>
</g>
</g>
<!-- squash_bee_sdm_pipeline&#45;&gt;squash_bee_sdm -->
<g id="edge3" class="edge"><title>squash_bee_sdm_pipeline&#45;&gt;squash_bee_sdm</title>
<g id="a_edge3"><a xlink:title="test">
<path fill="none" stroke="black" d="M385.425,-288.765C364.633,-278.587 337.702,-265.403 315.71,-254.639"/>
<polygon fill="black" stroke="black" points="317.141,-251.442 306.621,-250.189 314.063,-257.729 317.141,-251.442"/>
</a>
</g>
</g>
<!-- ext -->
<g id="ext" class="node"><title>ext</title>
<g id="a_ext"><a xlink:href="javascript:void();" xlink:title="ext">
<ellipse fill="none" stroke="black" cx="391.592" cy="-234" rx="27" ry="18"/>
<text text-anchor="middle" x="391.592" y="-230.3" font-family="Times,serif" font-size="14.00">ext</text>
</a>
</g>
</g>
<!-- squash_bee_sdm_pipeline&#45;&gt;ext -->
<g id="edge4" class="edge"><title>squash_bee_sdm_pipeline&#45;&gt;ext</title>
<g id="a_edge4"><a xlink:title="test">
<path fill="none" stroke="black" d="M411.918,-287.697C408.831,-279.696 405.099,-270.02 401.68,-261.155"/>
<polygon fill="black" stroke="black" points="404.867,-259.693 398.003,-251.622 398.336,-262.212 404.867,-259.693"/>
</a>
</g>
</g>
<!-- hwsdNA_raster -->
<g id="hwsdNA_raster" class="node"><title>hwsdNA_raster</title>
<g id="a_hwsdNA_raster"><a xlink:href="javascript:void();" xlink:title="hwsdNA_raster">
<ellipse fill="none" stroke="black" cx="366.592" cy="-162" rx="65.7887" ry="18"/>
<text text-anchor="middle" x="366.592" y="-158.3" font-family="Times,serif" font-size="14.00">hwsdNA_raster</text>
</a>
</g>
</g>
<!-- squash_bee_sdm_pipeline&#45;&gt;hwsdNA_raster -->
<g id="edge6" class="edge"><title>squash_bee_sdm_pipeline&#45;&gt;hwsdNA_raster</title>
<g id="a_edge6"><a xlink:title="test">
<path fill="none" stroke="black" d="M425.337,-287.758C431.492,-269.183 438.157,-239.175 427.592,-216 421.99,-203.711 411.975,-193.17 401.659,-184.8"/>
<polygon fill="black" stroke="black" points="403.488,-181.796 393.399,-178.561 399.269,-187.381 403.488,-181.796"/>
</a>
</g>
</g>
<!-- model_eastern_nosquash_nosoil&#45;&gt;dist_2050_rcp26_eastern_nosquash_nosoil -->
<g id="edge7" class="edge"><title>model_eastern_nosquash_nosoil&#45;&gt;dist_2050_rcp26_eastern_nosquash_nosoil</title>
<g id="a_edge7"><a xlink:title="test">
<path fill="none" stroke="black" d="M560.996,-143.871C539.829,-119.031 500.475,-72.8464 476.015,-44.1415"/>
<polygon fill="black" stroke="black" points="478.389,-41.5307 469.239,-36.1893 473.061,-46.0708 478.389,-41.5307"/>
</a>
</g>
</g>
<!-- worldclim_2050_rcp26_NA&#45;&gt;future_predictors_2050_rcp26 -->
<g id="edge8" class="edge"><title>worldclim_2050_rcp26_NA&#45;&gt;future_predictors_2050_rcp26</title>
<g id="a_edge8"><a xlink:title="test">
<path fill="none" stroke="black" d="M216.129,-145.291C244.858,-134.924 282.687,-121.275 313.226,-110.256"/>
<polygon fill="black" stroke="black" points="314.646,-113.464 322.864,-106.778 312.27,-106.88 314.646,-113.464"/>
</a>
</g>
</g>
<!-- ext&#45;&gt;worldclim_2050_rcp26_NA -->
<g id="edge9" class="edge"><title>ext&#45;&gt;worldclim_2050_rcp26_NA</title>
<g id="a_edge9"><a xlink:title="test">
<path fill="none" stroke="black" d="M370.514,-222.361C365.674,-220.111 360.505,-217.858 355.592,-216 318.422,-201.944 275.836,-189.408 241.103,-180.061"/>
<polygon fill="black" stroke="black" points="241.623,-176.578 231.06,-177.388 239.823,-183.342 241.623,-176.578"/>
</a>
</g>
</g>
<!-- hwsdNA_raster&#45;&gt;future_predictors_2050_rcp26 -->
<g id="edge10" class="edge"><title>hwsdNA_raster&#45;&gt;future_predictors_2050_rcp26</title>
<g id="a_edge10"><a xlink:title="test">
<path fill="none" stroke="black" d="M366.592,-143.697C366.592,-135.983 366.592,-126.712 366.592,-118.112"/>
<polygon fill="black" stroke="black" points="370.092,-118.104 366.592,-108.104 363.092,-118.104 370.092,-118.104"/>
</a>
</g>
</g>
</g>
</svg>
