<?xml version="1.0" encoding="UTF-8" standalone="no"?>
<!DOCTYPE svg PUBLIC "-//W3C//DTD SVG 1.1//EN"
 "http://www.w3.org/Graphics/SVG/1.1/DTD/svg11.dtd">
<!-- Generated by graphviz version 2.38.0 (20140413.2041)
 -->
<!-- Title: %3 Pages: 1 -->
<svg width="768pt" height="332pt"
 viewBox="0.00 0.00 768.38 332.00" xmlns="http://www.w3.org/2000/svg" xmlns:xlink="http://www.w3.org/1999/xlink">
<g id="graph0" class="graph" transform="scale(1 1) rotate(0) translate(4 328)">
<title>%3</title>
<polygon fill="white" stroke="none" points="-4,4 -4,-328 764.379,-328 764.379,4 -4,4"/>
<!-- hwsdNA_raster -->
<g id="hwsdNA_raster" class="node"><title>hwsdNA_raster</title>
<g id="a_hwsdNA_raster"><a xlink:href="javascript:void();" xlink:title="hwsdNA_raster">
<ellipse fill="none" stroke="black" cx="313.788" cy="-162" rx="65.7887" ry="18"/>
<text text-anchor="middle" x="313.788" y="-158.3" font-family="Times,serif" font-size="14.00">hwsdNA_raster</text>
</a>
</g>
</g>
<!-- future_predictors_2050_rcp26 -->
<g id="future_predictors_2050_rcp26" class="node"><title>future_predictors_2050_rcp26</title>
<g id="a_future_predictors_2050_rcp26"><a xlink:href="javascript:void();" xlink:title="future_predictors_2050_rcp26">
<ellipse fill="none" stroke="black" cx="410.788" cy="-90" rx="117.779" ry="18"/>
<text text-anchor="middle" x="410.788" y="-86.3" font-family="Times,serif" font-size="14.00">future_predictors_2050_rcp26</text>
</a>
</g>
</g>
<!-- hwsdNA_raster&#45;&gt;future_predictors_2050_rcp26 -->
<g id="edge1" class="edge"><title>hwsdNA_raster&#45;&gt;future_predictors_2050_rcp26</title>
<g id="a_edge1"><a xlink:title="test">
<path fill="none" stroke="black" d="M336.285,-144.765C348.984,-135.6 365.06,-123.999 379.026,-113.921"/>
<polygon fill="black" stroke="black" points="381.339,-116.568 387.4,-107.878 377.242,-110.892 381.339,-116.568"/>
</a>
</g>
</g>
<!-- ext -->
<g id="ext" class="node"><title>ext</title>
<g id="a_ext"><a xlink:href="javascript:void();" xlink:title="ext">
<ellipse fill="none" stroke="black" cx="368.788" cy="-234" rx="27" ry="18"/>
<text text-anchor="middle" x="368.788" y="-230.3" font-family="Times,serif" font-size="14.00">ext</text>
</a>
</g>
</g>
<!-- worldclim_2050_rcp26_NA -->
<g id="worldclim_2050_rcp26_NA" class="node"><title>worldclim_2050_rcp26_NA</title>
<g id="a_worldclim_2050_rcp26_NA"><a xlink:href="javascript:void();" xlink:title="worldclim_2050_rcp26_NA">
<ellipse fill="none" stroke="black" cx="507.788" cy="-162" rx="110.48" ry="18"/>
<text text-anchor="middle" x="507.788" y="-158.3" font-family="Times,serif" font-size="14.00">worldclim_2050_rcp26_NA</text>
</a>
</g>
</g>
<!-- ext&#45;&gt;worldclim_2050_rcp26_NA -->
<g id="edge2" class="edge"><title>ext&#45;&gt;worldclim_2050_rcp26_NA</title>
<g id="a_edge2"><a xlink:title="test">
<path fill="none" stroke="black" d="M389.597,-222.52C409.833,-212.33 441.135,-196.566 466.443,-183.821"/>
<polygon fill="black" stroke="black" points="468.107,-186.902 475.464,-179.278 464.959,-180.65 468.107,-186.902"/>
</a>
</g>
</g>
<!-- dist_2050_rcp26_eastern_nosquash_nosoil -->
<g id="dist_2050_rcp26_eastern_nosquash_nosoil" class="node"><title>dist_2050_rcp26_eastern_nosquash_nosoil</title>
<g id="a_dist_2050_rcp26_eastern_nosquash_nosoil"><a xlink:href="javascript:void();" xlink:title="dist_2050_rcp26_eastern_nosquash_nosoil">
<ellipse fill="none" stroke="black" cx="273.788" cy="-18" rx="161.671" ry="18"/>
<text text-anchor="middle" x="273.788" y="-14.3" font-family="Times,serif" font-size="14.00">dist_2050_rcp26_eastern_nosquash_nosoil</text>
</a>
</g>
</g>
<!-- worldclim_2050_rcp26_NA&#45;&gt;future_predictors_2050_rcp26 -->
<g id="edge3" class="edge"><title>worldclim_2050_rcp26_NA&#45;&gt;future_predictors_2050_rcp26</title>
<g id="a_edge3"><a xlink:title="test">
<path fill="none" stroke="black" d="M484.307,-144.055C471.677,-134.941 455.931,-123.577 442.254,-113.708"/>
<polygon fill="black" stroke="black" points="444.21,-110.803 434.053,-107.789 440.113,-116.479 444.21,-110.803"/>
</a>
</g>
</g>
<!-- squash_bee_sdm_pipeline -->
<g id="squash_bee_sdm_pipeline" class="node"><title>squash_bee_sdm_pipeline</title>
<g id="a_squash_bee_sdm_pipeline"><a xlink:href="javascript:void();" xlink:title="squash_bee_sdm_pipeline">
<ellipse fill="none" stroke="black" cx="368.788" cy="-306" rx="103.182" ry="18"/>
<text text-anchor="middle" x="368.788" y="-302.3" font-family="Times,serif" font-size="14.00">squash_bee_sdm_pipeline</text>
</a>
</g>
</g>
<!-- squash_bee_sdm_pipeline&#45;&gt;hwsdNA_raster -->
<g id="edge4" class="edge"><title>squash_bee_sdm_pipeline&#45;&gt;hwsdNA_raster</title>
<g id="a_edge4"><a xlink:title="test">
<path fill="none" stroke="black" d="M354.623,-287.851C347.098,-277.93 338.291,-264.89 332.788,-252 324.375,-232.293 319.543,-208.488 316.859,-190.458"/>
<polygon fill="black" stroke="black" points="320.298,-189.764 315.485,-180.326 313.361,-190.705 320.298,-189.764"/>
</a>
</g>
</g>
<!-- squash_bee_sdm_pipeline&#45;&gt;ext -->
<g id="edge5" class="edge"><title>squash_bee_sdm_pipeline&#45;&gt;ext</title>
<g id="a_edge5"><a xlink:title="test">
<path fill="none" stroke="black" d="M368.788,-287.697C368.788,-279.983 368.788,-270.712 368.788,-262.112"/>
<polygon fill="black" stroke="black" points="372.288,-262.104 368.788,-252.104 365.288,-262.104 372.288,-262.104"/>
</a>
</g>
</g>
<!-- squash_bee_sdm -->
<g id="squash_bee_sdm" class="node"><title>squash_bee_sdm</title>
<g id="a_squash_bee_sdm"><a xlink:href="javascript:void();" xlink:title="squash_bee_sdm">
<ellipse fill="none" stroke="black" cx="484.788" cy="-234" rx="70.6878" ry="18"/>
<text text-anchor="middle" x="484.788" y="-230.3" font-family="Times,serif" font-size="14.00">squash_bee_sdm</text>
</a>
</g>
</g>
<!-- squash_bee_sdm_pipeline&#45;&gt;squash_bee_sdm -->
<g id="edge6" class="edge"><title>squash_bee_sdm_pipeline&#45;&gt;squash_bee_sdm</title>
<g id="a_edge6"><a xlink:title="test">
<path fill="none" stroke="black" d="M395.985,-288.588C412.066,-278.884 432.597,-266.494 449.867,-256.073"/>
<polygon fill="black" stroke="black" points="451.806,-258.991 458.56,-250.827 448.189,-252.997 451.806,-258.991"/>
</a>
</g>
</g>
<!-- worldclim_2050_rcp26 -->
<g id="worldclim_2050_rcp26" class="node"><title>worldclim_2050_rcp26</title>
<g id="a_worldclim_2050_rcp26"><a xlink:href="javascript:void();" xlink:title="worldclim_2050_rcp26">
<ellipse fill="none" stroke="black" cx="666.788" cy="-234" rx="93.6835" ry="18"/>
<text text-anchor="middle" x="666.788" y="-230.3" font-family="Times,serif" font-size="14.00">worldclim_2050_rcp26</text>
</a>
</g>
</g>
<!-- worldclim_2050_rcp26&#45;&gt;worldclim_2050_rcp26_NA -->
<g id="edge7" class="edge"><title>worldclim_2050_rcp26&#45;&gt;worldclim_2050_rcp26_NA</title>
<g id="a_edge7"><a xlink:title="test">
<path fill="none" stroke="black" d="M631.105,-217.291C608.129,-207.175 578.052,-193.934 553.354,-183.061"/>
<polygon fill="black" stroke="black" points="554.74,-179.847 544.178,-179.021 551.92,-186.253 554.74,-179.847"/>
</a>
</g>
</g>
<!-- bc_model_eastern_nosquash_nosoil -->
<g id="bc_model_eastern_nosquash_nosoil" class="node"><title>bc_model_eastern_nosquash_nosoil</title>
<g id="a_bc_model_eastern_nosquash_nosoil"><a xlink:href="javascript:void();" xlink:title="bc_model_eastern_nosquash_nosoil">
<ellipse fill="none" stroke="black" cx="137.788" cy="-90" rx="137.576" ry="18"/>
<text text-anchor="middle" x="137.788" y="-86.3" font-family="Times,serif" font-size="14.00">bc_model_eastern_nosquash_nosoil</text>
</a>
</g>
</g>
<!-- bc_model_eastern_nosquash_nosoil&#45;&gt;dist_2050_rcp26_eastern_nosquash_nosoil -->
<g id="edge8" class="edge"><title>bc_model_eastern_nosquash_nosoil&#45;&gt;dist_2050_rcp26_eastern_nosquash_nosoil</title>
<g id="a_edge8"><a xlink:title="test">
<path fill="none" stroke="black" d="M170.018,-72.411C188.682,-62.8045 212.372,-50.6112 232.403,-40.3011"/>
<polygon fill="black" stroke="black" points="234.028,-43.401 241.318,-35.7125 230.825,-37.177 234.028,-43.401"/>
</a>
</g>
</g>
<!-- future_predictors_2050_rcp26&#45;&gt;dist_2050_rcp26_eastern_nosquash_nosoil -->
<g id="edge9" class="edge"><title>future_predictors_2050_rcp26&#45;&gt;dist_2050_rcp26_eastern_nosquash_nosoil</title>
<g id="a_edge9"><a xlink:title="test">
<path fill="none" stroke="black" d="M378.667,-72.5881C359.875,-62.9863 335.937,-50.7552 315.677,-40.4032"/>
<polygon fill="black" stroke="black" points="317.156,-37.2286 306.659,-35.7953 313.971,-43.462 317.156,-37.2286"/>
</a>
</g>
</g>
</g>
</svg>
