<?xml version="1.0" encoding="UTF-8" standalone="no"?>
<!DOCTYPE svg PUBLIC "-//W3C//DTD SVG 1.1//EN"
 "http://www.w3.org/Graphics/SVG/1.1/DTD/svg11.dtd">
<!-- Generated by graphviz version 2.38.0 (20140413.2041)
 -->
<!-- Title: %3 Pages: 1 -->
<svg width="578pt" height="188pt"
 viewBox="0.00 0.00 578.23 188.00" xmlns="http://www.w3.org/2000/svg" xmlns:xlink="http://www.w3.org/1999/xlink">
<g id="graph0" class="graph" transform="scale(1 1) rotate(0) translate(4 184)">
<title>%3</title>
<polygon fill="white" stroke="none" points="-4,4 -4,-184 574.225,-184 574.225,4 -4,4"/>
<!-- squash_distribution_2015b_pipeline -->
<g id="squash_distribution_2015b_pipeline" class="node"><title>squash_distribution_2015b_pipeline</title>
<g id="a_squash_distribution_2015b_pipeline"><a xlink:href="javascript:void();" xlink:title="squash_distribution_2015b_pipeline">
<ellipse fill="none" stroke="black" cx="138.438" cy="-162" rx="138.375" ry="18"/>
<text text-anchor="middle" x="138.438" y="-158.3" font-family="Times,serif" font-size="14.00">squash_distribution_2015b_pipeline</text>
</a>
</g>
</g>
<!-- pumpkin_points -->
<g id="pumpkin_points" class="node"><title>pumpkin_points</title>
<g id="a_pumpkin_points"><a xlink:href="javascript:void();" xlink:title="pumpkin_points">
<ellipse fill="none" stroke="black" cx="211.438" cy="-90" rx="68.4888" ry="18"/>
<text text-anchor="middle" x="211.438" y="-86.3" font-family="Times,serif" font-size="14.00">pumpkin_points</text>
</a>
</g>
</g>
<!-- squash_distribution_2015b_pipeline&#45;&gt;pumpkin_points -->
<g id="edge2" class="edge"><title>squash_distribution_2015b_pipeline&#45;&gt;pumpkin_points</title>
<g id="a_edge2"><a xlink:title="test">
<path fill="none" stroke="black" d="M156.109,-144.055C165.255,-135.285 176.573,-124.432 186.585,-114.831"/>
<polygon fill="black" stroke="black" points="189.134,-117.236 193.929,-107.789 184.289,-112.184 189.134,-117.236"/>
</a>
</g>
</g>
<!-- squash_points -->
<g id="squash_points" class="node"><title>squash_points</title>
<g id="a_squash_points"><a xlink:href="javascript:void();" xlink:title="squash_points">
<ellipse fill="none" stroke="black" cx="358.438" cy="-90" rx="60.3893" ry="18"/>
<text text-anchor="middle" x="358.438" y="-86.3" font-family="Times,serif" font-size="14.00">squash_points</text>
</a>
</g>
</g>
<!-- squash_distribution_2015b_pipeline&#45;&gt;squash_points -->
<g id="edge1" class="edge"><title>squash_distribution_2015b_pipeline&#45;&gt;squash_points</title>
<g id="a_edge1"><a xlink:title="test">
<path fill="none" stroke="black" d="M188.359,-145.116C224.398,-133.649 272.848,-118.233 308.818,-106.788"/>
<polygon fill="black" stroke="black" points="310.143,-110.039 318.611,-103.672 308.021,-103.369 310.143,-110.039"/>
</a>
</g>
</g>
<!-- cucurbit_points -->
<g id="cucurbit_points" class="node"><title>cucurbit_points</title>
<g id="a_cucurbit_points"><a xlink:href="javascript:void();" xlink:title="cucurbit_points">
<ellipse fill="none" stroke="black" cx="284.438" cy="-18" rx="65.7887" ry="18"/>
<text text-anchor="middle" x="284.438" y="-14.3" font-family="Times,serif" font-size="14.00">cucurbit_points</text>
</a>
</g>
</g>
<!-- pumpkin_points&#45;&gt;cucurbit_points -->
<g id="edge3" class="edge"><title>pumpkin_points&#45;&gt;cucurbit_points</title>
<g id="a_edge3"><a xlink:title="test">
<path fill="none" stroke="black" d="M228.738,-72.411C238.011,-63.519 249.595,-52.4107 259.794,-42.6309"/>
<polygon fill="black" stroke="black" points="262.466,-44.9174 267.262,-35.4699 257.622,-39.8649 262.466,-44.9174"/>
</a>
</g>
</g>
<!-- squash_distribution_2015a_pipeline -->
<g id="squash_distribution_2015a_pipeline" class="node"><title>squash_distribution_2015a_pipeline</title>
<g id="a_squash_distribution_2015a_pipeline"><a xlink:href="javascript:void();" xlink:title="squash_distribution_2015a_pipeline">
<ellipse fill="none" stroke="black" cx="432.438" cy="-162" rx="137.576" ry="18"/>
<text text-anchor="middle" x="432.438" y="-158.3" font-family="Times,serif" font-size="14.00">squash_distribution_2015a_pipeline</text>
</a>
</g>
</g>
<!-- squash_distribution_2015a_pipeline&#45;&gt;pumpkin_points -->
<g id="edge5" class="edge"><title>squash_distribution_2015a_pipeline&#45;&gt;pumpkin_points</title>
<g id="a_edge5"><a xlink:title="test">
<path fill="none" stroke="black" d="M382.565,-145.203C346.957,-133.925 299.183,-118.793 263.162,-107.383"/>
<polygon fill="black" stroke="black" points="263.924,-103.953 253.334,-104.27 261.81,-110.627 263.924,-103.953"/>
</a>
</g>
</g>
<!-- squash_distribution_2015a_pipeline&#45;&gt;squash_points -->
<g id="edge4" class="edge"><title>squash_distribution_2015a_pipeline&#45;&gt;squash_points</title>
<g id="a_edge4"><a xlink:title="test">
<path fill="none" stroke="black" d="M414.524,-144.055C405.117,-135.156 393.442,-124.112 383.184,-114.408"/>
<polygon fill="black" stroke="black" points="385.346,-111.636 375.677,-107.307 380.536,-116.722 385.346,-111.636"/>
</a>
</g>
</g>
<!-- squash_points&#45;&gt;cucurbit_points -->
<g id="edge6" class="edge"><title>squash_points&#45;&gt;cucurbit_points</title>
<g id="a_edge6"><a xlink:title="test">
<path fill="none" stroke="black" d="M340.901,-72.411C331.408,-63.4318 319.527,-52.1926 309.115,-42.3436"/>
<polygon fill="black" stroke="black" points="311.519,-39.7993 301.849,-35.4699 306.708,-44.8846 311.519,-39.7993"/>
</a>
</g>
</g>
</g>
</svg>
