<?xml version="1.0" encoding="UTF-8" standalone="no"?>
<!DOCTYPE svg PUBLIC "-//W3C//DTD SVG 1.1//EN"
 "http://www.w3.org/Graphics/SVG/1.1/DTD/svg11.dtd">
<!-- Generated by graphviz version 2.38.0 (20140413.2041)
 -->
<!-- Title: %3 Pages: 1 -->
<svg width="1356pt" height="548pt"
 viewBox="0.00 0.00 1356.33 548.00" xmlns="http://www.w3.org/2000/svg" xmlns:xlink="http://www.w3.org/1999/xlink">
<g id="graph0" class="graph" transform="scale(1 1) rotate(0) translate(4 544)">
<title>%3</title>
<polygon fill="white" stroke="none" points="-4,4 -4,-544 1352.33,-544 1352.33,4 -4,4"/>
<!-- dist_eastern_nosquash -->
<g id="dist_eastern_nosquash" class="node"><title>dist_eastern_nosquash</title>
<g id="a_dist_eastern_nosquash"><a xlink:href="javascript:void();" xlink:title="dist_eastern_nosquash">
<ellipse fill="none" stroke="black" cx="1062.69" cy="-18" rx="89.8845" ry="18"/>
<text text-anchor="middle" x="1062.69" y="-14.3" font-family="Times,serif" font-size="14.00">dist_eastern_nosquash</text>
</a>
</g>
</g>
<!-- eastern_boundaries -->
<g id="eastern_boundaries" class="node"><title>eastern_boundaries</title>
<g id="a_eastern_boundaries"><a xlink:href="javascript:void();" xlink:title="eastern_boundaries">
<ellipse fill="none" stroke="black" cx="860.69" cy="-306" rx="78.7863" ry="18"/>
<text text-anchor="middle" x="860.69" y="-302.3" font-family="Times,serif" font-size="14.00">eastern_boundaries</text>
</a>
</g>
</g>
<!-- latlon_eastern -->
<g id="latlon_eastern" class="node"><title>latlon_eastern</title>
<g id="a_latlon_eastern"><a xlink:href="javascript:void();" xlink:title="latlon_eastern">
<ellipse fill="none" stroke="black" cx="860.69" cy="-234" rx="59.5901" ry="18"/>
<text text-anchor="middle" x="860.69" y="-230.3" font-family="Times,serif" font-size="14.00">latlon_eastern</text>
</a>
</g>
</g>
<!-- eastern_boundaries&#45;&gt;latlon_eastern -->
<g id="edge1" class="edge"><title>eastern_boundaries&#45;&gt;latlon_eastern</title>
<g id="a_edge1"><a xlink:title="test">
<path fill="none" stroke="black" d="M860.69,-287.697C860.69,-279.983 860.69,-270.712 860.69,-262.112"/>
<polygon fill="black" stroke="black" points="864.19,-262.104 860.69,-252.104 857.19,-262.104 864.19,-262.104"/>
</a>
</g>
</g>
<!-- latlon_sparse -->
<g id="latlon_sparse" class="node"><title>latlon_sparse</title>
<g id="a_latlon_sparse"><a xlink:href="javascript:void();" xlink:title="latlon_sparse">
<ellipse fill="none" stroke="black" cx="1014.69" cy="-306" rx="57.3905" ry="18"/>
<text text-anchor="middle" x="1014.69" y="-302.3" font-family="Times,serif" font-size="14.00">latlon_sparse</text>
</a>
</g>
</g>
<!-- latlon_sparse&#45;&gt;latlon_eastern -->
<g id="edge2" class="edge"><title>latlon_sparse&#45;&gt;latlon_eastern</title>
<g id="a_edge2"><a xlink:title="test">
<path fill="none" stroke="black" d="M983.526,-290.834C959.886,-280.089 927.185,-265.225 901.466,-253.535"/>
<polygon fill="black" stroke="black" points="902.888,-250.337 892.336,-249.385 899.991,-256.709 902.888,-250.337"/>
</a>
</g>
</g>
<!-- ext -->
<g id="ext" class="node"><title>ext</title>
<g id="a_ext"><a xlink:href="javascript:void();" xlink:title="ext">
<ellipse fill="none" stroke="black" cx="789.69" cy="-450" rx="27" ry="18"/>
<text text-anchor="middle" x="789.69" y="-446.3" font-family="Times,serif" font-size="14.00">ext</text>
</a>
</g>
</g>
<!-- bioclimNA_raster -->
<g id="bioclimNA_raster" class="node"><title>bioclimNA_raster</title>
<g id="a_bioclimNA_raster"><a xlink:href="javascript:void();" xlink:title="bioclimNA_raster">
<ellipse fill="none" stroke="black" cx="586.69" cy="-378" rx="74.9875" ry="18"/>
<text text-anchor="middle" x="586.69" y="-374.3" font-family="Times,serif" font-size="14.00">bioclimNA_raster</text>
</a>
</g>
</g>
<!-- ext&#45;&gt;bioclimNA_raster -->
<g id="edge4" class="edge"><title>ext&#45;&gt;bioclimNA_raster</title>
<g id="a_edge4"><a xlink:title="test">
<path fill="none" stroke="black" d="M766.006,-440.833C734.634,-430.015 678.476,-410.651 637.341,-396.466"/>
<polygon fill="black" stroke="black" points="638.353,-393.113 627.758,-393.162 636.071,-399.73 638.353,-393.113"/>
</a>
</g>
</g>
<!-- hwsdNA_raster -->
<g id="hwsdNA_raster" class="node"><title>hwsdNA_raster</title>
<g id="a_hwsdNA_raster"><a xlink:href="javascript:void();" xlink:title="hwsdNA_raster">
<ellipse fill="none" stroke="black" cx="698.69" cy="-306" rx="65.7887" ry="18"/>
<text text-anchor="middle" x="698.69" y="-302.3" font-family="Times,serif" font-size="14.00">hwsdNA_raster</text>
</a>
</g>
</g>
<!-- ext&#45;&gt;hwsdNA_raster -->
<g id="edge3" class="edge"><title>ext&#45;&gt;hwsdNA_raster</title>
<g id="a_edge3"><a xlink:title="test">
<path fill="none" stroke="black" d="M794.172,-431.965C798.149,-413.03 801.544,-382.198 788.69,-360 779.65,-344.39 764.046,-332.909 748.345,-324.705"/>
<polygon fill="black" stroke="black" points="749.663,-321.455 739.137,-320.247 746.612,-327.755 749.663,-321.455"/>
</a>
</g>
</g>
<!-- dist_2050_rcp26_eastern_nosquash_nosoil -->
<g id="dist_2050_rcp26_eastern_nosquash_nosoil" class="node"><title>dist_2050_rcp26_eastern_nosquash_nosoil</title>
<g id="a_dist_2050_rcp26_eastern_nosquash_nosoil"><a xlink:href="javascript:void();" xlink:title="dist_2050_rcp26_eastern_nosquash_nosoil">
<ellipse fill="none" stroke="black" cx="426.69" cy="-18" rx="161.671" ry="18"/>
<text text-anchor="middle" x="426.69" y="-14.3" font-family="Times,serif" font-size="14.00">dist_2050_rcp26_eastern_nosquash_nosoil</text>
</a>
</g>
</g>
<!-- latlon_eastern_vals -->
<g id="latlon_eastern_vals" class="node"><title>latlon_eastern_vals</title>
<g id="a_latlon_eastern_vals"><a xlink:href="javascript:void();" xlink:title="latlon_eastern_vals">
<ellipse fill="none" stroke="black" cx="777.69" cy="-162" rx="78.7863" ry="18"/>
<text text-anchor="middle" x="777.69" y="-158.3" font-family="Times,serif" font-size="14.00">latlon_eastern_vals</text>
</a>
</g>
</g>
<!-- latlon_eastern&#45;&gt;latlon_eastern_vals -->
<g id="edge5" class="edge"><title>latlon_eastern&#45;&gt;latlon_eastern_vals</title>
<g id="a_edge5"><a xlink:title="test">
<path fill="none" stroke="black" d="M841.439,-216.765C830.7,-207.708 817.139,-196.27 805.288,-186.276"/>
<polygon fill="black" stroke="black" points="807.313,-183.405 797.412,-179.633 802.8,-188.756 807.313,-183.405"/>
</a>
</g>
</g>
<!-- bison_data -->
<g id="bison_data" class="node"><title>bison_data</title>
<g id="a_bison_data"><a xlink:href="javascript:void();" xlink:title="bison_data">
<ellipse fill="none" stroke="black" cx="929.69" cy="-522" rx="48.9926" ry="18"/>
<text text-anchor="middle" x="929.69" y="-518.3" font-family="Times,serif" font-size="14.00">bison_data</text>
</a>
</g>
</g>
<!-- latlon_bison -->
<g id="latlon_bison" class="node"><title>latlon_bison</title>
<g id="a_latlon_bison"><a xlink:href="javascript:void();" xlink:title="latlon_bison">
<ellipse fill="none" stroke="black" cx="929.69" cy="-450" rx="53.8905" ry="18"/>
<text text-anchor="middle" x="929.69" y="-446.3" font-family="Times,serif" font-size="14.00">latlon_bison</text>
</a>
</g>
</g>
<!-- bison_data&#45;&gt;latlon_bison -->
<g id="edge6" class="edge"><title>bison_data&#45;&gt;latlon_bison</title>
<g id="a_edge6"><a xlink:title="test">
<path fill="none" stroke="black" d="M929.69,-503.697C929.69,-495.983 929.69,-486.712 929.69,-478.112"/>
<polygon fill="black" stroke="black" points="933.19,-478.104 929.69,-468.104 926.19,-478.104 933.19,-478.104"/>
</a>
</g>
</g>
<!-- bioclim_raster -->
<g id="bioclim_raster" class="node"><title>bioclim_raster</title>
<g id="a_bioclim_raster"><a xlink:href="javascript:void();" xlink:title="bioclim_raster">
<ellipse fill="none" stroke="black" cx="586.69" cy="-450" rx="61.99" ry="18"/>
<text text-anchor="middle" x="586.69" y="-446.3" font-family="Times,serif" font-size="14.00">bioclim_raster</text>
</a>
</g>
</g>
<!-- bioclim_raster&#45;&gt;bioclimNA_raster -->
<g id="edge7" class="edge"><title>bioclim_raster&#45;&gt;bioclimNA_raster</title>
<g id="a_edge7"><a xlink:title="test">
<path fill="none" stroke="black" d="M586.69,-431.697C586.69,-423.983 586.69,-414.712 586.69,-406.112"/>
<polygon fill="black" stroke="black" points="590.19,-406.104 586.69,-396.104 583.19,-406.104 590.19,-406.104"/>
</a>
</g>
</g>
<!-- cucurbit_distanceNA_raster -->
<g id="cucurbit_distanceNA_raster" class="node"><title>cucurbit_distanceNA_raster</title>
<g id="a_cucurbit_distanceNA_raster"><a xlink:href="javascript:void();" xlink:title="cucurbit_distanceNA_raster">
<ellipse fill="none" stroke="black" cx="467.69" cy="-306" rx="109.381" ry="18"/>
<text text-anchor="middle" x="467.69" y="-302.3" font-family="Times,serif" font-size="14.00">cucurbit_distanceNA_raster</text>
</a>
</g>
</g>
<!-- predictors -->
<g id="predictors" class="node"><title>predictors</title>
<g id="a_predictors"><a xlink:href="javascript:void();" xlink:title="predictors">
<ellipse fill="none" stroke="black" cx="651.69" cy="-234" rx="46.2923" ry="18"/>
<text text-anchor="middle" x="651.69" y="-230.3" font-family="Times,serif" font-size="14.00">predictors</text>
</a>
</g>
</g>
<!-- cucurbit_distanceNA_raster&#45;&gt;predictors -->
<g id="edge8" class="edge"><title>cucurbit_distanceNA_raster&#45;&gt;predictors</title>
<g id="a_edge8"><a xlink:title="test">
<path fill="none" stroke="black" d="M508.983,-289.291C539.195,-277.797 580.017,-262.267 610.261,-250.761"/>
<polygon fill="black" stroke="black" points="611.58,-254.004 619.682,-247.177 609.091,-247.461 611.58,-254.004"/>
</a>
</g>
</g>
<!-- future_predictors_2050_rcp26 -->
<g id="future_predictors_2050_rcp26" class="node"><title>future_predictors_2050_rcp26</title>
<g id="a_future_predictors_2050_rcp26"><a xlink:href="javascript:void();" xlink:title="future_predictors_2050_rcp26">
<ellipse fill="none" stroke="black" cx="486.69" cy="-90" rx="117.779" ry="18"/>
<text text-anchor="middle" x="486.69" y="-86.3" font-family="Times,serif" font-size="14.00">future_predictors_2050_rcp26</text>
</a>
</g>
</g>
<!-- future_predictors_2050_rcp26&#45;&gt;dist_2050_rcp26_eastern_nosquash_nosoil -->
<g id="edge9" class="edge"><title>future_predictors_2050_rcp26&#45;&gt;dist_2050_rcp26_eastern_nosquash_nosoil</title>
<g id="a_edge9"><a xlink:title="test">
<path fill="none" stroke="black" d="M472.165,-72.055C464.976,-63.6679 456.155,-53.376 448.201,-44.0963"/>
<polygon fill="black" stroke="black" points="450.662,-41.5901 441.497,-36.2753 445.348,-46.1457 450.662,-41.5901"/>
</a>
</g>
</g>
<!-- latlon -->
<g id="latlon" class="node"><title>latlon</title>
<g id="a_latlon"><a xlink:href="javascript:void();" xlink:title="latlon">
<ellipse fill="none" stroke="black" cx="1014.69" cy="-378" rx="30.5947" ry="18"/>
<text text-anchor="middle" x="1014.69" y="-374.3" font-family="Times,serif" font-size="14.00">latlon</text>
</a>
</g>
</g>
<!-- latlon&#45;&gt;latlon_sparse -->
<g id="edge10" class="edge"><title>latlon&#45;&gt;latlon_sparse</title>
<g id="a_edge10"><a xlink:title="test">
<path fill="none" stroke="black" d="M1014.69,-359.697C1014.69,-351.983 1014.69,-342.712 1014.69,-334.112"/>
<polygon fill="black" stroke="black" points="1018.19,-334.104 1014.69,-324.104 1011.19,-334.104 1018.19,-334.104"/>
</a>
</g>
</g>
<!-- bc_model_eastern_nosquash -->
<g id="bc_model_eastern_nosquash" class="node"><title>bc_model_eastern_nosquash</title>
<g id="a_bc_model_eastern_nosquash"><a xlink:href="javascript:void();" xlink:title="bc_model_eastern_nosquash">
<ellipse fill="none" stroke="black" cx="992.69" cy="-90" rx="112.38" ry="18"/>
<text text-anchor="middle" x="992.69" y="-86.3" font-family="Times,serif" font-size="14.00">bc_model_eastern_nosquash</text>
</a>
</g>
</g>
<!-- bc_model_eastern_nosquash&#45;&gt;dist_eastern_nosquash -->
<g id="edge11" class="edge"><title>bc_model_eastern_nosquash&#45;&gt;dist_eastern_nosquash</title>
<g id="a_edge11"><a xlink:title="test">
<path fill="none" stroke="black" d="M1009.63,-72.055C1018.32,-63.3707 1029.05,-52.6444 1038.58,-43.114"/>
<polygon fill="black" stroke="black" points="1041.3,-45.335 1045.9,-35.789 1036.35,-40.3852 1041.3,-45.335"/>
</a>
</g>
</g>
<!-- cucurbit_points -->
<g id="cucurbit_points" class="node"><title>cucurbit_points</title>
<g id="a_cucurbit_points"><a xlink:href="javascript:void();" xlink:title="cucurbit_points">
<ellipse fill="none" stroke="black" cx="428.69" cy="-378" rx="65.7887" ry="18"/>
<text text-anchor="middle" x="428.69" y="-374.3" font-family="Times,serif" font-size="14.00">cucurbit_points</text>
</a>
</g>
</g>
<!-- cucurbit_points&#45;&gt;cucurbit_distanceNA_raster -->
<g id="edge12" class="edge"><title>cucurbit_points&#45;&gt;cucurbit_distanceNA_raster</title>
<g id="a_edge12"><a xlink:title="test">
<path fill="none" stroke="black" d="M438.131,-360.055C442.615,-352.007 448.076,-342.205 453.078,-333.226"/>
<polygon fill="black" stroke="black" points="456.255,-334.714 458.065,-324.275 450.14,-331.308 456.255,-334.714"/>
</a>
</g>
</g>
<!-- predictors&#45;&gt;dist_eastern_nosquash -->
<g id="edge13" class="edge"><title>predictors&#45;&gt;dist_eastern_nosquash</title>
<g id="a_edge13"><a xlink:title="test">
<path fill="none" stroke="black" d="M695.461,-228.14C801.076,-215.39 1064.8,-177.103 1113.69,-108 1128.67,-86.8237 1110.09,-60.9313 1091.29,-42.5458"/>
<polygon fill="black" stroke="black" points="1093.58,-39.8938 1083.87,-35.6495 1088.82,-45.0212 1093.58,-39.8938"/>
</a>
</g>
</g>
<!-- predictors&#45;&gt;bc_model_eastern_nosquash -->
<g id="edge19" class="edge"><title>predictors&#45;&gt;bc_model_eastern_nosquash</title>
<g id="a_edge19"><a xlink:title="test">
<path fill="none" stroke="black" d="M694.643,-227.131C738.983,-219.994 809.426,-205.601 865.69,-180 903.119,-162.969 941.092,-134.58 965.638,-114.448"/>
<polygon fill="black" stroke="black" points="967.979,-117.053 973.427,-107.966 963.501,-111.673 967.979,-117.053"/>
</a>
</g>
</g>
<!-- bc_model_eastern_nosoil -->
<g id="bc_model_eastern_nosoil" class="node"><title>bc_model_eastern_nosoil</title>
<g id="a_bc_model_eastern_nosoil"><a xlink:href="javascript:void();" xlink:title="bc_model_eastern_nosoil">
<ellipse fill="none" stroke="black" cx="761.69" cy="-90" rx="100.983" ry="18"/>
<text text-anchor="middle" x="761.69" y="-86.3" font-family="Times,serif" font-size="14.00">bc_model_eastern_nosoil</text>
</a>
</g>
</g>
<!-- predictors&#45;&gt;bc_model_eastern_nosoil -->
<g id="edge16" class="edge"><title>predictors&#45;&gt;bc_model_eastern_nosoil</title>
<g id="a_edge16"><a xlink:title="test">
<path fill="none" stroke="black" d="M656.057,-215.841C661.536,-196.794 672.373,-165.862 689.69,-144 699.073,-132.153 711.734,-121.651 723.822,-113.185"/>
<polygon fill="black" stroke="black" points="726.11,-115.865 732.468,-107.389 722.213,-110.05 726.11,-115.865"/>
</a>
</g>
</g>
<!-- predictors&#45;&gt;latlon_eastern_vals -->
<g id="edge15" class="edge"><title>predictors&#45;&gt;latlon_eastern_vals</title>
<g id="a_edge15"><a xlink:title="test">
<path fill="none" stroke="black" d="M677.188,-218.834C695.272,-208.788 719.838,-195.14 740.155,-183.853"/>
<polygon fill="black" stroke="black" points="742.111,-186.77 749.153,-178.854 738.711,-180.651 742.111,-186.77"/>
</a>
</g>
</g>
<!-- dist_eastern_nosoil -->
<g id="dist_eastern_nosoil" class="node"><title>dist_eastern_nosoil</title>
<g id="a_dist_eastern_nosoil"><a xlink:href="javascript:void();" xlink:title="dist_eastern_nosoil">
<ellipse fill="none" stroke="black" cx="692.69" cy="-18" rx="78.7863" ry="18"/>
<text text-anchor="middle" x="692.69" y="-14.3" font-family="Times,serif" font-size="14.00">dist_eastern_nosoil</text>
</a>
</g>
</g>
<!-- predictors&#45;&gt;dist_eastern_nosoil -->
<g id="edge17" class="edge"><title>predictors&#45;&gt;dist_eastern_nosoil</title>
<g id="a_edge17"><a xlink:title="test">
<path fill="none" stroke="black" d="M648.18,-215.961C642.75,-185.922 634.611,-121.991 651.69,-72 655.187,-61.7621 661.555,-51.9681 668.245,-43.6466"/>
<polygon fill="black" stroke="black" points="671.081,-45.7174 674.949,-35.854 665.774,-41.1523 671.081,-45.7174"/>
</a>
</g>
</g>
<!-- dist_eastern_nosquash_nosoil -->
<g id="dist_eastern_nosquash_nosoil" class="node"><title>dist_eastern_nosquash_nosoil</title>
<g id="a_dist_eastern_nosquash_nosoil"><a xlink:href="javascript:void();" xlink:title="dist_eastern_nosquash_nosoil">
<ellipse fill="none" stroke="black" cx="115.69" cy="-18" rx="115.88" ry="18"/>
<text text-anchor="middle" x="115.69" y="-14.3" font-family="Times,serif" font-size="14.00">dist_eastern_nosquash_nosoil</text>
</a>
</g>
</g>
<!-- predictors&#45;&gt;dist_eastern_nosquash_nosoil -->
<g id="edge18" class="edge"><title>predictors&#45;&gt;dist_eastern_nosquash_nosoil</title>
<g id="a_edge18"><a xlink:title="test">
<path fill="none" stroke="black" d="M606.311,-230.723C480.336,-223.328 131.322,-195.184 66.6897,-108 51.3888,-87.3602 69.3646,-61.3937 87.7021,-42.8447"/>
<polygon fill="black" stroke="black" points="90.1635,-45.3335 94.9468,-35.8799 85.3122,-40.2873 90.1635,-45.3335"/>
</a>
</g>
</g>
<!-- bc_model_eastern_nosquash_nosoil -->
<g id="bc_model_eastern_nosquash_nosoil" class="node"><title>bc_model_eastern_nosquash_nosoil</title>
<g id="a_bc_model_eastern_nosquash_nosoil"><a xlink:href="javascript:void();" xlink:title="bc_model_eastern_nosquash_nosoil">
<ellipse fill="none" stroke="black" cx="213.69" cy="-90" rx="137.576" ry="18"/>
<text text-anchor="middle" x="213.69" y="-86.3" font-family="Times,serif" font-size="14.00">bc_model_eastern_nosquash_nosoil</text>
</a>
</g>
</g>
<!-- predictors&#45;&gt;bc_model_eastern_nosquash_nosoil -->
<g id="edge14" class="edge"><title>predictors&#45;&gt;bc_model_eastern_nosquash_nosoil</title>
<g id="a_edge14"><a xlink:title="test">
<path fill="none" stroke="black" d="M607.498,-228.206C553.514,-221.46 459.96,-206.874 383.69,-180 334.722,-162.746 282.371,-133.515 248.904,-113.285"/>
<polygon fill="black" stroke="black" points="250.342,-110.062 239.984,-107.835 246.693,-116.035 250.342,-110.062"/>
</a>
</g>
</g>
<!-- hwsdNAsp -->
<g id="hwsdNAsp" class="node"><title>hwsdNAsp</title>
<g id="a_hwsdNAsp"><a xlink:href="javascript:void();" xlink:title="hwsdNAsp">
<ellipse fill="none" stroke="black" cx="729.69" cy="-378" rx="50.0912" ry="18"/>
<text text-anchor="middle" x="729.69" y="-374.3" font-family="Times,serif" font-size="14.00">hwsdNAsp</text>
</a>
</g>
</g>
<!-- hwsdNAsp&#45;&gt;hwsdNA_raster -->
<g id="edge20" class="edge"><title>hwsdNAsp&#45;&gt;hwsdNA_raster</title>
<g id="a_edge20"><a xlink:title="test">
<path fill="none" stroke="black" d="M722.185,-360.055C718.659,-352.091 714.372,-342.411 710.43,-333.51"/>
<polygon fill="black" stroke="black" points="713.59,-332.002 706.34,-324.275 707.189,-334.836 713.59,-332.002"/>
</a>
</g>
</g>
<!-- bc_model_eastern_nosoil&#45;&gt;dist_eastern_nosoil -->
<g id="edge21" class="edge"><title>bc_model_eastern_nosoil&#45;&gt;dist_eastern_nosoil</title>
<g id="a_edge21"><a xlink:title="test">
<path fill="none" stroke="black" d="M744.987,-72.055C736.427,-63.3707 725.853,-52.6444 716.459,-43.114"/>
<polygon fill="black" stroke="black" points="718.752,-40.4538 709.239,-35.789 713.766,-45.3678 718.752,-40.4538"/>
</a>
</g>
</g>
<!-- latlon_eastern_vals&#45;&gt;bc_model_eastern_nosquash -->
<g id="edge24" class="edge"><title>latlon_eastern_vals&#45;&gt;bc_model_eastern_nosquash</title>
<g id="a_edge24"><a xlink:title="test">
<path fill="none" stroke="black" d="M820.94,-146.919C853.893,-136.19 899.569,-121.318 935.534,-109.609"/>
<polygon fill="black" stroke="black" points="936.977,-112.82 945.402,-106.396 934.81,-106.164 936.977,-112.82"/>
</a>
</g>
</g>
<!-- latlon_eastern_vals&#45;&gt;bc_model_eastern_nosoil -->
<g id="edge22" class="edge"><title>latlon_eastern_vals&#45;&gt;bc_model_eastern_nosoil</title>
<g id="a_edge22"><a xlink:title="test">
<path fill="none" stroke="black" d="M773.735,-143.697C771.971,-135.983 769.853,-126.712 767.887,-118.112"/>
<polygon fill="black" stroke="black" points="771.24,-117.073 765.599,-108.104 764.416,-118.633 771.24,-117.073"/>
</a>
</g>
</g>
<!-- latlon_eastern_vals&#45;&gt;bc_model_eastern_nosquash_nosoil -->
<g id="edge23" class="edge"><title>latlon_eastern_vals&#45;&gt;bc_model_eastern_nosquash_nosoil</title>
<g id="a_edge23"><a xlink:title="test">
<path fill="none" stroke="black" d="M710.218,-152.626C613.505,-140.623 434.523,-118.408 319.932,-104.186"/>
<polygon fill="black" stroke="black" points="320.091,-100.679 309.736,-102.921 319.229,-107.626 320.091,-100.679"/>
</a>
</g>
</g>
<!-- bioclimNA_raster&#45;&gt;cucurbit_distanceNA_raster -->
<g id="edge26" class="edge"><title>bioclimNA_raster&#45;&gt;cucurbit_distanceNA_raster</title>
<g id="a_edge26"><a xlink:title="test">
<path fill="none" stroke="black" d="M559.687,-361.116C543.453,-351.567 522.563,-339.279 504.794,-328.826"/>
<polygon fill="black" stroke="black" points="506.221,-325.605 495.827,-323.552 502.672,-331.639 506.221,-325.605"/>
</a>
</g>
</g>
<!-- bioclimNA_raster&#45;&gt;predictors -->
<g id="edge25" class="edge"><title>bioclimNA_raster&#45;&gt;predictors</title>
<g id="a_edge25"><a xlink:title="test">
<path fill="none" stroke="black" d="M593.191,-360.067C600.248,-342.011 612.072,-312.677 623.69,-288 627.877,-279.107 632.785,-269.561 637.314,-261.055"/>
<polygon fill="black" stroke="black" points="640.54,-262.447 642.206,-251.984 634.379,-259.124 640.54,-262.447"/>
</a>
</g>
</g>
<!-- bioclimNA_raster&#45;&gt;hwsdNA_raster -->
<g id="edge27" class="edge"><title>bioclimNA_raster&#45;&gt;hwsdNA_raster</title>
<g id="a_edge27"><a xlink:title="test">
<path fill="none" stroke="black" d="M612.385,-360.941C628.004,-351.179 648.123,-338.604 665.007,-328.052"/>
<polygon fill="black" stroke="black" points="666.875,-331.011 673.5,-322.743 663.165,-325.075 666.875,-331.011"/>
</a>
</g>
</g>
<!-- worldclim_2050_rcp26 -->
<g id="worldclim_2050_rcp26" class="node"><title>worldclim_2050_rcp26</title>
<g id="a_worldclim_2050_rcp26"><a xlink:href="javascript:void();" xlink:title="worldclim_2050_rcp26">
<ellipse fill="none" stroke="black" cx="486.69" cy="-162" rx="93.6835" ry="18"/>
<text text-anchor="middle" x="486.69" y="-158.3" font-family="Times,serif" font-size="14.00">worldclim_2050_rcp26</text>
</a>
</g>
</g>
<!-- worldclim_2050_rcp26&#45;&gt;future_predictors_2050_rcp26 -->
<g id="edge28" class="edge"><title>worldclim_2050_rcp26&#45;&gt;future_predictors_2050_rcp26</title>
<g id="a_edge28"><a xlink:title="test">
<path fill="none" stroke="black" d="M486.69,-143.697C486.69,-135.983 486.69,-126.712 486.69,-118.112"/>
<polygon fill="black" stroke="black" points="490.19,-118.104 486.69,-108.104 483.19,-118.104 490.19,-118.104"/>
</a>
</g>
</g>
<!-- bc_model_eastern_nosquash_nosoil&#45;&gt;dist_2050_rcp26_eastern_nosquash_nosoil -->
<g id="edge29" class="edge"><title>bc_model_eastern_nosquash_nosoil&#45;&gt;dist_2050_rcp26_eastern_nosquash_nosoil</title>
<g id="a_edge29"><a xlink:title="test">
<path fill="none" stroke="black" d="M262.023,-73.1159C293.414,-62.7994 334.532,-49.2865 367.827,-38.3447"/>
<polygon fill="black" stroke="black" points="369.033,-41.6323 377.441,-35.1851 366.848,-34.9822 369.033,-41.6323"/>
</a>
</g>
</g>
<!-- bc_model_eastern_nosquash_nosoil&#45;&gt;dist_eastern_nosquash_nosoil -->
<g id="edge30" class="edge"><title>bc_model_eastern_nosquash_nosoil&#45;&gt;dist_eastern_nosquash_nosoil</title>
<g id="a_edge30"><a xlink:title="test">
<path fill="none" stroke="black" d="M189.967,-72.055C177.207,-62.9408 161.298,-51.5774 147.481,-41.7077"/>
<polygon fill="black" stroke="black" points="149.366,-38.7533 139.194,-35.789 145.297,-44.4495 149.366,-38.7533"/>
</a>
</g>
</g>
<!-- hwsdNA_raster&#45;&gt;predictors -->
<g id="edge31" class="edge"><title>hwsdNA_raster&#45;&gt;predictors</title>
<g id="a_edge31"><a xlink:title="test">
<path fill="none" stroke="black" d="M687.312,-288.055C681.712,-279.715 674.848,-269.491 668.644,-260.252"/>
<polygon fill="black" stroke="black" points="671.443,-258.14 662.962,-251.789 665.631,-262.042 671.443,-258.14"/>
</a>
</g>
</g>
<!-- future_predictors_2070_rcp26 -->
<g id="future_predictors_2070_rcp26" class="node"><title>future_predictors_2070_rcp26</title>
<g id="a_future_predictors_2070_rcp26"><a xlink:href="javascript:void();" xlink:title="future_predictors_2070_rcp26">
<ellipse fill="none" stroke="black" cx="1230.69" cy="-522" rx="117.779" ry="18"/>
<text text-anchor="middle" x="1230.69" y="-518.3" font-family="Times,serif" font-size="14.00">future_predictors_2070_rcp26</text>
</a>
</g>
</g>
<!-- latlon_bison&#45;&gt;latlon -->
<g id="edge32" class="edge"><title>latlon_bison&#45;&gt;latlon</title>
<g id="a_edge32"><a xlink:title="test">
<path fill="none" stroke="black" d="M948.978,-433.116C960.951,-423.255 976.471,-410.474 989.421,-399.81"/>
<polygon fill="black" stroke="black" points="992.002,-402.218 997.497,-393.159 987.552,-396.814 992.002,-402.218"/>
</a>
</g>
</g>
<!-- latlon_gbif -->
<g id="latlon_gbif" class="node"><title>latlon_gbif</title>
<g id="a_latlon_gbif"><a xlink:href="javascript:void();" xlink:title="latlon_gbif">
<ellipse fill="none" stroke="black" cx="1050.69" cy="-450" rx="49.2915" ry="18"/>
<text text-anchor="middle" x="1050.69" y="-446.3" font-family="Times,serif" font-size="14.00">latlon_gbif</text>
</a>
</g>
</g>
<!-- latlon_gbif&#45;&gt;latlon -->
<g id="edge33" class="edge"><title>latlon_gbif&#45;&gt;latlon</title>
<g id="a_edge33"><a xlink:title="test">
<path fill="none" stroke="black" d="M1041.98,-432.055C1037.77,-423.887 1032.64,-413.912 1027.97,-404.824"/>
<polygon fill="black" stroke="black" points="1031.01,-403.081 1023.32,-395.789 1024.79,-406.283 1031.01,-403.081"/>
</a>
</g>
</g>
<!-- gbif_data -->
<g id="gbif_data" class="node"><title>gbif_data</title>
<g id="a_gbif_data"><a xlink:href="javascript:void();" xlink:title="gbif_data">
<ellipse fill="none" stroke="black" cx="1050.69" cy="-522" rx="44.393" ry="18"/>
<text text-anchor="middle" x="1050.69" y="-518.3" font-family="Times,serif" font-size="14.00">gbif_data</text>
</a>
</g>
</g>
<!-- gbif_data&#45;&gt;latlon_gbif -->
<g id="edge34" class="edge"><title>gbif_data&#45;&gt;latlon_gbif</title>
<g id="a_edge34"><a xlink:title="test">
<path fill="none" stroke="black" d="M1050.69,-503.697C1050.69,-495.983 1050.69,-486.712 1050.69,-478.112"/>
<polygon fill="black" stroke="black" points="1054.19,-478.104 1050.69,-468.104 1047.19,-478.104 1054.19,-478.104"/>
</a>
</g>
</g>
</g>
</svg>
