<?xml version="1.0" encoding="UTF-8" standalone="no"?>
<!DOCTYPE svg PUBLIC "-//W3C//DTD SVG 1.1//EN"
 "http://www.w3.org/Graphics/SVG/1.1/DTD/svg11.dtd">
<!-- Generated by graphviz version 2.38.0 (20140413.2041)
 -->
<!-- Title: %3 Pages: 1 -->
<svg width="818pt" height="548pt"
 viewBox="0.00 0.00 818.00 548.00" xmlns="http://www.w3.org/2000/svg" xmlns:xlink="http://www.w3.org/1999/xlink">
<g id="graph0" class="graph" transform="scale(1 1) rotate(0) translate(4 544)">
<title>%3</title>
<polygon fill="white" stroke="none" points="-4,4 -4,-544 813.996,-544 813.996,4 -4,4"/>
<!-- bioclim_raster -->
<g id="bioclim_raster" class="node"><title>bioclim_raster</title>
<g id="a_bioclim_raster"><a xlink:href="javascript:void();" xlink:title="bioclim_raster">
<ellipse fill="none" stroke="black" cx="206.304" cy="-450" rx="61.99" ry="18"/>
<text text-anchor="middle" x="206.304" y="-446.3" font-family="Times,serif" font-size="14.00">bioclim_raster</text>
</a>
</g>
</g>
<!-- bioclimNA_raster -->
<g id="bioclimNA_raster" class="node"><title>bioclimNA_raster</title>
<g id="a_bioclimNA_raster"><a xlink:href="javascript:void();" xlink:title="bioclimNA_raster">
<ellipse fill="none" stroke="black" cx="206.304" cy="-378" rx="74.9875" ry="18"/>
<text text-anchor="middle" x="206.304" y="-374.3" font-family="Times,serif" font-size="14.00">bioclimNA_raster</text>
</a>
</g>
</g>
<!-- bioclim_raster&#45;&gt;bioclimNA_raster -->
<g id="edge1" class="edge"><title>bioclim_raster&#45;&gt;bioclimNA_raster</title>
<g id="a_edge1"><a xlink:title="test">
<path fill="none" stroke="black" d="M206.304,-431.697C206.304,-423.983 206.304,-414.712 206.304,-406.112"/>
<polygon fill="black" stroke="black" points="209.804,-406.104 206.304,-396.104 202.804,-406.104 209.804,-406.104"/>
</a>
</g>
</g>
<!-- hwsdNAsp -->
<g id="hwsdNAsp" class="node"><title>hwsdNAsp</title>
<g id="a_hwsdNAsp"><a xlink:href="javascript:void();" xlink:title="hwsdNAsp">
<ellipse fill="none" stroke="black" cx="63.3037" cy="-378" rx="50.0912" ry="18"/>
<text text-anchor="middle" x="63.3037" y="-374.3" font-family="Times,serif" font-size="14.00">hwsdNAsp</text>
</a>
</g>
</g>
<!-- hwsdNA_raster -->
<g id="hwsdNA_raster" class="node"><title>hwsdNA_raster</title>
<g id="a_hwsdNA_raster"><a xlink:href="javascript:void();" xlink:title="hwsdNA_raster">
<ellipse fill="none" stroke="black" cx="75.3037" cy="-306" rx="65.7887" ry="18"/>
<text text-anchor="middle" x="75.3037" y="-302.3" font-family="Times,serif" font-size="14.00">hwsdNA_raster</text>
</a>
</g>
</g>
<!-- hwsdNAsp&#45;&gt;hwsdNA_raster -->
<g id="edge2" class="edge"><title>hwsdNAsp&#45;&gt;hwsdNA_raster</title>
<g id="a_edge2"><a xlink:title="test">
<path fill="none" stroke="black" d="M66.27,-359.697C67.5924,-351.983 69.1816,-342.712 70.6559,-334.112"/>
<polygon fill="black" stroke="black" points="74.1315,-334.552 72.3716,-324.104 67.2322,-333.369 74.1315,-334.552"/>
</a>
</g>
</g>
<!-- bison_data -->
<g id="bison_data" class="node"><title>bison_data</title>
<g id="a_bison_data"><a xlink:href="javascript:void();" xlink:title="bison_data">
<ellipse fill="none" stroke="black" cx="750.304" cy="-522" rx="48.9926" ry="18"/>
<text text-anchor="middle" x="750.304" y="-518.3" font-family="Times,serif" font-size="14.00">bison_data</text>
</a>
</g>
</g>
<!-- latlon_bison -->
<g id="latlon_bison" class="node"><title>latlon_bison</title>
<g id="a_latlon_bison"><a xlink:href="javascript:void();" xlink:title="latlon_bison">
<ellipse fill="none" stroke="black" cx="750.304" cy="-450" rx="53.8905" ry="18"/>
<text text-anchor="middle" x="750.304" y="-446.3" font-family="Times,serif" font-size="14.00">latlon_bison</text>
</a>
</g>
</g>
<!-- bison_data&#45;&gt;latlon_bison -->
<g id="edge3" class="edge"><title>bison_data&#45;&gt;latlon_bison</title>
<g id="a_edge3"><a xlink:title="test">
<path fill="none" stroke="black" d="M750.304,-503.697C750.304,-495.983 750.304,-486.712 750.304,-478.112"/>
<polygon fill="black" stroke="black" points="753.804,-478.104 750.304,-468.104 746.804,-478.104 753.804,-478.104"/>
</a>
</g>
</g>
<!-- latlon_eastern -->
<g id="latlon_eastern" class="node"><title>latlon_eastern</title>
<g id="a_latlon_eastern"><a xlink:href="javascript:void();" xlink:title="latlon_eastern">
<ellipse fill="none" stroke="black" cx="536.304" cy="-234" rx="59.5901" ry="18"/>
<text text-anchor="middle" x="536.304" y="-230.3" font-family="Times,serif" font-size="14.00">latlon_eastern</text>
</a>
</g>
</g>
<!-- latlon_eastern_vals -->
<g id="latlon_eastern_vals" class="node"><title>latlon_eastern_vals</title>
<g id="a_latlon_eastern_vals"><a xlink:href="javascript:void();" xlink:title="latlon_eastern_vals">
<ellipse fill="none" stroke="black" cx="414.304" cy="-162" rx="78.7863" ry="18"/>
<text text-anchor="middle" x="414.304" y="-158.3" font-family="Times,serif" font-size="14.00">latlon_eastern_vals</text>
</a>
</g>
</g>
<!-- latlon_eastern&#45;&gt;latlon_eastern_vals -->
<g id="edge4" class="edge"><title>latlon_eastern&#45;&gt;latlon_eastern_vals</title>
<g id="a_edge4"><a xlink:title="test">
<path fill="none" stroke="black" d="M509.832,-217.811C492.529,-207.883 469.7,-194.785 450.698,-183.882"/>
<polygon fill="black" stroke="black" points="452.41,-180.829 441.995,-178.888 448.926,-186.901 452.41,-180.829"/>
</a>
</g>
</g>
<!-- eastern_boundaries -->
<g id="eastern_boundaries" class="node"><title>eastern_boundaries</title>
<g id="a_eastern_boundaries"><a xlink:href="javascript:void();" xlink:title="eastern_boundaries">
<ellipse fill="none" stroke="black" cx="536.304" cy="-306" rx="78.7863" ry="18"/>
<text text-anchor="middle" x="536.304" y="-302.3" font-family="Times,serif" font-size="14.00">eastern_boundaries</text>
</a>
</g>
</g>
<!-- eastern_boundaries&#45;&gt;latlon_eastern -->
<g id="edge5" class="edge"><title>eastern_boundaries&#45;&gt;latlon_eastern</title>
<g id="a_edge5"><a xlink:title="test">
<path fill="none" stroke="black" d="M536.304,-287.697C536.304,-279.983 536.304,-270.712 536.304,-262.112"/>
<polygon fill="black" stroke="black" points="539.804,-262.104 536.304,-252.104 532.804,-262.104 539.804,-262.104"/>
</a>
</g>
</g>
<!-- latlon_gbif -->
<g id="latlon_gbif" class="node"><title>latlon_gbif</title>
<g id="a_latlon_gbif"><a xlink:href="javascript:void();" xlink:title="latlon_gbif">
<ellipse fill="none" stroke="black" cx="629.304" cy="-450" rx="49.2915" ry="18"/>
<text text-anchor="middle" x="629.304" y="-446.3" font-family="Times,serif" font-size="14.00">latlon_gbif</text>
</a>
</g>
</g>
<!-- latlon -->
<g id="latlon" class="node"><title>latlon</title>
<g id="a_latlon"><a xlink:href="javascript:void();" xlink:title="latlon">
<ellipse fill="none" stroke="black" cx="690.304" cy="-378" rx="30.5947" ry="18"/>
<text text-anchor="middle" x="690.304" y="-374.3" font-family="Times,serif" font-size="14.00">latlon</text>
</a>
</g>
</g>
<!-- latlon_gbif&#45;&gt;latlon -->
<g id="edge6" class="edge"><title>latlon_gbif&#45;&gt;latlon</title>
<g id="a_edge6"><a xlink:title="test">
<path fill="none" stroke="black" d="M643.76,-432.411C651.655,-423.351 661.555,-411.99 670.193,-402.078"/>
<polygon fill="black" stroke="black" points="672.856,-404.349 676.787,-394.511 667.579,-399.751 672.856,-404.349"/>
</a>
</g>
</g>
<!-- cucurbit_distanceNA_raster -->
<g id="cucurbit_distanceNA_raster" class="node"><title>cucurbit_distanceNA_raster</title>
<g id="a_cucurbit_distanceNA_raster"><a xlink:href="javascript:void();" xlink:title="cucurbit_distanceNA_raster">
<ellipse fill="none" stroke="black" cx="330.304" cy="-306" rx="109.381" ry="18"/>
<text text-anchor="middle" x="330.304" y="-302.3" font-family="Times,serif" font-size="14.00">cucurbit_distanceNA_raster</text>
</a>
</g>
</g>
<!-- bioclimNA_raster&#45;&gt;cucurbit_distanceNA_raster -->
<g id="edge8" class="edge"><title>bioclimNA_raster&#45;&gt;cucurbit_distanceNA_raster</title>
<g id="a_edge8"><a xlink:title="test">
<path fill="none" stroke="black" d="M234.132,-361.291C251.314,-351.591 273.587,-339.017 292.372,-328.413"/>
<polygon fill="black" stroke="black" points="294.288,-331.351 301.275,-323.387 290.846,-325.255 294.288,-331.351"/>
</a>
</g>
</g>
<!-- bioclimNA_raster&#45;&gt;hwsdNA_raster -->
<g id="edge9" class="edge"><title>bioclimNA_raster&#45;&gt;hwsdNA_raster</title>
<g id="a_edge9"><a xlink:title="test">
<path fill="none" stroke="black" d="M176.905,-361.291C158.065,-351.223 133.43,-338.06 113.136,-327.216"/>
<polygon fill="black" stroke="black" points="114.623,-324.042 104.154,-322.416 111.324,-330.216 114.623,-324.042"/>
</a>
</g>
</g>
<!-- predictors -->
<g id="predictors" class="node"><title>predictors</title>
<g id="a_predictors"><a xlink:href="javascript:void();" xlink:title="predictors">
<ellipse fill="none" stroke="black" cx="261.304" cy="-234" rx="46.2923" ry="18"/>
<text text-anchor="middle" x="261.304" y="-230.3" font-family="Times,serif" font-size="14.00">predictors</text>
</a>
</g>
</g>
<!-- bioclimNA_raster&#45;&gt;predictors -->
<g id="edge7" class="edge"><title>bioclimNA_raster&#45;&gt;predictors</title>
<g id="a_edge7"><a xlink:title="test">
<path fill="none" stroke="black" d="M204.178,-359.816C202.619,-341.291 202.255,-311.326 212.304,-288 217.212,-276.606 225.652,-266.099 234.158,-257.496"/>
<polygon fill="black" stroke="black" points="236.73,-259.88 241.563,-250.451 231.905,-254.808 236.73,-259.88"/>
</a>
</g>
</g>
<!-- cucurbit_points -->
<g id="cucurbit_points" class="node"><title>cucurbit_points</title>
<g id="a_cucurbit_points"><a xlink:href="javascript:void();" xlink:title="cucurbit_points">
<ellipse fill="none" stroke="black" cx="364.304" cy="-378" rx="65.7887" ry="18"/>
<text text-anchor="middle" x="364.304" y="-374.3" font-family="Times,serif" font-size="14.00">cucurbit_points</text>
</a>
</g>
</g>
<!-- cucurbit_points&#45;&gt;cucurbit_distanceNA_raster -->
<g id="edge10" class="edge"><title>cucurbit_points&#45;&gt;cucurbit_distanceNA_raster</title>
<g id="a_edge10"><a xlink:title="test">
<path fill="none" stroke="black" d="M356.073,-360.055C352.205,-352.091 347.503,-342.411 343.18,-333.51"/>
<polygon fill="black" stroke="black" points="346.212,-331.741 338.695,-324.275 339.915,-334.8 346.212,-331.741"/>
</a>
</g>
</g>
<!-- model_eastern_nosoil -->
<g id="model_eastern_nosoil" class="node"><title>model_eastern_nosoil</title>
<g id="a_model_eastern_nosoil"><a xlink:href="javascript:void();" xlink:title="model_eastern_nosoil">
<ellipse fill="none" stroke="black" cx="145.304" cy="-90" rx="88.2844" ry="18"/>
<text text-anchor="middle" x="145.304" y="-86.3" font-family="Times,serif" font-size="14.00">model_eastern_nosoil</text>
</a>
</g>
</g>
<!-- latlon_eastern_vals&#45;&gt;model_eastern_nosoil -->
<g id="edge13" class="edge"><title>latlon_eastern_vals&#45;&gt;model_eastern_nosoil</title>
<g id="a_edge13"><a xlink:title="test">
<path fill="none" stroke="black" d="M364.337,-147.998C320.08,-136.481 255.288,-119.62 207.65,-107.224"/>
<polygon fill="black" stroke="black" points="208.317,-103.781 197.758,-104.65 206.554,-110.556 208.317,-103.781"/>
</a>
</g>
</g>
<!-- model_eastern_nosquash -->
<g id="model_eastern_nosquash" class="node"><title>model_eastern_nosquash</title>
<g id="a_model_eastern_nosquash"><a xlink:href="javascript:void();" xlink:title="model_eastern_nosquash">
<ellipse fill="none" stroke="black" cx="657.304" cy="-90" rx="99.3824" ry="18"/>
<text text-anchor="middle" x="657.304" y="-86.3" font-family="Times,serif" font-size="14.00">model_eastern_nosquash</text>
</a>
</g>
</g>
<!-- latlon_eastern_vals&#45;&gt;model_eastern_nosquash -->
<g id="edge11" class="edge"><title>latlon_eastern_vals&#45;&gt;model_eastern_nosquash</title>
<g id="a_edge11"><a xlink:title="test">
<path fill="none" stroke="black" d="M461.157,-147.503C499.844,-136.359 555.016,-120.466 596.998,-108.372"/>
<polygon fill="black" stroke="black" points="598.184,-111.673 606.825,-105.541 596.247,-104.946 598.184,-111.673"/>
</a>
</g>
</g>
<!-- model_eastern_nosquash_nosoil -->
<g id="model_eastern_nosquash_nosoil" class="node"><title>model_eastern_nosquash_nosoil</title>
<g id="a_model_eastern_nosquash_nosoil"><a xlink:href="javascript:void();" xlink:title="model_eastern_nosquash_nosoil">
<ellipse fill="none" stroke="black" cx="414.304" cy="-90" rx="125.378" ry="18"/>
<text text-anchor="middle" x="414.304" y="-86.3" font-family="Times,serif" font-size="14.00">model_eastern_nosquash_nosoil</text>
</a>
</g>
</g>
<!-- latlon_eastern_vals&#45;&gt;model_eastern_nosquash_nosoil -->
<g id="edge12" class="edge"><title>latlon_eastern_vals&#45;&gt;model_eastern_nosquash_nosoil</title>
<g id="a_edge12"><a xlink:title="test">
<path fill="none" stroke="black" d="M414.304,-143.697C414.304,-135.983 414.304,-126.712 414.304,-118.112"/>
<polygon fill="black" stroke="black" points="417.804,-118.104 414.304,-108.104 410.804,-118.104 417.804,-118.104"/>
</a>
</g>
</g>
<!-- cucurbit_distanceNA_raster&#45;&gt;predictors -->
<g id="edge14" class="edge"><title>cucurbit_distanceNA_raster&#45;&gt;predictors</title>
<g id="a_edge14"><a xlink:title="test">
<path fill="none" stroke="black" d="M313.601,-288.055C304.915,-279.243 294.156,-268.328 284.66,-258.694"/>
<polygon fill="black" stroke="black" points="286.89,-255.972 277.378,-251.307 281.905,-260.886 286.89,-255.972"/>
</a>
</g>
</g>
<!-- latlon_sparse -->
<g id="latlon_sparse" class="node"><title>latlon_sparse</title>
<g id="a_latlon_sparse"><a xlink:href="javascript:void();" xlink:title="latlon_sparse">
<ellipse fill="none" stroke="black" cx="690.304" cy="-306" rx="57.3905" ry="18"/>
<text text-anchor="middle" x="690.304" y="-302.3" font-family="Times,serif" font-size="14.00">latlon_sparse</text>
</a>
</g>
</g>
<!-- latlon_sparse&#45;&gt;latlon_eastern -->
<g id="edge15" class="edge"><title>latlon_sparse&#45;&gt;latlon_eastern</title>
<g id="a_edge15"><a xlink:title="test">
<path fill="none" stroke="black" d="M659.14,-290.834C635.5,-280.089 602.798,-265.225 577.08,-253.535"/>
<polygon fill="black" stroke="black" points="578.502,-250.337 567.95,-249.385 575.605,-256.709 578.502,-250.337"/>
</a>
</g>
</g>
<!-- hwsdNA_raster&#45;&gt;predictors -->
<g id="edge16" class="edge"><title>hwsdNA_raster&#45;&gt;predictors</title>
<g id="a_edge16"><a xlink:title="test">
<path fill="none" stroke="black" d="M112.497,-291.003C143.433,-279.36 187.444,-262.797 219.576,-250.704"/>
<polygon fill="black" stroke="black" points="221.013,-253.903 229.139,-247.105 218.547,-247.352 221.013,-253.903"/>
</a>
</g>
</g>
<!-- dist_eastern_nosoil -->
<g id="dist_eastern_nosoil" class="node"><title>dist_eastern_nosoil</title>
<g id="a_dist_eastern_nosoil"><a xlink:href="javascript:void();" xlink:title="dist_eastern_nosoil">
<ellipse fill="none" stroke="black" cx="92.3037" cy="-18" rx="78.7863" ry="18"/>
<text text-anchor="middle" x="92.3037" y="-14.3" font-family="Times,serif" font-size="14.00">dist_eastern_nosoil</text>
</a>
</g>
</g>
<!-- model_eastern_nosoil&#45;&gt;dist_eastern_nosoil -->
<g id="edge17" class="edge"><title>model_eastern_nosoil&#45;&gt;dist_eastern_nosoil</title>
<g id="a_edge17"><a xlink:title="test">
<path fill="none" stroke="black" d="M132.474,-72.055C126.094,-63.6287 118.258,-53.2798 111.207,-43.9663"/>
<polygon fill="black" stroke="black" points="113.842,-41.6489 105.015,-35.789 108.261,-45.8744 113.842,-41.6489"/>
</a>
</g>
</g>
<!-- ext -->
<g id="ext" class="node"><title>ext</title>
<g id="a_ext"><a xlink:href="javascript:void();" xlink:title="ext">
<ellipse fill="none" stroke="black" cx="42.3037" cy="-450" rx="27" ry="18"/>
<text text-anchor="middle" x="42.3037" y="-446.3" font-family="Times,serif" font-size="14.00">ext</text>
</a>
</g>
</g>
<!-- ext&#45;&gt;bioclimNA_raster -->
<g id="edge18" class="edge"><title>ext&#45;&gt;bioclimNA_raster</title>
<g id="a_edge18"><a xlink:title="test">
<path fill="none" stroke="black" d="M64.4215,-439.559C89.222,-428.974 130.091,-411.53 161.612,-398.076"/>
<polygon fill="black" stroke="black" points="163.243,-401.185 171.067,-394.04 160.495,-394.747 163.243,-401.185"/>
</a>
</g>
</g>
<!-- ext&#45;&gt;hwsdNA_raster -->
<g id="edge19" class="edge"><title>ext&#45;&gt;hwsdNA_raster</title>
<g id="a_edge19"><a xlink:title="test">
<path fill="none" stroke="black" d="M28.2588,-434.574C12.7074,-416.765 -8.57348,-385.682 4.30372,-360 10.9613,-346.722 22.6981,-335.921 34.7353,-327.616"/>
<polygon fill="black" stroke="black" points="36.9527,-330.352 43.4849,-322.011 33.1766,-324.458 36.9527,-330.352"/>
</a>
</g>
</g>
<!-- dist_eastern_nosquash -->
<g id="dist_eastern_nosquash" class="node"><title>dist_eastern_nosquash</title>
<g id="a_dist_eastern_nosquash"><a xlink:href="javascript:void();" xlink:title="dist_eastern_nosquash">
<ellipse fill="none" stroke="black" cx="720.304" cy="-18" rx="89.8845" ry="18"/>
<text text-anchor="middle" x="720.304" y="-14.3" font-family="Times,serif" font-size="14.00">dist_eastern_nosquash</text>
</a>
</g>
</g>
<!-- model_eastern_nosquash&#45;&gt;dist_eastern_nosquash -->
<g id="edge20" class="edge"><title>model_eastern_nosquash&#45;&gt;dist_eastern_nosquash</title>
<g id="a_edge20"><a xlink:title="test">
<path fill="none" stroke="black" d="M672.554,-72.055C680.293,-63.4567 689.833,-52.8566 698.346,-43.3974"/>
<polygon fill="black" stroke="black" points="701.105,-45.5634 705.194,-35.789 695.902,-40.8806 701.105,-45.5634"/>
</a>
</g>
</g>
<!-- latlon_bison&#45;&gt;latlon -->
<g id="edge21" class="edge"><title>latlon_bison&#45;&gt;latlon</title>
<g id="a_edge21"><a xlink:title="test">
<path fill="none" stroke="black" d="M736.085,-432.411C728.396,-423.441 718.774,-412.215 710.338,-402.373"/>
<polygon fill="black" stroke="black" points="712.764,-399.826 703.599,-394.511 707.449,-404.381 712.764,-399.826"/>
</a>
</g>
</g>
<!-- latlon&#45;&gt;latlon_sparse -->
<g id="edge22" class="edge"><title>latlon&#45;&gt;latlon_sparse</title>
<g id="a_edge22"><a xlink:title="test">
<path fill="none" stroke="black" d="M690.304,-359.697C690.304,-351.983 690.304,-342.712 690.304,-334.112"/>
<polygon fill="black" stroke="black" points="693.804,-334.104 690.304,-324.104 686.804,-334.104 693.804,-334.104"/>
</a>
</g>
</g>
<!-- gbif_data -->
<g id="gbif_data" class="node"><title>gbif_data</title>
<g id="a_gbif_data"><a xlink:href="javascript:void();" xlink:title="gbif_data">
<ellipse fill="none" stroke="black" cx="629.304" cy="-522" rx="44.393" ry="18"/>
<text text-anchor="middle" x="629.304" y="-518.3" font-family="Times,serif" font-size="14.00">gbif_data</text>
</a>
</g>
</g>
<!-- gbif_data&#45;&gt;latlon_gbif -->
<g id="edge23" class="edge"><title>gbif_data&#45;&gt;latlon_gbif</title>
<g id="a_edge23"><a xlink:title="test">
<path fill="none" stroke="black" d="M629.304,-503.697C629.304,-495.983 629.304,-486.712 629.304,-478.112"/>
<polygon fill="black" stroke="black" points="632.804,-478.104 629.304,-468.104 625.804,-478.104 632.804,-478.104"/>
</a>
</g>
</g>
<!-- dist_eastern_nosquash_nosoil -->
<g id="dist_eastern_nosquash_nosoil" class="node"><title>dist_eastern_nosquash_nosoil</title>
<g id="a_dist_eastern_nosquash_nosoil"><a xlink:href="javascript:void();" xlink:title="dist_eastern_nosquash_nosoil">
<ellipse fill="none" stroke="black" cx="314.304" cy="-18" rx="115.88" ry="18"/>
<text text-anchor="middle" x="314.304" y="-14.3" font-family="Times,serif" font-size="14.00">dist_eastern_nosquash_nosoil</text>
</a>
</g>
</g>
<!-- predictors&#45;&gt;latlon_eastern_vals -->
<g id="edge27" class="edge"><title>predictors&#45;&gt;latlon_eastern_vals</title>
<g id="a_edge27"><a xlink:title="test">
<path fill="none" stroke="black" d="M290.082,-219.834C313.056,-209.322 345.592,-194.437 371.602,-182.537"/>
<polygon fill="black" stroke="black" points="373.223,-185.644 380.86,-178.301 370.311,-179.279 373.223,-185.644"/>
</a>
</g>
</g>
<!-- predictors&#45;&gt;dist_eastern_nosquash_nosoil -->
<g id="edge24" class="edge"><title>predictors&#45;&gt;dist_eastern_nosquash_nosoil</title>
<g id="a_edge24"><a xlink:title="test">
<path fill="none" stroke="black" d="M260.841,-215.979C260.559,-185.968 262.367,-122.08 280.304,-72 283.751,-62.3756 289.216,-52.7103 294.766,-44.3183"/>
<polygon fill="black" stroke="black" points="297.654,-46.295 300.498,-36.089 291.911,-42.2939 297.654,-46.295"/>
</a>
</g>
</g>
<!-- predictors&#45;&gt;dist_eastern_nosoil -->
<g id="edge25" class="edge"><title>predictors&#45;&gt;dist_eastern_nosoil</title>
<g id="a_edge25"><a xlink:title="test">
<path fill="none" stroke="black" d="M223.745,-223.451C173.402,-208.402 86.0161,-173.858 48.3037,-108 36.1224,-86.7272 51.0551,-61.6225 66.7354,-43.5088"/>
<polygon fill="black" stroke="black" points="69.707,-45.4479 73.8977,-35.7171 64.5535,-40.7106 69.707,-45.4479"/>
</a>
</g>
</g>
<!-- predictors&#45;&gt;dist_eastern_nosquash -->
<g id="edge26" class="edge"><title>predictors&#45;&gt;dist_eastern_nosquash</title>
<g id="a_edge26"><a xlink:title="test">
<path fill="none" stroke="black" d="M305.844,-228.923C418.366,-217.601 709.113,-181.641 765.304,-108 780.559,-88.0067 764.017,-62.0499 746.848,-43.3332"/>
<polygon fill="black" stroke="black" points="749.015,-40.5398 739.543,-35.7934 743.988,-45.4108 749.015,-40.5398"/>
</a>
</g>
</g>
<!-- model_eastern_nosquash_nosoil&#45;&gt;dist_eastern_nosquash_nosoil -->
<g id="edge28" class="edge"><title>model_eastern_nosquash_nosoil&#45;&gt;dist_eastern_nosquash_nosoil</title>
<g id="a_edge28"><a xlink:title="test">
<path fill="none" stroke="black" d="M390.351,-72.2333C377.24,-63.0556 360.814,-51.5573 346.586,-41.5978"/>
<polygon fill="black" stroke="black" points="348.26,-38.4973 338.061,-35.6299 344.246,-44.2319 348.26,-38.4973"/>
</a>
</g>
</g>
</g>
</svg>
