<?xml version="1.0" encoding="UTF-8" standalone="no"?>
<!DOCTYPE svg PUBLIC "-//W3C//DTD SVG 1.1//EN"
 "http://www.w3.org/Graphics/SVG/1.1/DTD/svg11.dtd">
<!-- Generated by graphviz version 2.38.0 (20140413.2041)
 -->
<!-- Title: %3 Pages: 1 -->
<svg width="802pt" height="548pt"
 viewBox="0.00 0.00 802.33 548.00" xmlns="http://www.w3.org/2000/svg" xmlns:xlink="http://www.w3.org/1999/xlink">
<g id="graph0" class="graph" transform="scale(1 1) rotate(0) translate(4 544)">
<title>%3</title>
<polygon fill="white" stroke="none" points="-4,4 -4,-544 798.333,-544 798.333,4 -4,4"/>
<!-- dist_eastern_nosquash_nosoil -->
<g id="dist_eastern_nosquash_nosoil" class="node"><title>dist_eastern_nosquash_nosoil</title>
<g id="a_dist_eastern_nosquash_nosoil"><a xlink:href="javascript:void();" xlink:title="dist_eastern_nosquash_nosoil">
<ellipse fill="none" stroke="black" cx="115.69" cy="-18" rx="115.88" ry="18"/>
<text text-anchor="middle" x="115.69" y="-14.3" font-family="Times,serif" font-size="14.00">dist_eastern_nosquash_nosoil</text>
</a>
</g>
</g>
<!-- hwsdNA_raster -->
<g id="hwsdNA_raster" class="node"><title>hwsdNA_raster</title>
<g id="a_hwsdNA_raster"><a xlink:href="javascript:void();" xlink:title="hwsdNA_raster">
<ellipse fill="none" stroke="black" cx="371.69" cy="-306" rx="65.7887" ry="18"/>
<text text-anchor="middle" x="371.69" y="-302.3" font-family="Times,serif" font-size="14.00">hwsdNA_raster</text>
</a>
</g>
</g>
<!-- predictors -->
<g id="predictors" class="node"><title>predictors</title>
<g id="a_predictors"><a xlink:href="javascript:void();" xlink:title="predictors">
<ellipse fill="none" stroke="black" cx="324.69" cy="-234" rx="46.2923" ry="18"/>
<text text-anchor="middle" x="324.69" y="-230.3" font-family="Times,serif" font-size="14.00">predictors</text>
</a>
</g>
</g>
<!-- hwsdNA_raster&#45;&gt;predictors -->
<g id="edge1" class="edge"><title>hwsdNA_raster&#45;&gt;predictors</title>
<g id="a_edge1"><a xlink:title="test">
<path fill="none" stroke="black" d="M360.312,-288.055C354.712,-279.715 347.848,-269.491 341.644,-260.252"/>
<polygon fill="black" stroke="black" points="344.443,-258.14 335.962,-251.789 338.631,-262.042 344.443,-258.14"/>
</a>
</g>
</g>
<!-- cucurbit_points -->
<g id="cucurbit_points" class="node"><title>cucurbit_points</title>
<g id="a_cucurbit_points"><a xlink:href="javascript:void();" xlink:title="cucurbit_points">
<ellipse fill="none" stroke="black" cx="110.69" cy="-378" rx="65.7887" ry="18"/>
<text text-anchor="middle" x="110.69" y="-374.3" font-family="Times,serif" font-size="14.00">cucurbit_points</text>
</a>
</g>
</g>
<!-- cucurbit_distanceNA_raster -->
<g id="cucurbit_distanceNA_raster" class="node"><title>cucurbit_distanceNA_raster</title>
<g id="a_cucurbit_distanceNA_raster"><a xlink:href="javascript:void();" xlink:title="cucurbit_distanceNA_raster">
<ellipse fill="none" stroke="black" cx="140.69" cy="-306" rx="109.381" ry="18"/>
<text text-anchor="middle" x="140.69" y="-302.3" font-family="Times,serif" font-size="14.00">cucurbit_distanceNA_raster</text>
</a>
</g>
</g>
<!-- cucurbit_points&#45;&gt;cucurbit_distanceNA_raster -->
<g id="edge2" class="edge"><title>cucurbit_points&#45;&gt;cucurbit_distanceNA_raster</title>
<g id="a_edge2"><a xlink:title="test">
<path fill="none" stroke="black" d="M117.952,-360.055C121.365,-352.091 125.514,-342.411 129.328,-333.51"/>
<polygon fill="black" stroke="black" points="132.564,-334.845 133.286,-324.275 126.13,-332.088 132.564,-334.845"/>
</a>
</g>
</g>
<!-- latlon_sparse -->
<g id="latlon_sparse" class="node"><title>latlon_sparse</title>
<g id="a_latlon_sparse"><a xlink:href="javascript:void();" xlink:title="latlon_sparse">
<ellipse fill="none" stroke="black" cx="530.69" cy="-306" rx="57.3905" ry="18"/>
<text text-anchor="middle" x="530.69" y="-302.3" font-family="Times,serif" font-size="14.00">latlon_sparse</text>
</a>
</g>
</g>
<!-- latlon_eastern -->
<g id="latlon_eastern" class="node"><title>latlon_eastern</title>
<g id="a_latlon_eastern"><a xlink:href="javascript:void();" xlink:title="latlon_eastern">
<ellipse fill="none" stroke="black" cx="530.69" cy="-234" rx="59.5901" ry="18"/>
<text text-anchor="middle" x="530.69" y="-230.3" font-family="Times,serif" font-size="14.00">latlon_eastern</text>
</a>
</g>
</g>
<!-- latlon_sparse&#45;&gt;latlon_eastern -->
<g id="edge3" class="edge"><title>latlon_sparse&#45;&gt;latlon_eastern</title>
<g id="a_edge3"><a xlink:title="test">
<path fill="none" stroke="black" d="M530.69,-287.697C530.69,-279.983 530.69,-270.712 530.69,-262.112"/>
<polygon fill="black" stroke="black" points="534.19,-262.104 530.69,-252.104 527.19,-262.104 534.19,-262.104"/>
</a>
</g>
</g>
<!-- model_eastern_nosoil -->
<g id="model_eastern_nosoil" class="node"><title>model_eastern_nosoil</title>
<g id="a_model_eastern_nosoil"><a xlink:href="javascript:void();" xlink:title="model_eastern_nosoil">
<ellipse fill="none" stroke="black" cx="657.69" cy="-90" rx="88.2844" ry="18"/>
<text text-anchor="middle" x="657.69" y="-86.3" font-family="Times,serif" font-size="14.00">model_eastern_nosoil</text>
</a>
</g>
</g>
<!-- dist_eastern_nosoil -->
<g id="dist_eastern_nosoil" class="node"><title>dist_eastern_nosoil</title>
<g id="a_dist_eastern_nosoil"><a xlink:href="javascript:void();" xlink:title="dist_eastern_nosoil">
<ellipse fill="none" stroke="black" cx="715.69" cy="-18" rx="78.7863" ry="18"/>
<text text-anchor="middle" x="715.69" y="-14.3" font-family="Times,serif" font-size="14.00">dist_eastern_nosoil</text>
</a>
</g>
</g>
<!-- model_eastern_nosoil&#45;&gt;dist_eastern_nosoil -->
<g id="edge4" class="edge"><title>model_eastern_nosoil&#45;&gt;dist_eastern_nosoil</title>
<g id="a_edge4"><a xlink:title="test">
<path fill="none" stroke="black" d="M671.73,-72.055C678.783,-63.5427 687.462,-53.0684 695.239,-43.6815"/>
<polygon fill="black" stroke="black" points="698.094,-45.7223 701.779,-35.789 692.704,-41.2562 698.094,-45.7223"/>
</a>
</g>
</g>
<!-- model_eastern_nosquash -->
<g id="model_eastern_nosquash" class="node"><title>model_eastern_nosquash</title>
<g id="a_model_eastern_nosquash"><a xlink:href="javascript:void();" xlink:title="model_eastern_nosquash">
<ellipse fill="none" stroke="black" cx="451.69" cy="-90" rx="99.3824" ry="18"/>
<text text-anchor="middle" x="451.69" y="-86.3" font-family="Times,serif" font-size="14.00">model_eastern_nosquash</text>
</a>
</g>
</g>
<!-- dist_eastern_nosquash -->
<g id="dist_eastern_nosquash" class="node"><title>dist_eastern_nosquash</title>
<g id="a_dist_eastern_nosquash"><a xlink:href="javascript:void();" xlink:title="dist_eastern_nosquash">
<ellipse fill="none" stroke="black" cx="379.69" cy="-18" rx="89.8845" ry="18"/>
<text text-anchor="middle" x="379.69" y="-14.3" font-family="Times,serif" font-size="14.00">dist_eastern_nosquash</text>
</a>
</g>
</g>
<!-- model_eastern_nosquash&#45;&gt;dist_eastern_nosquash -->
<g id="edge5" class="edge"><title>model_eastern_nosquash&#45;&gt;dist_eastern_nosquash</title>
<g id="a_edge5"><a xlink:title="test">
<path fill="none" stroke="black" d="M434.261,-72.055C425.24,-63.2847 414.077,-52.4318 404.202,-42.8312"/>
<polygon fill="black" stroke="black" points="406.568,-40.2503 396.958,-35.789 401.689,-45.2693 406.568,-40.2503"/>
</a>
</g>
</g>
<!-- latlon_bison -->
<g id="latlon_bison" class="node"><title>latlon_bison</title>
<g id="a_latlon_bison"><a xlink:href="javascript:void();" xlink:title="latlon_bison">
<ellipse fill="none" stroke="black" cx="509.69" cy="-450" rx="53.8905" ry="18"/>
<text text-anchor="middle" x="509.69" y="-446.3" font-family="Times,serif" font-size="14.00">latlon_bison</text>
</a>
</g>
</g>
<!-- latlon -->
<g id="latlon" class="node"><title>latlon</title>
<g id="a_latlon"><a xlink:href="javascript:void();" xlink:title="latlon">
<ellipse fill="none" stroke="black" cx="548.69" cy="-378" rx="30.5947" ry="18"/>
<text text-anchor="middle" x="548.69" y="-374.3" font-family="Times,serif" font-size="14.00">latlon</text>
</a>
</g>
</g>
<!-- latlon_bison&#45;&gt;latlon -->
<g id="edge6" class="edge"><title>latlon_bison&#45;&gt;latlon</title>
<g id="a_edge6"><a xlink:title="test">
<path fill="none" stroke="black" d="M519.131,-432.055C523.797,-423.679 529.522,-413.404 534.686,-404.134"/>
<polygon fill="black" stroke="black" points="537.795,-405.746 539.604,-395.307 531.68,-402.339 537.795,-405.746"/>
</a>
</g>
</g>
<!-- bison_data -->
<g id="bison_data" class="node"><title>bison_data</title>
<g id="a_bison_data"><a xlink:href="javascript:void();" xlink:title="bison_data">
<ellipse fill="none" stroke="black" cx="509.69" cy="-522" rx="48.9926" ry="18"/>
<text text-anchor="middle" x="509.69" y="-518.3" font-family="Times,serif" font-size="14.00">bison_data</text>
</a>
</g>
</g>
<!-- bison_data&#45;&gt;latlon_bison -->
<g id="edge7" class="edge"><title>bison_data&#45;&gt;latlon_bison</title>
<g id="a_edge7"><a xlink:title="test">
<path fill="none" stroke="black" d="M509.69,-503.697C509.69,-495.983 509.69,-486.712 509.69,-478.112"/>
<polygon fill="black" stroke="black" points="513.19,-478.104 509.69,-468.104 506.19,-478.104 513.19,-478.104"/>
</a>
</g>
</g>
<!-- ext -->
<g id="ext" class="node"><title>ext</title>
<g id="a_ext"><a xlink:href="javascript:void();" xlink:title="ext">
<ellipse fill="none" stroke="black" cx="371.69" cy="-450" rx="27" ry="18"/>
<text text-anchor="middle" x="371.69" y="-446.3" font-family="Times,serif" font-size="14.00">ext</text>
</a>
</g>
</g>
<!-- ext&#45;&gt;hwsdNA_raster -->
<g id="edge8" class="edge"><title>ext&#45;&gt;hwsdNA_raster</title>
<g id="a_edge8"><a xlink:title="test">
<path fill="none" stroke="black" d="M371.69,-431.871C371.69,-407.67 371.69,-363.211 371.69,-334.393"/>
<polygon fill="black" stroke="black" points="375.19,-334.189 371.69,-324.189 368.19,-334.189 375.19,-334.189"/>
</a>
</g>
</g>
<!-- bioclimNA_raster -->
<g id="bioclimNA_raster" class="node"><title>bioclimNA_raster</title>
<g id="a_bioclimNA_raster"><a xlink:href="javascript:void();" xlink:title="bioclimNA_raster">
<ellipse fill="none" stroke="black" cx="268.69" cy="-378" rx="74.9875" ry="18"/>
<text text-anchor="middle" x="268.69" y="-374.3" font-family="Times,serif" font-size="14.00">bioclimNA_raster</text>
</a>
</g>
</g>
<!-- ext&#45;&gt;bioclimNA_raster -->
<g id="edge9" class="edge"><title>ext&#45;&gt;bioclimNA_raster</title>
<g id="a_edge9"><a xlink:title="test">
<path fill="none" stroke="black" d="M353.275,-436.485C338.789,-426.64 318.245,-412.678 301.031,-400.979"/>
<polygon fill="black" stroke="black" points="302.621,-397.828 292.383,-395.102 298.686,-403.618 302.621,-397.828"/>
</a>
</g>
</g>
<!-- model_eastern_nosquash_nosoil -->
<g id="model_eastern_nosquash_nosoil" class="node"><title>model_eastern_nosquash_nosoil</title>
<g id="a_model_eastern_nosquash_nosoil"><a xlink:href="javascript:void();" xlink:title="model_eastern_nosquash_nosoil">
<ellipse fill="none" stroke="black" cx="171.69" cy="-90" rx="125.378" ry="18"/>
<text text-anchor="middle" x="171.69" y="-86.3" font-family="Times,serif" font-size="14.00">model_eastern_nosquash_nosoil</text>
</a>
</g>
</g>
<!-- model_eastern_nosquash_nosoil&#45;&gt;dist_eastern_nosquash_nosoil -->
<g id="edge10" class="edge"><title>model_eastern_nosquash_nosoil&#45;&gt;dist_eastern_nosquash_nosoil</title>
<g id="a_edge10"><a xlink:title="test">
<path fill="none" stroke="black" d="M158.134,-72.055C151.424,-63.6679 143.191,-53.376 135.767,-44.0963"/>
<polygon fill="black" stroke="black" points="138.49,-41.8976 129.51,-36.2753 133.024,-46.2705 138.49,-41.8976"/>
</a>
</g>
</g>
<!-- latlon_eastern_vals -->
<g id="latlon_eastern_vals" class="node"><title>latlon_eastern_vals</title>
<g id="a_latlon_eastern_vals"><a xlink:href="javascript:void();" xlink:title="latlon_eastern_vals">
<ellipse fill="none" stroke="black" cx="451.69" cy="-162" rx="78.7863" ry="18"/>
<text text-anchor="middle" x="451.69" y="-158.3" font-family="Times,serif" font-size="14.00">latlon_eastern_vals</text>
</a>
</g>
</g>
<!-- latlon_eastern_vals&#45;&gt;model_eastern_nosoil -->
<g id="edge11" class="edge"><title>latlon_eastern_vals&#45;&gt;model_eastern_nosoil</title>
<g id="a_edge11"><a xlink:title="test">
<path fill="none" stroke="black" d="M493.874,-146.666C525.8,-135.817 569.872,-120.841 604.262,-109.155"/>
<polygon fill="black" stroke="black" points="605.8,-112.329 614.142,-105.798 603.548,-105.701 605.8,-112.329"/>
</a>
</g>
</g>
<!-- latlon_eastern_vals&#45;&gt;model_eastern_nosquash -->
<g id="edge12" class="edge"><title>latlon_eastern_vals&#45;&gt;model_eastern_nosquash</title>
<g id="a_edge12"><a xlink:title="test">
<path fill="none" stroke="black" d="M451.69,-143.697C451.69,-135.983 451.69,-126.712 451.69,-118.112"/>
<polygon fill="black" stroke="black" points="455.19,-118.104 451.69,-108.104 448.19,-118.104 455.19,-118.104"/>
</a>
</g>
</g>
<!-- latlon_eastern_vals&#45;&gt;model_eastern_nosquash_nosoil -->
<g id="edge13" class="edge"><title>latlon_eastern_vals&#45;&gt;model_eastern_nosquash_nosoil</title>
<g id="a_edge13"><a xlink:title="test">
<path fill="none" stroke="black" d="M400.659,-148.242C355.945,-137.064 290.557,-120.717 241.093,-108.351"/>
<polygon fill="black" stroke="black" points="241.659,-104.885 231.109,-105.855 239.961,-111.676 241.659,-104.885"/>
</a>
</g>
</g>
<!-- gbif_data -->
<g id="gbif_data" class="node"><title>gbif_data</title>
<g id="a_gbif_data"><a xlink:href="javascript:void();" xlink:title="gbif_data">
<ellipse fill="none" stroke="black" cx="630.69" cy="-522" rx="44.393" ry="18"/>
<text text-anchor="middle" x="630.69" y="-518.3" font-family="Times,serif" font-size="14.00">gbif_data</text>
</a>
</g>
</g>
<!-- latlon_gbif -->
<g id="latlon_gbif" class="node"><title>latlon_gbif</title>
<g id="a_latlon_gbif"><a xlink:href="javascript:void();" xlink:title="latlon_gbif">
<ellipse fill="none" stroke="black" cx="630.69" cy="-450" rx="49.2915" ry="18"/>
<text text-anchor="middle" x="630.69" y="-446.3" font-family="Times,serif" font-size="14.00">latlon_gbif</text>
</a>
</g>
</g>
<!-- gbif_data&#45;&gt;latlon_gbif -->
<g id="edge14" class="edge"><title>gbif_data&#45;&gt;latlon_gbif</title>
<g id="a_edge14"><a xlink:title="test">
<path fill="none" stroke="black" d="M630.69,-503.697C630.69,-495.983 630.69,-486.712 630.69,-478.112"/>
<polygon fill="black" stroke="black" points="634.19,-478.104 630.69,-468.104 627.19,-478.104 634.19,-478.104"/>
</a>
</g>
</g>
<!-- hwsdNAsp -->
<g id="hwsdNAsp" class="node"><title>hwsdNAsp</title>
<g id="a_hwsdNAsp"><a xlink:href="javascript:void();" xlink:title="hwsdNAsp">
<ellipse fill="none" stroke="black" cx="449.69" cy="-378" rx="50.0912" ry="18"/>
<text text-anchor="middle" x="449.69" y="-374.3" font-family="Times,serif" font-size="14.00">hwsdNAsp</text>
</a>
</g>
</g>
<!-- hwsdNAsp&#45;&gt;hwsdNA_raster -->
<g id="edge15" class="edge"><title>hwsdNAsp&#45;&gt;hwsdNA_raster</title>
<g id="a_edge15"><a xlink:title="test">
<path fill="none" stroke="black" d="M431.99,-361.116C421.765,-351.939 408.721,-340.233 397.382,-330.057"/>
<polygon fill="black" stroke="black" points="399.641,-327.381 389.86,-323.307 394.965,-332.591 399.641,-327.381"/>
</a>
</g>
</g>
<!-- latlon&#45;&gt;latlon_sparse -->
<g id="edge16" class="edge"><title>latlon&#45;&gt;latlon_sparse</title>
<g id="a_edge16"><a xlink:title="test">
<path fill="none" stroke="black" d="M544.332,-360.055C542.328,-352.261 539.901,-342.822 537.653,-334.079"/>
<polygon fill="black" stroke="black" points="541.012,-333.089 535.132,-324.275 534.233,-334.832 541.012,-333.089"/>
</a>
</g>
</g>
<!-- eastern_boundaries -->
<g id="eastern_boundaries" class="node"><title>eastern_boundaries</title>
<g id="a_eastern_boundaries"><a xlink:href="javascript:void();" xlink:title="eastern_boundaries">
<ellipse fill="none" stroke="black" cx="684.69" cy="-306" rx="78.7863" ry="18"/>
<text text-anchor="middle" x="684.69" y="-302.3" font-family="Times,serif" font-size="14.00">eastern_boundaries</text>
</a>
</g>
</g>
<!-- eastern_boundaries&#45;&gt;latlon_eastern -->
<g id="edge17" class="edge"><title>eastern_boundaries&#45;&gt;latlon_eastern</title>
<g id="a_edge17"><a xlink:title="test">
<path fill="none" stroke="black" d="M650.894,-289.638C627.498,-279.004 596.234,-264.793 571.455,-253.53"/>
<polygon fill="black" stroke="black" points="572.858,-250.323 562.306,-249.371 569.961,-256.695 572.858,-250.323"/>
</a>
</g>
</g>
<!-- cucurbit_distanceNA_raster&#45;&gt;predictors -->
<g id="edge18" class="edge"><title>cucurbit_distanceNA_raster&#45;&gt;predictors</title>
<g id="a_edge18"><a xlink:title="test">
<path fill="none" stroke="black" d="M181.983,-289.291C212.195,-277.797 253.017,-262.267 283.261,-250.761"/>
<polygon fill="black" stroke="black" points="284.58,-254.004 292.682,-247.177 282.091,-247.461 284.58,-254.004"/>
</a>
</g>
</g>
<!-- latlon_eastern&#45;&gt;latlon_eastern_vals -->
<g id="edge19" class="edge"><title>latlon_eastern&#45;&gt;latlon_eastern_vals</title>
<g id="a_edge19"><a xlink:title="test">
<path fill="none" stroke="black" d="M512.367,-216.765C502.145,-207.708 489.238,-196.27 477.958,-186.276"/>
<polygon fill="black" stroke="black" points="480.267,-183.646 470.462,-179.633 475.625,-188.885 480.267,-183.646"/>
</a>
</g>
</g>
<!-- latlon_gbif&#45;&gt;latlon -->
<g id="edge20" class="edge"><title>latlon_gbif&#45;&gt;latlon</title>
<g id="a_edge20"><a xlink:title="test">
<path fill="none" stroke="black" d="M612.083,-433.116C600.532,-423.255 585.56,-410.474 573.067,-399.81"/>
<polygon fill="black" stroke="black" points="575.154,-396.99 565.276,-393.159 570.609,-402.314 575.154,-396.99"/>
</a>
</g>
</g>
<!-- bioclim_raster -->
<g id="bioclim_raster" class="node"><title>bioclim_raster</title>
<g id="a_bioclim_raster"><a xlink:href="javascript:void();" xlink:title="bioclim_raster">
<ellipse fill="none" stroke="black" cx="264.69" cy="-450" rx="61.99" ry="18"/>
<text text-anchor="middle" x="264.69" y="-446.3" font-family="Times,serif" font-size="14.00">bioclim_raster</text>
</a>
</g>
</g>
<!-- bioclim_raster&#45;&gt;bioclimNA_raster -->
<g id="edge21" class="edge"><title>bioclim_raster&#45;&gt;bioclimNA_raster</title>
<g id="a_edge21"><a xlink:title="test">
<path fill="none" stroke="black" d="M265.678,-431.697C266.119,-423.983 266.649,-414.712 267.14,-406.112"/>
<polygon fill="black" stroke="black" points="270.636,-406.288 267.712,-396.104 263.647,-405.888 270.636,-406.288"/>
</a>
</g>
</g>
<!-- predictors&#45;&gt;dist_eastern_nosquash_nosoil -->
<g id="edge22" class="edge"><title>predictors&#45;&gt;dist_eastern_nosquash_nosoil</title>
<g id="a_edge22"><a xlink:title="test">
<path fill="none" stroke="black" d="M280.471,-228.483C214.423,-219.088 91.9716,-190.849 37.6897,-108 28.9211,-94.6167 30.2023,-86.14 37.6897,-72 44.6617,-58.8335 56.533,-48.3305 68.9395,-40.2613"/>
<polygon fill="black" stroke="black" points="70.8056,-43.2231 77.5605,-35.0608 67.1899,-37.2292 70.8056,-43.2231"/>
</a>
</g>
</g>
<!-- predictors&#45;&gt;dist_eastern_nosoil -->
<g id="edge23" class="edge"><title>predictors&#45;&gt;dist_eastern_nosoil</title>
<g id="a_edge23"><a xlink:title="test">
<path fill="none" stroke="black" d="M367.524,-227.222C467.016,-212.815 708.766,-171.81 754.69,-108 768.939,-88.2006 754.648,-62.3727 739.512,-43.6437"/>
<polygon fill="black" stroke="black" points="741.99,-41.1564 732.827,-35.838 736.673,-45.7099 741.99,-41.1564"/>
</a>
</g>
</g>
<!-- predictors&#45;&gt;latlon_eastern_vals -->
<g id="edge24" class="edge"><title>predictors&#45;&gt;latlon_eastern_vals</title>
<g id="a_edge24"><a xlink:title="test">
<path fill="none" stroke="black" d="M350.39,-218.834C368.7,-208.742 393.602,-195.017 414.134,-183.7"/>
<polygon fill="black" stroke="black" points="415.858,-186.746 422.926,-178.854 412.479,-180.616 415.858,-186.746"/>
</a>
</g>
</g>
<!-- predictors&#45;&gt;dist_eastern_nosquash -->
<g id="edge25" class="edge"><title>predictors&#45;&gt;dist_eastern_nosquash</title>
<g id="a_edge25"><a xlink:title="test">
<path fill="none" stroke="black" d="M324.092,-215.93C323.601,-185.842 325.097,-121.84 343.69,-72 347.326,-62.2541 353.109,-52.556 358.986,-44.1715"/>
<polygon fill="black" stroke="black" points="361.925,-46.0834 365.058,-35.9623 356.297,-41.9207 361.925,-46.0834"/>
</a>
</g>
</g>
<!-- bioclimNA_raster&#45;&gt;hwsdNA_raster -->
<g id="edge27" class="edge"><title>bioclimNA_raster&#45;&gt;hwsdNA_raster</title>
<g id="a_edge27"><a xlink:title="test">
<path fill="none" stroke="black" d="M292.579,-360.765C306.588,-351.244 324.468,-339.093 339.683,-328.752"/>
<polygon fill="black" stroke="black" points="341.982,-331.422 348.285,-322.906 338.047,-325.632 341.982,-331.422"/>
</a>
</g>
</g>
<!-- bioclimNA_raster&#45;&gt;cucurbit_distanceNA_raster -->
<g id="edge28" class="edge"><title>bioclimNA_raster&#45;&gt;cucurbit_distanceNA_raster</title>
<g id="a_edge28"><a xlink:title="test">
<path fill="none" stroke="black" d="M239.964,-361.291C222.147,-351.547 199.027,-338.903 179.581,-328.269"/>
<polygon fill="black" stroke="black" points="181.108,-325.114 170.655,-323.387 177.749,-331.256 181.108,-325.114"/>
</a>
</g>
</g>
<!-- bioclimNA_raster&#45;&gt;predictors -->
<g id="edge26" class="edge"><title>bioclimNA_raster&#45;&gt;predictors</title>
<g id="a_edge26"><a xlink:title="test">
<path fill="none" stroke="black" d="M273.064,-359.944C277.949,-341.785 286.52,-312.365 296.69,-288 300.517,-278.832 305.383,-269.131 309.982,-260.569"/>
<polygon fill="black" stroke="black" points="313.05,-262.254 314.805,-251.806 306.917,-258.879 313.05,-262.254"/>
</a>
</g>
</g>
</g>
</svg>
