<?xml version="1.0" encoding="UTF-8" standalone="no"?>
<!DOCTYPE svg PUBLIC "-//W3C//DTD SVG 1.1//EN"
 "http://www.w3.org/Graphics/SVG/1.1/DTD/svg11.dtd">
<!-- Generated by graphviz version 2.38.0 (20140413.2041)
 -->
<!-- Title: %3 Pages: 1 -->
<svg width="1045pt" height="548pt"
 viewBox="0.00 0.00 1045.03 548.00" xmlns="http://www.w3.org/2000/svg" xmlns:xlink="http://www.w3.org/1999/xlink">
<g id="graph0" class="graph" transform="scale(1 1) rotate(0) translate(4 544)">
<title>%3</title>
<polygon fill="white" stroke="none" points="-4,4 -4,-544 1041.03,-544 1041.03,4 -4,4"/>
<!-- bioclimNA_raster -->
<g id="bioclimNA_raster" class="node"><title>bioclimNA_raster</title>
<g id="a_bioclimNA_raster"><a xlink:href="javascript:void();" xlink:title="bioclimNA_raster">
<ellipse fill="none" stroke="black" cx="244.19" cy="-378" rx="74.9875" ry="18"/>
<text text-anchor="middle" x="244.19" y="-374.3" font-family="Times,serif" font-size="14.00">bioclimNA_raster</text>
</a>
</g>
</g>
<!-- cucurbit_distanceNA_raster -->
<g id="cucurbit_distanceNA_raster" class="node"><title>cucurbit_distanceNA_raster</title>
<g id="a_cucurbit_distanceNA_raster"><a xlink:href="javascript:void();" xlink:title="cucurbit_distanceNA_raster">
<ellipse fill="none" stroke="black" cx="109.19" cy="-306" rx="109.381" ry="18"/>
<text text-anchor="middle" x="109.19" y="-302.3" font-family="Times,serif" font-size="14.00">cucurbit_distanceNA_raster</text>
</a>
</g>
</g>
<!-- bioclimNA_raster&#45;&gt;cucurbit_distanceNA_raster -->
<g id="edge3" class="edge"><title>bioclimNA_raster&#45;&gt;cucurbit_distanceNA_raster</title>
<g id="a_edge3"><a xlink:title="test">
<path fill="none" stroke="black" d="M214.229,-361.465C195.283,-351.641 170.55,-338.816 149.844,-328.08"/>
<polygon fill="black" stroke="black" points="151.437,-324.963 140.948,-323.467 148.215,-331.178 151.437,-324.963"/>
</a>
</g>
</g>
<!-- predictors -->
<g id="predictors" class="node"><title>predictors</title>
<g id="a_predictors"><a xlink:href="javascript:void();" xlink:title="predictors">
<ellipse fill="none" stroke="black" cx="246.19" cy="-234" rx="46.2923" ry="18"/>
<text text-anchor="middle" x="246.19" y="-230.3" font-family="Times,serif" font-size="14.00">predictors</text>
</a>
</g>
</g>
<!-- bioclimNA_raster&#45;&gt;predictors -->
<g id="edge1" class="edge"><title>bioclimNA_raster&#45;&gt;predictors</title>
<g id="a_edge1"><a xlink:title="test">
<path fill="none" stroke="black" d="M244.432,-359.871C244.772,-335.67 245.399,-291.211 245.804,-262.393"/>
<polygon fill="black" stroke="black" points="249.307,-262.238 245.948,-252.189 242.308,-262.139 249.307,-262.238"/>
</a>
</g>
</g>
<!-- hwsdNA_raster -->
<g id="hwsdNA_raster" class="node"><title>hwsdNA_raster</title>
<g id="a_hwsdNA_raster"><a xlink:href="javascript:void();" xlink:title="hwsdNA_raster">
<ellipse fill="none" stroke="black" cx="343.19" cy="-306" rx="65.7887" ry="18"/>
<text text-anchor="middle" x="343.19" y="-302.3" font-family="Times,serif" font-size="14.00">hwsdNA_raster</text>
</a>
</g>
</g>
<!-- bioclimNA_raster&#45;&gt;hwsdNA_raster -->
<g id="edge2" class="edge"><title>bioclimNA_raster&#45;&gt;hwsdNA_raster</title>
<g id="a_edge2"><a xlink:title="test">
<path fill="none" stroke="black" d="M267.152,-360.765C280.521,-351.311 297.558,-339.265 312.115,-328.972"/>
<polygon fill="black" stroke="black" points="314.209,-331.778 320.353,-323.147 310.168,-326.063 314.209,-331.778"/>
</a>
</g>
</g>
<!-- cucurbit_distanceNA_raster&#45;&gt;predictors -->
<g id="edge4" class="edge"><title>cucurbit_distanceNA_raster&#45;&gt;predictors</title>
<g id="a_edge4"><a xlink:title="test">
<path fill="none" stroke="black" d="M140.965,-288.765C161.622,-278.21 188.605,-264.423 210.074,-253.453"/>
<polygon fill="black" stroke="black" points="211.893,-256.455 219.205,-248.788 208.708,-250.221 211.893,-256.455"/>
</a>
</g>
</g>
<!-- worldclim_2050_rcp26 -->
<g id="worldclim_2050_rcp26" class="node"><title>worldclim_2050_rcp26</title>
<g id="a_worldclim_2050_rcp26"><a xlink:href="javascript:void();" xlink:title="worldclim_2050_rcp26">
<ellipse fill="none" stroke="black" cx="801.19" cy="-450" rx="93.6835" ry="18"/>
<text text-anchor="middle" x="801.19" y="-446.3" font-family="Times,serif" font-size="14.00">worldclim_2050_rcp26</text>
</a>
</g>
</g>
<!-- worldclim_2050_rcp26_NA -->
<g id="worldclim_2050_rcp26_NA" class="node"><title>worldclim_2050_rcp26_NA</title>
<g id="a_worldclim_2050_rcp26_NA"><a xlink:href="javascript:void();" xlink:title="worldclim_2050_rcp26_NA">
<ellipse fill="none" stroke="black" cx="801.19" cy="-378" rx="110.48" ry="18"/>
<text text-anchor="middle" x="801.19" y="-374.3" font-family="Times,serif" font-size="14.00">worldclim_2050_rcp26_NA</text>
</a>
</g>
</g>
<!-- worldclim_2050_rcp26&#45;&gt;worldclim_2050_rcp26_NA -->
<g id="edge5" class="edge"><title>worldclim_2050_rcp26&#45;&gt;worldclim_2050_rcp26_NA</title>
<g id="a_edge5"><a xlink:title="test">
<path fill="none" stroke="black" d="M801.19,-431.697C801.19,-423.983 801.19,-414.712 801.19,-406.112"/>
<polygon fill="black" stroke="black" points="804.69,-406.104 801.19,-396.104 797.69,-406.104 804.69,-406.104"/>
</a>
</g>
</g>
<!-- latlon_eastern_vals -->
<g id="latlon_eastern_vals" class="node"><title>latlon_eastern_vals</title>
<g id="a_latlon_eastern_vals"><a xlink:href="javascript:void();" xlink:title="latlon_eastern_vals">
<ellipse fill="none" stroke="black" cx="452.19" cy="-162" rx="78.7863" ry="18"/>
<text text-anchor="middle" x="452.19" y="-158.3" font-family="Times,serif" font-size="14.00">latlon_eastern_vals</text>
</a>
</g>
</g>
<!-- bc_model_eastern_nosquash -->
<g id="bc_model_eastern_nosquash" class="node"><title>bc_model_eastern_nosquash</title>
<g id="a_bc_model_eastern_nosquash"><a xlink:href="javascript:void();" xlink:title="bc_model_eastern_nosquash">
<ellipse fill="none" stroke="black" cx="452.19" cy="-90" rx="112.38" ry="18"/>
<text text-anchor="middle" x="452.19" y="-86.3" font-family="Times,serif" font-size="14.00">bc_model_eastern_nosquash</text>
</a>
</g>
</g>
<!-- latlon_eastern_vals&#45;&gt;bc_model_eastern_nosquash -->
<g id="edge8" class="edge"><title>latlon_eastern_vals&#45;&gt;bc_model_eastern_nosquash</title>
<g id="a_edge8"><a xlink:title="test">
<path fill="none" stroke="black" d="M452.19,-143.697C452.19,-135.983 452.19,-126.712 452.19,-118.112"/>
<polygon fill="black" stroke="black" points="455.69,-118.104 452.19,-108.104 448.69,-118.104 455.69,-118.104"/>
</a>
</g>
</g>
<!-- bc_model_eastern_nosoil -->
<g id="bc_model_eastern_nosoil" class="node"><title>bc_model_eastern_nosoil</title>
<g id="a_bc_model_eastern_nosoil"><a xlink:href="javascript:void();" xlink:title="bc_model_eastern_nosoil">
<ellipse fill="none" stroke="black" cx="183.19" cy="-90" rx="100.983" ry="18"/>
<text text-anchor="middle" x="183.19" y="-86.3" font-family="Times,serif" font-size="14.00">bc_model_eastern_nosoil</text>
</a>
</g>
</g>
<!-- latlon_eastern_vals&#45;&gt;bc_model_eastern_nosoil -->
<g id="edge6" class="edge"><title>latlon_eastern_vals&#45;&gt;bc_model_eastern_nosoil</title>
<g id="a_edge6"><a xlink:title="test">
<path fill="none" stroke="black" d="M402.224,-147.998C358.676,-136.665 295.246,-120.159 247.84,-107.823"/>
<polygon fill="black" stroke="black" points="248.539,-104.389 237.98,-105.258 246.776,-111.163 248.539,-104.389"/>
</a>
</g>
</g>
<!-- bc_model_eastern_nosquash_nosoil -->
<g id="bc_model_eastern_nosquash_nosoil" class="node"><title>bc_model_eastern_nosquash_nosoil</title>
<g id="a_bc_model_eastern_nosquash_nosoil"><a xlink:href="javascript:void();" xlink:title="bc_model_eastern_nosquash_nosoil">
<ellipse fill="none" stroke="black" cx="720.19" cy="-90" rx="137.576" ry="18"/>
<text text-anchor="middle" x="720.19" y="-86.3" font-family="Times,serif" font-size="14.00">bc_model_eastern_nosquash_nosoil</text>
</a>
</g>
</g>
<!-- latlon_eastern_vals&#45;&gt;bc_model_eastern_nosquash_nosoil -->
<g id="edge7" class="edge"><title>latlon_eastern_vals&#45;&gt;bc_model_eastern_nosquash_nosoil</title>
<g id="a_edge7"><a xlink:title="test">
<path fill="none" stroke="black" d="M501.971,-147.998C544.085,-136.998 604.863,-121.123 651.587,-108.919"/>
<polygon fill="black" stroke="black" points="652.542,-112.287 661.333,-106.373 650.773,-105.514 652.542,-112.287"/>
</a>
</g>
</g>
<!-- bioclim_raster -->
<g id="bioclim_raster" class="node"><title>bioclim_raster</title>
<g id="a_bioclim_raster"><a xlink:href="javascript:void();" xlink:title="bioclim_raster">
<ellipse fill="none" stroke="black" cx="242.19" cy="-450" rx="61.99" ry="18"/>
<text text-anchor="middle" x="242.19" y="-446.3" font-family="Times,serif" font-size="14.00">bioclim_raster</text>
</a>
</g>
</g>
<!-- bioclim_raster&#45;&gt;bioclimNA_raster -->
<g id="edge9" class="edge"><title>bioclim_raster&#45;&gt;bioclimNA_raster</title>
<g id="a_edge9"><a xlink:title="test">
<path fill="none" stroke="black" d="M242.685,-431.697C242.905,-423.983 243.17,-414.712 243.416,-406.112"/>
<polygon fill="black" stroke="black" points="246.914,-406.2 243.702,-396.104 239.917,-406 246.914,-406.2"/>
</a>
</g>
</g>
<!-- predictors&#45;&gt;latlon_eastern_vals -->
<g id="edge13" class="edge"><title>predictors&#45;&gt;latlon_eastern_vals</title>
<g id="a_edge13"><a xlink:title="test">
<path fill="none" stroke="black" d="M279.746,-221.597C312.399,-210.502 362.481,-193.484 400.275,-180.641"/>
<polygon fill="black" stroke="black" points="401.749,-183.837 410.092,-177.305 399.497,-177.209 401.749,-183.837"/>
</a>
</g>
</g>
<!-- dist_eastern_nosquash -->
<g id="dist_eastern_nosquash" class="node"><title>dist_eastern_nosquash</title>
<g id="a_dist_eastern_nosquash"><a xlink:href="javascript:void();" xlink:title="dist_eastern_nosquash">
<ellipse fill="none" stroke="black" cx="325.19" cy="-18" rx="89.8845" ry="18"/>
<text text-anchor="middle" x="325.19" y="-14.3" font-family="Times,serif" font-size="14.00">dist_eastern_nosquash</text>
</a>
</g>
</g>
<!-- predictors&#45;&gt;dist_eastern_nosquash -->
<g id="edge12" class="edge"><title>predictors&#45;&gt;dist_eastern_nosquash</title>
<g id="a_edge12"><a xlink:title="test">
<path fill="none" stroke="black" d="M213.784,-220.904C150.846,-195.645 22.5156,-134.441 73.1903,-72 84.166,-58.4759 175.16,-41.7774 244.685,-30.7807"/>
<polygon fill="black" stroke="black" points="245.436,-34.2057 254.775,-29.2007 244.353,-27.29 245.436,-34.2057"/>
</a>
</g>
</g>
<!-- dist_eastern_nosoil -->
<g id="dist_eastern_nosoil" class="node"><title>dist_eastern_nosoil</title>
<g id="a_dist_eastern_nosoil"><a xlink:href="javascript:void();" xlink:title="dist_eastern_nosoil">
<ellipse fill="none" stroke="black" cx="98.1903" cy="-18" rx="78.7863" ry="18"/>
<text text-anchor="middle" x="98.1903" y="-14.3" font-family="Times,serif" font-size="14.00">dist_eastern_nosoil</text>
</a>
</g>
</g>
<!-- predictors&#45;&gt;dist_eastern_nosoil -->
<g id="edge11" class="edge"><title>predictors&#45;&gt;dist_eastern_nosoil</title>
<g id="a_edge11"><a xlink:title="test">
<path fill="none" stroke="black" d="M201.151,-229.692C164.245,-224.645 113.077,-211.938 81.1903,-180 46.5159,-145.27 42.6009,-118.535 58.1903,-72 61.5959,-61.8344 67.806,-52.0602 74.3336,-43.7345"/>
<polygon fill="black" stroke="black" points="77.1331,-45.843 80.8748,-35.9309 71.7685,-41.3462 77.1331,-45.843"/>
</a>
</g>
</g>
<!-- dist_eastern_nosquash_nosoil -->
<g id="dist_eastern_nosquash_nosoil" class="node"><title>dist_eastern_nosquash_nosoil</title>
<g id="a_dist_eastern_nosquash_nosoil"><a xlink:href="javascript:void();" xlink:title="dist_eastern_nosquash_nosoil">
<ellipse fill="none" stroke="black" cx="569.19" cy="-18" rx="115.88" ry="18"/>
<text text-anchor="middle" x="569.19" y="-14.3" font-family="Times,serif" font-size="14.00">dist_eastern_nosquash_nosoil</text>
</a>
</g>
</g>
<!-- predictors&#45;&gt;dist_eastern_nosquash_nosoil -->
<g id="edge10" class="edge"><title>predictors&#45;&gt;dist_eastern_nosquash_nosoil</title>
<g id="a_edge10"><a xlink:title="test">
<path fill="none" stroke="black" d="M250.09,-216.048C258.647,-182.861 282.327,-109.307 331.19,-72 353.766,-54.764 418.07,-41.0348 474.153,-31.8719"/>
<polygon fill="black" stroke="black" points="474.833,-35.3076 484.155,-30.2711 473.727,-28.3955 474.833,-35.3076"/>
</a>
</g>
</g>
<!-- latlon -->
<g id="latlon" class="node"><title>latlon</title>
<g id="a_latlon"><a xlink:href="javascript:void();" xlink:title="latlon">
<ellipse fill="none" stroke="black" cx="524.19" cy="-378" rx="30.5947" ry="18"/>
<text text-anchor="middle" x="524.19" y="-374.3" font-family="Times,serif" font-size="14.00">latlon</text>
</a>
</g>
</g>
<!-- latlon_sparse -->
<g id="latlon_sparse" class="node"><title>latlon_sparse</title>
<g id="a_latlon_sparse"><a xlink:href="javascript:void();" xlink:title="latlon_sparse">
<ellipse fill="none" stroke="black" cx="517.19" cy="-306" rx="57.3905" ry="18"/>
<text text-anchor="middle" x="517.19" y="-302.3" font-family="Times,serif" font-size="14.00">latlon_sparse</text>
</a>
</g>
</g>
<!-- latlon&#45;&gt;latlon_sparse -->
<g id="edge14" class="edge"><title>latlon&#45;&gt;latlon_sparse</title>
<g id="a_edge14"><a xlink:title="test">
<path fill="none" stroke="black" d="M522.46,-359.697C521.689,-351.983 520.762,-342.712 519.902,-334.112"/>
<polygon fill="black" stroke="black" points="523.379,-333.706 518.901,-324.104 516.413,-334.403 523.379,-333.706"/>
</a>
</g>
</g>
<!-- bc_model_eastern_nosquash&#45;&gt;dist_eastern_nosquash -->
<g id="edge15" class="edge"><title>bc_model_eastern_nosquash&#45;&gt;dist_eastern_nosquash</title>
<g id="a_edge15"><a xlink:title="test">
<path fill="none" stroke="black" d="M422.414,-72.5881C404.773,-62.8645 382.239,-50.4443 363.308,-40.01"/>
<polygon fill="black" stroke="black" points="364.789,-36.8296 354.342,-35.0676 361.41,-42.9601 364.789,-36.8296"/>
</a>
</g>
</g>
<!-- latlon_eastern -->
<g id="latlon_eastern" class="node"><title>latlon_eastern</title>
<g id="a_latlon_eastern"><a xlink:href="javascript:void();" xlink:title="latlon_eastern">
<ellipse fill="none" stroke="black" cx="517.19" cy="-234" rx="59.5901" ry="18"/>
<text text-anchor="middle" x="517.19" y="-230.3" font-family="Times,serif" font-size="14.00">latlon_eastern</text>
</a>
</g>
</g>
<!-- latlon_sparse&#45;&gt;latlon_eastern -->
<g id="edge16" class="edge"><title>latlon_sparse&#45;&gt;latlon_eastern</title>
<g id="a_edge16"><a xlink:title="test">
<path fill="none" stroke="black" d="M517.19,-287.697C517.19,-279.983 517.19,-270.712 517.19,-262.112"/>
<polygon fill="black" stroke="black" points="520.69,-262.104 517.19,-252.104 513.69,-262.104 520.69,-262.104"/>
</a>
</g>
</g>
<!-- latlon_eastern&#45;&gt;latlon_eastern_vals -->
<g id="edge17" class="edge"><title>latlon_eastern&#45;&gt;latlon_eastern_vals</title>
<g id="a_edge17"><a xlink:title="test">
<path fill="none" stroke="black" d="M501.786,-216.411C493.729,-207.734 483.712,-196.946 474.793,-187.342"/>
<polygon fill="black" stroke="black" points="477.305,-184.903 467.935,-179.956 472.175,-189.666 477.305,-184.903"/>
</a>
</g>
</g>
<!-- latlon_bison -->
<g id="latlon_bison" class="node"><title>latlon_bison</title>
<g id="a_latlon_bison"><a xlink:href="javascript:void();" xlink:title="latlon_bison">
<ellipse fill="none" stroke="black" cx="607.19" cy="-450" rx="53.8905" ry="18"/>
<text text-anchor="middle" x="607.19" y="-446.3" font-family="Times,serif" font-size="14.00">latlon_bison</text>
</a>
</g>
</g>
<!-- latlon_bison&#45;&gt;latlon -->
<g id="edge18" class="edge"><title>latlon_bison&#45;&gt;latlon</title>
<g id="a_edge18"><a xlink:title="test">
<path fill="none" stroke="black" d="M588.356,-433.116C576.664,-423.255 561.51,-410.474 548.865,-399.81"/>
<polygon fill="black" stroke="black" points="550.88,-396.93 540.979,-393.159 546.367,-402.282 550.88,-396.93"/>
</a>
</g>
</g>
<!-- future_predictors_2070_rcp26 -->
<g id="future_predictors_2070_rcp26" class="node"><title>future_predictors_2070_rcp26</title>
<g id="a_future_predictors_2070_rcp26"><a xlink:href="javascript:void();" xlink:title="future_predictors_2070_rcp26">
<ellipse fill="none" stroke="black" cx="791.19" cy="-522" rx="117.779" ry="18"/>
<text text-anchor="middle" x="791.19" y="-518.3" font-family="Times,serif" font-size="14.00">future_predictors_2070_rcp26</text>
</a>
</g>
</g>
<!-- latlon_gbif -->
<g id="latlon_gbif" class="node"><title>latlon_gbif</title>
<g id="a_latlon_gbif"><a xlink:href="javascript:void();" xlink:title="latlon_gbif">
<ellipse fill="none" stroke="black" cx="486.19" cy="-450" rx="49.2915" ry="18"/>
<text text-anchor="middle" x="486.19" y="-446.3" font-family="Times,serif" font-size="14.00">latlon_gbif</text>
</a>
</g>
</g>
<!-- latlon_gbif&#45;&gt;latlon -->
<g id="edge19" class="edge"><title>latlon_gbif&#45;&gt;latlon</title>
<g id="a_edge19"><a xlink:title="test">
<path fill="none" stroke="black" d="M495.389,-432.055C499.936,-423.679 505.514,-413.404 510.546,-404.134"/>
<polygon fill="black" stroke="black" points="513.643,-405.765 515.338,-395.307 507.491,-402.426 513.643,-405.765"/>
</a>
</g>
</g>
<!-- ext -->
<g id="ext" class="node"><title>ext</title>
<g id="a_ext"><a xlink:href="javascript:void();" xlink:title="ext">
<ellipse fill="none" stroke="black" cx="349.19" cy="-450" rx="27" ry="18"/>
<text text-anchor="middle" x="349.19" y="-446.3" font-family="Times,serif" font-size="14.00">ext</text>
</a>
</g>
</g>
<!-- ext&#45;&gt;bioclimNA_raster -->
<g id="edge22" class="edge"><title>ext&#45;&gt;bioclimNA_raster</title>
<g id="a_edge22"><a xlink:title="test">
<path fill="none" stroke="black" d="M330.418,-436.485C315.515,-426.55 294.323,-412.422 276.677,-400.658"/>
<polygon fill="black" stroke="black" points="278.605,-397.737 268.343,-395.102 274.722,-403.561 278.605,-397.737"/>
</a>
</g>
</g>
<!-- ext&#45;&gt;worldclim_2050_rcp26_NA -->
<g id="edge21" class="edge"><title>ext&#45;&gt;worldclim_2050_rcp26_NA</title>
<g id="a_edge21"><a xlink:title="test">
<path fill="none" stroke="black" d="M374.361,-443.108C389.835,-439.604 410.098,-435.228 428.19,-432 522.013,-415.261 629.869,-400.407 705.389,-390.715"/>
<polygon fill="black" stroke="black" points="705.886,-394.18 715.361,-389.441 704.998,-387.237 705.886,-394.18"/>
</a>
</g>
</g>
<!-- ext&#45;&gt;hwsdNA_raster -->
<g id="edge20" class="edge"><title>ext&#45;&gt;hwsdNA_raster</title>
<g id="a_edge20"><a xlink:title="test">
<path fill="none" stroke="black" d="M348.467,-431.871C347.444,-407.67 345.565,-363.211 344.348,-334.393"/>
<polygon fill="black" stroke="black" points="347.836,-334.033 343.917,-324.189 340.842,-334.328 347.836,-334.033"/>
</a>
</g>
</g>
<!-- gbif_data -->
<g id="gbif_data" class="node"><title>gbif_data</title>
<g id="a_gbif_data"><a xlink:href="javascript:void();" xlink:title="gbif_data">
<ellipse fill="none" stroke="black" cx="486.19" cy="-522" rx="44.393" ry="18"/>
<text text-anchor="middle" x="486.19" y="-518.3" font-family="Times,serif" font-size="14.00">gbif_data</text>
</a>
</g>
</g>
<!-- gbif_data&#45;&gt;latlon_gbif -->
<g id="edge23" class="edge"><title>gbif_data&#45;&gt;latlon_gbif</title>
<g id="a_edge23"><a xlink:title="test">
<path fill="none" stroke="black" d="M486.19,-503.697C486.19,-495.983 486.19,-486.712 486.19,-478.112"/>
<polygon fill="black" stroke="black" points="489.69,-478.104 486.19,-468.104 482.69,-478.104 489.69,-478.104"/>
</a>
</g>
</g>
<!-- cucurbit_points -->
<g id="cucurbit_points" class="node"><title>cucurbit_points</title>
<g id="a_cucurbit_points"><a xlink:href="javascript:void();" xlink:title="cucurbit_points">
<ellipse fill="none" stroke="black" cx="86.1903" cy="-378" rx="65.7887" ry="18"/>
<text text-anchor="middle" x="86.1903" y="-374.3" font-family="Times,serif" font-size="14.00">cucurbit_points</text>
</a>
</g>
</g>
<!-- cucurbit_points&#45;&gt;cucurbit_distanceNA_raster -->
<g id="edge24" class="edge"><title>cucurbit_points&#45;&gt;cucurbit_distanceNA_raster</title>
<g id="a_edge24"><a xlink:title="test">
<path fill="none" stroke="black" d="M91.758,-360.055C94.3467,-352.176 97.4877,-342.617 100.387,-333.794"/>
<polygon fill="black" stroke="black" points="103.718,-334.868 103.514,-324.275 97.0674,-332.683 103.718,-334.868"/>
</a>
</g>
</g>
<!-- hwsdNAsp -->
<g id="hwsdNAsp" class="node"><title>hwsdNAsp</title>
<g id="a_hwsdNAsp"><a xlink:href="javascript:void();" xlink:title="hwsdNAsp">
<ellipse fill="none" stroke="black" cx="425.19" cy="-378" rx="50.0912" ry="18"/>
<text text-anchor="middle" x="425.19" y="-374.3" font-family="Times,serif" font-size="14.00">hwsdNAsp</text>
</a>
</g>
</g>
<!-- hwsdNAsp&#45;&gt;hwsdNA_raster -->
<g id="edge25" class="edge"><title>hwsdNAsp&#45;&gt;hwsdNA_raster</title>
<g id="a_edge25"><a xlink:title="test">
<path fill="none" stroke="black" d="M406.583,-361.116C395.833,-351.939 382.121,-340.233 370.2,-330.057"/>
<polygon fill="black" stroke="black" points="372.171,-327.138 362.293,-323.307 367.626,-332.462 372.171,-327.138"/>
</a>
</g>
</g>
<!-- eastern_boundaries -->
<g id="eastern_boundaries" class="node"><title>eastern_boundaries</title>
<g id="a_eastern_boundaries"><a xlink:href="javascript:void();" xlink:title="eastern_boundaries">
<ellipse fill="none" stroke="black" cx="671.19" cy="-306" rx="78.7863" ry="18"/>
<text text-anchor="middle" x="671.19" y="-302.3" font-family="Times,serif" font-size="14.00">eastern_boundaries</text>
</a>
</g>
</g>
<!-- eastern_boundaries&#45;&gt;latlon_eastern -->
<g id="edge26" class="edge"><title>eastern_boundaries&#45;&gt;latlon_eastern</title>
<g id="a_edge26"><a xlink:title="test">
<path fill="none" stroke="black" d="M637.394,-289.638C613.998,-279.004 582.734,-264.793 557.955,-253.53"/>
<polygon fill="black" stroke="black" points="559.358,-250.323 548.806,-249.371 556.461,-256.695 559.358,-250.323"/>
</a>
</g>
</g>
<!-- bc_model_eastern_nosoil&#45;&gt;dist_eastern_nosoil -->
<g id="edge27" class="edge"><title>bc_model_eastern_nosoil&#45;&gt;dist_eastern_nosoil</title>
<g id="a_edge27"><a xlink:title="test">
<path fill="none" stroke="black" d="M162.614,-72.055C151.676,-63.047 138.07,-51.8419 126.184,-42.0534"/>
<polygon fill="black" stroke="black" points="128.228,-39.2028 118.284,-35.5475 123.778,-44.6063 128.228,-39.2028"/>
</a>
</g>
</g>
<!-- future_predictors_2050_rcp26 -->
<g id="future_predictors_2050_rcp26" class="node"><title>future_predictors_2050_rcp26</title>
<g id="a_future_predictors_2050_rcp26"><a xlink:href="javascript:void();" xlink:title="future_predictors_2050_rcp26">
<ellipse fill="none" stroke="black" cx="850.19" cy="-162" rx="117.779" ry="18"/>
<text text-anchor="middle" x="850.19" y="-158.3" font-family="Times,serif" font-size="14.00">future_predictors_2050_rcp26</text>
</a>
</g>
</g>
<!-- worldclim_2050_rcp26_NA&#45;&gt;future_predictors_2050_rcp26 -->
<g id="edge28" class="edge"><title>worldclim_2050_rcp26_NA&#45;&gt;future_predictors_2050_rcp26</title>
<g id="a_edge28"><a xlink:title="test">
<path fill="none" stroke="black" d="M805.117,-359.849C813.611,-322.753 833.748,-234.81 843.985,-190.103"/>
<polygon fill="black" stroke="black" points="847.424,-190.761 846.245,-180.232 840.601,-189.199 847.424,-190.761"/>
</a>
</g>
</g>
<!-- dist_2050_rcp26_eastern_nosquash_nosoil -->
<g id="dist_2050_rcp26_eastern_nosquash_nosoil" class="node"><title>dist_2050_rcp26_eastern_nosquash_nosoil</title>
<g id="a_dist_2050_rcp26_eastern_nosquash_nosoil"><a xlink:href="javascript:void();" xlink:title="dist_2050_rcp26_eastern_nosquash_nosoil">
<ellipse fill="none" stroke="black" cx="875.19" cy="-18" rx="161.671" ry="18"/>
<text text-anchor="middle" x="875.19" y="-14.3" font-family="Times,serif" font-size="14.00">dist_2050_rcp26_eastern_nosquash_nosoil</text>
</a>
</g>
</g>
<!-- bc_model_eastern_nosquash_nosoil&#45;&gt;dist_2050_rcp26_eastern_nosquash_nosoil -->
<g id="edge29" class="edge"><title>bc_model_eastern_nosquash_nosoil&#45;&gt;dist_2050_rcp26_eastern_nosquash_nosoil</title>
<g id="a_edge29"><a xlink:title="test">
<path fill="none" stroke="black" d="M756.531,-72.5881C778.237,-62.7855 806.01,-50.2425 829.23,-39.7563"/>
<polygon fill="black" stroke="black" points="830.867,-42.8573 838.54,-35.5516 827.986,-36.4777 830.867,-42.8573"/>
</a>
</g>
</g>
<!-- bc_model_eastern_nosquash_nosoil&#45;&gt;dist_eastern_nosquash_nosoil -->
<g id="edge30" class="edge"><title>bc_model_eastern_nosquash_nosoil&#45;&gt;dist_eastern_nosquash_nosoil</title>
<g id="a_edge30"><a xlink:title="test">
<path fill="none" stroke="black" d="M684.788,-72.5881C663.412,-62.679 635.996,-49.9695 613.229,-39.4151"/>
<polygon fill="black" stroke="black" points="614.655,-36.2187 604.111,-35.1882 611.711,-42.5695 614.655,-36.2187"/>
</a>
</g>
</g>
<!-- hwsdNA_raster&#45;&gt;predictors -->
<g id="edge31" class="edge"><title>hwsdNA_raster&#45;&gt;predictors</title>
<g id="a_edge31"><a xlink:title="test">
<path fill="none" stroke="black" d="M320.693,-288.765C307.219,-279.041 289.944,-266.575 275.421,-256.094"/>
<polygon fill="black" stroke="black" points="277.395,-253.203 267.238,-250.189 273.299,-258.879 277.395,-253.203"/>
</a>
</g>
</g>
<!-- future_predictors_2050_rcp26&#45;&gt;dist_2050_rcp26_eastern_nosquash_nosoil -->
<g id="edge32" class="edge"><title>future_predictors_2050_rcp26&#45;&gt;dist_2050_rcp26_eastern_nosquash_nosoil</title>
<g id="a_edge32"><a xlink:title="test">
<path fill="none" stroke="black" d="M856.847,-143.592C860.483,-133.372 864.733,-120.122 867.19,-108 871.325,-87.6024 873.324,-64.1417 874.289,-46.43"/>
<polygon fill="black" stroke="black" points="877.795,-46.3764 874.766,-36.2237 870.803,-46.0492 877.795,-46.3764"/>
</a>
</g>
</g>
<!-- bison_data -->
<g id="bison_data" class="node"><title>bison_data</title>
<g id="a_bison_data"><a xlink:href="javascript:void();" xlink:title="bison_data">
<ellipse fill="none" stroke="black" cx="607.19" cy="-522" rx="48.9926" ry="18"/>
<text text-anchor="middle" x="607.19" y="-518.3" font-family="Times,serif" font-size="14.00">bison_data</text>
</a>
</g>
</g>
<!-- bison_data&#45;&gt;latlon_bison -->
<g id="edge33" class="edge"><title>bison_data&#45;&gt;latlon_bison</title>
<g id="a_edge33"><a xlink:title="test">
<path fill="none" stroke="black" d="M607.19,-503.697C607.19,-495.983 607.19,-486.712 607.19,-478.112"/>
<polygon fill="black" stroke="black" points="610.69,-478.104 607.19,-468.104 603.69,-478.104 610.69,-478.104"/>
</a>
</g>
</g>
</g>
</svg>
