<?xml version="1.0" encoding="UTF-8" standalone="no"?>
<!DOCTYPE svg PUBLIC "-//W3C//DTD SVG 1.1//EN"
 "http://www.w3.org/Graphics/SVG/1.1/DTD/svg11.dtd">
<!-- Generated by graphviz version 2.38.0 (20140413.2041)
 -->
<!-- Title: %3 Pages: 1 -->
<svg width="1244pt" height="548pt"
 viewBox="0.00 0.00 1243.53 548.00" xmlns="http://www.w3.org/2000/svg" xmlns:xlink="http://www.w3.org/1999/xlink">
<g id="graph0" class="graph" transform="scale(1 1) rotate(0) translate(4 544)">
<title>%3</title>
<polygon fill="white" stroke="none" points="-4,4 -4,-544 1239.53,-544 1239.53,4 -4,4"/>
<!-- dist_2050_rcp26_eastern_nosquash_nosoil -->
<g id="dist_2050_rcp26_eastern_nosquash_nosoil" class="node"><title>dist_2050_rcp26_eastern_nosquash_nosoil</title>
<g id="a_dist_2050_rcp26_eastern_nosquash_nosoil"><a xlink:href="javascript:void();" xlink:title="dist_2050_rcp26_eastern_nosquash_nosoil">
<ellipse fill="none" stroke="black" cx="161.836" cy="-18" rx="161.671" ry="18"/>
<text text-anchor="middle" x="161.836" y="-14.3" font-family="Times,serif" font-size="14.00">dist_2050_rcp26_eastern_nosquash_nosoil</text>
</a>
</g>
</g>
<!-- latlon_sparse -->
<g id="latlon_sparse" class="node"><title>latlon_sparse</title>
<g id="a_latlon_sparse"><a xlink:href="javascript:void();" xlink:title="latlon_sparse">
<ellipse fill="none" stroke="black" cx="332.836" cy="-306" rx="57.3905" ry="18"/>
<text text-anchor="middle" x="332.836" y="-302.3" font-family="Times,serif" font-size="14.00">latlon_sparse</text>
</a>
</g>
</g>
<!-- latlon_eastern -->
<g id="latlon_eastern" class="node"><title>latlon_eastern</title>
<g id="a_latlon_eastern"><a xlink:href="javascript:void();" xlink:title="latlon_eastern">
<ellipse fill="none" stroke="black" cx="486.836" cy="-234" rx="59.5901" ry="18"/>
<text text-anchor="middle" x="486.836" y="-230.3" font-family="Times,serif" font-size="14.00">latlon_eastern</text>
</a>
</g>
</g>
<!-- latlon_sparse&#45;&gt;latlon_eastern -->
<g id="edge1" class="edge"><title>latlon_sparse&#45;&gt;latlon_eastern</title>
<g id="a_edge1"><a xlink:title="test">
<path fill="none" stroke="black" d="M364,-290.834C387.639,-280.089 420.341,-265.225 446.06,-253.535"/>
<polygon fill="black" stroke="black" points="447.534,-256.709 455.189,-249.385 444.637,-250.337 447.534,-256.709"/>
</a>
</g>
</g>
<!-- bc_model_eastern_nosquash -->
<g id="bc_model_eastern_nosquash" class="node"><title>bc_model_eastern_nosquash</title>
<g id="a_bc_model_eastern_nosquash"><a xlink:href="javascript:void();" xlink:title="bc_model_eastern_nosquash">
<ellipse fill="none" stroke="black" cx="661.836" cy="-90" rx="112.38" ry="18"/>
<text text-anchor="middle" x="661.836" y="-86.3" font-family="Times,serif" font-size="14.00">bc_model_eastern_nosquash</text>
</a>
</g>
</g>
<!-- dist_2050_rcp26_eastern_nosquash -->
<g id="dist_2050_rcp26_eastern_nosquash" class="node"><title>dist_2050_rcp26_eastern_nosquash</title>
<g id="a_dist_2050_rcp26_eastern_nosquash"><a xlink:href="javascript:void();" xlink:title="dist_2050_rcp26_eastern_nosquash">
<ellipse fill="none" stroke="black" cx="477.836" cy="-18" rx="135.676" ry="18"/>
<text text-anchor="middle" x="477.836" y="-14.3" font-family="Times,serif" font-size="14.00">dist_2050_rcp26_eastern_nosquash</text>
</a>
</g>
</g>
<!-- bc_model_eastern_nosquash&#45;&gt;dist_2050_rcp26_eastern_nosquash -->
<g id="edge2" class="edge"><title>bc_model_eastern_nosquash&#45;&gt;dist_2050_rcp26_eastern_nosquash</title>
<g id="a_edge2"><a xlink:title="test">
<path fill="none" stroke="black" d="M620.083,-73.1159C593.315,-62.9322 558.359,-49.6339 529.799,-38.7686"/>
<polygon fill="black" stroke="black" points="530.97,-35.4696 520.379,-35.1851 528.481,-42.0122 530.97,-35.4696"/>
</a>
</g>
</g>
<!-- dist_eastern_nosquash -->
<g id="dist_eastern_nosquash" class="node"><title>dist_eastern_nosquash</title>
<g id="a_dist_eastern_nosquash"><a xlink:href="javascript:void();" xlink:title="dist_eastern_nosquash">
<ellipse fill="none" stroke="black" cx="1145.84" cy="-18" rx="89.8845" ry="18"/>
<text text-anchor="middle" x="1145.84" y="-14.3" font-family="Times,serif" font-size="14.00">dist_eastern_nosquash</text>
</a>
</g>
</g>
<!-- bc_model_eastern_nosquash&#45;&gt;dist_eastern_nosquash -->
<g id="edge3" class="edge"><title>bc_model_eastern_nosquash&#45;&gt;dist_eastern_nosquash</title>
<g id="a_edge3"><a xlink:title="test">
<path fill="none" stroke="black" d="M743.187,-77.5186C756.438,-75.6634 770.017,-73.7711 782.836,-72 900.577,-55.7315 930.372,-54.1606 1047.84,-36 1055.45,-34.822 1063.4,-33.5378 1071.32,-32.2203"/>
<polygon fill="black" stroke="black" points="1072.03,-35.6492 1081.32,-30.5391 1070.87,-28.7462 1072.03,-35.6492"/>
</a>
</g>
</g>
<!-- bison_data -->
<g id="bison_data" class="node"><title>bison_data</title>
<g id="a_bison_data"><a xlink:href="javascript:void();" xlink:title="bison_data">
<ellipse fill="none" stroke="black" cx="380.836" cy="-522" rx="48.9926" ry="18"/>
<text text-anchor="middle" x="380.836" y="-518.3" font-family="Times,serif" font-size="14.00">bison_data</text>
</a>
</g>
</g>
<!-- latlon_bison -->
<g id="latlon_bison" class="node"><title>latlon_bison</title>
<g id="a_latlon_bison"><a xlink:href="javascript:void();" xlink:title="latlon_bison">
<ellipse fill="none" stroke="black" cx="380.836" cy="-450" rx="53.8905" ry="18"/>
<text text-anchor="middle" x="380.836" y="-446.3" font-family="Times,serif" font-size="14.00">latlon_bison</text>
</a>
</g>
</g>
<!-- bison_data&#45;&gt;latlon_bison -->
<g id="edge4" class="edge"><title>bison_data&#45;&gt;latlon_bison</title>
<g id="a_edge4"><a xlink:title="test">
<path fill="none" stroke="black" d="M380.836,-503.697C380.836,-495.983 380.836,-486.712 380.836,-478.112"/>
<polygon fill="black" stroke="black" points="384.336,-478.104 380.836,-468.104 377.336,-478.104 384.336,-478.104"/>
</a>
</g>
</g>
<!-- future_predictors_2070_rcp26 -->
<g id="future_predictors_2070_rcp26" class="node"><title>future_predictors_2070_rcp26</title>
<g id="a_future_predictors_2070_rcp26"><a xlink:href="javascript:void();" xlink:title="future_predictors_2070_rcp26">
<ellipse fill="none" stroke="black" cx="564.836" cy="-522" rx="117.779" ry="18"/>
<text text-anchor="middle" x="564.836" y="-518.3" font-family="Times,serif" font-size="14.00">future_predictors_2070_rcp26</text>
</a>
</g>
</g>
<!-- latlon_eastern_vals -->
<g id="latlon_eastern_vals" class="node"><title>latlon_eastern_vals</title>
<g id="a_latlon_eastern_vals"><a xlink:href="javascript:void();" xlink:title="latlon_eastern_vals">
<ellipse fill="none" stroke="black" cx="661.836" cy="-162" rx="78.7863" ry="18"/>
<text text-anchor="middle" x="661.836" y="-158.3" font-family="Times,serif" font-size="14.00">latlon_eastern_vals</text>
</a>
</g>
</g>
<!-- latlon_eastern_vals&#45;&gt;bc_model_eastern_nosquash -->
<g id="edge6" class="edge"><title>latlon_eastern_vals&#45;&gt;bc_model_eastern_nosquash</title>
<g id="a_edge6"><a xlink:title="test">
<path fill="none" stroke="black" d="M661.836,-143.697C661.836,-135.983 661.836,-126.712 661.836,-118.112"/>
<polygon fill="black" stroke="black" points="665.336,-118.104 661.836,-108.104 658.336,-118.104 665.336,-118.104"/>
</a>
</g>
</g>
<!-- bc_model_eastern_nosoil -->
<g id="bc_model_eastern_nosoil" class="node"><title>bc_model_eastern_nosoil</title>
<g id="a_bc_model_eastern_nosoil"><a xlink:href="javascript:void();" xlink:title="bc_model_eastern_nosoil">
<ellipse fill="none" stroke="black" cx="892.836" cy="-90" rx="100.983" ry="18"/>
<text text-anchor="middle" x="892.836" y="-86.3" font-family="Times,serif" font-size="14.00">bc_model_eastern_nosoil</text>
</a>
</g>
</g>
<!-- latlon_eastern_vals&#45;&gt;bc_model_eastern_nosoil -->
<g id="edge5" class="edge"><title>latlon_eastern_vals&#45;&gt;bc_model_eastern_nosoil</title>
<g id="a_edge5"><a xlink:title="test">
<path fill="none" stroke="black" d="M707.198,-147.254C743.537,-136.242 794.782,-120.713 834.227,-108.76"/>
<polygon fill="black" stroke="black" points="835.43,-112.053 843.985,-105.803 833.4,-105.354 835.43,-112.053"/>
</a>
</g>
</g>
<!-- bc_model_eastern_nosquash_nosoil -->
<g id="bc_model_eastern_nosquash_nosoil" class="node"><title>bc_model_eastern_nosquash_nosoil</title>
<g id="a_bc_model_eastern_nosquash_nosoil"><a xlink:href="javascript:void();" xlink:title="bc_model_eastern_nosquash_nosoil">
<ellipse fill="none" stroke="black" cx="393.836" cy="-90" rx="137.576" ry="18"/>
<text text-anchor="middle" x="393.836" y="-86.3" font-family="Times,serif" font-size="14.00">bc_model_eastern_nosquash_nosoil</text>
</a>
</g>
</g>
<!-- latlon_eastern_vals&#45;&gt;bc_model_eastern_nosquash_nosoil -->
<g id="edge7" class="edge"><title>latlon_eastern_vals&#45;&gt;bc_model_eastern_nosquash_nosoil</title>
<g id="a_edge7"><a xlink:title="test">
<path fill="none" stroke="black" d="M612.055,-147.998C569.941,-136.998 509.163,-121.123 462.439,-108.919"/>
<polygon fill="black" stroke="black" points="463.253,-105.514 452.693,-106.373 461.484,-112.287 463.253,-105.514"/>
</a>
</g>
</g>
<!-- dist_eastern_nosoil -->
<g id="dist_eastern_nosoil" class="node"><title>dist_eastern_nosoil</title>
<g id="a_dist_eastern_nosoil"><a xlink:href="javascript:void();" xlink:title="dist_eastern_nosoil">
<ellipse fill="none" stroke="black" cx="959.836" cy="-18" rx="78.7863" ry="18"/>
<text text-anchor="middle" x="959.836" y="-14.3" font-family="Times,serif" font-size="14.00">dist_eastern_nosoil</text>
</a>
</g>
</g>
<!-- bioclim_raster -->
<g id="bioclim_raster" class="node"><title>bioclim_raster</title>
<g id="a_bioclim_raster"><a xlink:href="javascript:void();" xlink:title="bioclim_raster">
<ellipse fill="none" stroke="black" cx="952.836" cy="-450" rx="61.99" ry="18"/>
<text text-anchor="middle" x="952.836" y="-446.3" font-family="Times,serif" font-size="14.00">bioclim_raster</text>
</a>
</g>
</g>
<!-- bioclimNA_raster -->
<g id="bioclimNA_raster" class="node"><title>bioclimNA_raster</title>
<g id="a_bioclimNA_raster"><a xlink:href="javascript:void();" xlink:title="bioclimNA_raster">
<ellipse fill="none" stroke="black" cx="952.836" cy="-378" rx="74.9875" ry="18"/>
<text text-anchor="middle" x="952.836" y="-374.3" font-family="Times,serif" font-size="14.00">bioclimNA_raster</text>
</a>
</g>
</g>
<!-- bioclim_raster&#45;&gt;bioclimNA_raster -->
<g id="edge8" class="edge"><title>bioclim_raster&#45;&gt;bioclimNA_raster</title>
<g id="a_edge8"><a xlink:title="test">
<path fill="none" stroke="black" d="M952.836,-431.697C952.836,-423.983 952.836,-414.712 952.836,-406.112"/>
<polygon fill="black" stroke="black" points="956.336,-406.104 952.836,-396.104 949.336,-406.104 956.336,-406.104"/>
</a>
</g>
</g>
<!-- predictors -->
<g id="predictors" class="node"><title>predictors</title>
<g id="a_predictors"><a xlink:href="javascript:void();" xlink:title="predictors">
<ellipse fill="none" stroke="black" cx="1021.84" cy="-234" rx="46.2923" ry="18"/>
<text text-anchor="middle" x="1021.84" y="-230.3" font-family="Times,serif" font-size="14.00">predictors</text>
</a>
</g>
</g>
<!-- predictors&#45;&gt;latlon_eastern_vals -->
<g id="edge11" class="edge"><title>predictors&#45;&gt;latlon_eastern_vals</title>
<g id="a_edge11"><a xlink:title="test">
<path fill="none" stroke="black" d="M981.587,-225.174C920.605,-213.316 804.053,-190.653 729.775,-176.211"/>
<polygon fill="black" stroke="black" points="730.07,-172.702 719.585,-174.229 728.733,-179.574 730.07,-172.702"/>
</a>
</g>
</g>
<!-- predictors&#45;&gt;dist_eastern_nosoil -->
<g id="edge9" class="edge"><title>predictors&#45;&gt;dist_eastern_nosoil</title>
<g id="a_edge9"><a xlink:title="test">
<path fill="none" stroke="black" d="M1029.06,-215.838C1040.84,-185.055 1060.5,-119.261 1035.84,-72 1028.76,-58.4428 1016.46,-47.6459 1003.79,-39.4288"/>
<polygon fill="black" stroke="black" points="1005.39,-36.3081 995.022,-34.1499 1001.78,-42.3056 1005.39,-36.3081"/>
</a>
</g>
</g>
<!-- predictors&#45;&gt;dist_eastern_nosquash -->
<g id="edge12" class="edge"><title>predictors&#45;&gt;dist_eastern_nosquash</title>
<g id="a_edge12"><a xlink:title="test">
<path fill="none" stroke="black" d="M1033.6,-216.561C1040.85,-206.229 1050.18,-192.529 1057.84,-180 1086.13,-133.688 1115.74,-77.7085 1132.38,-45.4424"/>
<polygon fill="black" stroke="black" points="1135.66,-46.7215 1137.12,-36.2271 1129.43,-43.5236 1135.66,-46.7215"/>
</a>
</g>
</g>
<!-- dist_eastern_nosquash_nosoil -->
<g id="dist_eastern_nosquash_nosoil" class="node"><title>dist_eastern_nosquash_nosoil</title>
<g id="a_dist_eastern_nosquash_nosoil"><a xlink:href="javascript:void();" xlink:title="dist_eastern_nosquash_nosoil">
<ellipse fill="none" stroke="black" cx="747.836" cy="-18" rx="115.88" ry="18"/>
<text text-anchor="middle" x="747.836" y="-14.3" font-family="Times,serif" font-size="14.00">dist_eastern_nosquash_nosoil</text>
</a>
</g>
</g>
<!-- predictors&#45;&gt;dist_eastern_nosquash_nosoil -->
<g id="edge10" class="edge"><title>predictors&#45;&gt;dist_eastern_nosquash_nosoil</title>
<g id="a_edge10"><a xlink:title="test">
<path fill="none" stroke="black" d="M1025.62,-215.825C1031.7,-183.222 1039.53,-112.053 1002.84,-72 991.463,-59.5869 907.025,-43.6798 838.38,-32.5448"/>
<polygon fill="black" stroke="black" points="838.806,-29.0684 828.377,-30.9375 837.695,-35.9798 838.806,-29.0684"/>
</a>
</g>
</g>
<!-- ext -->
<g id="ext" class="node"><title>ext</title>
<g id="a_ext"><a xlink:href="javascript:void();" xlink:title="ext">
<ellipse fill="none" stroke="black" cx="732.836" cy="-450" rx="27" ry="18"/>
<text text-anchor="middle" x="732.836" y="-446.3" font-family="Times,serif" font-size="14.00">ext</text>
</a>
</g>
</g>
<!-- worldclim_2050_rcp26_NA -->
<g id="worldclim_2050_rcp26_NA" class="node"><title>worldclim_2050_rcp26_NA</title>
<g id="a_worldclim_2050_rcp26_NA"><a xlink:href="javascript:void();" xlink:title="worldclim_2050_rcp26_NA">
<ellipse fill="none" stroke="black" cx="593.836" cy="-378" rx="110.48" ry="18"/>
<text text-anchor="middle" x="593.836" y="-374.3" font-family="Times,serif" font-size="14.00">worldclim_2050_rcp26_NA</text>
</a>
</g>
</g>
<!-- ext&#45;&gt;worldclim_2050_rcp26_NA -->
<g id="edge14" class="edge"><title>ext&#45;&gt;worldclim_2050_rcp26_NA</title>
<g id="a_edge14"><a xlink:title="test">
<path fill="none" stroke="black" d="M712.026,-438.52C691.79,-428.33 660.488,-412.566 635.18,-399.821"/>
<polygon fill="black" stroke="black" points="636.665,-396.65 626.159,-395.278 633.516,-402.902 636.665,-396.65"/>
</a>
</g>
</g>
<!-- hwsdNA_raster -->
<g id="hwsdNA_raster" class="node"><title>hwsdNA_raster</title>
<g id="a_hwsdNA_raster"><a xlink:href="javascript:void();" xlink:title="hwsdNA_raster">
<ellipse fill="none" stroke="black" cx="809.836" cy="-306" rx="65.7887" ry="18"/>
<text text-anchor="middle" x="809.836" y="-302.3" font-family="Times,serif" font-size="14.00">hwsdNA_raster</text>
</a>
</g>
</g>
<!-- ext&#45;&gt;hwsdNA_raster -->
<g id="edge13" class="edge"><title>ext&#45;&gt;hwsdNA_raster</title>
<g id="a_edge13"><a xlink:title="test">
<path fill="none" stroke="black" d="M733.149,-431.818C734.182,-413.027 737.929,-382.583 750.836,-360 757.521,-348.304 767.714,-337.806 777.758,-329.299"/>
<polygon fill="black" stroke="black" points="780.101,-331.906 785.711,-322.919 775.72,-326.446 780.101,-331.906"/>
</a>
</g>
</g>
<!-- ext&#45;&gt;bioclimNA_raster -->
<g id="edge15" class="edge"><title>ext&#45;&gt;bioclimNA_raster</title>
<g id="a_edge15"><a xlink:title="test">
<path fill="none" stroke="black" d="M756.798,-441.376C790.933,-430.514 854.455,-410.303 899.945,-395.829"/>
<polygon fill="black" stroke="black" points="901.181,-399.109 909.649,-392.741 899.058,-392.438 901.181,-399.109"/>
</a>
</g>
</g>
<!-- future_predictors_2050_rcp26 -->
<g id="future_predictors_2050_rcp26" class="node"><title>future_predictors_2050_rcp26</title>
<g id="a_future_predictors_2050_rcp26"><a xlink:href="javascript:void();" xlink:title="future_predictors_2050_rcp26">
<ellipse fill="none" stroke="black" cx="337.836" cy="-162" rx="117.779" ry="18"/>
<text text-anchor="middle" x="337.836" y="-158.3" font-family="Times,serif" font-size="14.00">future_predictors_2050_rcp26</text>
</a>
</g>
</g>
<!-- worldclim_2050_rcp26_NA&#45;&gt;future_predictors_2050_rcp26 -->
<g id="edge16" class="edge"><title>worldclim_2050_rcp26_NA&#45;&gt;future_predictors_2050_rcp26</title>
<g id="a_edge16"><a xlink:title="test">
<path fill="none" stroke="black" d="M595.241,-359.854C596.919,-326.982 595.513,-254.91 555.836,-216 537.944,-198.455 482.965,-185.157 432.7,-176.27"/>
<polygon fill="black" stroke="black" points="433.171,-172.8 422.722,-174.552 431.983,-179.698 433.171,-172.8"/>
</a>
</g>
</g>
<!-- latlon -->
<g id="latlon" class="node"><title>latlon</title>
<g id="a_latlon"><a xlink:href="javascript:void();" xlink:title="latlon">
<ellipse fill="none" stroke="black" cx="332.836" cy="-378" rx="30.5947" ry="18"/>
<text text-anchor="middle" x="332.836" y="-374.3" font-family="Times,serif" font-size="14.00">latlon</text>
</a>
</g>
</g>
<!-- latlon&#45;&gt;latlon_sparse -->
<g id="edge17" class="edge"><title>latlon&#45;&gt;latlon_sparse</title>
<g id="a_edge17"><a xlink:title="test">
<path fill="none" stroke="black" d="M332.836,-359.697C332.836,-351.983 332.836,-342.712 332.836,-334.112"/>
<polygon fill="black" stroke="black" points="336.336,-334.104 332.836,-324.104 329.336,-334.104 336.336,-334.104"/>
</a>
</g>
</g>
<!-- gbif_data -->
<g id="gbif_data" class="node"><title>gbif_data</title>
<g id="a_gbif_data"><a xlink:href="javascript:void();" xlink:title="gbif_data">
<ellipse fill="none" stroke="black" cx="259.836" cy="-522" rx="44.393" ry="18"/>
<text text-anchor="middle" x="259.836" y="-518.3" font-family="Times,serif" font-size="14.00">gbif_data</text>
</a>
</g>
</g>
<!-- latlon_gbif -->
<g id="latlon_gbif" class="node"><title>latlon_gbif</title>
<g id="a_latlon_gbif"><a xlink:href="javascript:void();" xlink:title="latlon_gbif">
<ellipse fill="none" stroke="black" cx="259.836" cy="-450" rx="49.2915" ry="18"/>
<text text-anchor="middle" x="259.836" y="-446.3" font-family="Times,serif" font-size="14.00">latlon_gbif</text>
</a>
</g>
</g>
<!-- gbif_data&#45;&gt;latlon_gbif -->
<g id="edge18" class="edge"><title>gbif_data&#45;&gt;latlon_gbif</title>
<g id="a_edge18"><a xlink:title="test">
<path fill="none" stroke="black" d="M259.836,-503.697C259.836,-495.983 259.836,-486.712 259.836,-478.112"/>
<polygon fill="black" stroke="black" points="263.336,-478.104 259.836,-468.104 256.336,-478.104 263.336,-478.104"/>
</a>
</g>
</g>
<!-- future_predictors_2050_rcp26&#45;&gt;dist_2050_rcp26_eastern_nosquash_nosoil -->
<g id="edge19" class="edge"><title>future_predictors_2050_rcp26&#45;&gt;dist_2050_rcp26_eastern_nosquash_nosoil</title>
<g id="a_edge19"><a xlink:title="test">
<path fill="none" stroke="black" d="M298.78,-144.85C279.099,-135.67 255.513,-123.009 236.836,-108 214.025,-89.6704 193.021,-63.5972 179.079,-44.4074"/>
<polygon fill="black" stroke="black" points="181.838,-42.2474 173.19,-36.1274 176.134,-46.3049 181.838,-42.2474"/>
</a>
</g>
</g>
<!-- future_predictors_2050_rcp26&#45;&gt;dist_2050_rcp26_eastern_nosquash -->
<g id="edge20" class="edge"><title>future_predictors_2050_rcp26&#45;&gt;dist_2050_rcp26_eastern_nosquash</title>
<g id="a_edge20"><a xlink:title="test">
<path fill="none" stroke="black" d="M291.147,-145.273C274.082,-137.002 256.585,-124.96 246.836,-108 238.862,-94.1284 236.867,-84.515 246.836,-72 262.307,-52.5765 314.543,-39.6868 365.434,-31.4877"/>
<polygon fill="black" stroke="black" points="366.24,-34.9046 375.584,-29.9098 365.165,-27.9877 366.24,-34.9046"/>
</a>
</g>
</g>
<!-- latlon_gbif&#45;&gt;latlon -->
<g id="edge21" class="edge"><title>latlon_gbif&#45;&gt;latlon</title>
<g id="a_edge21"><a xlink:title="test">
<path fill="none" stroke="black" d="M276.767,-432.765C286.663,-423.275 299.285,-411.172 310.046,-400.853"/>
<polygon fill="black" stroke="black" points="312.693,-403.164 317.488,-393.717 307.848,-398.112 312.693,-403.164"/>
</a>
</g>
</g>
<!-- bc_model_eastern_nosoil&#45;&gt;dist_eastern_nosoil -->
<g id="edge22" class="edge"><title>bc_model_eastern_nosoil&#45;&gt;dist_eastern_nosoil</title>
<g id="a_edge22"><a xlink:title="test">
<path fill="none" stroke="black" d="M909.054,-72.055C917.367,-63.3707 927.633,-52.6444 936.755,-43.114"/>
<polygon fill="black" stroke="black" points="939.38,-45.4333 943.766,-35.789 934.323,-40.5931 939.38,-45.4333"/>
</a>
</g>
</g>
<!-- cucurbit_points -->
<g id="cucurbit_points" class="node"><title>cucurbit_points</title>
<g id="a_cucurbit_points"><a xlink:href="javascript:void();" xlink:title="cucurbit_points">
<ellipse fill="none" stroke="black" cx="1110.84" cy="-378" rx="65.7887" ry="18"/>
<text text-anchor="middle" x="1110.84" y="-374.3" font-family="Times,serif" font-size="14.00">cucurbit_points</text>
</a>
</g>
</g>
<!-- cucurbit_distanceNA_raster -->
<g id="cucurbit_distanceNA_raster" class="node"><title>cucurbit_distanceNA_raster</title>
<g id="a_cucurbit_distanceNA_raster"><a xlink:href="javascript:void();" xlink:title="cucurbit_distanceNA_raster">
<ellipse fill="none" stroke="black" cx="1089.84" cy="-306" rx="109.381" ry="18"/>
<text text-anchor="middle" x="1089.84" y="-302.3" font-family="Times,serif" font-size="14.00">cucurbit_distanceNA_raster</text>
</a>
</g>
</g>
<!-- cucurbit_points&#45;&gt;cucurbit_distanceNA_raster -->
<g id="edge23" class="edge"><title>cucurbit_points&#45;&gt;cucurbit_distanceNA_raster</title>
<g id="a_edge23"><a xlink:title="test">
<path fill="none" stroke="black" d="M1105.64,-359.697C1103.31,-351.898 1100.49,-342.509 1097.88,-333.829"/>
<polygon fill="black" stroke="black" points="1101.19,-332.677 1094.97,-324.104 1094.49,-334.688 1101.19,-332.677"/>
</a>
</g>
</g>
<!-- latlon_eastern&#45;&gt;latlon_eastern_vals -->
<g id="edge24" class="edge"><title>latlon_eastern&#45;&gt;latlon_eastern_vals</title>
<g id="a_edge24"><a xlink:title="test">
<path fill="none" stroke="black" d="M521.41,-219.17C548.169,-208.467 585.505,-193.532 614.953,-181.753"/>
<polygon fill="black" stroke="black" points="616.626,-184.854 624.611,-177.89 614.026,-178.354 616.626,-184.854"/>
</a>
</g>
</g>
<!-- latlon_bison&#45;&gt;latlon -->
<g id="edge25" class="edge"><title>latlon_bison&#45;&gt;latlon</title>
<g id="a_edge25"><a xlink:title="test">
<path fill="none" stroke="black" d="M369.216,-432.055C363.268,-423.381 355.923,-412.669 349.394,-403.147"/>
<polygon fill="black" stroke="black" points="352.232,-401.097 343.69,-394.829 346.459,-405.056 352.232,-401.097"/>
</a>
</g>
</g>
<!-- hwsdNA_raster&#45;&gt;predictors -->
<g id="edge27" class="edge"><title>hwsdNA_raster&#45;&gt;predictors</title>
<g id="a_edge27"><a xlink:title="test">
<path fill="none" stroke="black" d="M850.21,-291.669C886.824,-279.579 940.659,-261.804 978.241,-249.394"/>
<polygon fill="black" stroke="black" points="979.504,-252.663 987.903,-246.204 977.31,-246.016 979.504,-252.663"/>
</a>
</g>
</g>
<!-- hwsdNA_raster&#45;&gt;future_predictors_2050_rcp26 -->
<g id="edge26" class="edge"><title>hwsdNA_raster&#45;&gt;future_predictors_2050_rcp26</title>
<g id="a_edge26"><a xlink:title="test">
<path fill="none" stroke="black" d="M780.85,-289.777C742.313,-270.115 671.634,-236.044 607.836,-216 550.572,-198.009 484.475,-184.91 432.012,-176.236"/>
<polygon fill="black" stroke="black" points="432.477,-172.766 422.044,-174.614 431.352,-179.675 432.477,-172.766"/>
</a>
</g>
</g>
<!-- worldclim_2050_rcp26 -->
<g id="worldclim_2050_rcp26" class="node"><title>worldclim_2050_rcp26</title>
<g id="a_worldclim_2050_rcp26"><a xlink:href="javascript:void();" xlink:title="worldclim_2050_rcp26">
<ellipse fill="none" stroke="black" cx="593.836" cy="-450" rx="93.6835" ry="18"/>
<text text-anchor="middle" x="593.836" y="-446.3" font-family="Times,serif" font-size="14.00">worldclim_2050_rcp26</text>
</a>
</g>
</g>
<!-- worldclim_2050_rcp26&#45;&gt;worldclim_2050_rcp26_NA -->
<g id="edge28" class="edge"><title>worldclim_2050_rcp26&#45;&gt;worldclim_2050_rcp26_NA</title>
<g id="a_edge28"><a xlink:title="test">
<path fill="none" stroke="black" d="M593.836,-431.697C593.836,-423.983 593.836,-414.712 593.836,-406.112"/>
<polygon fill="black" stroke="black" points="597.336,-406.104 593.836,-396.104 590.336,-406.104 597.336,-406.104"/>
</a>
</g>
</g>
<!-- bioclimNA_raster&#45;&gt;predictors -->
<g id="edge31" class="edge"><title>bioclimNA_raster&#45;&gt;predictors</title>
<g id="a_edge31"><a xlink:title="test">
<path fill="none" stroke="black" d="M953.768,-359.668C955.383,-341.016 959.794,-310.944 971.836,-288 977.655,-276.911 986.451,-266.472 995.051,-257.84"/>
<polygon fill="black" stroke="black" points="997.664,-260.185 1002.48,-250.747 992.83,-255.122 997.664,-260.185"/>
</a>
</g>
</g>
<!-- bioclimNA_raster&#45;&gt;hwsdNA_raster -->
<g id="edge30" class="edge"><title>bioclimNA_raster&#45;&gt;hwsdNA_raster</title>
<g id="a_edge30"><a xlink:title="test">
<path fill="none" stroke="black" d="M921.454,-361.638C900.354,-351.31 872.362,-337.607 849.689,-326.509"/>
<polygon fill="black" stroke="black" points="851.173,-323.338 840.653,-322.085 848.096,-329.626 851.173,-323.338"/>
</a>
</g>
</g>
<!-- bioclimNA_raster&#45;&gt;cucurbit_distanceNA_raster -->
<g id="edge29" class="edge"><title>bioclimNA_raster&#45;&gt;cucurbit_distanceNA_raster</title>
<g id="a_edge29"><a xlink:title="test">
<path fill="none" stroke="black" d="M983.24,-361.465C1002.47,-351.641 1027.57,-338.816 1048.58,-328.08"/>
<polygon fill="black" stroke="black" points="1050.29,-331.134 1057.61,-323.467 1047.11,-324.9 1050.29,-331.134"/>
</a>
</g>
</g>
<!-- cucurbit_distanceNA_raster&#45;&gt;predictors -->
<g id="edge32" class="edge"><title>cucurbit_distanceNA_raster&#45;&gt;predictors</title>
<g id="a_edge32"><a xlink:title="test">
<path fill="none" stroke="black" d="M1073.37,-288.055C1064.81,-279.243 1054.21,-268.328 1044.85,-258.694"/>
<polygon fill="black" stroke="black" points="1047.16,-256.041 1037.68,-251.307 1042.13,-260.919 1047.16,-256.041"/>
</a>
</g>
</g>
<!-- eastern_boundaries -->
<g id="eastern_boundaries" class="node"><title>eastern_boundaries</title>
<g id="a_eastern_boundaries"><a xlink:href="javascript:void();" xlink:title="eastern_boundaries">
<ellipse fill="none" stroke="black" cx="486.836" cy="-306" rx="78.7863" ry="18"/>
<text text-anchor="middle" x="486.836" y="-302.3" font-family="Times,serif" font-size="14.00">eastern_boundaries</text>
</a>
</g>
</g>
<!-- eastern_boundaries&#45;&gt;latlon_eastern -->
<g id="edge33" class="edge"><title>eastern_boundaries&#45;&gt;latlon_eastern</title>
<g id="a_edge33"><a xlink:title="test">
<path fill="none" stroke="black" d="M486.836,-287.697C486.836,-279.983 486.836,-270.712 486.836,-262.112"/>
<polygon fill="black" stroke="black" points="490.336,-262.104 486.836,-252.104 483.336,-262.104 490.336,-262.104"/>
</a>
</g>
</g>
<!-- bc_model_eastern_nosquash_nosoil&#45;&gt;dist_2050_rcp26_eastern_nosquash_nosoil -->
<g id="edge34" class="edge"><title>bc_model_eastern_nosquash_nosoil&#45;&gt;dist_2050_rcp26_eastern_nosquash_nosoil</title>
<g id="a_edge34"><a xlink:title="test">
<path fill="none" stroke="black" d="M341.77,-73.2906C307.064,-62.8189 261.253,-48.9967 224.542,-37.92"/>
<polygon fill="black" stroke="black" points="225.517,-34.5586 214.933,-35.0207 223.495,-41.2602 225.517,-34.5586"/>
</a>
</g>
</g>
<!-- bc_model_eastern_nosquash_nosoil&#45;&gt;dist_eastern_nosquash_nosoil -->
<g id="edge35" class="edge"><title>bc_model_eastern_nosquash_nosoil&#45;&gt;dist_eastern_nosquash_nosoil</title>
<g id="a_edge35"><a xlink:title="test">
<path fill="none" stroke="black" d="M466.327,-74.6655C525.44,-62.9766 608.781,-46.4967 669.436,-34.5027"/>
<polygon fill="black" stroke="black" points="670.216,-37.9163 679.347,-32.5429 668.858,-31.0493 670.216,-37.9163"/>
</a>
</g>
</g>
<!-- hwsdNAsp -->
<g id="hwsdNAsp" class="node"><title>hwsdNAsp</title>
<g id="a_hwsdNAsp"><a xlink:href="javascript:void();" xlink:title="hwsdNAsp">
<ellipse fill="none" stroke="black" cx="809.836" cy="-378" rx="50.0912" ry="18"/>
<text text-anchor="middle" x="809.836" y="-374.3" font-family="Times,serif" font-size="14.00">hwsdNAsp</text>
</a>
</g>
</g>
<!-- hwsdNAsp&#45;&gt;hwsdNA_raster -->
<g id="edge36" class="edge"><title>hwsdNAsp&#45;&gt;hwsdNA_raster</title>
<g id="a_edge36"><a xlink:title="test">
<path fill="none" stroke="black" d="M809.836,-359.697C809.836,-351.983 809.836,-342.712 809.836,-334.112"/>
<polygon fill="black" stroke="black" points="813.336,-334.104 809.836,-324.104 806.336,-334.104 813.336,-334.104"/>
</a>
</g>
</g>
</g>
</svg>
