<?xml version="1.0" encoding="UTF-8" standalone="no"?>
<!DOCTYPE svg PUBLIC "-//W3C//DTD SVG 1.1//EN"
 "http://www.w3.org/Graphics/SVG/1.1/DTD/svg11.dtd">
<!-- Generated by graphviz version 2.38.0 (20140413.2041)
 -->
<!-- Title: %3 Pages: 1 -->
<svg width="896pt" height="332pt"
 viewBox="0.00 0.00 895.67 332.00" xmlns="http://www.w3.org/2000/svg" xmlns:xlink="http://www.w3.org/1999/xlink">
<g id="graph0" class="graph" transform="scale(1 1) rotate(0) translate(4 328)">
<title>%3</title>
<polygon fill="white" stroke="none" points="-4,4 -4,-328 891.674,-328 891.674,4 -4,4"/>
<!-- dist_2050_rcp26_eastern_nosoil -->
<g id="dist_2050_rcp26_eastern_nosoil" class="node"><title>dist_2050_rcp26_eastern_nosoil</title>
<g id="a_dist_2050_rcp26_eastern_nosoil"><a xlink:href="javascript:void();" xlink:title="dist_2050_rcp26_eastern_nosoil">
<ellipse fill="none" stroke="black" cx="470.836" cy="-18" rx="124.578" ry="18"/>
<text text-anchor="middle" x="470.836" y="-14.3" font-family="Times,serif" font-size="14.00">dist_2050_rcp26_eastern_nosoil</text>
</a>
</g>
</g>
<!-- dist_2050_rcp26_eastern_nosquash -->
<g id="dist_2050_rcp26_eastern_nosquash" class="node"><title>dist_2050_rcp26_eastern_nosquash</title>
<g id="a_dist_2050_rcp26_eastern_nosquash"><a xlink:href="javascript:void();" xlink:title="dist_2050_rcp26_eastern_nosquash">
<ellipse fill="none" stroke="black" cx="751.836" cy="-18" rx="135.676" ry="18"/>
<text text-anchor="middle" x="751.836" y="-14.3" font-family="Times,serif" font-size="14.00">dist_2050_rcp26_eastern_nosquash</text>
</a>
</g>
</g>
<!-- worldclim_2050_rcp26 -->
<g id="worldclim_2050_rcp26" class="node"><title>worldclim_2050_rcp26</title>
<g id="a_worldclim_2050_rcp26"><a xlink:href="javascript:void();" xlink:title="worldclim_2050_rcp26">
<ellipse fill="none" stroke="black" cx="339.836" cy="-234" rx="93.6835" ry="18"/>
<text text-anchor="middle" x="339.836" y="-230.3" font-family="Times,serif" font-size="14.00">worldclim_2050_rcp26</text>
</a>
</g>
</g>
<!-- worldclim_2050_rcp26_NA -->
<g id="worldclim_2050_rcp26_NA" class="node"><title>worldclim_2050_rcp26_NA</title>
<g id="a_worldclim_2050_rcp26_NA"><a xlink:href="javascript:void();" xlink:title="worldclim_2050_rcp26_NA">
<ellipse fill="none" stroke="black" cx="339.836" cy="-162" rx="110.48" ry="18"/>
<text text-anchor="middle" x="339.836" y="-158.3" font-family="Times,serif" font-size="14.00">worldclim_2050_rcp26_NA</text>
</a>
</g>
</g>
<!-- worldclim_2050_rcp26&#45;&gt;worldclim_2050_rcp26_NA -->
<g id="edge1" class="edge"><title>worldclim_2050_rcp26&#45;&gt;worldclim_2050_rcp26_NA</title>
<g id="a_edge1"><a xlink:title="test">
<path fill="none" stroke="black" d="M339.836,-215.697C339.836,-207.983 339.836,-198.712 339.836,-190.112"/>
<polygon fill="black" stroke="black" points="343.336,-190.104 339.836,-180.104 336.336,-190.104 343.336,-190.104"/>
</a>
</g>
</g>
<!-- future_predictors_2050_rcp26 -->
<g id="future_predictors_2050_rcp26" class="node"><title>future_predictors_2050_rcp26</title>
<g id="a_future_predictors_2050_rcp26"><a xlink:href="javascript:void();" xlink:title="future_predictors_2050_rcp26">
<ellipse fill="none" stroke="black" cx="414.836" cy="-90" rx="117.779" ry="18"/>
<text text-anchor="middle" x="414.836" y="-86.3" font-family="Times,serif" font-size="14.00">future_predictors_2050_rcp26</text>
</a>
</g>
</g>
<!-- future_predictors_2050_rcp26&#45;&gt;dist_2050_rcp26_eastern_nosoil -->
<g id="edge3" class="edge"><title>future_predictors_2050_rcp26&#45;&gt;dist_2050_rcp26_eastern_nosoil</title>
<g id="a_edge3"><a xlink:title="test">
<path fill="none" stroke="black" d="M428.392,-72.055C435.101,-63.6679 443.335,-53.376 450.759,-44.0963"/>
<polygon fill="black" stroke="black" points="453.501,-46.2705 457.015,-36.2753 448.035,-41.8976 453.501,-46.2705"/>
</a>
</g>
</g>
<!-- future_predictors_2050_rcp26&#45;&gt;dist_2050_rcp26_eastern_nosquash -->
<g id="edge2" class="edge"><title>future_predictors_2050_rcp26&#45;&gt;dist_2050_rcp26_eastern_nosquash</title>
<g id="a_edge2"><a xlink:title="test">
<path fill="none" stroke="black" d="M481.819,-75.0866C536.618,-63.7039 614.256,-47.5774 672.226,-35.5362"/>
<polygon fill="black" stroke="black" points="673.002,-38.9498 682.081,-33.4891 671.578,-32.0961 673.002,-38.9498"/>
</a>
</g>
</g>
<!-- dist_2050_rcp26_eastern_nosquash_nosoil -->
<g id="dist_2050_rcp26_eastern_nosquash_nosoil" class="node"><title>dist_2050_rcp26_eastern_nosquash_nosoil</title>
<g id="a_dist_2050_rcp26_eastern_nosquash_nosoil"><a xlink:href="javascript:void();" xlink:title="dist_2050_rcp26_eastern_nosquash_nosoil">
<ellipse fill="none" stroke="black" cx="161.836" cy="-18" rx="161.671" ry="18"/>
<text text-anchor="middle" x="161.836" y="-14.3" font-family="Times,serif" font-size="14.00">dist_2050_rcp26_eastern_nosquash_nosoil</text>
</a>
</g>
</g>
<!-- future_predictors_2050_rcp26&#45;&gt;dist_2050_rcp26_eastern_nosquash_nosoil -->
<g id="edge4" class="edge"><title>future_predictors_2050_rcp26&#45;&gt;dist_2050_rcp26_eastern_nosquash_nosoil</title>
<g id="a_edge4"><a xlink:title="test">
<path fill="none" stroke="black" d="M360.561,-73.9832C321.983,-63.3095 269.927,-48.9067 228.771,-37.5198"/>
<polygon fill="black" stroke="black" points="229.667,-34.1362 219.096,-34.8427 227.8,-40.8827 229.667,-34.1362"/>
</a>
</g>
</g>
<!-- squash_bee_sdm_pipeline -->
<g id="squash_bee_sdm_pipeline" class="node"><title>squash_bee_sdm_pipeline</title>
<g id="a_squash_bee_sdm_pipeline"><a xlink:href="javascript:void();" xlink:title="squash_bee_sdm_pipeline">
<ellipse fill="none" stroke="black" cx="533.836" cy="-306" rx="103.182" ry="18"/>
<text text-anchor="middle" x="533.836" y="-302.3" font-family="Times,serif" font-size="14.00">squash_bee_sdm_pipeline</text>
</a>
</g>
</g>
<!-- ext -->
<g id="ext" class="node"><title>ext</title>
<g id="a_ext"><a xlink:href="javascript:void();" xlink:title="ext">
<ellipse fill="none" stroke="black" cx="478.836" cy="-234" rx="27" ry="18"/>
<text text-anchor="middle" x="478.836" y="-230.3" font-family="Times,serif" font-size="14.00">ext</text>
</a>
</g>
</g>
<!-- squash_bee_sdm_pipeline&#45;&gt;ext -->
<g id="edge8" class="edge"><title>squash_bee_sdm_pipeline&#45;&gt;ext</title>
<g id="a_edge8"><a xlink:title="test">
<path fill="none" stroke="black" d="M520.522,-288.055C513.538,-279.167 504.874,-268.14 497.257,-258.446"/>
<polygon fill="black" stroke="black" points="499.832,-256.057 490.901,-250.356 494.328,-260.382 499.832,-256.057"/>
</a>
</g>
</g>
<!-- model_eastern_nosquash -->
<g id="model_eastern_nosquash" class="node"><title>model_eastern_nosquash</title>
<g id="a_model_eastern_nosquash"><a xlink:href="javascript:void();" xlink:title="model_eastern_nosquash">
<ellipse fill="none" stroke="black" cx="754.836" cy="-162" rx="99.3824" ry="18"/>
<text text-anchor="middle" x="754.836" y="-158.3" font-family="Times,serif" font-size="14.00">model_eastern_nosquash</text>
</a>
</g>
</g>
<!-- squash_bee_sdm_pipeline&#45;&gt;model_eastern_nosquash -->
<g id="edge5" class="edge"><title>squash_bee_sdm_pipeline&#45;&gt;model_eastern_nosquash</title>
<g id="a_edge5"><a xlink:title="test">
<path fill="none" stroke="black" d="M570.866,-289.179C592.209,-279.489 619.209,-266.239 641.836,-252 673.272,-232.218 706.323,-205.38 728.501,-186.363"/>
<polygon fill="black" stroke="black" points="730.886,-188.928 736.157,-179.738 726.305,-183.635 730.886,-188.928"/>
</a>
</g>
</g>
<!-- model_eastern_nosoil -->
<g id="model_eastern_nosoil" class="node"><title>model_eastern_nosoil</title>
<g id="a_model_eastern_nosoil"><a xlink:href="javascript:void();" xlink:title="model_eastern_nosoil">
<ellipse fill="none" stroke="black" cx="638.836" cy="-90" rx="88.2844" ry="18"/>
<text text-anchor="middle" x="638.836" y="-86.3" font-family="Times,serif" font-size="14.00">model_eastern_nosoil</text>
</a>
</g>
</g>
<!-- squash_bee_sdm_pipeline&#45;&gt;model_eastern_nosoil -->
<g id="edge6" class="edge"><title>squash_bee_sdm_pipeline&#45;&gt;model_eastern_nosoil</title>
<g id="a_edge6"><a xlink:title="test">
<path fill="none" stroke="black" d="M545.758,-287.855C561.711,-264.354 590.155,-220.436 608.836,-180 618.153,-159.831 626.051,-135.918 631.401,-117.961"/>
<polygon fill="black" stroke="black" points="634.822,-118.729 634.248,-108.15 628.1,-116.779 634.822,-118.729"/>
</a>
</g>
</g>
<!-- hwsdNA_raster -->
<g id="hwsdNA_raster" class="node"><title>hwsdNA_raster</title>
<g id="a_hwsdNA_raster"><a xlink:href="javascript:void();" xlink:title="hwsdNA_raster">
<ellipse fill="none" stroke="black" cx="533.836" cy="-162" rx="65.7887" ry="18"/>
<text text-anchor="middle" x="533.836" y="-158.3" font-family="Times,serif" font-size="14.00">hwsdNA_raster</text>
</a>
</g>
</g>
<!-- squash_bee_sdm_pipeline&#45;&gt;hwsdNA_raster -->
<g id="edge7" class="edge"><title>squash_bee_sdm_pipeline&#45;&gt;hwsdNA_raster</title>
<g id="a_edge7"><a xlink:title="test">
<path fill="none" stroke="black" d="M533.836,-287.871C533.836,-263.67 533.836,-219.211 533.836,-190.393"/>
<polygon fill="black" stroke="black" points="537.336,-190.189 533.836,-180.189 530.336,-190.189 537.336,-190.189"/>
</a>
</g>
</g>
<!-- model_eastern_nosquash_nosoil -->
<g id="model_eastern_nosquash_nosoil" class="node"><title>model_eastern_nosquash_nosoil</title>
<g id="a_model_eastern_nosquash_nosoil"><a xlink:href="javascript:void();" xlink:title="model_eastern_nosquash_nosoil">
<ellipse fill="none" stroke="black" cx="153.836" cy="-90" rx="125.378" ry="18"/>
<text text-anchor="middle" x="153.836" y="-86.3" font-family="Times,serif" font-size="14.00">model_eastern_nosquash_nosoil</text>
</a>
</g>
</g>
<!-- squash_bee_sdm_pipeline&#45;&gt;model_eastern_nosquash_nosoil -->
<g id="edge9" class="edge"><title>squash_bee_sdm_pipeline&#45;&gt;model_eastern_nosquash_nosoil</title>
<g id="a_edge9"><a xlink:title="test">
<path fill="none" stroke="black" d="M442.471,-297.568C367.565,-289.888 268.866,-275.635 236.836,-252 192.041,-218.947 169.509,-154.62 159.87,-118.076"/>
<polygon fill="black" stroke="black" points="163.203,-116.977 157.383,-108.123 156.412,-118.673 163.203,-116.977"/>
</a>
</g>
</g>
<!-- ext&#45;&gt;worldclim_2050_rcp26_NA -->
<g id="edge10" class="edge"><title>ext&#45;&gt;worldclim_2050_rcp26_NA</title>
<g id="a_edge10"><a xlink:title="test">
<path fill="none" stroke="black" d="M458.026,-222.52C437.79,-212.33 406.488,-196.566 381.18,-183.821"/>
<polygon fill="black" stroke="black" points="382.665,-180.65 372.159,-179.278 379.516,-186.902 382.665,-180.65"/>
</a>
</g>
</g>
<!-- worldclim_2050_rcp26_NA&#45;&gt;future_predictors_2050_rcp26 -->
<g id="edge11" class="edge"><title>worldclim_2050_rcp26_NA&#45;&gt;future_predictors_2050_rcp26</title>
<g id="a_edge11"><a xlink:title="test">
<path fill="none" stroke="black" d="M357.991,-144.055C367.388,-135.285 379.016,-124.432 389.302,-114.831"/>
<polygon fill="black" stroke="black" points="391.925,-117.171 396.847,-107.789 387.149,-112.054 391.925,-117.171"/>
</a>
</g>
</g>
<!-- model_eastern_nosquash&#45;&gt;dist_2050_rcp26_eastern_nosquash -->
<g id="edge12" class="edge"><title>model_eastern_nosquash&#45;&gt;dist_2050_rcp26_eastern_nosquash</title>
<g id="a_edge12"><a xlink:title="test">
<path fill="none" stroke="black" d="M754.474,-143.871C753.962,-119.67 753.023,-75.2108 752.414,-46.3932"/>
<polygon fill="black" stroke="black" points="755.909,-46.1131 752.199,-36.1893 748.911,-46.261 755.909,-46.1131"/>
</a>
</g>
</g>
<!-- model_eastern_nosoil&#45;&gt;dist_2050_rcp26_eastern_nosoil -->
<g id="edge13" class="edge"><title>model_eastern_nosoil&#45;&gt;dist_2050_rcp26_eastern_nosoil</title>
<g id="a_edge13"><a xlink:title="test">
<path fill="none" stroke="black" d="M601.967,-73.6382C577.622,-63.4945 545.468,-50.0969 519.093,-39.1073"/>
<polygon fill="black" stroke="black" points="520.24,-35.7933 509.663,-35.1779 517.547,-42.2549 520.24,-35.7933"/>
</a>
</g>
</g>
<!-- hwsdNA_raster&#45;&gt;future_predictors_2050_rcp26 -->
<g id="edge14" class="edge"><title>hwsdNA_raster&#45;&gt;future_predictors_2050_rcp26</title>
<g id="a_edge14"><a xlink:title="test">
<path fill="none" stroke="black" d="M507.426,-145.465C491.216,-135.929 470.201,-123.568 452.291,-113.032"/>
<polygon fill="black" stroke="black" points="453.643,-109.767 443.249,-107.714 450.094,-115.801 453.643,-109.767"/>
</a>
</g>
</g>
<!-- model_eastern_nosquash_nosoil&#45;&gt;dist_2050_rcp26_eastern_nosquash_nosoil -->
<g id="edge15" class="edge"><title>model_eastern_nosquash_nosoil&#45;&gt;dist_2050_rcp26_eastern_nosquash_nosoil</title>
<g id="a_edge15"><a xlink:title="test">
<path fill="none" stroke="black" d="M155.813,-71.6966C156.695,-63.9827 157.754,-54.7125 158.737,-46.1124"/>
<polygon fill="black" stroke="black" points="162.223,-46.4371 159.881,-36.1043 155.268,-45.6422 162.223,-46.4371"/>
</a>
</g>
</g>
</g>
</svg>
