<?xml version="1.0" encoding="UTF-8" standalone="no"?>
<!DOCTYPE svg PUBLIC "-//W3C//DTD SVG 1.1//EN"
 "http://www.w3.org/Graphics/SVG/1.1/DTD/svg11.dtd">
<!-- Generated by graphviz version 2.38.0 (20140413.2041)
 -->
<!-- Title: %3 Pages: 1 -->
<svg width="832pt" height="548pt"
 viewBox="0.00 0.00 831.88 548.00" xmlns="http://www.w3.org/2000/svg" xmlns:xlink="http://www.w3.org/1999/xlink">
<g id="graph0" class="graph" transform="scale(1 1) rotate(0) translate(4 544)">
<title>%3</title>
<polygon fill="white" stroke="none" points="-4,4 -4,-544 827.882,-544 827.882,4 -4,4"/>
<!-- hwsdNAsp -->
<g id="hwsdNAsp" class="node"><title>hwsdNAsp</title>
<g id="a_hwsdNAsp"><a xlink:href="javascript:void();" xlink:title="hwsdNAsp">
<ellipse fill="none" stroke="black" cx="418.19" cy="-378" rx="50.0912" ry="18"/>
<text text-anchor="middle" x="418.19" y="-374.3" font-family="Times,serif" font-size="14.00">hwsdNAsp</text>
</a>
</g>
</g>
<!-- hwsdNA_raster -->
<g id="hwsdNA_raster" class="node"><title>hwsdNA_raster</title>
<g id="a_hwsdNA_raster"><a xlink:href="javascript:void();" xlink:title="hwsdNA_raster">
<ellipse fill="none" stroke="black" cx="340.19" cy="-306" rx="65.7887" ry="18"/>
<text text-anchor="middle" x="340.19" y="-302.3" font-family="Times,serif" font-size="14.00">hwsdNA_raster</text>
</a>
</g>
</g>
<!-- hwsdNAsp&#45;&gt;hwsdNA_raster -->
<g id="edge1" class="edge"><title>hwsdNAsp&#45;&gt;hwsdNA_raster</title>
<g id="a_edge1"><a xlink:title="test">
<path fill="none" stroke="black" d="M400.491,-361.116C390.265,-351.939 377.221,-340.233 365.883,-330.057"/>
<polygon fill="black" stroke="black" points="368.141,-327.381 358.361,-323.307 363.466,-332.591 368.141,-327.381"/>
</a>
</g>
</g>
<!-- cucurbit_points -->
<g id="cucurbit_points" class="node"><title>cucurbit_points</title>
<g id="a_cucurbit_points"><a xlink:href="javascript:void();" xlink:title="cucurbit_points">
<ellipse fill="none" stroke="black" cx="79.1903" cy="-378" rx="65.7887" ry="18"/>
<text text-anchor="middle" x="79.1903" y="-374.3" font-family="Times,serif" font-size="14.00">cucurbit_points</text>
</a>
</g>
</g>
<!-- cucurbit_distanceNA_raster -->
<g id="cucurbit_distanceNA_raster" class="node"><title>cucurbit_distanceNA_raster</title>
<g id="a_cucurbit_distanceNA_raster"><a xlink:href="javascript:void();" xlink:title="cucurbit_distanceNA_raster">
<ellipse fill="none" stroke="black" cx="109.19" cy="-306" rx="109.381" ry="18"/>
<text text-anchor="middle" x="109.19" y="-302.3" font-family="Times,serif" font-size="14.00">cucurbit_distanceNA_raster</text>
</a>
</g>
</g>
<!-- cucurbit_points&#45;&gt;cucurbit_distanceNA_raster -->
<g id="edge2" class="edge"><title>cucurbit_points&#45;&gt;cucurbit_distanceNA_raster</title>
<g id="a_edge2"><a xlink:title="test">
<path fill="none" stroke="black" d="M86.4525,-360.055C89.8654,-352.091 94.0143,-342.411 97.829,-333.51"/>
<polygon fill="black" stroke="black" points="101.064,-334.845 101.787,-324.275 94.6303,-332.088 101.064,-334.845"/>
</a>
</g>
</g>
<!-- predictors -->
<g id="predictors" class="node"><title>predictors</title>
<g id="a_predictors"><a xlink:href="javascript:void();" xlink:title="predictors">
<ellipse fill="none" stroke="black" cx="275.19" cy="-234" rx="46.2923" ry="18"/>
<text text-anchor="middle" x="275.19" y="-230.3" font-family="Times,serif" font-size="14.00">predictors</text>
</a>
</g>
</g>
<!-- hwsdNA_raster&#45;&gt;predictors -->
<g id="edge3" class="edge"><title>hwsdNA_raster&#45;&gt;predictors</title>
<g id="a_edge3"><a xlink:title="test">
<path fill="none" stroke="black" d="M324.786,-288.411C316.61,-279.606 306.417,-268.628 297.401,-258.919"/>
<polygon fill="black" stroke="black" points="299.853,-256.416 290.484,-251.47 294.724,-261.179 299.853,-256.416"/>
</a>
</g>
</g>
<!-- dist_eastern_nosoil -->
<g id="dist_eastern_nosoil" class="node"><title>dist_eastern_nosoil</title>
<g id="a_dist_eastern_nosoil"><a xlink:href="javascript:void();" xlink:title="dist_eastern_nosoil">
<ellipse fill="none" stroke="black" cx="106.19" cy="-18" rx="78.7863" ry="18"/>
<text text-anchor="middle" x="106.19" y="-14.3" font-family="Times,serif" font-size="14.00">dist_eastern_nosoil</text>
</a>
</g>
</g>
<!-- ext -->
<g id="ext" class="node"><title>ext</title>
<g id="a_ext"><a xlink:href="javascript:void();" xlink:title="ext">
<ellipse fill="none" stroke="black" cx="324.19" cy="-450" rx="27" ry="18"/>
<text text-anchor="middle" x="324.19" y="-446.3" font-family="Times,serif" font-size="14.00">ext</text>
</a>
</g>
</g>
<!-- ext&#45;&gt;hwsdNA_raster -->
<g id="edge5" class="edge"><title>ext&#45;&gt;hwsdNA_raster</title>
<g id="a_edge5"><a xlink:title="test">
<path fill="none" stroke="black" d="M326.12,-431.871C328.847,-407.67 333.857,-363.211 337.104,-334.393"/>
<polygon fill="black" stroke="black" points="340.612,-334.518 338.253,-324.189 333.656,-333.734 340.612,-334.518"/>
</a>
</g>
</g>
<!-- bioclimNA_raster -->
<g id="bioclimNA_raster" class="node"><title>bioclimNA_raster</title>
<g id="a_bioclimNA_raster"><a xlink:href="javascript:void();" xlink:title="bioclimNA_raster">
<ellipse fill="none" stroke="black" cx="237.19" cy="-378" rx="74.9875" ry="18"/>
<text text-anchor="middle" x="237.19" y="-374.3" font-family="Times,serif" font-size="14.00">bioclimNA_raster</text>
</a>
</g>
</g>
<!-- ext&#45;&gt;bioclimNA_raster -->
<g id="edge4" class="edge"><title>ext&#45;&gt;bioclimNA_raster</title>
<g id="a_edge4"><a xlink:title="test">
<path fill="none" stroke="black" d="M307.416,-435.503C295.528,-425.939 279.293,-412.876 265.427,-401.719"/>
<polygon fill="black" stroke="black" points="267.573,-398.954 257.588,-395.412 263.185,-404.408 267.573,-398.954"/>
</a>
</g>
</g>
<!-- gbif_data -->
<g id="gbif_data" class="node"><title>gbif_data</title>
<g id="a_gbif_data"><a xlink:href="javascript:void();" xlink:title="gbif_data">
<ellipse fill="none" stroke="black" cx="418.19" cy="-522" rx="44.393" ry="18"/>
<text text-anchor="middle" x="418.19" y="-518.3" font-family="Times,serif" font-size="14.00">gbif_data</text>
</a>
</g>
</g>
<!-- latlon_gbif -->
<g id="latlon_gbif" class="node"><title>latlon_gbif</title>
<g id="a_latlon_gbif"><a xlink:href="javascript:void();" xlink:title="latlon_gbif">
<ellipse fill="none" stroke="black" cx="418.19" cy="-450" rx="49.2915" ry="18"/>
<text text-anchor="middle" x="418.19" y="-446.3" font-family="Times,serif" font-size="14.00">latlon_gbif</text>
</a>
</g>
</g>
<!-- gbif_data&#45;&gt;latlon_gbif -->
<g id="edge6" class="edge"><title>gbif_data&#45;&gt;latlon_gbif</title>
<g id="a_edge6"><a xlink:title="test">
<path fill="none" stroke="black" d="M418.19,-503.697C418.19,-495.983 418.19,-486.712 418.19,-478.112"/>
<polygon fill="black" stroke="black" points="421.69,-478.104 418.19,-468.104 414.69,-478.104 421.69,-478.104"/>
</a>
</g>
</g>
<!-- latlon_eastern_vals -->
<g id="latlon_eastern_vals" class="node"><title>latlon_eastern_vals</title>
<g id="a_latlon_eastern_vals"><a xlink:href="javascript:void();" xlink:title="latlon_eastern_vals">
<ellipse fill="none" stroke="black" cx="428.19" cy="-162" rx="78.7863" ry="18"/>
<text text-anchor="middle" x="428.19" y="-158.3" font-family="Times,serif" font-size="14.00">latlon_eastern_vals</text>
</a>
</g>
</g>
<!-- model_eastern_nosquash -->
<g id="model_eastern_nosquash" class="node"><title>model_eastern_nosquash</title>
<g id="a_model_eastern_nosquash"><a xlink:href="javascript:void();" xlink:title="model_eastern_nosquash">
<ellipse fill="none" stroke="black" cx="671.19" cy="-90" rx="99.3824" ry="18"/>
<text text-anchor="middle" x="671.19" y="-86.3" font-family="Times,serif" font-size="14.00">model_eastern_nosquash</text>
</a>
</g>
</g>
<!-- latlon_eastern_vals&#45;&gt;model_eastern_nosquash -->
<g id="edge9" class="edge"><title>latlon_eastern_vals&#45;&gt;model_eastern_nosquash</title>
<g id="a_edge9"><a xlink:title="test">
<path fill="none" stroke="black" d="M475.043,-147.503C513.73,-136.359 568.903,-120.466 610.884,-108.372"/>
<polygon fill="black" stroke="black" points="612.071,-111.673 620.711,-105.541 610.133,-104.946 612.071,-111.673"/>
</a>
</g>
</g>
<!-- model_eastern_nosoil -->
<g id="model_eastern_nosoil" class="node"><title>model_eastern_nosoil</title>
<g id="a_model_eastern_nosoil"><a xlink:href="javascript:void();" xlink:title="model_eastern_nosoil">
<ellipse fill="none" stroke="black" cx="159.19" cy="-90" rx="88.2844" ry="18"/>
<text text-anchor="middle" x="159.19" y="-86.3" font-family="Times,serif" font-size="14.00">model_eastern_nosoil</text>
</a>
</g>
</g>
<!-- latlon_eastern_vals&#45;&gt;model_eastern_nosoil -->
<g id="edge8" class="edge"><title>latlon_eastern_vals&#45;&gt;model_eastern_nosoil</title>
<g id="a_edge8"><a xlink:title="test">
<path fill="none" stroke="black" d="M378.224,-147.998C333.967,-136.481 269.175,-119.62 221.536,-107.224"/>
<polygon fill="black" stroke="black" points="222.204,-103.781 211.645,-104.65 220.441,-110.556 222.204,-103.781"/>
</a>
</g>
</g>
<!-- model_eastern_nosquash_nosoil -->
<g id="model_eastern_nosquash_nosoil" class="node"><title>model_eastern_nosquash_nosoil</title>
<g id="a_model_eastern_nosquash_nosoil"><a xlink:href="javascript:void();" xlink:title="model_eastern_nosquash_nosoil">
<ellipse fill="none" stroke="black" cx="428.19" cy="-90" rx="125.378" ry="18"/>
<text text-anchor="middle" x="428.19" y="-86.3" font-family="Times,serif" font-size="14.00">model_eastern_nosquash_nosoil</text>
</a>
</g>
</g>
<!-- latlon_eastern_vals&#45;&gt;model_eastern_nosquash_nosoil -->
<g id="edge7" class="edge"><title>latlon_eastern_vals&#45;&gt;model_eastern_nosquash_nosoil</title>
<g id="a_edge7"><a xlink:title="test">
<path fill="none" stroke="black" d="M428.19,-143.697C428.19,-135.983 428.19,-126.712 428.19,-118.112"/>
<polygon fill="black" stroke="black" points="431.69,-118.104 428.19,-108.104 424.69,-118.104 431.69,-118.104"/>
</a>
</g>
</g>
<!-- dist_eastern_nosquash -->
<g id="dist_eastern_nosquash" class="node"><title>dist_eastern_nosquash</title>
<g id="a_dist_eastern_nosquash"><a xlink:href="javascript:void();" xlink:title="dist_eastern_nosquash">
<ellipse fill="none" stroke="black" cx="734.19" cy="-18" rx="89.8845" ry="18"/>
<text text-anchor="middle" x="734.19" y="-14.3" font-family="Times,serif" font-size="14.00">dist_eastern_nosquash</text>
</a>
</g>
</g>
<!-- model_eastern_nosquash&#45;&gt;dist_eastern_nosquash -->
<g id="edge10" class="edge"><title>model_eastern_nosquash&#45;&gt;dist_eastern_nosquash</title>
<g id="a_edge10"><a xlink:title="test">
<path fill="none" stroke="black" d="M686.441,-72.055C694.179,-63.4567 703.719,-52.8566 712.233,-43.3974"/>
<polygon fill="black" stroke="black" points="714.992,-45.5634 719.08,-35.789 709.789,-40.8806 714.992,-45.5634"/>
</a>
</g>
</g>
<!-- dist_eastern_nosquash_nosoil -->
<g id="dist_eastern_nosquash_nosoil" class="node"><title>dist_eastern_nosquash_nosoil</title>
<g id="a_dist_eastern_nosquash_nosoil"><a xlink:href="javascript:void();" xlink:title="dist_eastern_nosquash_nosoil">
<ellipse fill="none" stroke="black" cx="328.19" cy="-18" rx="115.88" ry="18"/>
<text text-anchor="middle" x="328.19" y="-14.3" font-family="Times,serif" font-size="14.00">dist_eastern_nosquash_nosoil</text>
</a>
</g>
</g>
<!-- latlon_sparse -->
<g id="latlon_sparse" class="node"><title>latlon_sparse</title>
<g id="a_latlon_sparse"><a xlink:href="javascript:void();" xlink:title="latlon_sparse">
<ellipse fill="none" stroke="black" cx="514.19" cy="-306" rx="57.3905" ry="18"/>
<text text-anchor="middle" x="514.19" y="-302.3" font-family="Times,serif" font-size="14.00">latlon_sparse</text>
</a>
</g>
</g>
<!-- latlon_eastern -->
<g id="latlon_eastern" class="node"><title>latlon_eastern</title>
<g id="a_latlon_eastern"><a xlink:href="javascript:void();" xlink:title="latlon_eastern">
<ellipse fill="none" stroke="black" cx="485.19" cy="-234" rx="59.5901" ry="18"/>
<text text-anchor="middle" x="485.19" y="-230.3" font-family="Times,serif" font-size="14.00">latlon_eastern</text>
</a>
</g>
</g>
<!-- latlon_sparse&#45;&gt;latlon_eastern -->
<g id="edge11" class="edge"><title>latlon_sparse&#45;&gt;latlon_eastern</title>
<g id="a_edge11"><a xlink:title="test">
<path fill="none" stroke="black" d="M507.17,-288.055C503.906,-280.176 499.946,-270.617 496.291,-261.794"/>
<polygon fill="black" stroke="black" points="499.408,-260.174 492.347,-252.275 492.941,-262.853 499.408,-260.174"/>
</a>
</g>
</g>
<!-- latlon_bison -->
<g id="latlon_bison" class="node"><title>latlon_bison</title>
<g id="a_latlon_bison"><a xlink:href="javascript:void();" xlink:title="latlon_bison">
<ellipse fill="none" stroke="black" cx="711.19" cy="-450" rx="53.8905" ry="18"/>
<text text-anchor="middle" x="711.19" y="-446.3" font-family="Times,serif" font-size="14.00">latlon_bison</text>
</a>
</g>
</g>
<!-- latlon -->
<g id="latlon" class="node"><title>latlon</title>
<g id="a_latlon"><a xlink:href="javascript:void();" xlink:title="latlon">
<ellipse fill="none" stroke="black" cx="547.19" cy="-378" rx="30.5947" ry="18"/>
<text text-anchor="middle" x="547.19" y="-374.3" font-family="Times,serif" font-size="14.00">latlon</text>
</a>
</g>
</g>
<!-- latlon_bison&#45;&gt;latlon -->
<g id="edge12" class="edge"><title>latlon_bison&#45;&gt;latlon</title>
<g id="a_edge12"><a xlink:title="test">
<path fill="none" stroke="black" d="M679.18,-435.337C650.705,-423.183 609.225,-405.478 580.394,-393.172"/>
<polygon fill="black" stroke="black" points="581.71,-389.929 571.139,-389.222 578.962,-396.367 581.71,-389.929"/>
</a>
</g>
</g>
<!-- model_eastern_nosoil&#45;&gt;dist_eastern_nosoil -->
<g id="edge13" class="edge"><title>model_eastern_nosoil&#45;&gt;dist_eastern_nosoil</title>
<g id="a_edge13"><a xlink:title="test">
<path fill="none" stroke="black" d="M146.36,-72.055C139.981,-63.6287 132.145,-53.2798 125.093,-43.9663"/>
<polygon fill="black" stroke="black" points="127.729,-41.6489 118.902,-35.789 122.148,-45.8744 127.729,-41.6489"/>
</a>
</g>
</g>
<!-- latlon_eastern&#45;&gt;latlon_eastern_vals -->
<g id="edge14" class="edge"><title>latlon_eastern&#45;&gt;latlon_eastern_vals</title>
<g id="a_edge14"><a xlink:title="test">
<path fill="none" stroke="black" d="M471.682,-216.411C464.756,-207.906 456.179,-197.372 448.477,-187.914"/>
<polygon fill="black" stroke="black" points="451.026,-185.501 441.998,-179.956 445.598,-189.921 451.026,-185.501"/>
</a>
</g>
</g>
<!-- model_eastern_nosquash_nosoil&#45;&gt;dist_eastern_nosquash_nosoil -->
<g id="edge15" class="edge"><title>model_eastern_nosquash_nosoil&#45;&gt;dist_eastern_nosquash_nosoil</title>
<g id="a_edge15"><a xlink:title="test">
<path fill="none" stroke="black" d="M404.238,-72.2333C391.127,-63.0556 374.701,-51.5573 360.473,-41.5978"/>
<polygon fill="black" stroke="black" points="362.147,-38.4973 351.947,-35.6299 358.133,-44.2319 362.147,-38.4973"/>
</a>
</g>
</g>
<!-- latlon_gbif&#45;&gt;latlon -->
<g id="edge16" class="edge"><title>latlon_gbif&#45;&gt;latlon</title>
<g id="a_edge16"><a xlink:title="test">
<path fill="none" stroke="black" d="M444.607,-434.666C465.504,-423.326 494.711,-407.477 516.618,-395.59"/>
<polygon fill="black" stroke="black" points="518.394,-398.608 525.515,-390.762 515.056,-392.455 518.394,-398.608"/>
</a>
</g>
</g>
<!-- predictors&#45;&gt;dist_eastern_nosoil -->
<g id="edge18" class="edge"><title>predictors&#45;&gt;dist_eastern_nosoil</title>
<g id="a_edge18"><a xlink:title="test">
<path fill="none" stroke="black" d="M237.631,-223.451C187.289,-208.402 99.9026,-173.858 62.1903,-108 50.0089,-86.7272 64.9417,-61.6225 80.622,-43.5088"/>
<polygon fill="black" stroke="black" points="83.5936,-45.4479 87.7843,-35.7171 78.44,-40.7106 83.5936,-45.4479"/>
</a>
</g>
</g>
<!-- predictors&#45;&gt;latlon_eastern_vals -->
<g id="edge19" class="edge"><title>predictors&#45;&gt;latlon_eastern_vals</title>
<g id="a_edge19"><a xlink:title="test">
<path fill="none" stroke="black" d="M303.968,-219.834C326.943,-209.322 359.478,-194.437 385.489,-182.537"/>
<polygon fill="black" stroke="black" points="387.109,-185.644 394.747,-178.301 384.197,-179.279 387.109,-185.644"/>
</a>
</g>
</g>
<!-- predictors&#45;&gt;dist_eastern_nosquash_nosoil -->
<g id="edge17" class="edge"><title>predictors&#45;&gt;dist_eastern_nosquash_nosoil</title>
<g id="a_edge17"><a xlink:title="test">
<path fill="none" stroke="black" d="M274.728,-215.979C274.446,-185.968 276.254,-122.08 294.19,-72 297.637,-62.3756 303.103,-52.7103 308.653,-44.3183"/>
<polygon fill="black" stroke="black" points="311.541,-46.295 314.385,-36.089 305.797,-42.2939 311.541,-46.295"/>
</a>
</g>
</g>
<!-- predictors&#45;&gt;dist_eastern_nosquash -->
<g id="edge20" class="edge"><title>predictors&#45;&gt;dist_eastern_nosquash</title>
<g id="a_edge20"><a xlink:title="test">
<path fill="none" stroke="black" d="M316.613,-225.768C432.012,-205.208 750.582,-145.492 779.19,-108 794.446,-88.0067 777.903,-62.0499 760.735,-43.3332"/>
<polygon fill="black" stroke="black" points="762.902,-40.5398 753.43,-35.7934 757.875,-45.4108 762.902,-40.5398"/>
</a>
</g>
</g>
<!-- bison_data -->
<g id="bison_data" class="node"><title>bison_data</title>
<g id="a_bison_data"><a xlink:href="javascript:void();" xlink:title="bison_data">
<ellipse fill="none" stroke="black" cx="711.19" cy="-522" rx="48.9926" ry="18"/>
<text text-anchor="middle" x="711.19" y="-518.3" font-family="Times,serif" font-size="14.00">bison_data</text>
</a>
</g>
</g>
<!-- bison_data&#45;&gt;latlon_bison -->
<g id="edge21" class="edge"><title>bison_data&#45;&gt;latlon_bison</title>
<g id="a_edge21"><a xlink:title="test">
<path fill="none" stroke="black" d="M711.19,-503.697C711.19,-495.983 711.19,-486.712 711.19,-478.112"/>
<polygon fill="black" stroke="black" points="714.69,-478.104 711.19,-468.104 707.69,-478.104 714.69,-478.104"/>
</a>
</g>
</g>
<!-- bioclim_raster -->
<g id="bioclim_raster" class="node"><title>bioclim_raster</title>
<g id="a_bioclim_raster"><a xlink:href="javascript:void();" xlink:title="bioclim_raster">
<ellipse fill="none" stroke="black" cx="217.19" cy="-450" rx="61.99" ry="18"/>
<text text-anchor="middle" x="217.19" y="-446.3" font-family="Times,serif" font-size="14.00">bioclim_raster</text>
</a>
</g>
</g>
<!-- bioclim_raster&#45;&gt;bioclimNA_raster -->
<g id="edge22" class="edge"><title>bioclim_raster&#45;&gt;bioclimNA_raster</title>
<g id="a_edge22"><a xlink:title="test">
<path fill="none" stroke="black" d="M222.032,-432.055C224.259,-424.261 226.955,-414.822 229.453,-406.079"/>
<polygon fill="black" stroke="black" points="232.873,-406.852 232.255,-396.275 226.142,-404.929 232.873,-406.852"/>
</a>
</g>
</g>
<!-- bioclimNA_raster&#45;&gt;hwsdNA_raster -->
<g id="edge24" class="edge"><title>bioclimNA_raster&#45;&gt;hwsdNA_raster</title>
<g id="a_edge24"><a xlink:title="test">
<path fill="none" stroke="black" d="M261.079,-360.765C275.089,-351.244 292.968,-339.093 308.184,-328.752"/>
<polygon fill="black" stroke="black" points="310.482,-331.422 316.786,-322.906 306.548,-325.632 310.482,-331.422"/>
</a>
</g>
</g>
<!-- bioclimNA_raster&#45;&gt;predictors -->
<g id="edge23" class="edge"><title>bioclimNA_raster&#45;&gt;predictors</title>
<g id="a_edge23"><a xlink:title="test">
<path fill="none" stroke="black" d="M241.774,-359.871C248.279,-335.564 260.253,-290.819 267.961,-262.013"/>
<polygon fill="black" stroke="black" points="271.386,-262.754 270.59,-252.189 264.624,-260.945 271.386,-262.754"/>
</a>
</g>
</g>
<!-- bioclimNA_raster&#45;&gt;cucurbit_distanceNA_raster -->
<g id="edge25" class="edge"><title>bioclimNA_raster&#45;&gt;cucurbit_distanceNA_raster</title>
<g id="a_edge25"><a xlink:title="test">
<path fill="none" stroke="black" d="M208.465,-361.291C190.648,-351.547 167.527,-338.903 148.082,-328.269"/>
<polygon fill="black" stroke="black" points="149.608,-325.114 139.155,-323.387 146.25,-331.256 149.608,-325.114"/>
</a>
</g>
</g>
<!-- latlon_discoverlife -->
<g id="latlon_discoverlife" class="node"><title>latlon_discoverlife</title>
<g id="a_latlon_discoverlife"><a xlink:href="javascript:void();" xlink:title="latlon_discoverlife">
<ellipse fill="none" stroke="black" cx="562.19" cy="-450" rx="76.8869" ry="18"/>
<text text-anchor="middle" x="562.19" y="-446.3" font-family="Times,serif" font-size="14.00">latlon_discoverlife</text>
</a>
</g>
</g>
<!-- latlon_discoverlife&#45;&gt;latlon -->
<g id="edge26" class="edge"><title>latlon_discoverlife&#45;&gt;latlon</title>
<g id="a_edge26"><a xlink:title="test">
<path fill="none" stroke="black" d="M558.482,-431.697C556.829,-423.983 554.843,-414.712 553,-406.112"/>
<polygon fill="black" stroke="black" points="556.373,-405.149 550.856,-396.104 549.529,-406.616 556.373,-405.149"/>
</a>
</g>
</g>
<!-- latlon&#45;&gt;latlon_sparse -->
<g id="edge27" class="edge"><title>latlon&#45;&gt;latlon_sparse</title>
<g id="a_edge27"><a xlink:title="test">
<path fill="none" stroke="black" d="M539.37,-360.411C535.522,-352.249 530.794,-342.22 526.478,-333.065"/>
<polygon fill="black" stroke="black" points="529.614,-331.509 522.184,-323.956 523.282,-334.494 529.614,-331.509"/>
</a>
</g>
</g>
<!-- cucurbit_distanceNA_raster&#45;&gt;predictors -->
<g id="edge28" class="edge"><title>cucurbit_distanceNA_raster&#45;&gt;predictors</title>
<g id="a_edge28"><a xlink:title="test">
<path fill="none" stroke="black" d="M147.274,-288.941C173.702,-277.796 208.824,-262.986 235.578,-251.704"/>
<polygon fill="black" stroke="black" points="237.171,-254.831 245.025,-247.72 234.451,-248.381 237.171,-254.831"/>
</a>
</g>
</g>
</g>
</svg>
