<?xml version="1.0" encoding="UTF-8" standalone="no"?>
<!DOCTYPE svg PUBLIC "-//W3C//DTD SVG 1.1//EN"
 "http://www.w3.org/Graphics/SVG/1.1/DTD/svg11.dtd">
<!-- Generated by graphviz version 2.38.0 (20140413.2041)
 -->
<!-- Title: %3 Pages: 1 -->
<svg width="823pt" height="548pt"
 viewBox="0.00 0.00 822.83 548.00" xmlns="http://www.w3.org/2000/svg" xmlns:xlink="http://www.w3.org/1999/xlink">
<g id="graph0" class="graph" transform="scale(1 1) rotate(0) translate(4 544)">
<title>%3</title>
<polygon fill="white" stroke="none" points="-4,4 -4,-544 818.833,-544 818.833,4 -4,4"/>
<!-- bioclim_raster -->
<g id="bioclim_raster" class="node"><title>bioclim_raster</title>
<g id="a_bioclim_raster"><a xlink:href="javascript:void();" xlink:title="bioclim_raster">
<ellipse fill="none" stroke="black" cx="576.643" cy="-450" rx="61.99" ry="18"/>
<text text-anchor="middle" x="576.643" y="-446.3" font-family="Times,serif" font-size="14.00">bioclim_raster</text>
</a>
</g>
</g>
<!-- bioclimNA_raster -->
<g id="bioclimNA_raster" class="node"><title>bioclimNA_raster</title>
<g id="a_bioclimNA_raster"><a xlink:href="javascript:void();" xlink:title="bioclimNA_raster">
<ellipse fill="none" stroke="black" cx="572.643" cy="-378" rx="74.9875" ry="18"/>
<text text-anchor="middle" x="572.643" y="-374.3" font-family="Times,serif" font-size="14.00">bioclimNA_raster</text>
</a>
</g>
</g>
<!-- bioclim_raster&#45;&gt;bioclimNA_raster -->
<g id="edge1" class="edge"><title>bioclim_raster&#45;&gt;bioclimNA_raster</title>
<g id="a_edge1"><a xlink:title="test">
<path fill="none" stroke="black" d="M575.654,-431.697C575.213,-423.983 574.684,-414.712 574.192,-406.112"/>
<polygon fill="black" stroke="black" points="577.685,-405.888 573.62,-396.104 570.697,-406.288 577.685,-405.888"/>
</a>
</g>
</g>
<!-- latlon -->
<g id="latlon" class="node"><title>latlon</title>
<g id="a_latlon"><a xlink:href="javascript:void();" xlink:title="latlon">
<ellipse fill="none" stroke="black" cx="158.643" cy="-378" rx="30.5947" ry="18"/>
<text text-anchor="middle" x="158.643" y="-374.3" font-family="Times,serif" font-size="14.00">latlon</text>
</a>
</g>
</g>
<!-- latlon_sparse -->
<g id="latlon_sparse" class="node"><title>latlon_sparse</title>
<g id="a_latlon_sparse"><a xlink:href="javascript:void();" xlink:title="latlon_sparse">
<ellipse fill="none" stroke="black" cx="158.643" cy="-306" rx="57.3905" ry="18"/>
<text text-anchor="middle" x="158.643" y="-302.3" font-family="Times,serif" font-size="14.00">latlon_sparse</text>
</a>
</g>
</g>
<!-- latlon&#45;&gt;latlon_sparse -->
<g id="edge2" class="edge"><title>latlon&#45;&gt;latlon_sparse</title>
<g id="a_edge2"><a xlink:title="test">
<path fill="none" stroke="black" d="M158.643,-359.697C158.643,-351.983 158.643,-342.712 158.643,-334.112"/>
<polygon fill="black" stroke="black" points="162.143,-334.104 158.643,-324.104 155.143,-334.104 162.143,-334.104"/>
</a>
</g>
</g>
<!-- dist_eastern_nosquash_nosoil -->
<g id="dist_eastern_nosquash_nosoil" class="node"><title>dist_eastern_nosquash_nosoil</title>
<g id="a_dist_eastern_nosquash_nosoil"><a xlink:href="javascript:void();" xlink:title="dist_eastern_nosquash_nosoil">
<ellipse fill="none" stroke="black" cx="428.643" cy="-18" rx="115.88" ry="18"/>
<text text-anchor="middle" x="428.643" y="-14.3" font-family="Times,serif" font-size="14.00">dist_eastern_nosquash_nosoil</text>
</a>
</g>
</g>
<!-- dist_eastern_nosquash -->
<g id="dist_eastern_nosquash" class="node"><title>dist_eastern_nosquash</title>
<g id="a_dist_eastern_nosquash"><a xlink:href="javascript:void();" xlink:title="dist_eastern_nosquash">
<ellipse fill="none" stroke="black" cx="711.643" cy="-18" rx="89.8845" ry="18"/>
<text text-anchor="middle" x="711.643" y="-14.3" font-family="Times,serif" font-size="14.00">dist_eastern_nosquash</text>
</a>
</g>
</g>
<!-- model_eastern_nosoil -->
<g id="model_eastern_nosoil" class="node"><title>model_eastern_nosoil</title>
<g id="a_model_eastern_nosoil"><a xlink:href="javascript:void();" xlink:title="model_eastern_nosoil">
<ellipse fill="none" stroke="black" cx="136.643" cy="-90" rx="88.2844" ry="18"/>
<text text-anchor="middle" x="136.643" y="-86.3" font-family="Times,serif" font-size="14.00">model_eastern_nosoil</text>
</a>
</g>
</g>
<!-- dist_eastern_nosoil -->
<g id="dist_eastern_nosoil" class="node"><title>dist_eastern_nosoil</title>
<g id="a_dist_eastern_nosoil"><a xlink:href="javascript:void();" xlink:title="dist_eastern_nosoil">
<ellipse fill="none" stroke="black" cx="78.643" cy="-18" rx="78.7863" ry="18"/>
<text text-anchor="middle" x="78.643" y="-14.3" font-family="Times,serif" font-size="14.00">dist_eastern_nosoil</text>
</a>
</g>
</g>
<!-- model_eastern_nosoil&#45;&gt;dist_eastern_nosoil -->
<g id="edge3" class="edge"><title>model_eastern_nosoil&#45;&gt;dist_eastern_nosoil</title>
<g id="a_edge3"><a xlink:title="test">
<path fill="none" stroke="black" d="M122.603,-72.055C115.55,-63.5427 106.871,-53.0684 99.0934,-43.6815"/>
<polygon fill="black" stroke="black" points="101.629,-41.2562 92.5539,-35.789 96.239,-45.7223 101.629,-41.2562"/>
</a>
</g>
</g>
<!-- latlon_bison -->
<g id="latlon_bison" class="node"><title>latlon_bison</title>
<g id="a_latlon_bison"><a xlink:href="javascript:void();" xlink:title="latlon_bison">
<ellipse fill="none" stroke="black" cx="98.643" cy="-450" rx="53.8905" ry="18"/>
<text text-anchor="middle" x="98.643" y="-446.3" font-family="Times,serif" font-size="14.00">latlon_bison</text>
</a>
</g>
</g>
<!-- latlon_bison&#45;&gt;latlon -->
<g id="edge4" class="edge"><title>latlon_bison&#45;&gt;latlon</title>
<g id="a_edge4"><a xlink:title="test">
<path fill="none" stroke="black" d="M112.862,-432.411C120.551,-423.441 130.173,-412.215 138.609,-402.373"/>
<polygon fill="black" stroke="black" points="141.497,-404.381 145.348,-394.511 136.183,-399.826 141.497,-404.381"/>
</a>
</g>
</g>
<!-- hwsdNA_raster -->
<g id="hwsdNA_raster" class="node"><title>hwsdNA_raster</title>
<g id="a_hwsdNA_raster"><a xlink:href="javascript:void();" xlink:title="hwsdNA_raster">
<ellipse fill="none" stroke="black" cx="474.643" cy="-306" rx="65.7887" ry="18"/>
<text text-anchor="middle" x="474.643" y="-302.3" font-family="Times,serif" font-size="14.00">hwsdNA_raster</text>
</a>
</g>
</g>
<!-- predictors -->
<g id="predictors" class="node"><title>predictors</title>
<g id="a_predictors"><a xlink:href="javascript:void();" xlink:title="predictors">
<ellipse fill="none" stroke="black" cx="521.643" cy="-234" rx="46.2923" ry="18"/>
<text text-anchor="middle" x="521.643" y="-230.3" font-family="Times,serif" font-size="14.00">predictors</text>
</a>
</g>
</g>
<!-- hwsdNA_raster&#45;&gt;predictors -->
<g id="edge5" class="edge"><title>hwsdNA_raster&#45;&gt;predictors</title>
<g id="a_edge5"><a xlink:title="test">
<path fill="none" stroke="black" d="M486.02,-288.055C491.62,-279.715 498.485,-269.491 504.688,-260.252"/>
<polygon fill="black" stroke="black" points="507.702,-262.042 510.37,-251.789 501.89,-258.14 507.702,-262.042"/>
</a>
</g>
</g>
<!-- latlon_eastern -->
<g id="latlon_eastern" class="node"><title>latlon_eastern</title>
<g id="a_latlon_eastern"><a xlink:href="javascript:void();" xlink:title="latlon_eastern">
<ellipse fill="none" stroke="black" cx="312.643" cy="-234" rx="59.5901" ry="18"/>
<text text-anchor="middle" x="312.643" y="-230.3" font-family="Times,serif" font-size="14.00">latlon_eastern</text>
</a>
</g>
</g>
<!-- latlon_eastern_vals -->
<g id="latlon_eastern_vals" class="node"><title>latlon_eastern_vals</title>
<g id="a_latlon_eastern_vals"><a xlink:href="javascript:void();" xlink:title="latlon_eastern_vals">
<ellipse fill="none" stroke="black" cx="368.643" cy="-162" rx="78.7863" ry="18"/>
<text text-anchor="middle" x="368.643" y="-158.3" font-family="Times,serif" font-size="14.00">latlon_eastern_vals</text>
</a>
</g>
</g>
<!-- latlon_eastern&#45;&gt;latlon_eastern_vals -->
<g id="edge6" class="edge"><title>latlon_eastern&#45;&gt;latlon_eastern_vals</title>
<g id="a_edge6"><a xlink:title="test">
<path fill="none" stroke="black" d="M325.914,-216.411C332.719,-207.906 341.145,-197.372 348.712,-187.914"/>
<polygon fill="black" stroke="black" points="351.564,-189.951 355.078,-179.956 346.098,-185.578 351.564,-189.951"/>
</a>
</g>
</g>
<!-- eastern_boundaries -->
<g id="eastern_boundaries" class="node"><title>eastern_boundaries</title>
<g id="a_eastern_boundaries"><a xlink:href="javascript:void();" xlink:title="eastern_boundaries">
<ellipse fill="none" stroke="black" cx="312.643" cy="-306" rx="78.7863" ry="18"/>
<text text-anchor="middle" x="312.643" y="-302.3" font-family="Times,serif" font-size="14.00">eastern_boundaries</text>
</a>
</g>
</g>
<!-- eastern_boundaries&#45;&gt;latlon_eastern -->
<g id="edge7" class="edge"><title>eastern_boundaries&#45;&gt;latlon_eastern</title>
<g id="a_edge7"><a xlink:title="test">
<path fill="none" stroke="black" d="M312.643,-287.697C312.643,-279.983 312.643,-270.712 312.643,-262.112"/>
<polygon fill="black" stroke="black" points="316.143,-262.104 312.643,-252.104 309.143,-262.104 316.143,-262.104"/>
</a>
</g>
</g>
<!-- cucurbit_distanceNA_raster -->
<g id="cucurbit_distanceNA_raster" class="node"><title>cucurbit_distanceNA_raster</title>
<g id="a_cucurbit_distanceNA_raster"><a xlink:href="javascript:void();" xlink:title="cucurbit_distanceNA_raster">
<ellipse fill="none" stroke="black" cx="705.643" cy="-306" rx="109.381" ry="18"/>
<text text-anchor="middle" x="705.643" y="-302.3" font-family="Times,serif" font-size="14.00">cucurbit_distanceNA_raster</text>
</a>
</g>
</g>
<!-- cucurbit_distanceNA_raster&#45;&gt;predictors -->
<g id="edge8" class="edge"><title>cucurbit_distanceNA_raster&#45;&gt;predictors</title>
<g id="a_edge8"><a xlink:title="test">
<path fill="none" stroke="black" d="M664.35,-289.291C634.138,-277.797 593.315,-262.267 563.072,-250.761"/>
<polygon fill="black" stroke="black" points="564.242,-247.461 553.651,-247.177 561.753,-254.004 564.242,-247.461"/>
</a>
</g>
</g>
<!-- model_eastern_nosquash -->
<g id="model_eastern_nosquash" class="node"><title>model_eastern_nosquash</title>
<g id="a_model_eastern_nosquash"><a xlink:href="javascript:void();" xlink:title="model_eastern_nosquash">
<ellipse fill="none" stroke="black" cx="648.643" cy="-90" rx="99.3824" ry="18"/>
<text text-anchor="middle" x="648.643" y="-86.3" font-family="Times,serif" font-size="14.00">model_eastern_nosquash</text>
</a>
</g>
</g>
<!-- model_eastern_nosquash&#45;&gt;dist_eastern_nosquash -->
<g id="edge9" class="edge"><title>model_eastern_nosquash&#45;&gt;dist_eastern_nosquash</title>
<g id="a_edge9"><a xlink:title="test">
<path fill="none" stroke="black" d="M663.894,-72.055C671.632,-63.4567 681.172,-52.8566 689.685,-43.3974"/>
<polygon fill="black" stroke="black" points="692.445,-45.5634 696.533,-35.789 687.242,-40.8806 692.445,-45.5634"/>
</a>
</g>
</g>
<!-- predictors&#45;&gt;dist_eastern_nosquash_nosoil -->
<g id="edge10" class="edge"><title>predictors&#45;&gt;dist_eastern_nosquash_nosoil</title>
<g id="a_edge10"><a xlink:title="test">
<path fill="none" stroke="black" d="M523.927,-215.596C527.129,-184.429 529.832,-118.048 502.643,-72 495.208,-59.4078 483.479,-48.9938 471.531,-40.8288"/>
<polygon fill="black" stroke="black" points="473.163,-37.7176 462.851,-35.2818 469.393,-43.616 473.163,-37.7176"/>
</a>
</g>
</g>
<!-- predictors&#45;&gt;dist_eastern_nosquash -->
<g id="edge12" class="edge"><title>predictors&#45;&gt;dist_eastern_nosquash</title>
<g id="a_edge12"><a xlink:title="test">
<path fill="none" stroke="black" d="M562,-224.896C617.217,-211.4 714.284,-178.511 756.643,-108 769.438,-86.7019 753.749,-61.3161 737.489,-43.1173"/>
<polygon fill="black" stroke="black" points="739.978,-40.6559 730.567,-35.7908 734.89,-45.4633 739.978,-40.6559"/>
</a>
</g>
</g>
<!-- predictors&#45;&gt;dist_eastern_nosoil -->
<g id="edge13" class="edge"><title>predictors&#45;&gt;dist_eastern_nosoil</title>
<g id="a_edge13"><a xlink:title="test">
<path fill="none" stroke="black" d="M480.799,-225.419C369.359,-204.327 66.5622,-144.137 39.643,-108 24.9168,-88.2311 39.7088,-62.033 55.119,-43.1863"/>
<polygon fill="black" stroke="black" points="57.7854,-45.4536 61.6769,-35.5994 52.4895,-40.876 57.7854,-45.4536"/>
</a>
</g>
</g>
<!-- predictors&#45;&gt;latlon_eastern_vals -->
<g id="edge11" class="edge"><title>predictors&#45;&gt;latlon_eastern_vals</title>
<g id="a_edge11"><a xlink:title="test">
<path fill="none" stroke="black" d="M492.865,-219.834C469.89,-209.322 437.355,-194.437 411.344,-182.537"/>
<polygon fill="black" stroke="black" points="412.636,-179.279 402.087,-178.301 409.724,-185.644 412.636,-179.279"/>
</a>
</g>
</g>
<!-- latlon_sparse&#45;&gt;latlon_eastern -->
<g id="edge14" class="edge"><title>latlon_sparse&#45;&gt;latlon_eastern</title>
<g id="a_edge14"><a xlink:title="test">
<path fill="none" stroke="black" d="M189.807,-290.834C213.447,-280.089 246.148,-265.225 271.867,-253.535"/>
<polygon fill="black" stroke="black" points="273.341,-256.709 280.997,-249.385 270.445,-250.337 273.341,-256.709"/>
</a>
</g>
</g>
<!-- latlon_gbif -->
<g id="latlon_gbif" class="node"><title>latlon_gbif</title>
<g id="a_latlon_gbif"><a xlink:href="javascript:void();" xlink:title="latlon_gbif">
<ellipse fill="none" stroke="black" cx="219.643" cy="-450" rx="49.2915" ry="18"/>
<text text-anchor="middle" x="219.643" y="-446.3" font-family="Times,serif" font-size="14.00">latlon_gbif</text>
</a>
</g>
</g>
<!-- latlon_gbif&#45;&gt;latlon -->
<g id="edge15" class="edge"><title>latlon_gbif&#45;&gt;latlon</title>
<g id="a_edge15"><a xlink:title="test">
<path fill="none" stroke="black" d="M205.187,-432.411C197.292,-423.351 187.391,-411.99 178.754,-402.078"/>
<polygon fill="black" stroke="black" points="181.368,-399.751 172.16,-394.511 176.091,-404.349 181.368,-399.751"/>
</a>
</g>
</g>
<!-- bison_data -->
<g id="bison_data" class="node"><title>bison_data</title>
<g id="a_bison_data"><a xlink:href="javascript:void();" xlink:title="bison_data">
<ellipse fill="none" stroke="black" cx="98.643" cy="-522" rx="48.9926" ry="18"/>
<text text-anchor="middle" x="98.643" y="-518.3" font-family="Times,serif" font-size="14.00">bison_data</text>
</a>
</g>
</g>
<!-- bison_data&#45;&gt;latlon_bison -->
<g id="edge16" class="edge"><title>bison_data&#45;&gt;latlon_bison</title>
<g id="a_edge16"><a xlink:title="test">
<path fill="none" stroke="black" d="M98.643,-503.697C98.643,-495.983 98.643,-486.712 98.643,-478.112"/>
<polygon fill="black" stroke="black" points="102.143,-478.104 98.643,-468.104 95.1431,-478.104 102.143,-478.104"/>
</a>
</g>
</g>
<!-- bioclimNA_raster&#45;&gt;hwsdNA_raster -->
<g id="edge17" class="edge"><title>bioclimNA_raster&#45;&gt;hwsdNA_raster</title>
<g id="a_edge17"><a xlink:title="test">
<path fill="none" stroke="black" d="M549.914,-360.765C536.679,-351.311 519.814,-339.265 505.404,-328.972"/>
<polygon fill="black" stroke="black" points="507.421,-326.112 497.249,-323.147 503.352,-331.808 507.421,-326.112"/>
</a>
</g>
</g>
<!-- bioclimNA_raster&#45;&gt;cucurbit_distanceNA_raster -->
<g id="edge19" class="edge"><title>bioclimNA_raster&#45;&gt;cucurbit_distanceNA_raster</title>
<g id="a_edge19"><a xlink:title="test">
<path fill="none" stroke="black" d="M602.491,-361.291C621.087,-351.503 645.245,-338.789 665.506,-328.125"/>
<polygon fill="black" stroke="black" points="667.289,-331.142 674.508,-323.387 664.028,-324.947 667.289,-331.142"/>
</a>
</g>
</g>
<!-- bioclimNA_raster&#45;&gt;predictors -->
<g id="edge18" class="edge"><title>bioclimNA_raster&#45;&gt;predictors</title>
<g id="a_edge18"><a xlink:title="test">
<path fill="none" stroke="black" d="M569.461,-359.901C565.793,-341.706 559.037,-312.258 549.643,-288 546.055,-278.735 541.25,-269.01 536.633,-260.456"/>
<polygon fill="black" stroke="black" points="539.687,-258.745 531.765,-251.711 533.571,-262.15 539.687,-258.745"/>
</a>
</g>
</g>
<!-- ext -->
<g id="ext" class="node"><title>ext</title>
<g id="a_ext"><a xlink:href="javascript:void();" xlink:title="ext">
<ellipse fill="none" stroke="black" cx="469.643" cy="-450" rx="27" ry="18"/>
<text text-anchor="middle" x="469.643" y="-446.3" font-family="Times,serif" font-size="14.00">ext</text>
</a>
</g>
</g>
<!-- ext&#45;&gt;hwsdNA_raster -->
<g id="edge20" class="edge"><title>ext&#45;&gt;hwsdNA_raster</title>
<g id="a_edge20"><a xlink:title="test">
<path fill="none" stroke="black" d="M470.246,-431.871C471.098,-407.67 472.664,-363.211 473.678,-334.393"/>
<polygon fill="black" stroke="black" points="477.184,-334.306 474.038,-324.189 470.188,-334.06 477.184,-334.306"/>
</a>
</g>
</g>
<!-- ext&#45;&gt;bioclimNA_raster -->
<g id="edge21" class="edge"><title>ext&#45;&gt;bioclimNA_raster</title>
<g id="a_edge21"><a xlink:title="test">
<path fill="none" stroke="black" d="M488.057,-436.485C502.544,-426.64 523.088,-412.678 540.302,-400.979"/>
<polygon fill="black" stroke="black" points="542.647,-403.618 548.95,-395.102 538.712,-397.828 542.647,-403.618"/>
</a>
</g>
</g>
<!-- model_eastern_nosquash_nosoil -->
<g id="model_eastern_nosquash_nosoil" class="node"><title>model_eastern_nosquash_nosoil</title>
<g id="a_model_eastern_nosquash_nosoil"><a xlink:href="javascript:void();" xlink:title="model_eastern_nosquash_nosoil">
<ellipse fill="none" stroke="black" cx="368.643" cy="-90" rx="125.378" ry="18"/>
<text text-anchor="middle" x="368.643" y="-86.3" font-family="Times,serif" font-size="14.00">model_eastern_nosquash_nosoil</text>
</a>
</g>
</g>
<!-- model_eastern_nosquash_nosoil&#45;&gt;dist_eastern_nosquash_nosoil -->
<g id="edge22" class="edge"><title>model_eastern_nosquash_nosoil&#45;&gt;dist_eastern_nosquash_nosoil</title>
<g id="a_edge22"><a xlink:title="test">
<path fill="none" stroke="black" d="M383.167,-72.055C390.356,-63.6679 399.178,-53.376 407.132,-44.0963"/>
<polygon fill="black" stroke="black" points="409.985,-46.1457 413.836,-36.2753 404.67,-41.5901 409.985,-46.1457"/>
</a>
</g>
</g>
<!-- gbif_data -->
<g id="gbif_data" class="node"><title>gbif_data</title>
<g id="a_gbif_data"><a xlink:href="javascript:void();" xlink:title="gbif_data">
<ellipse fill="none" stroke="black" cx="219.643" cy="-522" rx="44.393" ry="18"/>
<text text-anchor="middle" x="219.643" y="-518.3" font-family="Times,serif" font-size="14.00">gbif_data</text>
</a>
</g>
</g>
<!-- gbif_data&#45;&gt;latlon_gbif -->
<g id="edge23" class="edge"><title>gbif_data&#45;&gt;latlon_gbif</title>
<g id="a_edge23"><a xlink:title="test">
<path fill="none" stroke="black" d="M219.643,-503.697C219.643,-495.983 219.643,-486.712 219.643,-478.112"/>
<polygon fill="black" stroke="black" points="223.143,-478.104 219.643,-468.104 216.143,-478.104 223.143,-478.104"/>
</a>
</g>
</g>
<!-- latlon_eastern_vals&#45;&gt;model_eastern_nosoil -->
<g id="edge25" class="edge"><title>latlon_eastern_vals&#45;&gt;model_eastern_nosoil</title>
<g id="a_edge25"><a xlink:title="test">
<path fill="none" stroke="black" d="M323.084,-147.254C286.023,-136.072 233.524,-120.231 193.674,-108.208"/>
<polygon fill="black" stroke="black" points="194.675,-104.854 184.09,-105.316 192.653,-111.555 194.675,-104.854"/>
</a>
</g>
</g>
<!-- latlon_eastern_vals&#45;&gt;model_eastern_nosquash -->
<g id="edge26" class="edge"><title>latlon_eastern_vals&#45;&gt;model_eastern_nosquash</title>
<g id="a_edge26"><a xlink:title="test">
<path fill="none" stroke="black" d="M419.674,-148.242C465.516,-136.782 533.09,-119.888 582.954,-107.422"/>
<polygon fill="black" stroke="black" points="583.826,-110.812 592.679,-104.991 582.128,-104.021 583.826,-110.812"/>
</a>
</g>
</g>
<!-- latlon_eastern_vals&#45;&gt;model_eastern_nosquash_nosoil -->
<g id="edge24" class="edge"><title>latlon_eastern_vals&#45;&gt;model_eastern_nosquash_nosoil</title>
<g id="a_edge24"><a xlink:title="test">
<path fill="none" stroke="black" d="M368.643,-143.697C368.643,-135.983 368.643,-126.712 368.643,-118.112"/>
<polygon fill="black" stroke="black" points="372.143,-118.104 368.643,-108.104 365.143,-118.104 372.143,-118.104"/>
</a>
</g>
</g>
<!-- hwsdNAsp -->
<g id="hwsdNAsp" class="node"><title>hwsdNAsp</title>
<g id="a_hwsdNAsp"><a xlink:href="javascript:void();" xlink:title="hwsdNAsp">
<ellipse fill="none" stroke="black" cx="391.643" cy="-378" rx="50.0912" ry="18"/>
<text text-anchor="middle" x="391.643" y="-374.3" font-family="Times,serif" font-size="14.00">hwsdNAsp</text>
</a>
</g>
</g>
<!-- hwsdNAsp&#45;&gt;hwsdNA_raster -->
<g id="edge27" class="edge"><title>hwsdNAsp&#45;&gt;hwsdNA_raster</title>
<g id="a_edge27"><a xlink:title="test">
<path fill="none" stroke="black" d="M410.477,-361.116C421.463,-351.851 435.505,-340.008 447.651,-329.764"/>
<polygon fill="black" stroke="black" points="449.92,-332.43 455.308,-323.307 445.407,-327.079 449.92,-332.43"/>
</a>
</g>
</g>
<!-- cucurbit_points -->
<g id="cucurbit_points" class="node"><title>cucurbit_points</title>
<g id="a_cucurbit_points"><a xlink:href="javascript:void();" xlink:title="cucurbit_points">
<ellipse fill="none" stroke="black" cx="730.643" cy="-378" rx="65.7887" ry="18"/>
<text text-anchor="middle" x="730.643" y="-374.3" font-family="Times,serif" font-size="14.00">cucurbit_points</text>
</a>
</g>
</g>
<!-- cucurbit_points&#45;&gt;cucurbit_distanceNA_raster -->
<g id="edge28" class="edge"><title>cucurbit_points&#45;&gt;cucurbit_distanceNA_raster</title>
<g id="a_edge28"><a xlink:title="test">
<path fill="none" stroke="black" d="M724.591,-360.055C721.777,-352.176 718.363,-342.617 715.212,-333.794"/>
<polygon fill="black" stroke="black" points="718.472,-332.516 711.813,-324.275 711.88,-334.87 718.472,-332.516"/>
</a>
</g>
</g>
</g>
</svg>
