<?xml version="1.0" encoding="UTF-8" standalone="no"?>
<!DOCTYPE svg PUBLIC "-//W3C//DTD SVG 1.1//EN"
 "http://www.w3.org/Graphics/SVG/1.1/DTD/svg11.dtd">
<!-- Generated by graphviz version 2.38.0 (20140413.2041)
 -->
<!-- Title: %3 Pages: 1 -->
<svg width="1243pt" height="548pt"
 viewBox="0.00 0.00 1243.48 548.00" xmlns="http://www.w3.org/2000/svg" xmlns:xlink="http://www.w3.org/1999/xlink">
<g id="graph0" class="graph" transform="scale(1 1) rotate(0) translate(4 544)">
<title>%3</title>
<polygon fill="white" stroke="none" points="-4,4 -4,-544 1239.48,-544 1239.48,4 -4,4"/>
<!-- latlon -->
<g id="latlon" class="node"><title>latlon</title>
<g id="a_latlon"><a xlink:href="javascript:void();" xlink:title="latlon">
<ellipse fill="none" stroke="black" cx="779.643" cy="-378" rx="30.5947" ry="18"/>
<text text-anchor="middle" x="779.643" y="-374.3" font-family="Times,serif" font-size="14.00">latlon</text>
</a>
</g>
</g>
<!-- latlon_sparse -->
<g id="latlon_sparse" class="node"><title>latlon_sparse</title>
<g id="a_latlon_sparse"><a xlink:href="javascript:void();" xlink:title="latlon_sparse">
<ellipse fill="none" stroke="black" cx="804.643" cy="-306" rx="57.3905" ry="18"/>
<text text-anchor="middle" x="804.643" y="-302.3" font-family="Times,serif" font-size="14.00">latlon_sparse</text>
</a>
</g>
</g>
<!-- latlon&#45;&gt;latlon_sparse -->
<g id="edge1" class="edge"><title>latlon&#45;&gt;latlon_sparse</title>
<g id="a_edge1"><a xlink:title="test">
<path fill="none" stroke="black" d="M785.695,-360.055C788.509,-352.176 791.923,-342.617 795.074,-333.794"/>
<polygon fill="black" stroke="black" points="798.406,-334.87 798.473,-324.275 791.814,-332.516 798.406,-334.87"/>
</a>
</g>
</g>
<!-- dist_2050_rcp26_eastern_nosquash -->
<g id="dist_2050_rcp26_eastern_nosquash" class="node"><title>dist_2050_rcp26_eastern_nosquash</title>
<g id="a_dist_2050_rcp26_eastern_nosquash"><a xlink:href="javascript:void();" xlink:title="dist_2050_rcp26_eastern_nosquash">
<ellipse fill="none" stroke="black" cx="1099.64" cy="-18" rx="135.676" ry="18"/>
<text text-anchor="middle" x="1099.64" y="-14.3" font-family="Times,serif" font-size="14.00">dist_2050_rcp26_eastern_nosquash</text>
</a>
</g>
</g>
<!-- future_predictors_2070_rcp26 -->
<g id="future_predictors_2070_rcp26" class="node"><title>future_predictors_2070_rcp26</title>
<g id="a_future_predictors_2070_rcp26"><a xlink:href="javascript:void();" xlink:title="future_predictors_2070_rcp26">
<ellipse fill="none" stroke="black" cx="963.643" cy="-522" rx="117.779" ry="18"/>
<text text-anchor="middle" x="963.643" y="-518.3" font-family="Times,serif" font-size="14.00">future_predictors_2070_rcp26</text>
</a>
</g>
</g>
<!-- model_eastern_nosquash_nosoil -->
<g id="model_eastern_nosquash_nosoil" class="node"><title>model_eastern_nosquash_nosoil</title>
<g id="a_model_eastern_nosquash_nosoil"><a xlink:href="javascript:void();" xlink:title="model_eastern_nosquash_nosoil">
<ellipse fill="none" stroke="black" cx="572.643" cy="-90" rx="125.378" ry="18"/>
<text text-anchor="middle" x="572.643" y="-86.3" font-family="Times,serif" font-size="14.00">model_eastern_nosquash_nosoil</text>
</a>
</g>
</g>
<!-- dist_2050_rcp26_eastern_nosquash_nosoil -->
<g id="dist_2050_rcp26_eastern_nosquash_nosoil" class="node"><title>dist_2050_rcp26_eastern_nosquash_nosoil</title>
<g id="a_dist_2050_rcp26_eastern_nosquash_nosoil"><a xlink:href="javascript:void();" xlink:title="dist_2050_rcp26_eastern_nosquash_nosoil">
<ellipse fill="none" stroke="black" cx="783.643" cy="-18" rx="161.671" ry="18"/>
<text text-anchor="middle" x="783.643" y="-14.3" font-family="Times,serif" font-size="14.00">dist_2050_rcp26_eastern_nosquash_nosoil</text>
</a>
</g>
</g>
<!-- model_eastern_nosquash_nosoil&#45;&gt;dist_2050_rcp26_eastern_nosquash_nosoil -->
<g id="edge3" class="edge"><title>model_eastern_nosquash_nosoil&#45;&gt;dist_2050_rcp26_eastern_nosquash_nosoil</title>
<g id="a_edge3"><a xlink:title="test">
<path fill="none" stroke="black" d="M619.996,-73.2906C651.071,-62.9814 691.934,-49.4249 725.052,-38.4377"/>
<polygon fill="black" stroke="black" points="726.228,-41.7354 734.617,-35.2646 724.023,-35.0915 726.228,-41.7354"/>
</a>
</g>
</g>
<!-- dist_eastern_nosquash_nosoil -->
<g id="dist_eastern_nosquash_nosoil" class="node"><title>dist_eastern_nosquash_nosoil</title>
<g id="a_dist_eastern_nosquash_nosoil"><a xlink:href="javascript:void();" xlink:title="dist_eastern_nosquash_nosoil">
<ellipse fill="none" stroke="black" cx="290.643" cy="-18" rx="115.88" ry="18"/>
<text text-anchor="middle" x="290.643" y="-14.3" font-family="Times,serif" font-size="14.00">dist_eastern_nosquash_nosoil</text>
</a>
</g>
</g>
<!-- model_eastern_nosquash_nosoil&#45;&gt;dist_eastern_nosquash_nosoil -->
<g id="edge2" class="edge"><title>model_eastern_nosquash_nosoil&#45;&gt;dist_eastern_nosquash_nosoil</title>
<g id="a_edge2"><a xlink:title="test">
<path fill="none" stroke="black" d="M512.838,-74.1548C467.858,-62.9895 406.154,-47.6731 359.183,-36.0135"/>
<polygon fill="black" stroke="black" points="359.943,-32.5961 349.395,-33.5838 358.257,-39.3899 359.943,-32.5961"/>
</a>
</g>
</g>
<!-- eastern_boundaries -->
<g id="eastern_boundaries" class="node"><title>eastern_boundaries</title>
<g id="a_eastern_boundaries"><a xlink:href="javascript:void();" xlink:title="eastern_boundaries">
<ellipse fill="none" stroke="black" cx="650.643" cy="-306" rx="78.7863" ry="18"/>
<text text-anchor="middle" x="650.643" y="-302.3" font-family="Times,serif" font-size="14.00">eastern_boundaries</text>
</a>
</g>
</g>
<!-- latlon_eastern -->
<g id="latlon_eastern" class="node"><title>latlon_eastern</title>
<g id="a_latlon_eastern"><a xlink:href="javascript:void();" xlink:title="latlon_eastern">
<ellipse fill="none" stroke="black" cx="650.643" cy="-234" rx="59.5901" ry="18"/>
<text text-anchor="middle" x="650.643" y="-230.3" font-family="Times,serif" font-size="14.00">latlon_eastern</text>
</a>
</g>
</g>
<!-- eastern_boundaries&#45;&gt;latlon_eastern -->
<g id="edge4" class="edge"><title>eastern_boundaries&#45;&gt;latlon_eastern</title>
<g id="a_edge4"><a xlink:title="test">
<path fill="none" stroke="black" d="M650.643,-287.697C650.643,-279.983 650.643,-270.712 650.643,-262.112"/>
<polygon fill="black" stroke="black" points="654.143,-262.104 650.643,-252.104 647.143,-262.104 654.143,-262.104"/>
</a>
</g>
</g>
<!-- latlon_eastern_vals -->
<g id="latlon_eastern_vals" class="node"><title>latlon_eastern_vals</title>
<g id="a_latlon_eastern_vals"><a xlink:href="javascript:void();" xlink:title="latlon_eastern_vals">
<ellipse fill="none" stroke="black" cx="572.643" cy="-162" rx="78.7863" ry="18"/>
<text text-anchor="middle" x="572.643" y="-158.3" font-family="Times,serif" font-size="14.00">latlon_eastern_vals</text>
</a>
</g>
</g>
<!-- latlon_eastern_vals&#45;&gt;model_eastern_nosquash_nosoil -->
<g id="edge7" class="edge"><title>latlon_eastern_vals&#45;&gt;model_eastern_nosquash_nosoil</title>
<g id="a_edge7"><a xlink:title="test">
<path fill="none" stroke="black" d="M572.643,-143.697C572.643,-135.983 572.643,-126.712 572.643,-118.112"/>
<polygon fill="black" stroke="black" points="576.143,-118.104 572.643,-108.104 569.143,-118.104 576.143,-118.104"/>
</a>
</g>
</g>
<!-- model_eastern_nosoil -->
<g id="model_eastern_nosoil" class="node"><title>model_eastern_nosoil</title>
<g id="a_model_eastern_nosoil"><a xlink:href="javascript:void();" xlink:title="model_eastern_nosoil">
<ellipse fill="none" stroke="black" cx="303.643" cy="-90" rx="88.2844" ry="18"/>
<text text-anchor="middle" x="303.643" y="-86.3" font-family="Times,serif" font-size="14.00">model_eastern_nosoil</text>
</a>
</g>
</g>
<!-- latlon_eastern_vals&#45;&gt;model_eastern_nosoil -->
<g id="edge5" class="edge"><title>latlon_eastern_vals&#45;&gt;model_eastern_nosoil</title>
<g id="a_edge5"><a xlink:title="test">
<path fill="none" stroke="black" d="M522.677,-147.998C478.42,-136.481 413.627,-119.62 365.989,-107.224"/>
<polygon fill="black" stroke="black" points="366.657,-103.781 356.098,-104.65 364.894,-110.556 366.657,-103.781"/>
</a>
</g>
</g>
<!-- model_eastern_nosquash -->
<g id="model_eastern_nosquash" class="node"><title>model_eastern_nosquash</title>
<g id="a_model_eastern_nosquash"><a xlink:href="javascript:void();" xlink:title="model_eastern_nosquash">
<ellipse fill="none" stroke="black" cx="815.643" cy="-90" rx="99.3824" ry="18"/>
<text text-anchor="middle" x="815.643" y="-86.3" font-family="Times,serif" font-size="14.00">model_eastern_nosquash</text>
</a>
</g>
</g>
<!-- latlon_eastern_vals&#45;&gt;model_eastern_nosquash -->
<g id="edge6" class="edge"><title>latlon_eastern_vals&#45;&gt;model_eastern_nosquash</title>
<g id="a_edge6"><a xlink:title="test">
<path fill="none" stroke="black" d="M619.496,-147.503C658.183,-136.359 713.355,-120.466 755.337,-108.372"/>
<polygon fill="black" stroke="black" points="756.524,-111.673 765.164,-105.541 754.586,-104.946 756.524,-111.673"/>
</a>
</g>
</g>
<!-- cucurbit_distanceNA_raster -->
<g id="cucurbit_distanceNA_raster" class="node"><title>cucurbit_distanceNA_raster</title>
<g id="a_cucurbit_distanceNA_raster"><a xlink:href="javascript:void();" xlink:title="cucurbit_distanceNA_raster">
<ellipse fill="none" stroke="black" cx="257.643" cy="-306" rx="109.381" ry="18"/>
<text text-anchor="middle" x="257.643" y="-302.3" font-family="Times,serif" font-size="14.00">cucurbit_distanceNA_raster</text>
</a>
</g>
</g>
<!-- predictors -->
<g id="predictors" class="node"><title>predictors</title>
<g id="a_predictors"><a xlink:href="javascript:void();" xlink:title="predictors">
<ellipse fill="none" stroke="black" cx="394.643" cy="-234" rx="46.2923" ry="18"/>
<text text-anchor="middle" x="394.643" y="-230.3" font-family="Times,serif" font-size="14.00">predictors</text>
</a>
</g>
</g>
<!-- cucurbit_distanceNA_raster&#45;&gt;predictors -->
<g id="edge8" class="edge"><title>cucurbit_distanceNA_raster&#45;&gt;predictors</title>
<g id="a_edge8"><a xlink:title="test">
<path fill="none" stroke="black" d="M289.418,-288.765C310.075,-278.21 337.057,-264.423 358.527,-253.453"/>
<polygon fill="black" stroke="black" points="360.346,-256.455 367.658,-248.788 357.161,-250.221 360.346,-256.455"/>
</a>
</g>
</g>
<!-- bison_data -->
<g id="bison_data" class="node"><title>bison_data</title>
<g id="a_bison_data"><a xlink:href="javascript:void();" xlink:title="bison_data">
<ellipse fill="none" stroke="black" cx="779.643" cy="-522" rx="48.9926" ry="18"/>
<text text-anchor="middle" x="779.643" y="-518.3" font-family="Times,serif" font-size="14.00">bison_data</text>
</a>
</g>
</g>
<!-- latlon_bison -->
<g id="latlon_bison" class="node"><title>latlon_bison</title>
<g id="a_latlon_bison"><a xlink:href="javascript:void();" xlink:title="latlon_bison">
<ellipse fill="none" stroke="black" cx="779.643" cy="-450" rx="53.8905" ry="18"/>
<text text-anchor="middle" x="779.643" y="-446.3" font-family="Times,serif" font-size="14.00">latlon_bison</text>
</a>
</g>
</g>
<!-- bison_data&#45;&gt;latlon_bison -->
<g id="edge9" class="edge"><title>bison_data&#45;&gt;latlon_bison</title>
<g id="a_edge9"><a xlink:title="test">
<path fill="none" stroke="black" d="M779.643,-503.697C779.643,-495.983 779.643,-486.712 779.643,-478.112"/>
<polygon fill="black" stroke="black" points="783.143,-478.104 779.643,-468.104 776.143,-478.104 783.143,-478.104"/>
</a>
</g>
</g>
<!-- bioclimNA_raster -->
<g id="bioclimNA_raster" class="node"><title>bioclimNA_raster</title>
<g id="a_bioclimNA_raster"><a xlink:href="javascript:void();" xlink:title="bioclimNA_raster">
<ellipse fill="none" stroke="black" cx="394.643" cy="-378" rx="74.9875" ry="18"/>
<text text-anchor="middle" x="394.643" y="-374.3" font-family="Times,serif" font-size="14.00">bioclimNA_raster</text>
</a>
</g>
</g>
<!-- bioclimNA_raster&#45;&gt;cucurbit_distanceNA_raster -->
<g id="edge11" class="edge"><title>bioclimNA_raster&#45;&gt;cucurbit_distanceNA_raster</title>
<g id="a_edge11"><a xlink:title="test">
<path fill="none" stroke="black" d="M364.238,-361.465C345.011,-351.641 319.912,-338.816 298.899,-328.08"/>
<polygon fill="black" stroke="black" points="300.369,-324.9 289.872,-323.467 297.184,-331.134 300.369,-324.9"/>
</a>
</g>
</g>
<!-- hwsdNA_raster -->
<g id="hwsdNA_raster" class="node"><title>hwsdNA_raster</title>
<g id="a_hwsdNA_raster"><a xlink:href="javascript:void();" xlink:title="hwsdNA_raster">
<ellipse fill="none" stroke="black" cx="488.643" cy="-306" rx="65.7887" ry="18"/>
<text text-anchor="middle" x="488.643" y="-302.3" font-family="Times,serif" font-size="14.00">hwsdNA_raster</text>
</a>
</g>
</g>
<!-- bioclimNA_raster&#45;&gt;hwsdNA_raster -->
<g id="edge12" class="edge"><title>bioclimNA_raster&#45;&gt;hwsdNA_raster</title>
<g id="a_edge12"><a xlink:title="test">
<path fill="none" stroke="black" d="M416.445,-360.765C429.021,-351.4 445.014,-339.49 458.749,-329.261"/>
<polygon fill="black" stroke="black" points="461.029,-331.927 466.959,-323.147 456.849,-326.313 461.029,-331.927"/>
</a>
</g>
</g>
<!-- bioclimNA_raster&#45;&gt;predictors -->
<g id="edge10" class="edge"><title>bioclimNA_raster&#45;&gt;predictors</title>
<g id="a_edge10"><a xlink:title="test">
<path fill="none" stroke="black" d="M394.643,-359.871C394.643,-335.67 394.643,-291.211 394.643,-262.393"/>
<polygon fill="black" stroke="black" points="398.143,-262.189 394.643,-252.189 391.143,-262.189 398.143,-262.189"/>
</a>
</g>
</g>
<!-- dist_eastern_nosoil -->
<g id="dist_eastern_nosoil" class="node"><title>dist_eastern_nosoil</title>
<g id="a_dist_eastern_nosoil"><a xlink:href="javascript:void();" xlink:title="dist_eastern_nosoil">
<ellipse fill="none" stroke="black" cx="78.643" cy="-18" rx="78.7863" ry="18"/>
<text text-anchor="middle" x="78.643" y="-14.3" font-family="Times,serif" font-size="14.00">dist_eastern_nosoil</text>
</a>
</g>
</g>
<!-- hwsdNA_raster&#45;&gt;predictors -->
<g id="edge13" class="edge"><title>hwsdNA_raster&#45;&gt;predictors</title>
<g id="a_edge13"><a xlink:title="test">
<path fill="none" stroke="black" d="M466.841,-288.765C453.906,-279.132 437.356,-266.807 423.365,-256.389"/>
<polygon fill="black" stroke="black" points="425.151,-253.355 415.04,-250.189 420.97,-258.969 425.151,-253.355"/>
</a>
</g>
</g>
<!-- future_predictors_2050_rcp26 -->
<g id="future_predictors_2050_rcp26" class="node"><title>future_predictors_2050_rcp26</title>
<g id="a_future_predictors_2050_rcp26"><a xlink:href="javascript:void();" xlink:title="future_predictors_2050_rcp26">
<ellipse fill="none" stroke="black" cx="942.643" cy="-162" rx="117.779" ry="18"/>
<text text-anchor="middle" x="942.643" y="-158.3" font-family="Times,serif" font-size="14.00">future_predictors_2050_rcp26</text>
</a>
</g>
</g>
<!-- hwsdNA_raster&#45;&gt;future_predictors_2050_rcp26 -->
<g id="edge14" class="edge"><title>hwsdNA_raster&#45;&gt;future_predictors_2050_rcp26</title>
<g id="a_edge14"><a xlink:title="test">
<path fill="none" stroke="black" d="M500.956,-287.993C516.998,-267.252 547.108,-232.878 581.643,-216 624.387,-195.109 741.258,-180.487 830.55,-171.969"/>
<polygon fill="black" stroke="black" points="831.117,-175.432 840.746,-171.012 830.462,-168.462 831.117,-175.432"/>
</a>
</g>
</g>
<!-- bioclim_raster -->
<g id="bioclim_raster" class="node"><title>bioclim_raster</title>
<g id="a_bioclim_raster"><a xlink:href="javascript:void();" xlink:title="bioclim_raster">
<ellipse fill="none" stroke="black" cx="392.643" cy="-450" rx="61.99" ry="18"/>
<text text-anchor="middle" x="392.643" y="-446.3" font-family="Times,serif" font-size="14.00">bioclim_raster</text>
</a>
</g>
</g>
<!-- bioclim_raster&#45;&gt;bioclimNA_raster -->
<g id="edge15" class="edge"><title>bioclim_raster&#45;&gt;bioclimNA_raster</title>
<g id="a_edge15"><a xlink:title="test">
<path fill="none" stroke="black" d="M393.137,-431.697C393.358,-423.983 393.623,-414.712 393.868,-406.112"/>
<polygon fill="black" stroke="black" points="397.367,-406.2 394.154,-396.104 390.37,-406 397.367,-406.2"/>
</a>
</g>
</g>
<!-- latlon_gbif -->
<g id="latlon_gbif" class="node"><title>latlon_gbif</title>
<g id="a_latlon_gbif"><a xlink:href="javascript:void();" xlink:title="latlon_gbif">
<ellipse fill="none" stroke="black" cx="658.643" cy="-450" rx="49.2915" ry="18"/>
<text text-anchor="middle" x="658.643" y="-446.3" font-family="Times,serif" font-size="14.00">latlon_gbif</text>
</a>
</g>
</g>
<!-- latlon_gbif&#45;&gt;latlon -->
<g id="edge16" class="edge"><title>latlon_gbif&#45;&gt;latlon</title>
<g id="a_edge16"><a xlink:title="test">
<path fill="none" stroke="black" d="M684.009,-434.326C703.119,-423.27 729.386,-408.074 749.558,-396.405"/>
<polygon fill="black" stroke="black" points="751.446,-399.356 758.349,-391.319 747.94,-393.297 751.446,-399.356"/>
</a>
</g>
</g>
<!-- ext -->
<g id="ext" class="node"><title>ext</title>
<g id="a_ext"><a xlink:href="javascript:void();" xlink:title="ext">
<ellipse fill="none" stroke="black" cx="499.643" cy="-450" rx="27" ry="18"/>
<text text-anchor="middle" x="499.643" y="-446.3" font-family="Times,serif" font-size="14.00">ext</text>
</a>
</g>
</g>
<!-- ext&#45;&gt;bioclimNA_raster -->
<g id="edge17" class="edge"><title>ext&#45;&gt;bioclimNA_raster</title>
<g id="a_edge17"><a xlink:title="test">
<path fill="none" stroke="black" d="M480.871,-436.485C465.968,-426.55 444.775,-412.422 427.13,-400.658"/>
<polygon fill="black" stroke="black" points="429.058,-397.737 418.796,-395.102 425.175,-403.561 429.058,-397.737"/>
</a>
</g>
</g>
<!-- ext&#45;&gt;hwsdNA_raster -->
<g id="edge18" class="edge"><title>ext&#45;&gt;hwsdNA_raster</title>
<g id="a_edge18"><a xlink:title="test">
<path fill="none" stroke="black" d="M498.316,-431.871C496.441,-407.67 492.997,-363.211 490.765,-334.393"/>
<polygon fill="black" stroke="black" points="494.237,-333.889 489.975,-324.189 487.257,-334.43 494.237,-333.889"/>
</a>
</g>
</g>
<!-- worldclim_2050_rcp26_NA -->
<g id="worldclim_2050_rcp26_NA" class="node"><title>worldclim_2050_rcp26_NA</title>
<g id="a_worldclim_2050_rcp26_NA"><a xlink:href="javascript:void();" xlink:title="worldclim_2050_rcp26_NA">
<ellipse fill="none" stroke="black" cx="942.643" cy="-378" rx="110.48" ry="18"/>
<text text-anchor="middle" x="942.643" y="-374.3" font-family="Times,serif" font-size="14.00">worldclim_2050_rcp26_NA</text>
</a>
</g>
</g>
<!-- ext&#45;&gt;worldclim_2050_rcp26_NA -->
<g id="edge19" class="edge"><title>ext&#45;&gt;worldclim_2050_rcp26_NA</title>
<g id="a_edge19"><a xlink:title="test">
<path fill="none" stroke="black" d="M525.786,-444.504C546.168,-441.022 575.19,-436.114 600.643,-432 686.857,-418.065 785.421,-402.868 854.519,-392.335"/>
<polygon fill="black" stroke="black" points="855.136,-395.781 864.495,-390.815 854.082,-388.861 855.136,-395.781"/>
</a>
</g>
</g>
<!-- predictors&#45;&gt;latlon_eastern_vals -->
<g id="edge21" class="edge"><title>predictors&#45;&gt;latlon_eastern_vals</title>
<g id="a_edge21"><a xlink:title="test">
<path fill="none" stroke="black" d="M426.056,-220.647C453.552,-209.833 493.9,-193.966 525.308,-181.615"/>
<polygon fill="black" stroke="black" points="526.719,-184.821 534.744,-177.904 524.157,-178.307 526.719,-184.821"/>
</a>
</g>
</g>
<!-- predictors&#45;&gt;dist_eastern_nosquash_nosoil -->
<g id="edge20" class="edge"><title>predictors&#45;&gt;dist_eastern_nosquash_nosoil</title>
<g id="a_edge20"><a xlink:title="test">
<path fill="none" stroke="black" d="M360.587,-221.821C315.87,-205.082 239.231,-168.801 206.643,-108 199.085,-93.8978 198.917,-86.0108 206.643,-72 214.157,-58.3749 226.81,-47.7701 240.046,-39.7492"/>
<polygon fill="black" stroke="black" points="241.773,-42.7933 248.78,-34.8458 238.346,-36.6894 241.773,-42.7933"/>
</a>
</g>
</g>
<!-- predictors&#45;&gt;dist_eastern_nosoil -->
<g id="edge22" class="edge"><title>predictors&#45;&gt;dist_eastern_nosoil</title>
<g id="a_edge22"><a xlink:title="test">
<path fill="none" stroke="black" d="M353.712,-225.586C319.201,-218.007 269.524,-203.888 231.643,-180 173.462,-143.31 122.075,-79.5799 96.2632,-44.3074"/>
<polygon fill="black" stroke="black" points="98.9511,-42.0509 90.2633,-35.9867 93.2733,-46.145 98.9511,-42.0509"/>
</a>
</g>
</g>
<!-- dist_eastern_nosquash -->
<g id="dist_eastern_nosquash" class="node"><title>dist_eastern_nosquash</title>
<g id="a_dist_eastern_nosquash"><a xlink:href="javascript:void();" xlink:title="dist_eastern_nosquash">
<ellipse fill="none" stroke="black" cx="513.643" cy="-18" rx="89.8845" ry="18"/>
<text text-anchor="middle" x="513.643" y="-14.3" font-family="Times,serif" font-size="14.00">dist_eastern_nosquash</text>
</a>
</g>
</g>
<!-- predictors&#45;&gt;dist_eastern_nosquash -->
<g id="edge23" class="edge"><title>predictors&#45;&gt;dist_eastern_nosquash</title>
<g id="a_edge23"><a xlink:title="test">
<path fill="none" stroke="black" d="M395.57,-215.899C398.022,-184.638 406.884,-117.326 438.643,-72 447.489,-59.3751 460.352,-48.7264 472.935,-40.362"/>
<polygon fill="black" stroke="black" points="474.95,-43.2292 481.549,-34.9401 471.221,-37.305 474.95,-43.2292"/>
</a>
</g>
</g>
<!-- latlon_eastern&#45;&gt;latlon_eastern_vals -->
<g id="edge24" class="edge"><title>latlon_eastern&#45;&gt;latlon_eastern_vals</title>
<g id="a_edge24"><a xlink:title="test">
<path fill="none" stroke="black" d="M632.552,-216.765C622.557,-207.795 609.961,-196.49 598.9,-186.564"/>
<polygon fill="black" stroke="black" points="600.958,-183.708 591.177,-179.633 596.282,-188.917 600.958,-183.708"/>
</a>
</g>
</g>
<!-- hwsdNAsp -->
<g id="hwsdNAsp" class="node"><title>hwsdNAsp</title>
<g id="a_hwsdNAsp"><a xlink:href="javascript:void();" xlink:title="hwsdNAsp">
<ellipse fill="none" stroke="black" cx="575.643" cy="-378" rx="50.0912" ry="18"/>
<text text-anchor="middle" x="575.643" y="-374.3" font-family="Times,serif" font-size="14.00">hwsdNAsp</text>
</a>
</g>
</g>
<!-- hwsdNAsp&#45;&gt;hwsdNA_raster -->
<g id="edge25" class="edge"><title>hwsdNAsp&#45;&gt;hwsdNA_raster</title>
<g id="a_edge25"><a xlink:title="test">
<path fill="none" stroke="black" d="M555.901,-361.116C544.386,-351.851 529.667,-340.008 516.936,-329.764"/>
<polygon fill="black" stroke="black" points="518.896,-326.849 508.91,-323.307 514.507,-332.303 518.896,-326.849"/>
</a>
</g>
</g>
<!-- latlon_bison&#45;&gt;latlon -->
<g id="edge26" class="edge"><title>latlon_bison&#45;&gt;latlon</title>
<g id="a_edge26"><a xlink:title="test">
<path fill="none" stroke="black" d="M779.643,-431.697C779.643,-423.983 779.643,-414.712 779.643,-406.112"/>
<polygon fill="black" stroke="black" points="783.143,-406.104 779.643,-396.104 776.143,-406.104 783.143,-406.104"/>
</a>
</g>
</g>
<!-- latlon_sparse&#45;&gt;latlon_eastern -->
<g id="edge27" class="edge"><title>latlon_sparse&#45;&gt;latlon_eastern</title>
<g id="a_edge27"><a xlink:title="test">
<path fill="none" stroke="black" d="M773.479,-290.834C749.839,-280.089 717.138,-265.225 691.419,-253.535"/>
<polygon fill="black" stroke="black" points="692.841,-250.337 682.289,-249.385 689.945,-256.709 692.841,-250.337"/>
</a>
</g>
</g>
<!-- model_eastern_nosoil&#45;&gt;dist_eastern_nosoil -->
<g id="edge28" class="edge"><title>model_eastern_nosoil&#45;&gt;dist_eastern_nosoil</title>
<g id="a_edge28"><a xlink:title="test">
<path fill="none" stroke="black" d="M257.296,-74.5808C221.278,-63.3753 171.229,-47.8046 133.265,-35.9936"/>
<polygon fill="black" stroke="black" points="133.984,-32.5518 123.396,-32.9231 131.905,-39.2358 133.984,-32.5518"/>
</a>
</g>
</g>
<!-- cucurbit_points -->
<g id="cucurbit_points" class="node"><title>cucurbit_points</title>
<g id="a_cucurbit_points"><a xlink:href="javascript:void();" xlink:title="cucurbit_points">
<ellipse fill="none" stroke="black" cx="236.643" cy="-378" rx="65.7887" ry="18"/>
<text text-anchor="middle" x="236.643" y="-374.3" font-family="Times,serif" font-size="14.00">cucurbit_points</text>
</a>
</g>
</g>
<!-- cucurbit_points&#45;&gt;cucurbit_distanceNA_raster -->
<g id="edge29" class="edge"><title>cucurbit_points&#45;&gt;cucurbit_distanceNA_raster</title>
<g id="a_edge29"><a xlink:title="test">
<path fill="none" stroke="black" d="M241.834,-359.697C244.174,-351.898 246.99,-342.509 249.594,-333.829"/>
<polygon fill="black" stroke="black" points="252.991,-334.688 252.512,-324.104 246.286,-332.677 252.991,-334.688"/>
</a>
</g>
</g>
<!-- model_eastern_nosquash&#45;&gt;dist_2050_rcp26_eastern_nosquash -->
<g id="edge30" class="edge"><title>model_eastern_nosquash&#45;&gt;dist_2050_rcp26_eastern_nosquash</title>
<g id="a_edge30"><a xlink:title="test">
<path fill="none" stroke="black" d="M872.092,-75.0866C917.039,-64.008 980.218,-48.4357 1028.6,-36.5098"/>
<polygon fill="black" stroke="black" points="1029.51,-39.8911 1038.38,-34.0996 1027.83,-33.0945 1029.51,-39.8911"/>
</a>
</g>
</g>
<!-- model_eastern_nosquash&#45;&gt;dist_eastern_nosquash -->
<g id="edge31" class="edge"><title>model_eastern_nosquash&#45;&gt;dist_eastern_nosquash</title>
<g id="a_edge31"><a xlink:title="test">
<path fill="none" stroke="black" d="M757.056,-75.4203C706.296,-63.6546 632.897,-46.6416 579.986,-34.3775"/>
<polygon fill="black" stroke="black" points="580.555,-30.9167 570.023,-32.0682 578.974,-37.7359 580.555,-30.9167"/>
</a>
</g>
</g>
<!-- worldclim_2050_rcp26_NA&#45;&gt;future_predictors_2050_rcp26 -->
<g id="edge32" class="edge"><title>worldclim_2050_rcp26_NA&#45;&gt;future_predictors_2050_rcp26</title>
<g id="a_edge32"><a xlink:title="test">
<path fill="none" stroke="black" d="M942.643,-359.849C942.643,-322.832 942.643,-235.181 942.643,-190.386"/>
<polygon fill="black" stroke="black" points="946.143,-190.232 942.643,-180.232 939.143,-190.232 946.143,-190.232"/>
</a>
</g>
</g>
<!-- future_predictors_2050_rcp26&#45;&gt;dist_2050_rcp26_eastern_nosquash -->
<g id="edge33" class="edge"><title>future_predictors_2050_rcp26&#45;&gt;dist_2050_rcp26_eastern_nosquash</title>
<g id="a_edge33"><a xlink:title="test">
<path fill="none" stroke="black" d="M961.27,-144.153C988.975,-119.094 1041.18,-71.8784 1072.94,-43.1489"/>
<polygon fill="black" stroke="black" points="1075.48,-45.5715 1080.55,-36.2678 1070.79,-40.38 1075.48,-45.5715"/>
</a>
</g>
</g>
<!-- future_predictors_2050_rcp26&#45;&gt;dist_2050_rcp26_eastern_nosquash_nosoil -->
<g id="edge34" class="edge"><title>future_predictors_2050_rcp26&#45;&gt;dist_2050_rcp26_eastern_nosquash_nosoil</title>
<g id="a_edge34"><a xlink:title="test">
<path fill="none" stroke="black" d="M943.582,-143.818C943.715,-124.173 940.937,-92.1361 923.643,-72 910.11,-56.2429 891.382,-45.1587 872.021,-37.3655"/>
<polygon fill="black" stroke="black" points="873.078,-34.0241 862.486,-33.798 870.625,-40.5803 873.078,-34.0241"/>
</a>
</g>
</g>
<!-- worldclim_2050_rcp26 -->
<g id="worldclim_2050_rcp26" class="node"><title>worldclim_2050_rcp26</title>
<g id="a_worldclim_2050_rcp26"><a xlink:href="javascript:void();" xlink:title="worldclim_2050_rcp26">
<ellipse fill="none" stroke="black" cx="945.643" cy="-450" rx="93.6835" ry="18"/>
<text text-anchor="middle" x="945.643" y="-446.3" font-family="Times,serif" font-size="14.00">worldclim_2050_rcp26</text>
</a>
</g>
</g>
<!-- worldclim_2050_rcp26&#45;&gt;worldclim_2050_rcp26_NA -->
<g id="edge35" class="edge"><title>worldclim_2050_rcp26&#45;&gt;worldclim_2050_rcp26_NA</title>
<g id="a_edge35"><a xlink:title="test">
<path fill="none" stroke="black" d="M944.901,-431.697C944.571,-423.983 944.174,-414.712 943.805,-406.112"/>
<polygon fill="black" stroke="black" points="947.301,-405.945 943.376,-396.104 940.308,-406.245 947.301,-405.945"/>
</a>
</g>
</g>
<!-- gbif_data -->
<g id="gbif_data" class="node"><title>gbif_data</title>
<g id="a_gbif_data"><a xlink:href="javascript:void();" xlink:title="gbif_data">
<ellipse fill="none" stroke="black" cx="658.643" cy="-522" rx="44.393" ry="18"/>
<text text-anchor="middle" x="658.643" y="-518.3" font-family="Times,serif" font-size="14.00">gbif_data</text>
</a>
</g>
</g>
<!-- gbif_data&#45;&gt;latlon_gbif -->
<g id="edge36" class="edge"><title>gbif_data&#45;&gt;latlon_gbif</title>
<g id="a_edge36"><a xlink:title="test">
<path fill="none" stroke="black" d="M658.643,-503.697C658.643,-495.983 658.643,-486.712 658.643,-478.112"/>
<polygon fill="black" stroke="black" points="662.143,-478.104 658.643,-468.104 655.143,-478.104 662.143,-478.104"/>
</a>
</g>
</g>
</g>
</svg>
