<?xml version="1.0" encoding="UTF-8" standalone="no"?>
<!DOCTYPE svg PUBLIC "-//W3C//DTD SVG 1.1//EN"
 "http://www.w3.org/Graphics/SVG/1.1/DTD/svg11.dtd">
<!-- Generated by graphviz version 2.38.0 (20140413.2041)
 -->
<!-- Title: %3 Pages: 1 -->
<svg width="564pt" height="476pt"
 viewBox="0.00 0.00 564.39 476.00" xmlns="http://www.w3.org/2000/svg" xmlns:xlink="http://www.w3.org/1999/xlink">
<g id="graph0" class="graph" transform="scale(1 1) rotate(0) translate(4 472)">
<title>%3</title>
<polygon fill="white" stroke="none" points="-4,4 -4,-472 560.386,-472 560.386,4 -4,4"/>
<!-- model_eastern -->
<g id="model_eastern" class="node"><title>model_eastern</title>
<g id="a_model_eastern"><a xlink:href="javascript:void();" xlink:title="model_eastern">
<ellipse fill="none" stroke="black" cx="286.743" cy="-90" rx="62.2891" ry="18"/>
<text text-anchor="middle" x="286.743" y="-86.3" font-family="Times,serif" font-size="14.00">model_eastern</text>
</a>
</g>
</g>
<!-- dist_eastern -->
<g id="dist_eastern" class="node"><title>dist_eastern</title>
<g id="a_dist_eastern"><a xlink:href="javascript:void();" xlink:title="dist_eastern">
<ellipse fill="none" stroke="black" cx="222.743" cy="-18" rx="52.7911" ry="18"/>
<text text-anchor="middle" x="222.743" y="-14.3" font-family="Times,serif" font-size="14.00">dist_eastern</text>
</a>
</g>
</g>
<!-- model_eastern&#45;&gt;dist_eastern -->
<g id="edge1" class="edge"><title>model_eastern&#45;&gt;dist_eastern</title>
<g id="a_edge1"><a xlink:title="test">
<path fill="none" stroke="black" d="M271.576,-72.411C263.526,-63.6062 253.489,-52.6282 244.612,-42.9189"/>
<polygon fill="black" stroke="black" points="247.132,-40.4886 237.802,-35.4699 241.966,-45.212 247.132,-40.4886"/>
</a>
</g>
</g>
<!-- latlon -->
<g id="latlon" class="node"><title>latlon</title>
<g id="a_latlon"><a xlink:href="javascript:void();" xlink:title="latlon">
<ellipse fill="none" stroke="black" cx="350.743" cy="-306" rx="30.5947" ry="18"/>
<text text-anchor="middle" x="350.743" y="-302.3" font-family="Times,serif" font-size="14.00">latlon</text>
</a>
</g>
</g>
<!-- latlon_eastern -->
<g id="latlon_eastern" class="node"><title>latlon_eastern</title>
<g id="a_latlon_eastern"><a xlink:href="javascript:void();" xlink:title="latlon_eastern">
<ellipse fill="none" stroke="black" cx="350.743" cy="-234" rx="59.5901" ry="18"/>
<text text-anchor="middle" x="350.743" y="-230.3" font-family="Times,serif" font-size="14.00">latlon_eastern</text>
</a>
</g>
</g>
<!-- latlon&#45;&gt;latlon_eastern -->
<g id="edge2" class="edge"><title>latlon&#45;&gt;latlon_eastern</title>
<g id="a_edge2"><a xlink:title="test">
<path fill="none" stroke="black" d="M350.743,-287.697C350.743,-279.983 350.743,-270.712 350.743,-262.112"/>
<polygon fill="black" stroke="black" points="354.243,-262.104 350.743,-252.104 347.243,-262.104 354.243,-262.104"/>
</a>
</g>
</g>
<!-- predictors -->
<g id="predictors" class="node"><title>predictors</title>
<g id="a_predictors"><a xlink:href="javascript:void();" xlink:title="predictors">
<ellipse fill="none" stroke="black" cx="177.743" cy="-234" rx="46.2923" ry="18"/>
<text text-anchor="middle" x="177.743" y="-230.3" font-family="Times,serif" font-size="14.00">predictors</text>
</a>
</g>
</g>
<!-- dist_eastern_nosoil -->
<g id="dist_eastern_nosoil" class="node"><title>dist_eastern_nosoil</title>
<g id="a_dist_eastern_nosoil"><a xlink:href="javascript:void();" xlink:title="dist_eastern_nosoil">
<ellipse fill="none" stroke="black" cx="413.743" cy="-18" rx="78.7863" ry="18"/>
<text text-anchor="middle" x="413.743" y="-14.3" font-family="Times,serif" font-size="14.00">dist_eastern_nosoil</text>
</a>
</g>
</g>
<!-- predictors&#45;&gt;dist_eastern_nosoil -->
<g id="edge4" class="edge"><title>predictors&#45;&gt;dist_eastern_nosoil</title>
<g id="a_edge4"><a xlink:title="test">
<path fill="none" stroke="black" d="M179.564,-215.939C183.858,-178.849 195.79,-92.5561 215.743,-72 233.221,-53.9941 291.535,-39.7418 340.387,-30.5722"/>
<polygon fill="black" stroke="black" points="341.127,-33.9949 350.332,-28.7498 339.865,-27.1096 341.127,-33.9949"/>
</a>
</g>
</g>
<!-- latlon_eastern_vals -->
<g id="latlon_eastern_vals" class="node"><title>latlon_eastern_vals</title>
<g id="a_latlon_eastern_vals"><a xlink:href="javascript:void();" xlink:title="latlon_eastern_vals">
<ellipse fill="none" stroke="black" cx="325.743" cy="-162" rx="78.7863" ry="18"/>
<text text-anchor="middle" x="325.743" y="-158.3" font-family="Times,serif" font-size="14.00">latlon_eastern_vals</text>
</a>
</g>
</g>
<!-- predictors&#45;&gt;latlon_eastern_vals -->
<g id="edge3" class="edge"><title>predictors&#45;&gt;latlon_eastern_vals</title>
<g id="a_edge3"><a xlink:title="test">
<path fill="none" stroke="black" d="M205.929,-219.669C227.942,-209.257 258.872,-194.628 283.792,-182.842"/>
<polygon fill="black" stroke="black" points="285.474,-185.918 293.018,-178.478 282.482,-179.59 285.474,-185.918"/>
</a>
</g>
</g>
<!-- predictors&#45;&gt;dist_eastern -->
<g id="edge5" class="edge"><title>predictors&#45;&gt;dist_eastern</title>
<g id="a_edge5"><a xlink:title="test">
<path fill="none" stroke="black" d="M174.982,-215.932C170.824,-185.848 165.178,-121.849 182.743,-72 186.364,-61.7254 192.762,-51.8143 199.394,-43.3984"/>
<polygon fill="black" stroke="black" points="202.257,-45.4311 206.009,-35.5228 196.897,-40.9288 202.257,-45.4311"/>
</a>
</g>
</g>
<!-- bioclimNA_raster -->
<g id="bioclimNA_raster" class="node"><title>bioclimNA_raster</title>
<g id="a_bioclimNA_raster"><a xlink:href="javascript:void();" xlink:title="bioclimNA_raster">
<ellipse fill="none" stroke="black" cx="74.7434" cy="-378" rx="74.9875" ry="18"/>
<text text-anchor="middle" x="74.7434" y="-374.3" font-family="Times,serif" font-size="14.00">bioclimNA_raster</text>
</a>
</g>
</g>
<!-- bioclimNA_raster&#45;&gt;predictors -->
<g id="edge7" class="edge"><title>bioclimNA_raster&#45;&gt;predictors</title>
<g id="a_edge7"><a xlink:title="test">
<path fill="none" stroke="black" d="M76.8167,-359.789C79.8286,-340.696 86.8975,-309.724 102.743,-288 112.84,-274.158 127.676,-262.598 141.493,-253.843"/>
<polygon fill="black" stroke="black" points="143.605,-256.657 150.365,-248.499 139.993,-250.66 143.605,-256.657"/>
</a>
</g>
</g>
<!-- hwsdNA_raster -->
<g id="hwsdNA_raster" class="node"><title>hwsdNA_raster</title>
<g id="a_hwsdNA_raster"><a xlink:href="javascript:void();" xlink:title="hwsdNA_raster">
<ellipse fill="none" stroke="black" cx="177.743" cy="-306" rx="65.7887" ry="18"/>
<text text-anchor="middle" x="177.743" y="-302.3" font-family="Times,serif" font-size="14.00">hwsdNA_raster</text>
</a>
</g>
</g>
<!-- bioclimNA_raster&#45;&gt;hwsdNA_raster -->
<g id="edge6" class="edge"><title>bioclimNA_raster&#45;&gt;hwsdNA_raster</title>
<g id="a_edge6"><a xlink:title="test">
<path fill="none" stroke="black" d="M98.6325,-360.765C112.642,-351.244 130.521,-339.093 145.737,-328.752"/>
<polygon fill="black" stroke="black" points="148.035,-331.422 154.339,-322.906 144.101,-325.632 148.035,-331.422"/>
</a>
</g>
</g>
<!-- model_eastern_nosoil -->
<g id="model_eastern_nosoil" class="node"><title>model_eastern_nosoil</title>
<g id="a_model_eastern_nosoil"><a xlink:href="javascript:void();" xlink:title="model_eastern_nosoil">
<ellipse fill="none" stroke="black" cx="455.743" cy="-90" rx="88.2844" ry="18"/>
<text text-anchor="middle" x="455.743" y="-86.3" font-family="Times,serif" font-size="14.00">model_eastern_nosoil</text>
</a>
</g>
</g>
<!-- model_eastern_nosoil&#45;&gt;dist_eastern_nosoil -->
<g id="edge8" class="edge"><title>model_eastern_nosoil&#45;&gt;dist_eastern_nosoil</title>
<g id="a_edge8"><a xlink:title="test">
<path fill="none" stroke="black" d="M445.576,-72.055C440.697,-63.922 434.742,-53.998 429.309,-44.9426"/>
<polygon fill="black" stroke="black" points="432.255,-43.0495 424.109,-36.2753 426.252,-46.651 432.255,-43.0495"/>
</a>
</g>
</g>
<!-- eastern_boundaries -->
<g id="eastern_boundaries" class="node"><title>eastern_boundaries</title>
<g id="a_eastern_boundaries"><a xlink:href="javascript:void();" xlink:title="eastern_boundaries">
<ellipse fill="none" stroke="black" cx="477.743" cy="-306" rx="78.7863" ry="18"/>
<text text-anchor="middle" x="477.743" y="-302.3" font-family="Times,serif" font-size="14.00">eastern_boundaries</text>
</a>
</g>
</g>
<!-- eastern_boundaries&#45;&gt;latlon_eastern -->
<g id="edge9" class="edge"><title>eastern_boundaries&#45;&gt;latlon_eastern</title>
<g id="a_edge9"><a xlink:title="test">
<path fill="none" stroke="black" d="M448.925,-289.116C430.603,-279.017 406.725,-265.856 387.104,-255.041"/>
<polygon fill="black" stroke="black" points="388.589,-251.863 378.142,-250.101 385.21,-257.994 388.589,-251.863"/>
</a>
</g>
</g>
<!-- latlon_eastern_vals&#45;&gt;model_eastern -->
<g id="edge11" class="edge"><title>latlon_eastern_vals&#45;&gt;model_eastern</title>
<g id="a_edge11"><a xlink:title="test">
<path fill="none" stroke="black" d="M316.303,-144.055C311.819,-136.007 306.357,-126.205 301.355,-117.226"/>
<polygon fill="black" stroke="black" points="304.293,-115.308 296.368,-108.275 298.178,-118.714 304.293,-115.308"/>
</a>
</g>
</g>
<!-- latlon_eastern_vals&#45;&gt;model_eastern_nosoil -->
<g id="edge10" class="edge"><title>latlon_eastern_vals&#45;&gt;model_eastern_nosoil</title>
<g id="a_edge10"><a xlink:title="test">
<path fill="none" stroke="black" d="M355.242,-145.116C373.48,-135.296 397.095,-122.58 416.852,-111.942"/>
<polygon fill="black" stroke="black" points="418.766,-114.886 425.911,-107.064 415.447,-108.723 418.766,-114.886"/>
</a>
</g>
</g>
<!-- bioclim_raster -->
<g id="bioclim_raster" class="node"><title>bioclim_raster</title>
<g id="a_bioclim_raster"><a xlink:href="javascript:void();" xlink:title="bioclim_raster">
<ellipse fill="none" stroke="black" cx="70.7434" cy="-450" rx="61.99" ry="18"/>
<text text-anchor="middle" x="70.7434" y="-446.3" font-family="Times,serif" font-size="14.00">bioclim_raster</text>
</a>
</g>
</g>
<!-- bioclim_raster&#45;&gt;bioclimNA_raster -->
<g id="edge12" class="edge"><title>bioclim_raster&#45;&gt;bioclimNA_raster</title>
<g id="a_edge12"><a xlink:title="test">
<path fill="none" stroke="black" d="M71.7321,-431.697C72.1729,-423.983 72.7027,-414.712 73.1941,-406.112"/>
<polygon fill="black" stroke="black" points="76.6897,-406.288 73.766,-396.104 69.7011,-405.888 76.6897,-406.288"/>
</a>
</g>
</g>
<!-- latlon_eastern&#45;&gt;latlon_eastern_vals -->
<g id="edge13" class="edge"><title>latlon_eastern&#45;&gt;latlon_eastern_vals</title>
<g id="a_edge13"><a xlink:title="test">
<path fill="none" stroke="black" d="M344.692,-216.055C341.878,-208.176 338.464,-198.617 335.313,-189.794"/>
<polygon fill="black" stroke="black" points="338.573,-188.516 331.913,-180.275 331.98,-190.87 338.573,-188.516"/>
</a>
</g>
</g>
<!-- ext -->
<g id="ext" class="node"><title>ext</title>
<g id="a_ext"><a xlink:href="javascript:void();" xlink:title="ext">
<ellipse fill="none" stroke="black" cx="177.743" cy="-450" rx="27" ry="18"/>
<text text-anchor="middle" x="177.743" y="-446.3" font-family="Times,serif" font-size="14.00">ext</text>
</a>
</g>
</g>
<!-- ext&#45;&gt;bioclimNA_raster -->
<g id="edge15" class="edge"><title>ext&#45;&gt;bioclimNA_raster</title>
<g id="a_edge15"><a xlink:title="test">
<path fill="none" stroke="black" d="M159.329,-436.485C144.842,-426.64 124.298,-412.678 107.085,-400.979"/>
<polygon fill="black" stroke="black" points="108.674,-397.828 98.4363,-395.102 104.74,-403.618 108.674,-397.828"/>
</a>
</g>
</g>
<!-- ext&#45;&gt;hwsdNA_raster -->
<g id="edge14" class="edge"><title>ext&#45;&gt;hwsdNA_raster</title>
<g id="a_edge14"><a xlink:title="test">
<path fill="none" stroke="black" d="M177.743,-431.871C177.743,-407.67 177.743,-363.211 177.743,-334.393"/>
<polygon fill="black" stroke="black" points="181.243,-334.189 177.743,-324.189 174.243,-334.189 181.243,-334.189"/>
</a>
</g>
</g>
<!-- gbif_data -->
<g id="gbif_data" class="node"><title>gbif_data</title>
<g id="a_gbif_data"><a xlink:href="javascript:void();" xlink:title="gbif_data">
<ellipse fill="none" stroke="black" cx="372.743" cy="-450" rx="44.393" ry="18"/>
<text text-anchor="middle" x="372.743" y="-446.3" font-family="Times,serif" font-size="14.00">gbif_data</text>
</a>
</g>
</g>
<!-- latlon_gbif -->
<g id="latlon_gbif" class="node"><title>latlon_gbif</title>
<g id="a_latlon_gbif"><a xlink:href="javascript:void();" xlink:title="latlon_gbif">
<ellipse fill="none" stroke="black" cx="372.743" cy="-378" rx="49.2915" ry="18"/>
<text text-anchor="middle" x="372.743" y="-374.3" font-family="Times,serif" font-size="14.00">latlon_gbif</text>
</a>
</g>
</g>
<!-- gbif_data&#45;&gt;latlon_gbif -->
<g id="edge16" class="edge"><title>gbif_data&#45;&gt;latlon_gbif</title>
<g id="a_edge16"><a xlink:title="test">
<path fill="none" stroke="black" d="M372.743,-431.697C372.743,-423.983 372.743,-414.712 372.743,-406.112"/>
<polygon fill="black" stroke="black" points="376.243,-406.104 372.743,-396.104 369.243,-406.104 376.243,-406.104"/>
</a>
</g>
</g>
<!-- hwsdNAsp -->
<g id="hwsdNAsp" class="node"><title>hwsdNAsp</title>
<g id="a_hwsdNAsp"><a xlink:href="javascript:void();" xlink:title="hwsdNAsp">
<ellipse fill="none" stroke="black" cx="255.743" cy="-378" rx="50.0912" ry="18"/>
<text text-anchor="middle" x="255.743" y="-374.3" font-family="Times,serif" font-size="14.00">hwsdNAsp</text>
</a>
</g>
</g>
<!-- hwsdNAsp&#45;&gt;hwsdNA_raster -->
<g id="edge17" class="edge"><title>hwsdNAsp&#45;&gt;hwsdNA_raster</title>
<g id="a_edge17"><a xlink:title="test">
<path fill="none" stroke="black" d="M238.044,-361.116C227.818,-351.939 214.775,-340.233 203.436,-330.057"/>
<polygon fill="black" stroke="black" points="205.694,-327.381 195.914,-323.307 201.019,-332.591 205.694,-327.381"/>
</a>
</g>
</g>
<!-- hwsdNA_raster&#45;&gt;predictors -->
<g id="edge18" class="edge"><title>hwsdNA_raster&#45;&gt;predictors</title>
<g id="a_edge18"><a xlink:title="test">
<path fill="none" stroke="black" d="M177.743,-287.697C177.743,-279.983 177.743,-270.712 177.743,-262.112"/>
<polygon fill="black" stroke="black" points="181.243,-262.104 177.743,-252.104 174.243,-262.104 181.243,-262.104"/>
</a>
</g>
</g>
<!-- latlon_gbif&#45;&gt;latlon -->
<g id="edge19" class="edge"><title>latlon_gbif&#45;&gt;latlon</title>
<g id="a_edge19"><a xlink:title="test">
<path fill="none" stroke="black" d="M367.418,-360.055C364.905,-352.059 361.847,-342.331 359.04,-333.4"/>
<polygon fill="black" stroke="black" points="362.357,-332.28 356.02,-323.789 355.679,-334.378 362.357,-332.28"/>
</a>
</g>
</g>
</g>
</svg>
