<?xml version="1.0" encoding="UTF-8" standalone="no"?>
<!DOCTYPE svg PUBLIC "-//W3C//DTD SVG 1.1//EN"
 "http://www.w3.org/Graphics/SVG/1.1/DTD/svg11.dtd">
<!-- Generated by graphviz version 2.38.0 (20140413.2041)
 -->
<!-- Title: %3 Pages: 1 -->
<svg width="549pt" height="476pt"
 viewBox="0.00 0.00 548.92 476.00" xmlns="http://www.w3.org/2000/svg" xmlns:xlink="http://www.w3.org/1999/xlink">
<g id="graph0" class="graph" transform="scale(1 1) rotate(0) translate(4 472)">
<title>%3</title>
<polygon fill="white" stroke="none" points="-4,4 -4,-472 544.917,-472 544.917,4 -4,4"/>
<!-- latlon -->
<g id="latlon" class="node"><title>latlon</title>
<g id="a_latlon"><a xlink:href="javascript:void();" xlink:title="latlon">
<ellipse fill="none" stroke="black" cx="105.392" cy="-306" rx="30.5947" ry="18"/>
<text text-anchor="middle" x="105.392" y="-302.3" font-family="Times,serif" font-size="14.00">latlon</text>
</a>
</g>
</g>
<!-- latlon_eastern -->
<g id="latlon_eastern" class="node"><title>latlon_eastern</title>
<g id="a_latlon_eastern"><a xlink:href="javascript:void();" xlink:title="latlon_eastern">
<ellipse fill="none" stroke="black" cx="227.392" cy="-234" rx="59.5901" ry="18"/>
<text text-anchor="middle" x="227.392" y="-230.3" font-family="Times,serif" font-size="14.00">latlon_eastern</text>
</a>
</g>
</g>
<!-- latlon&#45;&gt;latlon_eastern -->
<g id="edge1" class="edge"><title>latlon&#45;&gt;latlon_eastern</title>
<g id="a_edge1"><a xlink:title="test">
<path fill="none" stroke="black" d="M126.643,-292.807C144.683,-282.456 170.939,-267.391 192.124,-255.236"/>
<polygon fill="black" stroke="black" points="193.922,-258.239 200.854,-250.227 190.439,-252.168 193.922,-258.239"/>
</a>
</g>
</g>
<!-- bioclimNA_raster -->
<g id="bioclimNA_raster" class="node"><title>bioclimNA_raster</title>
<g id="a_bioclimNA_raster"><a xlink:href="javascript:void();" xlink:title="bioclimNA_raster">
<ellipse fill="none" stroke="black" cx="334.392" cy="-378" rx="74.9875" ry="18"/>
<text text-anchor="middle" x="334.392" y="-374.3" font-family="Times,serif" font-size="14.00">bioclimNA_raster</text>
</a>
</g>
</g>
<!-- hwsdNA_raster -->
<g id="hwsdNA_raster" class="node"><title>hwsdNA_raster</title>
<g id="a_hwsdNA_raster"><a xlink:href="javascript:void();" xlink:title="hwsdNA_raster">
<ellipse fill="none" stroke="black" cx="453.392" cy="-306" rx="65.7887" ry="18"/>
<text text-anchor="middle" x="453.392" y="-302.3" font-family="Times,serif" font-size="14.00">hwsdNA_raster</text>
</a>
</g>
</g>
<!-- bioclimNA_raster&#45;&gt;hwsdNA_raster -->
<g id="edge3" class="edge"><title>bioclimNA_raster&#45;&gt;hwsdNA_raster</title>
<g id="a_edge3"><a xlink:title="test">
<path fill="none" stroke="black" d="M361.395,-361.116C378.096,-351.292 399.725,-338.569 417.814,-327.928"/>
<polygon fill="black" stroke="black" points="420.061,-330.667 426.906,-322.58 416.512,-324.634 420.061,-330.667"/>
</a>
</g>
</g>
<!-- predictors -->
<g id="predictors" class="node"><title>predictors</title>
<g id="a_predictors"><a xlink:href="javascript:void();" xlink:title="predictors">
<ellipse fill="none" stroke="black" cx="351.392" cy="-234" rx="46.2923" ry="18"/>
<text text-anchor="middle" x="351.392" y="-230.3" font-family="Times,serif" font-size="14.00">predictors</text>
</a>
</g>
</g>
<!-- bioclimNA_raster&#45;&gt;predictors -->
<g id="edge2" class="edge"><title>bioclimNA_raster&#45;&gt;predictors</title>
<g id="a_edge2"><a xlink:title="test">
<path fill="none" stroke="black" d="M336.443,-359.871C339.34,-335.67 344.663,-291.211 348.113,-262.393"/>
<polygon fill="black" stroke="black" points="351.621,-262.534 349.334,-252.189 344.67,-261.702 351.621,-262.534"/>
</a>
</g>
</g>
<!-- dist_eastern_nosoil -->
<g id="dist_eastern_nosoil" class="node"><title>dist_eastern_nosoil</title>
<g id="a_dist_eastern_nosoil"><a xlink:href="javascript:void();" xlink:title="dist_eastern_nosoil">
<ellipse fill="none" stroke="black" cx="162.392" cy="-18" rx="78.7863" ry="18"/>
<text text-anchor="middle" x="162.392" y="-14.3" font-family="Times,serif" font-size="14.00">dist_eastern_nosoil</text>
</a>
</g>
</g>
<!-- latlon_eastern_vals -->
<g id="latlon_eastern_vals" class="node"><title>latlon_eastern_vals</title>
<g id="a_latlon_eastern_vals"><a xlink:href="javascript:void();" xlink:title="latlon_eastern_vals">
<ellipse fill="none" stroke="black" cx="235.392" cy="-162" rx="78.7863" ry="18"/>
<text text-anchor="middle" x="235.392" y="-158.3" font-family="Times,serif" font-size="14.00">latlon_eastern_vals</text>
</a>
</g>
</g>
<!-- latlon_eastern&#45;&gt;latlon_eastern_vals -->
<g id="edge4" class="edge"><title>latlon_eastern&#45;&gt;latlon_eastern_vals</title>
<g id="a_edge4"><a xlink:title="test">
<path fill="none" stroke="black" d="M229.37,-215.697C230.251,-207.983 231.311,-198.712 232.294,-190.112"/>
<polygon fill="black" stroke="black" points="235.779,-190.437 233.437,-180.104 228.824,-189.642 235.779,-190.437"/>
</a>
</g>
</g>
<!-- hwsdNA_raster&#45;&gt;predictors -->
<g id="edge5" class="edge"><title>hwsdNA_raster&#45;&gt;predictors</title>
<g id="a_edge5"><a xlink:title="test">
<path fill="none" stroke="black" d="M430.247,-289.116C415.865,-279.246 397.219,-266.45 381.67,-255.779"/>
<polygon fill="black" stroke="black" points="383.623,-252.874 373.397,-250.101 379.662,-258.646 383.623,-252.874"/>
</a>
</g>
</g>
<!-- bioclim_raster -->
<g id="bioclim_raster" class="node"><title>bioclim_raster</title>
<g id="a_bioclim_raster"><a xlink:href="javascript:void();" xlink:title="bioclim_raster">
<ellipse fill="none" stroke="black" cx="334.392" cy="-450" rx="61.99" ry="18"/>
<text text-anchor="middle" x="334.392" y="-446.3" font-family="Times,serif" font-size="14.00">bioclim_raster</text>
</a>
</g>
</g>
<!-- bioclim_raster&#45;&gt;bioclimNA_raster -->
<g id="edge6" class="edge"><title>bioclim_raster&#45;&gt;bioclimNA_raster</title>
<g id="a_edge6"><a xlink:title="test">
<path fill="none" stroke="black" d="M334.392,-431.697C334.392,-423.983 334.392,-414.712 334.392,-406.112"/>
<polygon fill="black" stroke="black" points="337.892,-406.104 334.392,-396.104 330.892,-406.104 337.892,-406.104"/>
</a>
</g>
</g>
<!-- model_eastern -->
<g id="model_eastern" class="node"><title>model_eastern</title>
<g id="a_model_eastern"><a xlink:href="javascript:void();" xlink:title="model_eastern">
<ellipse fill="none" stroke="black" cx="257.392" cy="-90" rx="62.2891" ry="18"/>
<text text-anchor="middle" x="257.392" y="-86.3" font-family="Times,serif" font-size="14.00">model_eastern</text>
</a>
</g>
</g>
<!-- dist_eastern -->
<g id="dist_eastern" class="node"><title>dist_eastern</title>
<g id="a_dist_eastern"><a xlink:href="javascript:void();" xlink:title="dist_eastern">
<ellipse fill="none" stroke="black" cx="321.392" cy="-18" rx="52.7911" ry="18"/>
<text text-anchor="middle" x="321.392" y="-14.3" font-family="Times,serif" font-size="14.00">dist_eastern</text>
</a>
</g>
</g>
<!-- model_eastern&#45;&gt;dist_eastern -->
<g id="edge7" class="edge"><title>model_eastern&#45;&gt;dist_eastern</title>
<g id="a_edge7"><a xlink:title="test">
<path fill="none" stroke="black" d="M272.559,-72.411C280.609,-63.6062 290.646,-52.6282 299.523,-42.9189"/>
<polygon fill="black" stroke="black" points="302.169,-45.212 306.334,-35.4699 297.003,-40.4886 302.169,-45.212"/>
</a>
</g>
</g>
<!-- latlon_eastern_vals&#45;&gt;model_eastern -->
<g id="edge9" class="edge"><title>latlon_eastern_vals&#45;&gt;model_eastern</title>
<g id="a_edge9"><a xlink:title="test">
<path fill="none" stroke="black" d="M240.83,-143.697C243.281,-135.898 246.232,-126.509 248.96,-117.829"/>
<polygon fill="black" stroke="black" points="252.357,-118.694 252.017,-108.104 245.679,-116.595 252.357,-118.694"/>
</a>
</g>
</g>
<!-- model_eastern_nosoil -->
<g id="model_eastern_nosoil" class="node"><title>model_eastern_nosoil</title>
<g id="a_model_eastern_nosoil"><a xlink:href="javascript:void();" xlink:title="model_eastern_nosoil">
<ellipse fill="none" stroke="black" cx="88.3922" cy="-90" rx="88.2844" ry="18"/>
<text text-anchor="middle" x="88.3922" y="-86.3" font-family="Times,serif" font-size="14.00">model_eastern_nosoil</text>
</a>
</g>
</g>
<!-- latlon_eastern_vals&#45;&gt;model_eastern_nosoil -->
<g id="edge8" class="edge"><title>latlon_eastern_vals&#45;&gt;model_eastern_nosoil</title>
<g id="a_edge8"><a xlink:title="test">
<path fill="none" stroke="black" d="M202.768,-145.465C181.506,-135.34 153.553,-122.029 130.604,-111.101"/>
<polygon fill="black" stroke="black" points="131.967,-107.873 121.433,-106.734 128.957,-114.193 131.967,-107.873"/>
</a>
</g>
</g>
<!-- hwsdNAsp -->
<g id="hwsdNAsp" class="node"><title>hwsdNAsp</title>
<g id="a_hwsdNAsp"><a xlink:href="javascript:void();" xlink:title="hwsdNAsp">
<ellipse fill="none" stroke="black" cx="477.392" cy="-378" rx="50.0912" ry="18"/>
<text text-anchor="middle" x="477.392" y="-374.3" font-family="Times,serif" font-size="14.00">hwsdNAsp</text>
</a>
</g>
</g>
<!-- hwsdNAsp&#45;&gt;hwsdNA_raster -->
<g id="edge10" class="edge"><title>hwsdNAsp&#45;&gt;hwsdNA_raster</title>
<g id="a_edge10"><a xlink:title="test">
<path fill="none" stroke="black" d="M471.582,-360.055C468.881,-352.176 465.604,-342.617 462.579,-333.794"/>
<polygon fill="black" stroke="black" points="465.869,-332.6 459.315,-324.275 459.248,-334.87 465.869,-332.6"/>
</a>
</g>
</g>
<!-- model_eastern_nosoil&#45;&gt;dist_eastern_nosoil -->
<g id="edge11" class="edge"><title>model_eastern_nosoil&#45;&gt;dist_eastern_nosoil</title>
<g id="a_edge11"><a xlink:title="test">
<path fill="none" stroke="black" d="M106.305,-72.055C115.577,-63.2847 127.05,-52.4318 137.199,-42.8312"/>
<polygon fill="black" stroke="black" points="139.784,-45.2037 144.644,-35.789 134.974,-40.1184 139.784,-45.2037"/>
</a>
</g>
</g>
<!-- latlon_gbif -->
<g id="latlon_gbif" class="node"><title>latlon_gbif</title>
<g id="a_latlon_gbif"><a xlink:href="javascript:void();" xlink:title="latlon_gbif">
<ellipse fill="none" stroke="black" cx="105.392" cy="-378" rx="49.2915" ry="18"/>
<text text-anchor="middle" x="105.392" y="-374.3" font-family="Times,serif" font-size="14.00">latlon_gbif</text>
</a>
</g>
</g>
<!-- latlon_gbif&#45;&gt;latlon -->
<g id="edge12" class="edge"><title>latlon_gbif&#45;&gt;latlon</title>
<g id="a_edge12"><a xlink:title="test">
<path fill="none" stroke="black" d="M105.392,-359.697C105.392,-351.983 105.392,-342.712 105.392,-334.112"/>
<polygon fill="black" stroke="black" points="108.892,-334.104 105.392,-324.104 101.892,-334.104 108.892,-334.104"/>
</a>
</g>
</g>
<!-- predictors&#45;&gt;dist_eastern_nosoil -->
<g id="edge14" class="edge"><title>predictors&#45;&gt;dist_eastern_nosoil</title>
<g id="a_edge14"><a xlink:title="test">
<path fill="none" stroke="black" d="M354.361,-215.606C358.829,-183.262 363.392,-113.4 328.392,-72 315.175,-56.3661 269.537,-42.4494 229.452,-32.8038"/>
<polygon fill="black" stroke="black" points="230.206,-29.3858 219.671,-30.5064 228.605,-36.2004 230.206,-29.3858"/>
</a>
</g>
</g>
<!-- predictors&#45;&gt;latlon_eastern_vals -->
<g id="edge13" class="edge"><title>predictors&#45;&gt;latlon_eastern_vals</title>
<g id="a_edge13"><a xlink:title="test">
<path fill="none" stroke="black" d="M327.357,-218.496C311.046,-208.653 289.203,-195.472 270.897,-184.426"/>
<polygon fill="black" stroke="black" points="272.605,-181.368 262.235,-179.198 268.988,-187.362 272.605,-181.368"/>
</a>
</g>
</g>
<!-- predictors&#45;&gt;dist_eastern -->
<g id="edge15" class="edge"><title>predictors&#45;&gt;dist_eastern</title>
<g id="a_edge15"><a xlink:title="test">
<path fill="none" stroke="black" d="M356.544,-216.002C364.742,-186.025 378.206,-122.188 361.392,-72 357.932,-61.6704 351.575,-51.745 344.933,-43.3328"/>
<polygon fill="black" stroke="black" points="347.417,-40.8494 338.291,-35.4662 342.068,-45.3651 347.417,-40.8494"/>
</a>
</g>
</g>
<!-- ext -->
<g id="ext" class="node"><title>ext</title>
<g id="a_ext"><a xlink:href="javascript:void();" xlink:title="ext">
<ellipse fill="none" stroke="black" cx="498.392" cy="-450" rx="27" ry="18"/>
<text text-anchor="middle" x="498.392" y="-446.3" font-family="Times,serif" font-size="14.00">ext</text>
</a>
</g>
</g>
<!-- ext&#45;&gt;bioclimNA_raster -->
<g id="edge16" class="edge"><title>ext&#45;&gt;bioclimNA_raster</title>
<g id="a_edge16"><a xlink:title="test">
<path fill="none" stroke="black" d="M476.274,-439.559C451.474,-428.974 410.605,-411.53 379.084,-398.076"/>
<polygon fill="black" stroke="black" points="380.201,-394.747 369.629,-394.04 377.453,-401.185 380.201,-394.747"/>
</a>
</g>
</g>
<!-- ext&#45;&gt;hwsdNA_raster -->
<g id="edge17" class="edge"><title>ext&#45;&gt;hwsdNA_raster</title>
<g id="a_edge17"><a xlink:title="test">
<path fill="none" stroke="black" d="M512.744,-434.413C528.605,-416.441 550.197,-385.195 536.392,-360 528.296,-345.224 514.134,-333.97 499.775,-325.717"/>
<polygon fill="black" stroke="black" points="501.332,-322.58 490.862,-320.96 498.037,-328.756 501.332,-322.58"/>
</a>
</g>
</g>
<!-- eastern_boundaries -->
<g id="eastern_boundaries" class="node"><title>eastern_boundaries</title>
<g id="a_eastern_boundaries"><a xlink:href="javascript:void();" xlink:title="eastern_boundaries">
<ellipse fill="none" stroke="black" cx="232.392" cy="-306" rx="78.7863" ry="18"/>
<text text-anchor="middle" x="232.392" y="-302.3" font-family="Times,serif" font-size="14.00">eastern_boundaries</text>
</a>
</g>
</g>
<!-- eastern_boundaries&#45;&gt;latlon_eastern -->
<g id="edge18" class="edge"><title>eastern_boundaries&#45;&gt;latlon_eastern</title>
<g id="a_edge18"><a xlink:title="test">
<path fill="none" stroke="black" d="M231.156,-287.697C230.605,-279.983 229.943,-270.712 229.329,-262.112"/>
<polygon fill="black" stroke="black" points="232.818,-261.83 228.614,-252.104 225.835,-262.328 232.818,-261.83"/>
</a>
</g>
</g>
<!-- gbif_data -->
<g id="gbif_data" class="node"><title>gbif_data</title>
<g id="a_gbif_data"><a xlink:href="javascript:void();" xlink:title="gbif_data">
<ellipse fill="none" stroke="black" cx="105.392" cy="-450" rx="44.393" ry="18"/>
<text text-anchor="middle" x="105.392" y="-446.3" font-family="Times,serif" font-size="14.00">gbif_data</text>
</a>
</g>
</g>
<!-- gbif_data&#45;&gt;latlon_gbif -->
<g id="edge19" class="edge"><title>gbif_data&#45;&gt;latlon_gbif</title>
<g id="a_edge19"><a xlink:title="test">
<path fill="none" stroke="black" d="M105.392,-431.697C105.392,-423.983 105.392,-414.712 105.392,-406.112"/>
<polygon fill="black" stroke="black" points="108.892,-406.104 105.392,-396.104 101.892,-406.104 108.892,-406.104"/>
</a>
</g>
</g>
</g>
</svg>
