<?xml version="1.0" encoding="UTF-8" standalone="no"?>
<!DOCTYPE svg PUBLIC "-//W3C//DTD SVG 1.1//EN"
 "http://www.w3.org/Graphics/SVG/1.1/DTD/svg11.dtd">
<!-- Generated by graphviz version 2.38.0 (20140413.2041)
 -->
<!-- Title: %3 Pages: 1 -->
<svg width="573pt" height="548pt"
 viewBox="0.00 0.00 573.34 548.00" xmlns="http://www.w3.org/2000/svg" xmlns:xlink="http://www.w3.org/1999/xlink">
<g id="graph0" class="graph" transform="scale(1 1) rotate(0) translate(4 544)">
<title>%3</title>
<polygon fill="white" stroke="none" points="-4,4 -4,-544 569.338,-544 569.338,4 -4,4"/>
<!-- dist_eastern_nosoil -->
<g id="dist_eastern_nosoil" class="node"><title>dist_eastern_nosoil</title>
<g id="a_dist_eastern_nosoil"><a xlink:href="javascript:void();" xlink:title="dist_eastern_nosoil">
<ellipse fill="none" stroke="black" cx="317.643" cy="-18" rx="78.7863" ry="18"/>
<text text-anchor="middle" x="317.643" y="-14.3" font-family="Times,serif" font-size="14.00">dist_eastern_nosoil</text>
</a>
</g>
</g>
<!-- gbif_data -->
<g id="gbif_data" class="node"><title>gbif_data</title>
<g id="a_gbif_data"><a xlink:href="javascript:void();" xlink:title="gbif_data">
<ellipse fill="none" stroke="black" cx="106.643" cy="-522" rx="44.393" ry="18"/>
<text text-anchor="middle" x="106.643" y="-518.3" font-family="Times,serif" font-size="14.00">gbif_data</text>
</a>
</g>
</g>
<!-- latlon_gbif -->
<g id="latlon_gbif" class="node"><title>latlon_gbif</title>
<g id="a_latlon_gbif"><a xlink:href="javascript:void();" xlink:title="latlon_gbif">
<ellipse fill="none" stroke="black" cx="106.643" cy="-450" rx="49.2915" ry="18"/>
<text text-anchor="middle" x="106.643" y="-446.3" font-family="Times,serif" font-size="14.00">latlon_gbif</text>
</a>
</g>
</g>
<!-- gbif_data&#45;&gt;latlon_gbif -->
<g id="edge1" class="edge"><title>gbif_data&#45;&gt;latlon_gbif</title>
<g id="a_edge1"><a xlink:title="test">
<path fill="none" stroke="black" d="M106.643,-503.697C106.643,-495.983 106.643,-486.712 106.643,-478.112"/>
<polygon fill="black" stroke="black" points="110.143,-478.104 106.643,-468.104 103.143,-478.104 110.143,-478.104"/>
</a>
</g>
</g>
<!-- hwsdNAsp -->
<g id="hwsdNAsp" class="node"><title>hwsdNAsp</title>
<g id="a_hwsdNAsp"><a xlink:href="javascript:void();" xlink:title="hwsdNAsp">
<ellipse fill="none" stroke="black" cx="501.643" cy="-378" rx="50.0912" ry="18"/>
<text text-anchor="middle" x="501.643" y="-374.3" font-family="Times,serif" font-size="14.00">hwsdNAsp</text>
</a>
</g>
</g>
<!-- hwsdNA_raster -->
<g id="hwsdNA_raster" class="node"><title>hwsdNA_raster</title>
<g id="a_hwsdNA_raster"><a xlink:href="javascript:void();" xlink:title="hwsdNA_raster">
<ellipse fill="none" stroke="black" cx="477.643" cy="-306" rx="65.7887" ry="18"/>
<text text-anchor="middle" x="477.643" y="-302.3" font-family="Times,serif" font-size="14.00">hwsdNA_raster</text>
</a>
</g>
</g>
<!-- hwsdNAsp&#45;&gt;hwsdNA_raster -->
<g id="edge2" class="edge"><title>hwsdNAsp&#45;&gt;hwsdNA_raster</title>
<g id="a_edge2"><a xlink:title="test">
<path fill="none" stroke="black" d="M495.833,-360.055C493.132,-352.176 489.854,-342.617 486.83,-333.794"/>
<polygon fill="black" stroke="black" points="490.12,-332.6 483.566,-324.275 483.498,-334.87 490.12,-332.6"/>
</a>
</g>
</g>
<!-- latlon -->
<g id="latlon" class="node"><title>latlon</title>
<g id="a_latlon"><a xlink:href="javascript:void();" xlink:title="latlon">
<ellipse fill="none" stroke="black" cx="227.643" cy="-378" rx="30.5947" ry="18"/>
<text text-anchor="middle" x="227.643" y="-374.3" font-family="Times,serif" font-size="14.00">latlon</text>
</a>
</g>
</g>
<!-- latlon_gbif&#45;&gt;latlon -->
<g id="edge3" class="edge"><title>latlon_gbif&#45;&gt;latlon</title>
<g id="a_edge3"><a xlink:title="test">
<path fill="none" stroke="black" d="M132.009,-434.326C151.119,-423.27 177.386,-408.074 197.558,-396.405"/>
<polygon fill="black" stroke="black" points="199.446,-399.356 206.349,-391.319 195.94,-393.297 199.446,-399.356"/>
</a>
</g>
</g>
<!-- eastern_boundaries -->
<g id="eastern_boundaries" class="node"><title>eastern_boundaries</title>
<g id="a_eastern_boundaries"><a xlink:href="javascript:void();" xlink:title="eastern_boundaries">
<ellipse fill="none" stroke="black" cx="78.643" cy="-306" rx="78.7863" ry="18"/>
<text text-anchor="middle" x="78.643" y="-302.3" font-family="Times,serif" font-size="14.00">eastern_boundaries</text>
</a>
</g>
</g>
<!-- latlon_eastern -->
<g id="latlon_eastern" class="node"><title>latlon_eastern</title>
<g id="a_latlon_eastern"><a xlink:href="javascript:void();" xlink:title="latlon_eastern">
<ellipse fill="none" stroke="black" cx="232.643" cy="-234" rx="59.5901" ry="18"/>
<text text-anchor="middle" x="232.643" y="-230.3" font-family="Times,serif" font-size="14.00">latlon_eastern</text>
</a>
</g>
</g>
<!-- eastern_boundaries&#45;&gt;latlon_eastern -->
<g id="edge4" class="edge"><title>eastern_boundaries&#45;&gt;latlon_eastern</title>
<g id="a_edge4"><a xlink:title="test">
<path fill="none" stroke="black" d="M112.439,-289.638C135.835,-279.004 167.099,-264.793 191.878,-253.53"/>
<polygon fill="black" stroke="black" points="193.372,-256.695 201.027,-249.371 190.475,-250.323 193.372,-256.695"/>
</a>
</g>
</g>
<!-- latlon_eastern_vals -->
<g id="latlon_eastern_vals" class="node"><title>latlon_eastern_vals</title>
<g id="a_latlon_eastern_vals"><a xlink:href="javascript:void();" xlink:title="latlon_eastern_vals">
<ellipse fill="none" stroke="black" cx="237.643" cy="-162" rx="78.7863" ry="18"/>
<text text-anchor="middle" x="237.643" y="-158.3" font-family="Times,serif" font-size="14.00">latlon_eastern_vals</text>
</a>
</g>
</g>
<!-- latlon_eastern&#45;&gt;latlon_eastern_vals -->
<g id="edge5" class="edge"><title>latlon_eastern&#45;&gt;latlon_eastern_vals</title>
<g id="a_edge5"><a xlink:title="test">
<path fill="none" stroke="black" d="M233.879,-215.697C234.43,-207.983 235.092,-198.712 235.706,-190.112"/>
<polygon fill="black" stroke="black" points="239.2,-190.328 236.421,-180.104 232.218,-189.83 239.2,-190.328"/>
</a>
</g>
</g>
<!-- model_eastern_nosoil -->
<g id="model_eastern_nosoil" class="node"><title>model_eastern_nosoil</title>
<g id="a_model_eastern_nosoil"><a xlink:href="javascript:void();" xlink:title="model_eastern_nosoil">
<ellipse fill="none" stroke="black" cx="240.643" cy="-90" rx="88.2844" ry="18"/>
<text text-anchor="middle" x="240.643" y="-86.3" font-family="Times,serif" font-size="14.00">model_eastern_nosoil</text>
</a>
</g>
</g>
<!-- model_eastern_nosoil&#45;&gt;dist_eastern_nosoil -->
<g id="edge6" class="edge"><title>model_eastern_nosoil&#45;&gt;dist_eastern_nosoil</title>
<g id="a_edge6"><a xlink:title="test">
<path fill="none" stroke="black" d="M259.283,-72.055C269.096,-63.1336 281.28,-52.0572 291.973,-42.3361"/>
<polygon fill="black" stroke="black" points="294.396,-44.864 299.441,-35.5475 289.687,-39.6844 294.396,-44.864"/>
</a>
</g>
</g>
<!-- latlon_eastern_vals&#45;&gt;model_eastern_nosoil -->
<g id="edge7" class="edge"><title>latlon_eastern_vals&#45;&gt;model_eastern_nosoil</title>
<g id="a_edge7"><a xlink:title="test">
<path fill="none" stroke="black" d="M238.385,-143.697C238.715,-135.983 239.112,-126.712 239.481,-118.112"/>
<polygon fill="black" stroke="black" points="242.978,-118.245 239.91,-108.104 235.985,-117.945 242.978,-118.245"/>
</a>
</g>
</g>
<!-- model_eastern -->
<g id="model_eastern" class="node"><title>model_eastern</title>
<g id="a_model_eastern"><a xlink:href="javascript:void();" xlink:title="model_eastern">
<ellipse fill="none" stroke="black" cx="71.643" cy="-90" rx="62.2891" ry="18"/>
<text text-anchor="middle" x="71.643" y="-86.3" font-family="Times,serif" font-size="14.00">model_eastern</text>
</a>
</g>
</g>
<!-- latlon_eastern_vals&#45;&gt;model_eastern -->
<g id="edge8" class="edge"><title>latlon_eastern_vals&#45;&gt;model_eastern</title>
<g id="a_edge8"><a xlink:title="test">
<path fill="none" stroke="black" d="M201.623,-145.811C176.034,-135.02 141.561,-120.483 114.547,-109.092"/>
<polygon fill="black" stroke="black" points="115.904,-105.866 105.329,-105.205 113.184,-112.316 115.904,-105.866"/>
</a>
</g>
</g>
<!-- bioclim_raster -->
<g id="bioclim_raster" class="node"><title>bioclim_raster</title>
<g id="a_bioclim_raster"><a xlink:href="javascript:void();" xlink:title="bioclim_raster">
<ellipse fill="none" stroke="black" cx="361.643" cy="-450" rx="61.99" ry="18"/>
<text text-anchor="middle" x="361.643" y="-446.3" font-family="Times,serif" font-size="14.00">bioclim_raster</text>
</a>
</g>
</g>
<!-- bioclimNA_raster -->
<g id="bioclimNA_raster" class="node"><title>bioclimNA_raster</title>
<g id="a_bioclimNA_raster"><a xlink:href="javascript:void();" xlink:title="bioclimNA_raster">
<ellipse fill="none" stroke="black" cx="358.643" cy="-378" rx="74.9875" ry="18"/>
<text text-anchor="middle" x="358.643" y="-374.3" font-family="Times,serif" font-size="14.00">bioclimNA_raster</text>
</a>
</g>
</g>
<!-- bioclim_raster&#45;&gt;bioclimNA_raster -->
<g id="edge9" class="edge"><title>bioclim_raster&#45;&gt;bioclimNA_raster</title>
<g id="a_edge9"><a xlink:title="test">
<path fill="none" stroke="black" d="M360.901,-431.697C360.571,-423.983 360.174,-414.712 359.805,-406.112"/>
<polygon fill="black" stroke="black" points="363.301,-405.945 359.376,-396.104 356.308,-406.245 363.301,-405.945"/>
</a>
</g>
</g>
<!-- predictors -->
<g id="predictors" class="node"><title>predictors</title>
<g id="a_predictors"><a xlink:href="javascript:void();" xlink:title="predictors">
<ellipse fill="none" stroke="black" cx="358.643" cy="-234" rx="46.2923" ry="18"/>
<text text-anchor="middle" x="358.643" y="-230.3" font-family="Times,serif" font-size="14.00">predictors</text>
</a>
</g>
</g>
<!-- bioclimNA_raster&#45;&gt;predictors -->
<g id="edge11" class="edge"><title>bioclimNA_raster&#45;&gt;predictors</title>
<g id="a_edge11"><a xlink:title="test">
<path fill="none" stroke="black" d="M358.643,-359.871C358.643,-335.67 358.643,-291.211 358.643,-262.393"/>
<polygon fill="black" stroke="black" points="362.143,-262.189 358.643,-252.189 355.143,-262.189 362.143,-262.189"/>
</a>
</g>
</g>
<!-- bioclimNA_raster&#45;&gt;hwsdNA_raster -->
<g id="edge10" class="edge"><title>bioclimNA_raster&#45;&gt;hwsdNA_raster</title>
<g id="a_edge10"><a xlink:title="test">
<path fill="none" stroke="black" d="M385.646,-361.116C402.347,-351.292 423.976,-338.569 442.065,-327.928"/>
<polygon fill="black" stroke="black" points="444.312,-330.667 451.157,-322.58 440.763,-324.634 444.312,-330.667"/>
</a>
</g>
</g>
<!-- predictors&#45;&gt;dist_eastern_nosoil -->
<g id="edge12" class="edge"><title>predictors&#45;&gt;dist_eastern_nosoil</title>
<g id="a_edge12"><a xlink:title="test">
<path fill="none" stroke="black" d="M364.844,-215.746C374.714,-185.373 390.916,-120.942 370.643,-72 365.944,-60.6559 357.509,-50.474 348.729,-42.1386"/>
<polygon fill="black" stroke="black" points="350.819,-39.3139 341.011,-35.3062 346.179,-44.5552 350.819,-39.3139"/>
</a>
</g>
</g>
<!-- predictors&#45;&gt;latlon_eastern_vals -->
<g id="edge14" class="edge"><title>predictors&#45;&gt;latlon_eastern_vals</title>
<g id="a_edge14"><a xlink:title="test">
<path fill="none" stroke="black" d="M333.865,-218.666C316.675,-208.721 293.49,-195.308 274.186,-184.141"/>
<polygon fill="black" stroke="black" points="275.755,-181.005 265.346,-179.026 272.249,-187.064 275.755,-181.005"/>
</a>
</g>
</g>
<!-- dist_eastern -->
<g id="dist_eastern" class="node"><title>dist_eastern</title>
<g id="a_dist_eastern"><a xlink:href="javascript:void();" xlink:title="dist_eastern">
<ellipse fill="none" stroke="black" cx="158.643" cy="-18" rx="52.7911" ry="18"/>
<text text-anchor="middle" x="158.643" y="-14.3" font-family="Times,serif" font-size="14.00">dist_eastern</text>
</a>
</g>
</g>
<!-- predictors&#45;&gt;dist_eastern -->
<g id="edge13" class="edge"><title>predictors&#45;&gt;dist_eastern</title>
<g id="a_edge13"><a xlink:title="test">
<path fill="none" stroke="black" d="M361.948,-215.564C367.019,-183.149 372.77,-113.173 337.643,-72 329.181,-62.0812 260.634,-43.6914 210.88,-31.3987"/>
<polygon fill="black" stroke="black" points="211.437,-27.9315 200.891,-28.9497 209.77,-34.7302 211.437,-27.9315"/>
</a>
</g>
</g>
<!-- latlon_sparse -->
<g id="latlon_sparse" class="node"><title>latlon_sparse</title>
<g id="a_latlon_sparse"><a xlink:href="javascript:void();" xlink:title="latlon_sparse">
<ellipse fill="none" stroke="black" cx="232.643" cy="-306" rx="57.3905" ry="18"/>
<text text-anchor="middle" x="232.643" y="-302.3" font-family="Times,serif" font-size="14.00">latlon_sparse</text>
</a>
</g>
</g>
<!-- latlon&#45;&gt;latlon_sparse -->
<g id="edge15" class="edge"><title>latlon&#45;&gt;latlon_sparse</title>
<g id="a_edge15"><a xlink:title="test">
<path fill="none" stroke="black" d="M228.879,-359.697C229.43,-351.983 230.092,-342.712 230.706,-334.112"/>
<polygon fill="black" stroke="black" points="234.2,-334.328 231.421,-324.104 227.218,-333.83 234.2,-334.328"/>
</a>
</g>
</g>
<!-- hwsdNA_raster&#45;&gt;predictors -->
<g id="edge16" class="edge"><title>hwsdNA_raster&#45;&gt;predictors</title>
<g id="a_edge16"><a xlink:title="test">
<path fill="none" stroke="black" d="M451.233,-289.465C433.697,-279.15 410.539,-265.527 391.771,-254.487"/>
<polygon fill="black" stroke="black" points="393.347,-251.354 382.953,-249.3 389.798,-257.387 393.347,-251.354"/>
</a>
</g>
</g>
<!-- latlon_bison -->
<g id="latlon_bison" class="node"><title>latlon_bison</title>
<g id="a_latlon_bison"><a xlink:href="javascript:void();" xlink:title="latlon_bison">
<ellipse fill="none" stroke="black" cx="227.643" cy="-450" rx="53.8905" ry="18"/>
<text text-anchor="middle" x="227.643" y="-446.3" font-family="Times,serif" font-size="14.00">latlon_bison</text>
</a>
</g>
</g>
<!-- latlon_bison&#45;&gt;latlon -->
<g id="edge17" class="edge"><title>latlon_bison&#45;&gt;latlon</title>
<g id="a_edge17"><a xlink:title="test">
<path fill="none" stroke="black" d="M227.643,-431.697C227.643,-423.983 227.643,-414.712 227.643,-406.112"/>
<polygon fill="black" stroke="black" points="231.143,-406.104 227.643,-396.104 224.143,-406.104 231.143,-406.104"/>
</a>
</g>
</g>
<!-- model_eastern&#45;&gt;dist_eastern -->
<g id="edge18" class="edge"><title>model_eastern&#45;&gt;dist_eastern</title>
<g id="a_edge18"><a xlink:title="test">
<path fill="none" stroke="black" d="M91.8212,-72.7646C103.433,-63.4217 118.193,-51.5461 130.886,-41.3336"/>
<polygon fill="black" stroke="black" points="133.277,-43.9017 138.874,-34.906 128.889,-38.4478 133.277,-43.9017"/>
</a>
</g>
</g>
<!-- ext -->
<g id="ext" class="node"><title>ext</title>
<g id="a_ext"><a xlink:href="javascript:void();" xlink:title="ext">
<ellipse fill="none" stroke="black" cx="523.643" cy="-450" rx="27" ry="18"/>
<text text-anchor="middle" x="523.643" y="-446.3" font-family="Times,serif" font-size="14.00">ext</text>
</a>
</g>
</g>
<!-- ext&#45;&gt;bioclimNA_raster -->
<g id="edge19" class="edge"><title>ext&#45;&gt;bioclimNA_raster</title>
<g id="a_edge19"><a xlink:title="test">
<path fill="none" stroke="black" d="M501.39,-439.559C476.359,-428.94 435.057,-411.418 403.303,-397.947"/>
<polygon fill="black" stroke="black" points="404.356,-394.592 393.784,-393.908 401.622,-401.036 404.356,-394.592"/>
</a>
</g>
</g>
<!-- ext&#45;&gt;hwsdNA_raster -->
<g id="edge20" class="edge"><title>ext&#45;&gt;hwsdNA_raster</title>
<g id="a_edge20"><a xlink:title="test">
<path fill="none" stroke="black" d="M537.719,-434.38C553.265,-416.374 574.393,-385.094 560.643,-360 552.547,-345.224 538.385,-333.97 524.026,-325.717"/>
<polygon fill="black" stroke="black" points="525.583,-322.58 515.113,-320.96 522.288,-328.756 525.583,-322.58"/>
</a>
</g>
</g>
<!-- latlon_sparse&#45;&gt;latlon_eastern -->
<g id="edge21" class="edge"><title>latlon_sparse&#45;&gt;latlon_eastern</title>
<g id="a_edge21"><a xlink:title="test">
<path fill="none" stroke="black" d="M232.643,-287.697C232.643,-279.983 232.643,-270.712 232.643,-262.112"/>
<polygon fill="black" stroke="black" points="236.143,-262.104 232.643,-252.104 229.143,-262.104 236.143,-262.104"/>
</a>
</g>
</g>
</g>
</svg>
