<?xml version="1.0" encoding="UTF-8" standalone="no"?>
<!DOCTYPE svg PUBLIC "-//W3C//DTD SVG 1.1//EN"
 "http://www.w3.org/Graphics/SVG/1.1/DTD/svg11.dtd">
<!-- Generated by graphviz version 2.38.0 (20140413.2041)
 -->
<!-- Title: %3 Pages: 1 -->
<svg width="804pt" height="548pt"
 viewBox="0.00 0.00 804.38 548.00" xmlns="http://www.w3.org/2000/svg" xmlns:xlink="http://www.w3.org/1999/xlink">
<g id="graph0" class="graph" transform="scale(1 1) rotate(0) translate(4 544)">
<title>%3</title>
<polygon fill="white" stroke="none" points="-4,4 -4,-544 800.382,-544 800.382,4 -4,4"/>
<!-- dist_eastern_nosquash_nosoil -->
<g id="dist_eastern_nosquash_nosoil" class="node"><title>dist_eastern_nosquash_nosoil</title>
<g id="a_dist_eastern_nosquash_nosoil"><a xlink:href="javascript:void();" xlink:title="dist_eastern_nosquash_nosoil">
<ellipse fill="none" stroke="black" cx="115.69" cy="-18" rx="115.88" ry="18"/>
<text text-anchor="middle" x="115.69" y="-14.3" font-family="Times,serif" font-size="14.00">dist_eastern_nosquash_nosoil</text>
</a>
</g>
</g>
<!-- bioclim_raster -->
<g id="bioclim_raster" class="node"><title>bioclim_raster</title>
<g id="a_bioclim_raster"><a xlink:href="javascript:void();" xlink:title="bioclim_raster">
<ellipse fill="none" stroke="black" cx="276.69" cy="-450" rx="61.99" ry="18"/>
<text text-anchor="middle" x="276.69" y="-446.3" font-family="Times,serif" font-size="14.00">bioclim_raster</text>
</a>
</g>
</g>
<!-- bioclimNA_raster -->
<g id="bioclimNA_raster" class="node"><title>bioclimNA_raster</title>
<g id="a_bioclimNA_raster"><a xlink:href="javascript:void();" xlink:title="bioclimNA_raster">
<ellipse fill="none" stroke="black" cx="276.69" cy="-378" rx="74.9875" ry="18"/>
<text text-anchor="middle" x="276.69" y="-374.3" font-family="Times,serif" font-size="14.00">bioclimNA_raster</text>
</a>
</g>
</g>
<!-- bioclim_raster&#45;&gt;bioclimNA_raster -->
<g id="edge1" class="edge"><title>bioclim_raster&#45;&gt;bioclimNA_raster</title>
<g id="a_edge1"><a xlink:title="test">
<path fill="none" stroke="black" d="M276.69,-431.697C276.69,-423.983 276.69,-414.712 276.69,-406.112"/>
<polygon fill="black" stroke="black" points="280.19,-406.104 276.69,-396.104 273.19,-406.104 280.19,-406.104"/>
</a>
</g>
</g>
<!-- dist_eastern_nosoil -->
<g id="dist_eastern_nosoil" class="node"><title>dist_eastern_nosoil</title>
<g id="a_dist_eastern_nosoil"><a xlink:href="javascript:void();" xlink:title="dist_eastern_nosoil">
<ellipse fill="none" stroke="black" cx="374.69" cy="-18" rx="78.7863" ry="18"/>
<text text-anchor="middle" x="374.69" y="-14.3" font-family="Times,serif" font-size="14.00">dist_eastern_nosoil</text>
</a>
</g>
</g>
<!-- latlon_bison -->
<g id="latlon_bison" class="node"><title>latlon_bison</title>
<g id="a_latlon_bison"><a xlink:href="javascript:void();" xlink:title="latlon_bison">
<ellipse fill="none" stroke="black" cx="722.69" cy="-450" rx="53.8905" ry="18"/>
<text text-anchor="middle" x="722.69" y="-446.3" font-family="Times,serif" font-size="14.00">latlon_bison</text>
</a>
</g>
</g>
<!-- latlon -->
<g id="latlon" class="node"><title>latlon</title>
<g id="a_latlon"><a xlink:href="javascript:void();" xlink:title="latlon">
<ellipse fill="none" stroke="black" cx="573.69" cy="-378" rx="30.5947" ry="18"/>
<text text-anchor="middle" x="573.69" y="-374.3" font-family="Times,serif" font-size="14.00">latlon</text>
</a>
</g>
</g>
<!-- latlon_bison&#45;&gt;latlon -->
<g id="edge2" class="edge"><title>latlon_bison&#45;&gt;latlon</title>
<g id="a_edge2"><a xlink:title="test">
<path fill="none" stroke="black" d="M692.537,-434.834C667.504,-423.074 631.966,-406.378 606.28,-394.311"/>
<polygon fill="black" stroke="black" points="607.5,-391.017 596.961,-389.933 604.523,-397.353 607.5,-391.017"/>
</a>
</g>
</g>
<!-- cucurbit_distanceNA_raster -->
<g id="cucurbit_distanceNA_raster" class="node"><title>cucurbit_distanceNA_raster</title>
<g id="a_cucurbit_distanceNA_raster"><a xlink:href="javascript:void();" xlink:title="cucurbit_distanceNA_raster">
<ellipse fill="none" stroke="black" cx="389.69" cy="-306" rx="109.381" ry="18"/>
<text text-anchor="middle" x="389.69" y="-302.3" font-family="Times,serif" font-size="14.00">cucurbit_distanceNA_raster</text>
</a>
</g>
</g>
<!-- bioclimNA_raster&#45;&gt;cucurbit_distanceNA_raster -->
<g id="edge5" class="edge"><title>bioclimNA_raster&#45;&gt;cucurbit_distanceNA_raster</title>
<g id="a_edge5"><a xlink:title="test">
<path fill="none" stroke="black" d="M302.614,-360.941C317.898,-351.473 337.454,-339.359 354.159,-329.01"/>
<polygon fill="black" stroke="black" points="356.444,-331.712 363.101,-323.471 352.757,-325.761 356.444,-331.712"/>
</a>
</g>
</g>
<!-- predictors -->
<g id="predictors" class="node"><title>predictors</title>
<g id="a_predictors"><a xlink:href="javascript:void();" xlink:title="predictors">
<ellipse fill="none" stroke="black" cx="321.69" cy="-234" rx="46.2923" ry="18"/>
<text text-anchor="middle" x="321.69" y="-230.3" font-family="Times,serif" font-size="14.00">predictors</text>
</a>
</g>
</g>
<!-- bioclimNA_raster&#45;&gt;predictors -->
<g id="edge4" class="edge"><title>bioclimNA_raster&#45;&gt;predictors</title>
<g id="a_edge4"><a xlink:title="test">
<path fill="none" stroke="black" d="M271.586,-359.917C267.007,-341.479 262.32,-311.587 271.69,-288 276.313,-276.361 284.838,-265.798 293.556,-257.219"/>
<polygon fill="black" stroke="black" points="296.182,-259.56 301.173,-250.214 291.443,-254.407 296.182,-259.56"/>
</a>
</g>
</g>
<!-- hwsdNA_raster -->
<g id="hwsdNA_raster" class="node"><title>hwsdNA_raster</title>
<g id="a_hwsdNA_raster"><a xlink:href="javascript:void();" xlink:title="hwsdNA_raster">
<ellipse fill="none" stroke="black" cx="133.69" cy="-306" rx="65.7887" ry="18"/>
<text text-anchor="middle" x="133.69" y="-302.3" font-family="Times,serif" font-size="14.00">hwsdNA_raster</text>
</a>
</g>
</g>
<!-- bioclimNA_raster&#45;&gt;hwsdNA_raster -->
<g id="edge3" class="edge"><title>bioclimNA_raster&#45;&gt;hwsdNA_raster</title>
<g id="a_edge3"><a xlink:title="test">
<path fill="none" stroke="black" d="M245.308,-361.638C224.208,-351.31 196.216,-337.607 173.543,-326.509"/>
<polygon fill="black" stroke="black" points="175.027,-323.338 164.507,-322.085 171.95,-329.626 175.027,-323.338"/>
</a>
</g>
</g>
<!-- hwsdNAsp -->
<g id="hwsdNAsp" class="node"><title>hwsdNAsp</title>
<g id="a_hwsdNAsp"><a xlink:href="javascript:void();" xlink:title="hwsdNAsp">
<ellipse fill="none" stroke="black" cx="133.69" cy="-378" rx="50.0912" ry="18"/>
<text text-anchor="middle" x="133.69" y="-374.3" font-family="Times,serif" font-size="14.00">hwsdNAsp</text>
</a>
</g>
</g>
<!-- hwsdNAsp&#45;&gt;hwsdNA_raster -->
<g id="edge6" class="edge"><title>hwsdNAsp&#45;&gt;hwsdNA_raster</title>
<g id="a_edge6"><a xlink:title="test">
<path fill="none" stroke="black" d="M133.69,-359.697C133.69,-351.983 133.69,-342.712 133.69,-334.112"/>
<polygon fill="black" stroke="black" points="137.19,-334.104 133.69,-324.104 130.19,-334.104 137.19,-334.104"/>
</a>
</g>
</g>
<!-- model_eastern_nosquash -->
<g id="model_eastern_nosquash" class="node"><title>model_eastern_nosquash</title>
<g id="a_model_eastern_nosquash"><a xlink:href="javascript:void();" xlink:title="model_eastern_nosquash">
<ellipse fill="none" stroke="black" cx="643.69" cy="-90" rx="99.3824" ry="18"/>
<text text-anchor="middle" x="643.69" y="-86.3" font-family="Times,serif" font-size="14.00">model_eastern_nosquash</text>
</a>
</g>
</g>
<!-- dist_eastern_nosquash -->
<g id="dist_eastern_nosquash" class="node"><title>dist_eastern_nosquash</title>
<g id="a_dist_eastern_nosquash"><a xlink:href="javascript:void();" xlink:title="dist_eastern_nosquash">
<ellipse fill="none" stroke="black" cx="706.69" cy="-18" rx="89.8845" ry="18"/>
<text text-anchor="middle" x="706.69" y="-14.3" font-family="Times,serif" font-size="14.00">dist_eastern_nosquash</text>
</a>
</g>
</g>
<!-- model_eastern_nosquash&#45;&gt;dist_eastern_nosquash -->
<g id="edge7" class="edge"><title>model_eastern_nosquash&#45;&gt;dist_eastern_nosquash</title>
<g id="a_edge7"><a xlink:title="test">
<path fill="none" stroke="black" d="M658.94,-72.055C666.679,-63.4567 676.219,-52.8566 684.732,-43.3974"/>
<polygon fill="black" stroke="black" points="687.491,-45.5634 691.58,-35.789 682.288,-40.8806 687.491,-45.5634"/>
</a>
</g>
</g>
<!-- model_eastern_nosoil -->
<g id="model_eastern_nosoil" class="node"><title>model_eastern_nosoil</title>
<g id="a_model_eastern_nosoil"><a xlink:href="javascript:void();" xlink:title="model_eastern_nosoil">
<ellipse fill="none" stroke="black" cx="437.69" cy="-90" rx="88.2844" ry="18"/>
<text text-anchor="middle" x="437.69" y="-86.3" font-family="Times,serif" font-size="14.00">model_eastern_nosoil</text>
</a>
</g>
</g>
<!-- model_eastern_nosoil&#45;&gt;dist_eastern_nosoil -->
<g id="edge8" class="edge"><title>model_eastern_nosoil&#45;&gt;dist_eastern_nosoil</title>
<g id="a_edge8"><a xlink:title="test">
<path fill="none" stroke="black" d="M422.439,-72.055C414.701,-63.4567 405.161,-52.8566 396.647,-43.3974"/>
<polygon fill="black" stroke="black" points="399.091,-40.8806 389.8,-35.789 393.888,-45.5634 399.091,-40.8806"/>
</a>
</g>
</g>
<!-- cucurbit_distanceNA_raster&#45;&gt;predictors -->
<g id="edge9" class="edge"><title>cucurbit_distanceNA_raster&#45;&gt;predictors</title>
<g id="a_edge9"><a xlink:title="test">
<path fill="none" stroke="black" d="M373.229,-288.055C364.669,-279.243 354.066,-268.328 344.707,-258.694"/>
<polygon fill="black" stroke="black" points="347.009,-256.041 337.531,-251.307 341.988,-260.919 347.009,-256.041"/>
</a>
</g>
</g>
<!-- model_eastern_nosquash_nosoil -->
<g id="model_eastern_nosquash_nosoil" class="node"><title>model_eastern_nosquash_nosoil</title>
<g id="a_model_eastern_nosquash_nosoil"><a xlink:href="javascript:void();" xlink:title="model_eastern_nosquash_nosoil">
<ellipse fill="none" stroke="black" cx="168.69" cy="-90" rx="125.378" ry="18"/>
<text text-anchor="middle" x="168.69" y="-86.3" font-family="Times,serif" font-size="14.00">model_eastern_nosquash_nosoil</text>
</a>
</g>
</g>
<!-- model_eastern_nosquash_nosoil&#45;&gt;dist_eastern_nosquash_nosoil -->
<g id="edge10" class="edge"><title>model_eastern_nosquash_nosoil&#45;&gt;dist_eastern_nosquash_nosoil</title>
<g id="a_edge10"><a xlink:title="test">
<path fill="none" stroke="black" d="M155.86,-72.055C149.574,-63.7526 141.875,-53.5837 134.904,-44.3778"/>
<polygon fill="black" stroke="black" points="137.596,-42.1352 128.77,-36.2753 132.016,-46.3606 137.596,-42.1352"/>
</a>
</g>
</g>
<!-- latlon_eastern -->
<g id="latlon_eastern" class="node"><title>latlon_eastern</title>
<g id="a_latlon_eastern"><a xlink:href="javascript:void();" xlink:title="latlon_eastern">
<ellipse fill="none" stroke="black" cx="573.69" cy="-234" rx="59.5901" ry="18"/>
<text text-anchor="middle" x="573.69" y="-230.3" font-family="Times,serif" font-size="14.00">latlon_eastern</text>
</a>
</g>
</g>
<!-- latlon_eastern_vals -->
<g id="latlon_eastern_vals" class="node"><title>latlon_eastern_vals</title>
<g id="a_latlon_eastern_vals"><a xlink:href="javascript:void();" xlink:title="latlon_eastern_vals">
<ellipse fill="none" stroke="black" cx="437.69" cy="-162" rx="78.7863" ry="18"/>
<text text-anchor="middle" x="437.69" y="-158.3" font-family="Times,serif" font-size="14.00">latlon_eastern_vals</text>
</a>
</g>
</g>
<!-- latlon_eastern&#45;&gt;latlon_eastern_vals -->
<g id="edge11" class="edge"><title>latlon_eastern&#45;&gt;latlon_eastern_vals</title>
<g id="a_edge11"><a xlink:title="test">
<path fill="none" stroke="black" d="M544.848,-218.155C525.199,-208.041 498.933,-194.522 477.324,-183.4"/>
<polygon fill="black" stroke="black" points="478.874,-180.261 468.38,-178.797 475.67,-186.485 478.874,-180.261"/>
</a>
</g>
</g>
<!-- cucurbit_points -->
<g id="cucurbit_points" class="node"><title>cucurbit_points</title>
<g id="a_cucurbit_points"><a xlink:href="javascript:void();" xlink:title="cucurbit_points">
<ellipse fill="none" stroke="black" cx="434.69" cy="-378" rx="65.7887" ry="18"/>
<text text-anchor="middle" x="434.69" y="-374.3" font-family="Times,serif" font-size="14.00">cucurbit_points</text>
</a>
</g>
</g>
<!-- cucurbit_points&#45;&gt;cucurbit_distanceNA_raster -->
<g id="edge12" class="edge"><title>cucurbit_points&#45;&gt;cucurbit_distanceNA_raster</title>
<g id="a_edge12"><a xlink:title="test">
<path fill="none" stroke="black" d="M423.796,-360.055C418.568,-351.922 412.188,-341.998 406.367,-332.943"/>
<polygon fill="black" stroke="black" points="409.147,-330.794 400.795,-324.275 403.259,-334.58 409.147,-330.794"/>
</a>
</g>
</g>
<!-- latlon_gbif -->
<g id="latlon_gbif" class="node"><title>latlon_gbif</title>
<g id="a_latlon_gbif"><a xlink:href="javascript:void();" xlink:title="latlon_gbif">
<ellipse fill="none" stroke="black" cx="429.69" cy="-450" rx="49.2915" ry="18"/>
<text text-anchor="middle" x="429.69" y="-446.3" font-family="Times,serif" font-size="14.00">latlon_gbif</text>
</a>
</g>
</g>
<!-- latlon_gbif&#45;&gt;latlon -->
<g id="edge13" class="edge"><title>latlon_gbif&#45;&gt;latlon</title>
<g id="a_edge13"><a xlink:title="test">
<path fill="none" stroke="black" d="M458.14,-435.17C482.269,-423.441 516.852,-406.629 541.89,-394.458"/>
<polygon fill="black" stroke="black" points="543.513,-397.561 550.977,-390.041 540.453,-391.265 543.513,-397.561"/>
</a>
</g>
</g>
<!-- ext -->
<g id="ext" class="node"><title>ext</title>
<g id="a_ext"><a xlink:href="javascript:void();" xlink:title="ext">
<ellipse fill="none" stroke="black" cx="112.69" cy="-450" rx="27" ry="18"/>
<text text-anchor="middle" x="112.69" y="-446.3" font-family="Times,serif" font-size="14.00">ext</text>
</a>
</g>
</g>
<!-- ext&#45;&gt;bioclimNA_raster -->
<g id="edge15" class="edge"><title>ext&#45;&gt;bioclimNA_raster</title>
<g id="a_edge15"><a xlink:title="test">
<path fill="none" stroke="black" d="M134.808,-439.559C159.608,-428.974 200.477,-411.53 231.998,-398.076"/>
<polygon fill="black" stroke="black" points="233.629,-401.185 241.453,-394.04 230.881,-394.747 233.629,-401.185"/>
</a>
</g>
</g>
<!-- ext&#45;&gt;hwsdNA_raster -->
<g id="edge14" class="edge"><title>ext&#45;&gt;hwsdNA_raster</title>
<g id="a_edge14"><a xlink:title="test">
<path fill="none" stroke="black" d="M98.5748,-434.644C89.832,-424.701 79.4019,-410.659 74.6897,-396 69.7933,-380.768 68.1735,-374.613 74.6897,-360 80.088,-347.894 89.7692,-337.398 99.7489,-329.014"/>
<polygon fill="black" stroke="black" points="102.028,-331.674 107.74,-322.751 97.7103,-326.165 102.028,-331.674"/>
</a>
</g>
</g>
<!-- predictors&#45;&gt;dist_eastern_nosquash_nosoil -->
<g id="edge19" class="edge"><title>predictors&#45;&gt;dist_eastern_nosquash_nosoil</title>
<g id="a_edge19"><a xlink:title="test">
<path fill="none" stroke="black" d="M277.471,-228.483C211.423,-219.088 88.9716,-190.849 34.6897,-108 25.9211,-94.6167 27.0794,-86.0742 34.6897,-72 41.8987,-58.6679 54.0814,-48.1516 66.8386,-40.1217"/>
<polygon fill="black" stroke="black" points="68.8286,-43.0131 75.7082,-34.9557 65.3055,-36.9642 68.8286,-43.0131"/>
</a>
</g>
</g>
<!-- predictors&#45;&gt;dist_eastern_nosoil -->
<g id="edge16" class="edge"><title>predictors&#45;&gt;dist_eastern_nosoil</title>
<g id="a_edge16"><a xlink:title="test">
<path fill="none" stroke="black" d="M321.227,-215.979C320.945,-185.968 322.753,-122.08 340.69,-72 344.137,-62.3756 349.602,-52.7103 355.152,-44.3183"/>
<polygon fill="black" stroke="black" points="358.04,-46.295 360.884,-36.089 352.297,-42.2939 358.04,-46.295"/>
</a>
</g>
</g>
<!-- predictors&#45;&gt;dist_eastern_nosquash -->
<g id="edge17" class="edge"><title>predictors&#45;&gt;dist_eastern_nosquash</title>
<g id="a_edge17"><a xlink:title="test">
<path fill="none" stroke="black" d="M364.462,-227.177C463.819,-212.673 705.297,-171.47 751.69,-108 766.53,-87.6967 750.044,-61.7817 733.001,-43.1591"/>
<polygon fill="black" stroke="black" points="735.22,-40.4187 725.753,-35.6621 730.188,-45.2843 735.22,-40.4187"/>
</a>
</g>
</g>
<!-- predictors&#45;&gt;latlon_eastern_vals -->
<g id="edge18" class="edge"><title>predictors&#45;&gt;latlon_eastern_vals</title>
<g id="a_edge18"><a xlink:title="test">
<path fill="none" stroke="black" d="M345.725,-218.496C362.035,-208.653 383.879,-195.472 402.185,-184.426"/>
<polygon fill="black" stroke="black" points="404.093,-187.362 410.847,-179.198 400.477,-181.368 404.093,-187.362"/>
</a>
</g>
</g>
<!-- hwsdNA_raster&#45;&gt;predictors -->
<g id="edge20" class="edge"><title>hwsdNA_raster&#45;&gt;predictors</title>
<g id="a_edge20"><a xlink:title="test">
<path fill="none" stroke="black" d="M171.282,-291.003C202.649,-279.324 247.312,-262.694 279.815,-250.592"/>
<polygon fill="black" stroke="black" points="281.334,-253.761 289.484,-246.991 278.891,-247.201 281.334,-253.761"/>
</a>
</g>
</g>
<!-- latlon_sparse -->
<g id="latlon_sparse" class="node"><title>latlon_sparse</title>
<g id="a_latlon_sparse"><a xlink:href="javascript:void();" xlink:title="latlon_sparse">
<ellipse fill="none" stroke="black" cx="573.69" cy="-306" rx="57.3905" ry="18"/>
<text text-anchor="middle" x="573.69" y="-302.3" font-family="Times,serif" font-size="14.00">latlon_sparse</text>
</a>
</g>
</g>
<!-- latlon_sparse&#45;&gt;latlon_eastern -->
<g id="edge21" class="edge"><title>latlon_sparse&#45;&gt;latlon_eastern</title>
<g id="a_edge21"><a xlink:title="test">
<path fill="none" stroke="black" d="M573.69,-287.697C573.69,-279.983 573.69,-270.712 573.69,-262.112"/>
<polygon fill="black" stroke="black" points="577.19,-262.104 573.69,-252.104 570.19,-262.104 577.19,-262.104"/>
</a>
</g>
</g>
<!-- bison_data -->
<g id="bison_data" class="node"><title>bison_data</title>
<g id="a_bison_data"><a xlink:href="javascript:void();" xlink:title="bison_data">
<ellipse fill="none" stroke="black" cx="722.69" cy="-522" rx="48.9926" ry="18"/>
<text text-anchor="middle" x="722.69" y="-518.3" font-family="Times,serif" font-size="14.00">bison_data</text>
</a>
</g>
</g>
<!-- bison_data&#45;&gt;latlon_bison -->
<g id="edge22" class="edge"><title>bison_data&#45;&gt;latlon_bison</title>
<g id="a_edge22"><a xlink:title="test">
<path fill="none" stroke="black" d="M722.69,-503.697C722.69,-495.983 722.69,-486.712 722.69,-478.112"/>
<polygon fill="black" stroke="black" points="726.19,-478.104 722.69,-468.104 719.19,-478.104 726.19,-478.104"/>
</a>
</g>
</g>
<!-- latlon_eastern_vals&#45;&gt;model_eastern_nosquash -->
<g id="edge23" class="edge"><title>latlon_eastern_vals&#45;&gt;model_eastern_nosquash</title>
<g id="a_edge23"><a xlink:title="test">
<path fill="none" stroke="black" d="M479.874,-146.666C511.479,-135.926 554.986,-121.142 589.22,-109.509"/>
<polygon fill="black" stroke="black" points="590.725,-112.694 599.067,-106.163 588.473,-106.067 590.725,-112.694"/>
</a>
</g>
</g>
<!-- latlon_eastern_vals&#45;&gt;model_eastern_nosoil -->
<g id="edge25" class="edge"><title>latlon_eastern_vals&#45;&gt;model_eastern_nosoil</title>
<g id="a_edge25"><a xlink:title="test">
<path fill="none" stroke="black" d="M437.69,-143.697C437.69,-135.983 437.69,-126.712 437.69,-118.112"/>
<polygon fill="black" stroke="black" points="441.19,-118.104 437.69,-108.104 434.19,-118.104 441.19,-118.104"/>
</a>
</g>
</g>
<!-- latlon_eastern_vals&#45;&gt;model_eastern_nosquash_nosoil -->
<g id="edge24" class="edge"><title>latlon_eastern_vals&#45;&gt;model_eastern_nosquash_nosoil</title>
<g id="a_edge24"><a xlink:title="test">
<path fill="none" stroke="black" d="M387.723,-147.998C345.027,-136.887 283.217,-120.803 236.137,-108.551"/>
<polygon fill="black" stroke="black" points="236.885,-105.13 226.326,-105.998 235.122,-111.904 236.885,-105.13"/>
</a>
</g>
</g>
<!-- gbif_data -->
<g id="gbif_data" class="node"><title>gbif_data</title>
<g id="a_gbif_data"><a xlink:href="javascript:void();" xlink:title="gbif_data">
<ellipse fill="none" stroke="black" cx="429.69" cy="-522" rx="44.393" ry="18"/>
<text text-anchor="middle" x="429.69" y="-518.3" font-family="Times,serif" font-size="14.00">gbif_data</text>
</a>
</g>
</g>
<!-- gbif_data&#45;&gt;latlon_gbif -->
<g id="edge26" class="edge"><title>gbif_data&#45;&gt;latlon_gbif</title>
<g id="a_edge26"><a xlink:title="test">
<path fill="none" stroke="black" d="M429.69,-503.697C429.69,-495.983 429.69,-486.712 429.69,-478.112"/>
<polygon fill="black" stroke="black" points="433.19,-478.104 429.69,-468.104 426.19,-478.104 433.19,-478.104"/>
</a>
</g>
</g>
<!-- latlon_discoverlife -->
<g id="latlon_discoverlife" class="node"><title>latlon_discoverlife</title>
<g id="a_latlon_discoverlife"><a xlink:href="javascript:void();" xlink:title="latlon_discoverlife">
<ellipse fill="none" stroke="black" cx="573.69" cy="-450" rx="76.8869" ry="18"/>
<text text-anchor="middle" x="573.69" y="-446.3" font-family="Times,serif" font-size="14.00">latlon_discoverlife</text>
</a>
</g>
</g>
<!-- latlon_discoverlife&#45;&gt;latlon -->
<g id="edge27" class="edge"><title>latlon_discoverlife&#45;&gt;latlon</title>
<g id="a_edge27"><a xlink:title="test">
<path fill="none" stroke="black" d="M573.69,-431.697C573.69,-423.983 573.69,-414.712 573.69,-406.112"/>
<polygon fill="black" stroke="black" points="577.19,-406.104 573.69,-396.104 570.19,-406.104 577.19,-406.104"/>
</a>
</g>
</g>
<!-- latlon_constraint -->
<g id="latlon_constraint" class="node"><title>latlon_constraint</title>
<g id="a_latlon_constraint"><a xlink:href="javascript:void();" xlink:title="latlon_constraint">
<ellipse fill="none" stroke="black" cx="718.69" cy="-306" rx="69.5877" ry="18"/>
<text text-anchor="middle" x="718.69" y="-302.3" font-family="Times,serif" font-size="14.00">latlon_constraint</text>
</a>
</g>
</g>
<!-- latlon_constraint&#45;&gt;latlon_eastern -->
<g id="edge28" class="edge"><title>latlon_constraint&#45;&gt;latlon_eastern</title>
<g id="a_edge28"><a xlink:title="test">
<path fill="none" stroke="black" d="M687.227,-289.811C665.558,-279.35 636.596,-265.369 613.348,-254.145"/>
<polygon fill="black" stroke="black" points="614.625,-250.875 604.098,-249.68 611.581,-257.179 614.625,-250.875"/>
</a>
</g>
</g>
<!-- latlon&#45;&gt;latlon_sparse -->
<g id="edge29" class="edge"><title>latlon&#45;&gt;latlon_sparse</title>
<g id="a_edge29"><a xlink:title="test">
<path fill="none" stroke="black" d="M573.69,-359.697C573.69,-351.983 573.69,-342.712 573.69,-334.112"/>
<polygon fill="black" stroke="black" points="577.19,-334.104 573.69,-324.104 570.19,-334.104 577.19,-334.104"/>
</a>
</g>
</g>
</g>
</svg>
