<?xml version="1.0" encoding="UTF-8" standalone="no"?>
<!DOCTYPE svg PUBLIC "-//W3C//DTD SVG 1.1//EN"
 "http://www.w3.org/Graphics/SVG/1.1/DTD/svg11.dtd">
<!-- Generated by graphviz version 2.38.0 (20140413.2041)
 -->
<!-- Title: %3 Pages: 1 -->
<svg width="647pt" height="332pt"
 viewBox="0.00 0.00 646.93 332.00" xmlns="http://www.w3.org/2000/svg" xmlns:xlink="http://www.w3.org/1999/xlink">
<g id="graph0" class="graph" transform="scale(1 1) rotate(0) translate(4 328)">
<title>%3</title>
<polygon fill="white" stroke="none" points="-4,4 -4,-328 642.929,-328 642.929,4 -4,4"/>
<!-- model_eastern_nosquash_nosoil -->
<g id="model_eastern_nosquash_nosoil" class="node"><title>model_eastern_nosquash_nosoil</title>
<g id="a_model_eastern_nosquash_nosoil"><a xlink:href="javascript:void();" xlink:title="model_eastern_nosquash_nosoil">
<ellipse fill="none" stroke="black" cx="125.439" cy="-162" rx="125.378" ry="18"/>
<text text-anchor="middle" x="125.439" y="-158.3" font-family="Times,serif" font-size="14.00">model_eastern_nosquash_nosoil</text>
</a>
</g>
</g>
<!-- dist_2050_rcp26_eastern_nosquash_nosoil -->
<g id="dist_2050_rcp26_eastern_nosquash_nosoil" class="node"><title>dist_2050_rcp26_eastern_nosquash_nosoil</title>
<g id="a_dist_2050_rcp26_eastern_nosquash_nosoil"><a xlink:href="javascript:void();" xlink:title="dist_2050_rcp26_eastern_nosquash_nosoil">
<ellipse fill="none" stroke="black" cx="245.439" cy="-18" rx="161.671" ry="18"/>
<text text-anchor="middle" x="245.439" y="-14.3" font-family="Times,serif" font-size="14.00">dist_2050_rcp26_eastern_nosquash_nosoil</text>
</a>
</g>
</g>
<!-- model_eastern_nosquash_nosoil&#45;&gt;dist_2050_rcp26_eastern_nosquash_nosoil -->
<g id="edge1" class="edge"><title>model_eastern_nosquash_nosoil&#45;&gt;dist_2050_rcp26_eastern_nosquash_nosoil</title>
<g id="a_edge1"><a xlink:title="test">
<path fill="none" stroke="black" d="M139.914,-143.871C160.906,-119.031 199.935,-72.8464 224.193,-44.1415"/>
<polygon fill="black" stroke="black" points="227.131,-46.0864 230.913,-36.1893 221.785,-41.5681 227.131,-46.0864"/>
</a>
</g>
</g>
<!-- hwsdNA_raster -->
<g id="hwsdNA_raster" class="node"><title>hwsdNA_raster</title>
<g id="a_hwsdNA_raster"><a xlink:href="javascript:void();" xlink:title="hwsdNA_raster">
<ellipse fill="none" stroke="black" cx="334.439" cy="-162" rx="65.7887" ry="18"/>
<text text-anchor="middle" x="334.439" y="-158.3" font-family="Times,serif" font-size="14.00">hwsdNA_raster</text>
</a>
</g>
</g>
<!-- future_predictors_2050_rcp26 -->
<g id="future_predictors_2050_rcp26" class="node"><title>future_predictors_2050_rcp26</title>
<g id="a_future_predictors_2050_rcp26"><a xlink:href="javascript:void();" xlink:title="future_predictors_2050_rcp26">
<ellipse fill="none" stroke="black" cx="334.439" cy="-90" rx="117.779" ry="18"/>
<text text-anchor="middle" x="334.439" y="-86.3" font-family="Times,serif" font-size="14.00">future_predictors_2050_rcp26</text>
</a>
</g>
</g>
<!-- hwsdNA_raster&#45;&gt;future_predictors_2050_rcp26 -->
<g id="edge2" class="edge"><title>hwsdNA_raster&#45;&gt;future_predictors_2050_rcp26</title>
<g id="a_edge2"><a xlink:title="test">
<path fill="none" stroke="black" d="M334.439,-143.697C334.439,-135.983 334.439,-126.712 334.439,-118.112"/>
<polygon fill="black" stroke="black" points="337.939,-118.104 334.439,-108.104 330.939,-118.104 337.939,-118.104"/>
</a>
</g>
</g>
<!-- worldclim_2050_rcp26_NA -->
<g id="worldclim_2050_rcp26_NA" class="node"><title>worldclim_2050_rcp26_NA</title>
<g id="a_worldclim_2050_rcp26_NA"><a xlink:href="javascript:void();" xlink:title="worldclim_2050_rcp26_NA">
<ellipse fill="none" stroke="black" cx="528.439" cy="-162" rx="110.48" ry="18"/>
<text text-anchor="middle" x="528.439" y="-158.3" font-family="Times,serif" font-size="14.00">worldclim_2050_rcp26_NA</text>
</a>
</g>
</g>
<!-- worldclim_2050_rcp26_NA&#45;&gt;future_predictors_2050_rcp26 -->
<g id="edge3" class="edge"><title>worldclim_2050_rcp26_NA&#45;&gt;future_predictors_2050_rcp26</title>
<g id="a_edge3"><a xlink:title="test">
<path fill="none" stroke="black" d="M484.901,-145.291C456.172,-134.924 418.344,-121.275 387.805,-110.256"/>
<polygon fill="black" stroke="black" points="388.76,-106.88 378.166,-106.778 386.385,-113.464 388.76,-106.88"/>
</a>
</g>
</g>
<!-- squash_bee_sdm_pipeline -->
<g id="squash_bee_sdm_pipeline" class="node"><title>squash_bee_sdm_pipeline</title>
<g id="a_squash_bee_sdm_pipeline"><a xlink:href="javascript:void();" xlink:title="squash_bee_sdm_pipeline">
<ellipse fill="none" stroke="black" cx="334.439" cy="-306" rx="103.182" ry="18"/>
<text text-anchor="middle" x="334.439" y="-302.3" font-family="Times,serif" font-size="14.00">squash_bee_sdm_pipeline</text>
</a>
</g>
</g>
<!-- squash_bee_sdm_pipeline&#45;&gt;model_eastern_nosquash_nosoil -->
<g id="edge4" class="edge"><title>squash_bee_sdm_pipeline&#45;&gt;model_eastern_nosquash_nosoil</title>
<g id="a_edge4"><a xlink:title="test">
<path fill="none" stroke="black" d="M310.055,-288.433C272.558,-262.956 200.666,-214.111 158.511,-185.47"/>
<polygon fill="black" stroke="black" points="160.229,-182.406 149.991,-179.681 156.295,-188.196 160.229,-182.406"/>
</a>
</g>
</g>
<!-- squash_bee_sdm_pipeline&#45;&gt;hwsdNA_raster -->
<g id="edge5" class="edge"><title>squash_bee_sdm_pipeline&#45;&gt;hwsdNA_raster</title>
<g id="a_edge5"><a xlink:title="test">
<path fill="none" stroke="black" d="M334.439,-287.871C334.439,-263.67 334.439,-219.211 334.439,-190.393"/>
<polygon fill="black" stroke="black" points="337.939,-190.189 334.439,-180.189 330.939,-190.189 337.939,-190.189"/>
</a>
</g>
</g>
<!-- ext -->
<g id="ext" class="node"><title>ext</title>
<g id="a_ext"><a xlink:href="javascript:void();" xlink:title="ext">
<ellipse fill="none" stroke="black" cx="389.439" cy="-234" rx="27" ry="18"/>
<text text-anchor="middle" x="389.439" y="-230.3" font-family="Times,serif" font-size="14.00">ext</text>
</a>
</g>
</g>
<!-- squash_bee_sdm_pipeline&#45;&gt;ext -->
<g id="edge6" class="edge"><title>squash_bee_sdm_pipeline&#45;&gt;ext</title>
<g id="a_edge6"><a xlink:title="test">
<path fill="none" stroke="black" d="M347.753,-288.055C354.736,-279.167 363.4,-268.14 371.017,-258.446"/>
<polygon fill="black" stroke="black" points="373.947,-260.382 377.373,-250.356 368.443,-256.057 373.947,-260.382"/>
</a>
</g>
</g>
<!-- future_predictors_2050_rcp26&#45;&gt;dist_2050_rcp26_eastern_nosquash_nosoil -->
<g id="edge7" class="edge"><title>future_predictors_2050_rcp26&#45;&gt;dist_2050_rcp26_eastern_nosquash_nosoil</title>
<g id="a_edge7"><a xlink:title="test">
<path fill="none" stroke="black" d="M312.894,-72.055C301.609,-63.1785 287.61,-52.1686 275.296,-42.483"/>
<polygon fill="black" stroke="black" points="277.117,-39.4627 267.093,-36.0316 272.79,-44.9648 277.117,-39.4627"/>
</a>
</g>
</g>
<!-- worldclim_2050_rcp26 -->
<g id="worldclim_2050_rcp26" class="node"><title>worldclim_2050_rcp26</title>
<g id="a_worldclim_2050_rcp26"><a xlink:href="javascript:void();" xlink:title="worldclim_2050_rcp26">
<ellipse fill="none" stroke="black" cx="528.439" cy="-234" rx="93.6835" ry="18"/>
<text text-anchor="middle" x="528.439" y="-230.3" font-family="Times,serif" font-size="14.00">worldclim_2050_rcp26</text>
</a>
</g>
</g>
<!-- worldclim_2050_rcp26&#45;&gt;worldclim_2050_rcp26_NA -->
<g id="edge8" class="edge"><title>worldclim_2050_rcp26&#45;&gt;worldclim_2050_rcp26_NA</title>
<g id="a_edge8"><a xlink:title="test">
<path fill="none" stroke="black" d="M528.439,-215.697C528.439,-207.983 528.439,-198.712 528.439,-190.112"/>
<polygon fill="black" stroke="black" points="531.939,-190.104 528.439,-180.104 524.939,-190.104 531.939,-190.104"/>
</a>
</g>
</g>
<!-- ext&#45;&gt;worldclim_2050_rcp26_NA -->
<g id="edge9" class="edge"><title>ext&#45;&gt;worldclim_2050_rcp26_NA</title>
<g id="a_edge9"><a xlink:title="test">
<path fill="none" stroke="black" d="M410.249,-222.52C430.484,-212.33 461.786,-196.566 487.094,-183.821"/>
<polygon fill="black" stroke="black" points="488.758,-186.902 496.115,-179.278 485.61,-180.65 488.758,-186.902"/>
</a>
</g>
</g>
</g>
</svg>
