<?xml version="1.0" encoding="UTF-8" standalone="no"?>
<!DOCTYPE svg PUBLIC "-//W3C//DTD SVG 1.1//EN"
 "http://www.w3.org/Graphics/SVG/1.1/DTD/svg11.dtd">
<!-- Generated by graphviz version 2.38.0 (20140413.2041)
 -->
<!-- Title: %3 Pages: 1 -->
<svg width="647pt" height="332pt"
 viewBox="0.00 0.00 646.93 332.00" xmlns="http://www.w3.org/2000/svg" xmlns:xlink="http://www.w3.org/1999/xlink">
<g id="graph0" class="graph" transform="scale(1 1) rotate(0) translate(4 328)">
<title>%3</title>
<polygon fill="white" stroke="none" points="-4,4 -4,-328 642.929,-328 642.929,4 -4,4"/>
<!-- dist_2050_rcp26_eastern_nosquash_nosoil -->
<g id="dist_2050_rcp26_eastern_nosquash_nosoil" class="node"><title>dist_2050_rcp26_eastern_nosquash_nosoil</title>
<g id="a_dist_2050_rcp26_eastern_nosquash_nosoil"><a xlink:href="javascript:void();" xlink:title="dist_2050_rcp26_eastern_nosquash_nosoil">
<ellipse fill="none" stroke="black" cx="245.439" cy="-18" rx="161.671" ry="18"/>
<text text-anchor="middle" x="245.439" y="-14.3" font-family="Times,serif" font-size="14.00">dist_2050_rcp26_eastern_nosquash_nosoil</text>
</a>
</g>
</g>
<!-- worldclim_2050_rcp26 -->
<g id="worldclim_2050_rcp26" class="node"><title>worldclim_2050_rcp26</title>
<g id="a_worldclim_2050_rcp26"><a xlink:href="javascript:void();" xlink:title="worldclim_2050_rcp26">
<ellipse fill="none" stroke="black" cx="422.439" cy="-234" rx="93.6835" ry="18"/>
<text text-anchor="middle" x="422.439" y="-230.3" font-family="Times,serif" font-size="14.00">worldclim_2050_rcp26</text>
</a>
</g>
</g>
<!-- worldclim_2050_rcp26_NA -->
<g id="worldclim_2050_rcp26_NA" class="node"><title>worldclim_2050_rcp26_NA</title>
<g id="a_worldclim_2050_rcp26_NA"><a xlink:href="javascript:void();" xlink:title="worldclim_2050_rcp26_NA">
<ellipse fill="none" stroke="black" cx="528.439" cy="-162" rx="110.48" ry="18"/>
<text text-anchor="middle" x="528.439" y="-158.3" font-family="Times,serif" font-size="14.00">worldclim_2050_rcp26_NA</text>
</a>
</g>
</g>
<!-- worldclim_2050_rcp26&#45;&gt;worldclim_2050_rcp26_NA -->
<g id="edge1" class="edge"><title>worldclim_2050_rcp26&#45;&gt;worldclim_2050_rcp26_NA</title>
<g id="a_edge1"><a xlink:title="test">
<path fill="none" stroke="black" d="M447.291,-216.588C461.409,-207.265 479.282,-195.462 494.658,-185.308"/>
<polygon fill="black" stroke="black" points="496.959,-187.983 503.375,-179.552 493.102,-182.142 496.959,-187.983"/>
</a>
</g>
</g>
<!-- ext -->
<g id="ext" class="node"><title>ext</title>
<g id="a_ext"><a xlink:href="javascript:void();" xlink:title="ext">
<ellipse fill="none" stroke="black" cx="561.439" cy="-234" rx="27" ry="18"/>
<text text-anchor="middle" x="561.439" y="-230.3" font-family="Times,serif" font-size="14.00">ext</text>
</a>
</g>
</g>
<!-- ext&#45;&gt;worldclim_2050_rcp26_NA -->
<g id="edge2" class="edge"><title>ext&#45;&gt;worldclim_2050_rcp26_NA</title>
<g id="a_edge2"><a xlink:title="test">
<path fill="none" stroke="black" d="M553.618,-216.411C549.771,-208.249 545.043,-198.22 540.727,-189.065"/>
<polygon fill="black" stroke="black" points="543.863,-187.509 536.433,-179.956 537.531,-190.494 543.863,-187.509"/>
</a>
</g>
</g>
<!-- model_eastern_nosquash_nosoil -->
<g id="model_eastern_nosquash_nosoil" class="node"><title>model_eastern_nosquash_nosoil</title>
<g id="a_model_eastern_nosquash_nosoil"><a xlink:href="javascript:void();" xlink:title="model_eastern_nosquash_nosoil">
<ellipse fill="none" stroke="black" cx="125.439" cy="-162" rx="125.378" ry="18"/>
<text text-anchor="middle" x="125.439" y="-158.3" font-family="Times,serif" font-size="14.00">model_eastern_nosquash_nosoil</text>
</a>
</g>
</g>
<!-- model_eastern_nosquash_nosoil&#45;&gt;dist_2050_rcp26_eastern_nosquash_nosoil -->
<g id="edge3" class="edge"><title>model_eastern_nosquash_nosoil&#45;&gt;dist_2050_rcp26_eastern_nosquash_nosoil</title>
<g id="a_edge3"><a xlink:title="test">
<path fill="none" stroke="black" d="M139.914,-143.871C160.906,-119.031 199.935,-72.8464 224.193,-44.1415"/>
<polygon fill="black" stroke="black" points="227.131,-46.0864 230.913,-36.1893 221.785,-41.5681 227.131,-46.0864"/>
</a>
</g>
</g>
<!-- future_predictors_2050_rcp26 -->
<g id="future_predictors_2050_rcp26" class="node"><title>future_predictors_2050_rcp26</title>
<g id="a_future_predictors_2050_rcp26"><a xlink:href="javascript:void();" xlink:title="future_predictors_2050_rcp26">
<ellipse fill="none" stroke="black" cx="334.439" cy="-90" rx="117.779" ry="18"/>
<text text-anchor="middle" x="334.439" y="-86.3" font-family="Times,serif" font-size="14.00">future_predictors_2050_rcp26</text>
</a>
</g>
</g>
<!-- worldclim_2050_rcp26_NA&#45;&gt;future_predictors_2050_rcp26 -->
<g id="edge4" class="edge"><title>worldclim_2050_rcp26_NA&#45;&gt;future_predictors_2050_rcp26</title>
<g id="a_edge4"><a xlink:title="test">
<path fill="none" stroke="black" d="M484.901,-145.291C456.172,-134.924 418.344,-121.275 387.805,-110.256"/>
<polygon fill="black" stroke="black" points="388.76,-106.88 378.166,-106.778 386.385,-113.464 388.76,-106.88"/>
</a>
</g>
</g>
<!-- hwsdNA_raster -->
<g id="hwsdNA_raster" class="node"><title>hwsdNA_raster</title>
<g id="a_hwsdNA_raster"><a xlink:href="javascript:void();" xlink:title="hwsdNA_raster">
<ellipse fill="none" stroke="black" cx="334.439" cy="-162" rx="65.7887" ry="18"/>
<text text-anchor="middle" x="334.439" y="-158.3" font-family="Times,serif" font-size="14.00">hwsdNA_raster</text>
</a>
</g>
</g>
<!-- hwsdNA_raster&#45;&gt;future_predictors_2050_rcp26 -->
<g id="edge5" class="edge"><title>hwsdNA_raster&#45;&gt;future_predictors_2050_rcp26</title>
<g id="a_edge5"><a xlink:title="test">
<path fill="none" stroke="black" d="M334.439,-143.697C334.439,-135.983 334.439,-126.712 334.439,-118.112"/>
<polygon fill="black" stroke="black" points="337.939,-118.104 334.439,-108.104 330.939,-118.104 337.939,-118.104"/>
</a>
</g>
</g>
<!-- future_predictors_2050_rcp26&#45;&gt;dist_2050_rcp26_eastern_nosquash_nosoil -->
<g id="edge6" class="edge"><title>future_predictors_2050_rcp26&#45;&gt;dist_2050_rcp26_eastern_nosquash_nosoil</title>
<g id="a_edge6"><a xlink:title="test">
<path fill="none" stroke="black" d="M312.894,-72.055C301.609,-63.1785 287.61,-52.1686 275.296,-42.483"/>
<polygon fill="black" stroke="black" points="277.117,-39.4627 267.093,-36.0316 272.79,-44.9648 277.117,-39.4627"/>
</a>
</g>
</g>
<!-- squash_bee_sdm_pipeline -->
<g id="squash_bee_sdm_pipeline" class="node"><title>squash_bee_sdm_pipeline</title>
<g id="a_squash_bee_sdm_pipeline"><a xlink:href="javascript:void();" xlink:title="squash_bee_sdm_pipeline">
<ellipse fill="none" stroke="black" cx="300.439" cy="-306" rx="103.182" ry="18"/>
<text text-anchor="middle" x="300.439" y="-302.3" font-family="Times,serif" font-size="14.00">squash_bee_sdm_pipeline</text>
</a>
</g>
</g>
<!-- squash_bee_sdm_pipeline&#45;&gt;ext -->
<g id="edge7" class="edge"><title>squash_bee_sdm_pipeline&#45;&gt;ext</title>
<g id="a_edge7"><a xlink:title="test">
<path fill="none" stroke="black" d="M369.693,-292.602C414.743,-283.587 474.39,-269.843 525.439,-252 527.347,-251.333 529.29,-250.596 531.233,-249.815"/>
<polygon fill="black" stroke="black" points="533.037,-252.847 540.81,-245.647 530.244,-246.428 533.037,-252.847"/>
</a>
</g>
</g>
<!-- squash_bee_sdm_pipeline&#45;&gt;model_eastern_nosquash_nosoil -->
<g id="edge8" class="edge"><title>squash_bee_sdm_pipeline&#45;&gt;model_eastern_nosquash_nosoil</title>
<g id="a_edge8"><a xlink:title="test">
<path fill="none" stroke="black" d="M279.677,-288.153C248.496,-262.852 189.478,-214.964 154.18,-186.321"/>
<polygon fill="black" stroke="black" points="156.144,-183.408 146.174,-179.825 151.734,-188.844 156.144,-183.408"/>
</a>
</g>
</g>
<!-- squash_bee_sdm_pipeline&#45;&gt;hwsdNA_raster -->
<g id="edge9" class="edge"><title>squash_bee_sdm_pipeline&#45;&gt;hwsdNA_raster</title>
<g id="a_edge9"><a xlink:title="test">
<path fill="none" stroke="black" d="M303.751,-287.862C307.306,-269.884 313.279,-240.843 319.439,-216 321.566,-207.422 324.112,-198.129 326.498,-189.757"/>
<polygon fill="black" stroke="black" points="329.872,-190.689 329.289,-180.11 323.148,-188.743 329.872,-190.689"/>
</a>
</g>
</g>
</g>
</svg>
