<?xml version="1.0" encoding="UTF-8" standalone="no"?>
<!DOCTYPE svg PUBLIC "-//W3C//DTD SVG 1.1//EN"
 "http://www.w3.org/Graphics/SVG/1.1/DTD/svg11.dtd">
<!-- Generated by graphviz version 2.38.0 (20140413.2041)
 -->
<!-- Title: %3 Pages: 1 -->
<svg width="1243pt" height="548pt"
 viewBox="0.00 0.00 1243.48 548.00" xmlns="http://www.w3.org/2000/svg" xmlns:xlink="http://www.w3.org/1999/xlink">
<g id="graph0" class="graph" transform="scale(1 1) rotate(0) translate(4 544)">
<title>%3</title>
<polygon fill="white" stroke="none" points="-4,4 -4,-544 1239.48,-544 1239.48,4 -4,4"/>
<!-- hwsdNA_raster -->
<g id="hwsdNA_raster" class="node"><title>hwsdNA_raster</title>
<g id="a_hwsdNA_raster"><a xlink:href="javascript:void();" xlink:title="hwsdNA_raster">
<ellipse fill="none" stroke="black" cx="749.838" cy="-306" rx="65.7887" ry="18"/>
<text text-anchor="middle" x="749.838" y="-302.3" font-family="Times,serif" font-size="14.00">hwsdNA_raster</text>
</a>
</g>
</g>
<!-- predictors -->
<g id="predictors" class="node"><title>predictors</title>
<g id="a_predictors"><a xlink:href="javascript:void();" xlink:title="predictors">
<ellipse fill="none" stroke="black" cx="1009.84" cy="-234" rx="46.2923" ry="18"/>
<text text-anchor="middle" x="1009.84" y="-230.3" font-family="Times,serif" font-size="14.00">predictors</text>
</a>
</g>
</g>
<!-- hwsdNA_raster&#45;&gt;predictors -->
<g id="edge1" class="edge"><title>hwsdNA_raster&#45;&gt;predictors</title>
<g id="a_edge1"><a xlink:title="test">
<path fill="none" stroke="black" d="M794.83,-292.887C841.914,-280.21 915.493,-260.401 963.188,-247.559"/>
<polygon fill="black" stroke="black" points="964.208,-250.91 972.954,-244.93 962.388,-244.15 964.208,-250.91"/>
</a>
</g>
</g>
<!-- future_predictors_2050_rcp26 -->
<g id="future_predictors_2050_rcp26" class="node"><title>future_predictors_2050_rcp26</title>
<g id="a_future_predictors_2050_rcp26"><a xlink:href="javascript:void();" xlink:title="future_predictors_2050_rcp26">
<ellipse fill="none" stroke="black" cx="221.838" cy="-162" rx="117.779" ry="18"/>
<text text-anchor="middle" x="221.838" y="-158.3" font-family="Times,serif" font-size="14.00">future_predictors_2050_rcp26</text>
</a>
</g>
</g>
<!-- hwsdNA_raster&#45;&gt;future_predictors_2050_rcp26 -->
<g id="edge2" class="edge"><title>hwsdNA_raster&#45;&gt;future_predictors_2050_rcp26</title>
<g id="a_edge2"><a xlink:title="test">
<path fill="none" stroke="black" d="M739.898,-287.853C726.772,-266.967 701.565,-232.444 669.838,-216 614.911,-187.532 457.164,-174.016 344.418,-167.839"/>
<polygon fill="black" stroke="black" points="344.51,-164.339 334.337,-167.3 344.135,-171.329 344.51,-164.339"/>
</a>
</g>
</g>
<!-- dist_2050_rcp26_eastern_nosquash_nosoil -->
<g id="dist_2050_rcp26_eastern_nosquash_nosoil" class="node"><title>dist_2050_rcp26_eastern_nosquash_nosoil</title>
<g id="a_dist_2050_rcp26_eastern_nosquash_nosoil"><a xlink:href="javascript:void();" xlink:title="dist_2050_rcp26_eastern_nosquash_nosoil">
<ellipse fill="none" stroke="black" cx="451.838" cy="-18" rx="161.671" ry="18"/>
<text text-anchor="middle" x="451.838" y="-14.3" font-family="Times,serif" font-size="14.00">dist_2050_rcp26_eastern_nosquash_nosoil</text>
</a>
</g>
</g>
<!-- dist_eastern_nosquash -->
<g id="dist_eastern_nosquash" class="node"><title>dist_eastern_nosquash</title>
<g id="a_dist_eastern_nosquash"><a xlink:href="javascript:void();" xlink:title="dist_eastern_nosquash">
<ellipse fill="none" stroke="black" cx="721.838" cy="-18" rx="89.8845" ry="18"/>
<text text-anchor="middle" x="721.838" y="-14.3" font-family="Times,serif" font-size="14.00">dist_eastern_nosquash</text>
</a>
</g>
</g>
<!-- predictors&#45;&gt;dist_eastern_nosquash -->
<g id="edge4" class="edge"><title>predictors&#45;&gt;dist_eastern_nosquash</title>
<g id="a_edge4"><a xlink:title="test">
<path fill="none" stroke="black" d="M1013.61,-216.043C1019.76,-183.497 1027.84,-111.965 990.838,-72 987.466,-68.3572 874.203,-46.9459 795.738,-32.4771"/>
<polygon fill="black" stroke="black" points="796.341,-29.0293 785.873,-30.6606 795.074,-35.9136 796.341,-29.0293"/>
</a>
</g>
</g>
<!-- latlon_eastern_vals -->
<g id="latlon_eastern_vals" class="node"><title>latlon_eastern_vals</title>
<g id="a_latlon_eastern_vals"><a xlink:href="javascript:void();" xlink:title="latlon_eastern_vals">
<ellipse fill="none" stroke="black" cx="623.838" cy="-162" rx="78.7863" ry="18"/>
<text text-anchor="middle" x="623.838" y="-158.3" font-family="Times,serif" font-size="14.00">latlon_eastern_vals</text>
</a>
</g>
</g>
<!-- predictors&#45;&gt;latlon_eastern_vals -->
<g id="edge3" class="edge"><title>predictors&#45;&gt;latlon_eastern_vals</title>
<g id="a_edge3"><a xlink:title="test">
<path fill="none" stroke="black" d="M968.895,-225.575C903.305,-213.681 773.91,-190.215 693.554,-175.643"/>
<polygon fill="black" stroke="black" points="693.986,-172.164 683.522,-173.823 692.737,-179.052 693.986,-172.164"/>
</a>
</g>
</g>
<!-- dist_eastern_nosquash_nosoil -->
<g id="dist_eastern_nosquash_nosoil" class="node"><title>dist_eastern_nosquash_nosoil</title>
<g id="a_dist_eastern_nosquash_nosoil"><a xlink:href="javascript:void();" xlink:title="dist_eastern_nosquash_nosoil">
<ellipse fill="none" stroke="black" cx="944.838" cy="-18" rx="115.88" ry="18"/>
<text text-anchor="middle" x="944.838" y="-14.3" font-family="Times,serif" font-size="14.00">dist_eastern_nosquash_nosoil</text>
</a>
</g>
</g>
<!-- predictors&#45;&gt;dist_eastern_nosquash_nosoil -->
<g id="edge6" class="edge"><title>predictors&#45;&gt;dist_eastern_nosquash_nosoil</title>
<g id="a_edge6"><a xlink:title="test">
<path fill="none" stroke="black" d="M1011.03,-215.687C1012.45,-185.222 1012.34,-120.655 990.838,-72 986.285,-61.6971 979.02,-51.9233 971.597,-43.6402"/>
<polygon fill="black" stroke="black" points="973.941,-41.0252 964.515,-36.1869 968.866,-45.847 973.941,-41.0252"/>
</a>
</g>
</g>
<!-- dist_eastern_nosoil -->
<g id="dist_eastern_nosoil" class="node"><title>dist_eastern_nosoil</title>
<g id="a_dist_eastern_nosoil"><a xlink:href="javascript:void();" xlink:title="dist_eastern_nosoil">
<ellipse fill="none" stroke="black" cx="1156.84" cy="-18" rx="78.7863" ry="18"/>
<text text-anchor="middle" x="1156.84" y="-14.3" font-family="Times,serif" font-size="14.00">dist_eastern_nosoil</text>
</a>
</g>
</g>
<!-- predictors&#45;&gt;dist_eastern_nosoil -->
<g id="edge5" class="edge"><title>predictors&#45;&gt;dist_eastern_nosoil</title>
<g id="a_edge5"><a xlink:title="test">
<path fill="none" stroke="black" d="M1027.33,-217.244C1037.98,-207.169 1051.48,-193.5 1061.84,-180 1095.82,-135.708 1127.03,-78.2455 1143.85,-45.3112"/>
<polygon fill="black" stroke="black" points="1147.01,-46.8151 1148.4,-36.3114 1140.76,-43.6576 1147.01,-46.8151"/>
</a>
</g>
</g>
<!-- bc_model_eastern_nosquash_nosoil -->
<g id="bc_model_eastern_nosquash_nosoil" class="node"><title>bc_model_eastern_nosquash_nosoil</title>
<g id="a_bc_model_eastern_nosquash_nosoil"><a xlink:href="javascript:void();" xlink:title="bc_model_eastern_nosquash_nosoil">
<ellipse fill="none" stroke="black" cx="623.838" cy="-90" rx="137.576" ry="18"/>
<text text-anchor="middle" x="623.838" y="-86.3" font-family="Times,serif" font-size="14.00">bc_model_eastern_nosquash_nosoil</text>
</a>
</g>
</g>
<!-- bc_model_eastern_nosquash_nosoil&#45;&gt;dist_2050_rcp26_eastern_nosquash_nosoil -->
<g id="edge7" class="edge"><title>bc_model_eastern_nosquash_nosoil&#45;&gt;dist_2050_rcp26_eastern_nosquash_nosoil</title>
<g id="a_edge7"><a xlink:title="test">
<path fill="none" stroke="black" d="M583.945,-72.7646C559.463,-62.8008 527.902,-49.9563 501.768,-39.3205"/>
<polygon fill="black" stroke="black" points="502.991,-36.0393 492.409,-35.5115 500.352,-42.5229 502.991,-36.0393"/>
</a>
</g>
</g>
<!-- bc_model_eastern_nosquash_nosoil&#45;&gt;dist_eastern_nosquash_nosoil -->
<g id="edge8" class="edge"><title>bc_model_eastern_nosquash_nosoil&#45;&gt;dist_eastern_nosquash_nosoil</title>
<g id="a_edge8"><a xlink:title="test">
<path fill="none" stroke="black" d="M691.522,-74.2403C743.99,-62.7986 816.621,-46.96 870.664,-35.1751"/>
<polygon fill="black" stroke="black" points="871.505,-38.574 880.529,-33.0237 870.013,-31.7348 871.505,-38.574"/>
</a>
</g>
</g>
<!-- dist_2050_rcp26_eastern_nosquash -->
<g id="dist_2050_rcp26_eastern_nosquash" class="node"><title>dist_2050_rcp26_eastern_nosquash</title>
<g id="a_dist_2050_rcp26_eastern_nosquash"><a xlink:href="javascript:void();" xlink:title="dist_2050_rcp26_eastern_nosquash">
<ellipse fill="none" stroke="black" cx="135.838" cy="-18" rx="135.676" ry="18"/>
<text text-anchor="middle" x="135.838" y="-14.3" font-family="Times,serif" font-size="14.00">dist_2050_rcp26_eastern_nosquash</text>
</a>
</g>
</g>
<!-- cucurbit_points -->
<g id="cucurbit_points" class="node"><title>cucurbit_points</title>
<g id="a_cucurbit_points"><a xlink:href="javascript:void();" xlink:title="cucurbit_points">
<ellipse fill="none" stroke="black" cx="1050.84" cy="-378" rx="65.7887" ry="18"/>
<text text-anchor="middle" x="1050.84" y="-374.3" font-family="Times,serif" font-size="14.00">cucurbit_points</text>
</a>
</g>
</g>
<!-- cucurbit_distanceNA_raster -->
<g id="cucurbit_distanceNA_raster" class="node"><title>cucurbit_distanceNA_raster</title>
<g id="a_cucurbit_distanceNA_raster"><a xlink:href="javascript:void();" xlink:title="cucurbit_distanceNA_raster">
<ellipse fill="none" stroke="black" cx="1029.84" cy="-306" rx="109.381" ry="18"/>
<text text-anchor="middle" x="1029.84" y="-302.3" font-family="Times,serif" font-size="14.00">cucurbit_distanceNA_raster</text>
</a>
</g>
</g>
<!-- cucurbit_points&#45;&gt;cucurbit_distanceNA_raster -->
<g id="edge9" class="edge"><title>cucurbit_points&#45;&gt;cucurbit_distanceNA_raster</title>
<g id="a_edge9"><a xlink:title="test">
<path fill="none" stroke="black" d="M1045.65,-359.697C1043.31,-351.898 1040.49,-342.509 1037.89,-333.829"/>
<polygon fill="black" stroke="black" points="1041.2,-332.677 1034.97,-324.104 1034.49,-334.688 1041.2,-332.677"/>
</a>
</g>
</g>
<!-- gbif_data -->
<g id="gbif_data" class="node"><title>gbif_data</title>
<g id="a_gbif_data"><a xlink:href="javascript:void();" xlink:title="gbif_data">
<ellipse fill="none" stroke="black" cx="585.838" cy="-522" rx="44.393" ry="18"/>
<text text-anchor="middle" x="585.838" y="-518.3" font-family="Times,serif" font-size="14.00">gbif_data</text>
</a>
</g>
</g>
<!-- latlon_gbif -->
<g id="latlon_gbif" class="node"><title>latlon_gbif</title>
<g id="a_latlon_gbif"><a xlink:href="javascript:void();" xlink:title="latlon_gbif">
<ellipse fill="none" stroke="black" cx="585.838" cy="-450" rx="49.2915" ry="18"/>
<text text-anchor="middle" x="585.838" y="-446.3" font-family="Times,serif" font-size="14.00">latlon_gbif</text>
</a>
</g>
</g>
<!-- gbif_data&#45;&gt;latlon_gbif -->
<g id="edge10" class="edge"><title>gbif_data&#45;&gt;latlon_gbif</title>
<g id="a_edge10"><a xlink:title="test">
<path fill="none" stroke="black" d="M585.838,-503.697C585.838,-495.983 585.838,-486.712 585.838,-478.112"/>
<polygon fill="black" stroke="black" points="589.338,-478.104 585.838,-468.104 582.338,-478.104 589.338,-478.104"/>
</a>
</g>
</g>
<!-- latlon_eastern_vals&#45;&gt;bc_model_eastern_nosquash_nosoil -->
<g id="edge11" class="edge"><title>latlon_eastern_vals&#45;&gt;bc_model_eastern_nosquash_nosoil</title>
<g id="a_edge11"><a xlink:title="test">
<path fill="none" stroke="black" d="M623.838,-143.697C623.838,-135.983 623.838,-126.712 623.838,-118.112"/>
<polygon fill="black" stroke="black" points="627.338,-118.104 623.838,-108.104 620.338,-118.104 627.338,-118.104"/>
</a>
</g>
</g>
<!-- bc_model_eastern_nosoil -->
<g id="bc_model_eastern_nosoil" class="node"><title>bc_model_eastern_nosoil</title>
<g id="a_bc_model_eastern_nosoil"><a xlink:href="javascript:void();" xlink:title="bc_model_eastern_nosoil">
<ellipse fill="none" stroke="black" cx="880.838" cy="-90" rx="100.983" ry="18"/>
<text text-anchor="middle" x="880.838" y="-86.3" font-family="Times,serif" font-size="14.00">bc_model_eastern_nosoil</text>
</a>
</g>
</g>
<!-- latlon_eastern_vals&#45;&gt;bc_model_eastern_nosoil -->
<g id="edge13" class="edge"><title>latlon_eastern_vals&#45;&gt;bc_model_eastern_nosoil</title>
<g id="a_edge13"><a xlink:title="test">
<path fill="none" stroke="black" d="M672.48,-147.751C713.743,-136.512 773.208,-120.316 818.058,-108.1"/>
<polygon fill="black" stroke="black" points="819.24,-111.405 827.969,-105.4 817.401,-104.651 819.24,-111.405"/>
</a>
</g>
</g>
<!-- bc_model_eastern_nosquash -->
<g id="bc_model_eastern_nosquash" class="node"><title>bc_model_eastern_nosquash</title>
<g id="a_bc_model_eastern_nosquash"><a xlink:href="javascript:void();" xlink:title="bc_model_eastern_nosquash">
<ellipse fill="none" stroke="black" cx="355.838" cy="-90" rx="112.38" ry="18"/>
<text text-anchor="middle" x="355.838" y="-86.3" font-family="Times,serif" font-size="14.00">bc_model_eastern_nosquash</text>
</a>
</g>
</g>
<!-- latlon_eastern_vals&#45;&gt;bc_model_eastern_nosquash -->
<g id="edge12" class="edge"><title>latlon_eastern_vals&#45;&gt;bc_model_eastern_nosquash</title>
<g id="a_edge12"><a xlink:title="test">
<path fill="none" stroke="black" d="M574.057,-147.998C531.095,-136.776 468.71,-120.482 421.636,-108.186"/>
<polygon fill="black" stroke="black" points="422.396,-104.767 411.836,-105.626 420.627,-111.54 422.396,-104.767"/>
</a>
</g>
</g>
<!-- latlon -->
<g id="latlon" class="node"><title>latlon</title>
<g id="a_latlon"><a xlink:href="javascript:void();" xlink:title="latlon">
<ellipse fill="none" stroke="black" cx="585.838" cy="-378" rx="30.5947" ry="18"/>
<text text-anchor="middle" x="585.838" y="-374.3" font-family="Times,serif" font-size="14.00">latlon</text>
</a>
</g>
</g>
<!-- latlon_sparse -->
<g id="latlon_sparse" class="node"><title>latlon_sparse</title>
<g id="a_latlon_sparse"><a xlink:href="javascript:void();" xlink:title="latlon_sparse">
<ellipse fill="none" stroke="black" cx="600.838" cy="-306" rx="57.3905" ry="18"/>
<text text-anchor="middle" x="600.838" y="-302.3" font-family="Times,serif" font-size="14.00">latlon_sparse</text>
</a>
</g>
</g>
<!-- latlon&#45;&gt;latlon_sparse -->
<g id="edge14" class="edge"><title>latlon&#45;&gt;latlon_sparse</title>
<g id="a_edge14"><a xlink:title="test">
<path fill="none" stroke="black" d="M589.469,-360.055C591.139,-352.261 593.162,-342.822 595.035,-334.079"/>
<polygon fill="black" stroke="black" points="598.463,-334.787 597.136,-324.275 591.618,-333.32 598.463,-334.787"/>
</a>
</g>
</g>
<!-- worldclim_2050_rcp26_NA -->
<g id="worldclim_2050_rcp26_NA" class="node"><title>worldclim_2050_rcp26_NA</title>
<g id="a_worldclim_2050_rcp26_NA"><a xlink:href="javascript:void();" xlink:title="worldclim_2050_rcp26_NA">
<ellipse fill="none" stroke="black" cx="292.838" cy="-378" rx="110.48" ry="18"/>
<text text-anchor="middle" x="292.838" y="-374.3" font-family="Times,serif" font-size="14.00">worldclim_2050_rcp26_NA</text>
</a>
</g>
</g>
<!-- worldclim_2050_rcp26_NA&#45;&gt;future_predictors_2050_rcp26 -->
<g id="edge15" class="edge"><title>worldclim_2050_rcp26_NA&#45;&gt;future_predictors_2050_rcp26</title>
<g id="a_edge15"><a xlink:title="test">
<path fill="none" stroke="black" d="M287.148,-359.849C274.814,-322.675 245.54,-234.439 230.736,-189.82"/>
<polygon fill="black" stroke="black" points="234.026,-188.622 227.555,-180.232 227.382,-190.826 234.026,-188.622"/>
</a>
</g>
</g>
<!-- bc_model_eastern_nosoil&#45;&gt;dist_eastern_nosoil -->
<g id="edge16" class="edge"><title>bc_model_eastern_nosoil&#45;&gt;dist_eastern_nosoil</title>
<g id="a_edge16"><a xlink:title="test">
<path fill="none" stroke="black" d="M936.359,-74.9187C982.652,-63.1777 1048.5,-46.4761 1096.17,-34.3858"/>
<polygon fill="black" stroke="black" points="1097.22,-37.7304 1106.06,-31.8794 1095.5,-30.9452 1097.22,-37.7304"/>
</a>
</g>
</g>
<!-- bison_data -->
<g id="bison_data" class="node"><title>bison_data</title>
<g id="a_bison_data"><a xlink:href="javascript:void();" xlink:title="bison_data">
<ellipse fill="none" stroke="black" cx="464.838" cy="-522" rx="48.9926" ry="18"/>
<text text-anchor="middle" x="464.838" y="-518.3" font-family="Times,serif" font-size="14.00">bison_data</text>
</a>
</g>
</g>
<!-- latlon_bison -->
<g id="latlon_bison" class="node"><title>latlon_bison</title>
<g id="a_latlon_bison"><a xlink:href="javascript:void();" xlink:title="latlon_bison">
<ellipse fill="none" stroke="black" cx="464.838" cy="-450" rx="53.8905" ry="18"/>
<text text-anchor="middle" x="464.838" y="-446.3" font-family="Times,serif" font-size="14.00">latlon_bison</text>
</a>
</g>
</g>
<!-- bison_data&#45;&gt;latlon_bison -->
<g id="edge17" class="edge"><title>bison_data&#45;&gt;latlon_bison</title>
<g id="a_edge17"><a xlink:title="test">
<path fill="none" stroke="black" d="M464.838,-503.697C464.838,-495.983 464.838,-486.712 464.838,-478.112"/>
<polygon fill="black" stroke="black" points="468.338,-478.104 464.838,-468.104 461.338,-478.104 468.338,-478.104"/>
</a>
</g>
</g>
<!-- eastern_boundaries -->
<g id="eastern_boundaries" class="node"><title>eastern_boundaries</title>
<g id="a_eastern_boundaries"><a xlink:href="javascript:void();" xlink:title="eastern_boundaries">
<ellipse fill="none" stroke="black" cx="446.838" cy="-306" rx="78.7863" ry="18"/>
<text text-anchor="middle" x="446.838" y="-302.3" font-family="Times,serif" font-size="14.00">eastern_boundaries</text>
</a>
</g>
</g>
<!-- latlon_eastern -->
<g id="latlon_eastern" class="node"><title>latlon_eastern</title>
<g id="a_latlon_eastern"><a xlink:href="javascript:void();" xlink:title="latlon_eastern">
<ellipse fill="none" stroke="black" cx="600.838" cy="-234" rx="59.5901" ry="18"/>
<text text-anchor="middle" x="600.838" y="-230.3" font-family="Times,serif" font-size="14.00">latlon_eastern</text>
</a>
</g>
</g>
<!-- eastern_boundaries&#45;&gt;latlon_eastern -->
<g id="edge18" class="edge"><title>eastern_boundaries&#45;&gt;latlon_eastern</title>
<g id="a_edge18"><a xlink:title="test">
<path fill="none" stroke="black" d="M480.634,-289.638C504.03,-279.004 535.294,-264.793 560.073,-253.53"/>
<polygon fill="black" stroke="black" points="561.567,-256.695 569.222,-249.371 558.67,-250.323 561.567,-256.695"/>
</a>
</g>
</g>
<!-- bioclim_raster -->
<g id="bioclim_raster" class="node"><title>bioclim_raster</title>
<g id="a_bioclim_raster"><a xlink:href="javascript:void();" xlink:title="bioclim_raster">
<ellipse fill="none" stroke="black" cx="892.838" cy="-450" rx="61.99" ry="18"/>
<text text-anchor="middle" x="892.838" y="-446.3" font-family="Times,serif" font-size="14.00">bioclim_raster</text>
</a>
</g>
</g>
<!-- bioclimNA_raster -->
<g id="bioclimNA_raster" class="node"><title>bioclimNA_raster</title>
<g id="a_bioclimNA_raster"><a xlink:href="javascript:void();" xlink:title="bioclimNA_raster">
<ellipse fill="none" stroke="black" cx="892.838" cy="-378" rx="74.9875" ry="18"/>
<text text-anchor="middle" x="892.838" y="-374.3" font-family="Times,serif" font-size="14.00">bioclimNA_raster</text>
</a>
</g>
</g>
<!-- bioclim_raster&#45;&gt;bioclimNA_raster -->
<g id="edge19" class="edge"><title>bioclim_raster&#45;&gt;bioclimNA_raster</title>
<g id="a_edge19"><a xlink:title="test">
<path fill="none" stroke="black" d="M892.838,-431.697C892.838,-423.983 892.838,-414.712 892.838,-406.112"/>
<polygon fill="black" stroke="black" points="896.338,-406.104 892.838,-396.104 889.338,-406.104 896.338,-406.104"/>
</a>
</g>
</g>
<!-- latlon_gbif&#45;&gt;latlon -->
<g id="edge20" class="edge"><title>latlon_gbif&#45;&gt;latlon</title>
<g id="a_edge20"><a xlink:title="test">
<path fill="none" stroke="black" d="M585.838,-431.697C585.838,-423.983 585.838,-414.712 585.838,-406.112"/>
<polygon fill="black" stroke="black" points="589.338,-406.104 585.838,-396.104 582.338,-406.104 589.338,-406.104"/>
</a>
</g>
</g>
<!-- future_predictors_2070_rcp26 -->
<g id="future_predictors_2070_rcp26" class="node"><title>future_predictors_2070_rcp26</title>
<g id="a_future_predictors_2070_rcp26"><a xlink:href="javascript:void();" xlink:title="future_predictors_2070_rcp26">
<ellipse fill="none" stroke="black" cx="765.838" cy="-522" rx="117.779" ry="18"/>
<text text-anchor="middle" x="765.838" y="-518.3" font-family="Times,serif" font-size="14.00">future_predictors_2070_rcp26</text>
</a>
</g>
</g>
<!-- latlon_eastern&#45;&gt;latlon_eastern_vals -->
<g id="edge21" class="edge"><title>latlon_eastern&#45;&gt;latlon_eastern_vals</title>
<g id="a_edge21"><a xlink:title="test">
<path fill="none" stroke="black" d="M606.406,-216.055C608.994,-208.176 612.135,-198.617 615.034,-189.794"/>
<polygon fill="black" stroke="black" points="618.365,-190.868 618.162,-180.275 611.715,-188.683 618.365,-190.868"/>
</a>
</g>
</g>
<!-- hwsdNAsp -->
<g id="hwsdNAsp" class="node"><title>hwsdNAsp</title>
<g id="a_hwsdNAsp"><a xlink:href="javascript:void();" xlink:title="hwsdNAsp">
<ellipse fill="none" stroke="black" cx="749.838" cy="-378" rx="50.0912" ry="18"/>
<text text-anchor="middle" x="749.838" y="-374.3" font-family="Times,serif" font-size="14.00">hwsdNAsp</text>
</a>
</g>
</g>
<!-- hwsdNAsp&#45;&gt;hwsdNA_raster -->
<g id="edge22" class="edge"><title>hwsdNAsp&#45;&gt;hwsdNA_raster</title>
<g id="a_edge22"><a xlink:title="test">
<path fill="none" stroke="black" d="M749.838,-359.697C749.838,-351.983 749.838,-342.712 749.838,-334.112"/>
<polygon fill="black" stroke="black" points="753.338,-334.104 749.838,-324.104 746.338,-334.104 753.338,-334.104"/>
</a>
</g>
</g>
<!-- ext -->
<g id="ext" class="node"><title>ext</title>
<g id="a_ext"><a xlink:href="javascript:void();" xlink:title="ext">
<ellipse fill="none" stroke="black" cx="679.838" cy="-450" rx="27" ry="18"/>
<text text-anchor="middle" x="679.838" y="-446.3" font-family="Times,serif" font-size="14.00">ext</text>
</a>
</g>
</g>
<!-- ext&#45;&gt;hwsdNA_raster -->
<g id="edge23" class="edge"><title>ext&#45;&gt;hwsdNA_raster</title>
<g id="a_edge23"><a xlink:title="test">
<path fill="none" stroke="black" d="M678.515,-431.891C677.819,-413.164 678.954,-382.775 690.838,-360 697.02,-348.153 706.995,-337.67 716.998,-329.221"/>
<polygon fill="black" stroke="black" points="719.306,-331.858 724.954,-322.894 714.949,-326.379 719.306,-331.858"/>
</a>
</g>
</g>
<!-- ext&#45;&gt;worldclim_2050_rcp26_NA -->
<g id="edge25" class="edge"><title>ext&#45;&gt;worldclim_2050_rcp26_NA</title>
<g id="a_edge25"><a xlink:title="test">
<path fill="none" stroke="black" d="M659.308,-438.05C654.352,-435.762 648.995,-433.57 643.838,-432 564.606,-407.879 471.831,-394.477 401.567,-387.187"/>
<polygon fill="black" stroke="black" points="401.669,-383.68 391.368,-386.156 400.965,-390.645 401.669,-383.68"/>
</a>
</g>
</g>
<!-- ext&#45;&gt;bioclimNA_raster -->
<g id="edge24" class="edge"><title>ext&#45;&gt;bioclimNA_raster</title>
<g id="a_edge24"><a xlink:title="test">
<path fill="none" stroke="black" d="M703.447,-441.241C736.375,-430.42 796.971,-410.505 840.77,-396.112"/>
<polygon fill="black" stroke="black" points="841.992,-399.394 850.4,-392.947 839.807,-392.744 841.992,-399.394"/>
</a>
</g>
</g>
<!-- latlon_bison&#45;&gt;latlon -->
<g id="edge26" class="edge"><title>latlon_bison&#45;&gt;latlon</title>
<g id="a_edge26"><a xlink:title="test">
<path fill="none" stroke="black" d="M490.499,-434.155C509.629,-423.088 535.81,-407.942 555.896,-396.322"/>
<polygon fill="black" stroke="black" points="557.746,-399.295 564.649,-391.258 554.24,-393.236 557.746,-399.295"/>
</a>
</g>
</g>
<!-- bc_model_eastern_nosquash&#45;&gt;dist_eastern_nosquash -->
<g id="edge27" class="edge"><title>bc_model_eastern_nosquash&#45;&gt;dist_eastern_nosquash</title>
<g id="a_edge27"><a xlink:title="test">
<path fill="none" stroke="black" d="M425.11,-75.7512C489.141,-63.5048 583.949,-45.3722 649.071,-32.9171"/>
<polygon fill="black" stroke="black" points="650.094,-36.285 659.259,-30.9687 648.779,-29.4096 650.094,-36.285"/>
</a>
</g>
</g>
<!-- bc_model_eastern_nosquash&#45;&gt;dist_2050_rcp26_eastern_nosquash -->
<g id="edge28" class="edge"><title>bc_model_eastern_nosquash&#45;&gt;dist_2050_rcp26_eastern_nosquash</title>
<g id="a_edge28"><a xlink:title="test">
<path fill="none" stroke="black" d="M307.558,-73.6382C274.492,-63.1172 230.425,-49.0957 195.21,-37.8913"/>
<polygon fill="black" stroke="black" points="196.12,-34.5078 185.53,-34.811 193.998,-41.1783 196.12,-34.5078"/>
</a>
</g>
</g>
<!-- latlon_sparse&#45;&gt;latlon_eastern -->
<g id="edge29" class="edge"><title>latlon_sparse&#45;&gt;latlon_eastern</title>
<g id="a_edge29"><a xlink:title="test">
<path fill="none" stroke="black" d="M600.838,-287.697C600.838,-279.983 600.838,-270.712 600.838,-262.112"/>
<polygon fill="black" stroke="black" points="604.338,-262.104 600.838,-252.104 597.338,-262.104 604.338,-262.104"/>
</a>
</g>
</g>
<!-- future_predictors_2050_rcp26&#45;&gt;dist_2050_rcp26_eastern_nosquash_nosoil -->
<g id="edge31" class="edge"><title>future_predictors_2050_rcp26&#45;&gt;dist_2050_rcp26_eastern_nosquash_nosoil</title>
<g id="a_edge31"><a xlink:title="test">
<path fill="none" stroke="black" d="M219.169,-143.913C217.102,-124.055 217.08,-91.5211 234.838,-72 250.064,-55.2628 296.494,-42.7721 342.519,-34.1341"/>
<polygon fill="black" stroke="black" points="343.419,-37.5279 352.631,-32.2948 342.166,-30.6409 343.419,-37.5279"/>
</a>
</g>
</g>
<!-- future_predictors_2050_rcp26&#45;&gt;dist_2050_rcp26_eastern_nosquash -->
<g id="edge30" class="edge"><title>future_predictors_2050_rcp26&#45;&gt;dist_2050_rcp26_eastern_nosquash</title>
<g id="a_edge30"><a xlink:title="test">
<path fill="none" stroke="black" d="M211.464,-143.871C196.549,-119.244 168.928,-73.6377 151.515,-44.8845"/>
<polygon fill="black" stroke="black" points="154.423,-42.9297 146.248,-36.1893 148.435,-46.556 154.423,-42.9297"/>
</a>
</g>
</g>
<!-- cucurbit_distanceNA_raster&#45;&gt;predictors -->
<g id="edge32" class="edge"><title>cucurbit_distanceNA_raster&#45;&gt;predictors</title>
<g id="a_edge32"><a xlink:title="test">
<path fill="none" stroke="black" d="M1024.89,-287.697C1022.67,-279.898 1019.98,-270.509 1017.5,-261.829"/>
<polygon fill="black" stroke="black" points="1020.84,-260.758 1014.72,-252.104 1014.11,-262.681 1020.84,-260.758"/>
</a>
</g>
</g>
<!-- bioclimNA_raster&#45;&gt;hwsdNA_raster -->
<g id="edge34" class="edge"><title>bioclimNA_raster&#45;&gt;hwsdNA_raster</title>
<g id="a_edge34"><a xlink:title="test">
<path fill="none" stroke="black" d="M861.456,-361.638C840.356,-351.31 812.365,-337.607 789.692,-326.509"/>
<polygon fill="black" stroke="black" points="791.176,-323.338 780.655,-322.085 788.098,-329.626 791.176,-323.338"/>
</a>
</g>
</g>
<!-- bioclimNA_raster&#45;&gt;predictors -->
<g id="edge35" class="edge"><title>bioclimNA_raster&#45;&gt;predictors</title>
<g id="a_edge35"><a xlink:title="test">
<path fill="none" stroke="black" d="M892.397,-359.867C892.757,-340.56 896.024,-309.121 911.838,-288 925.028,-270.383 945.851,-257.957 964.918,-249.587"/>
<polygon fill="black" stroke="black" points="966.473,-252.731 974.386,-245.686 963.806,-246.259 966.473,-252.731"/>
</a>
</g>
</g>
<!-- bioclimNA_raster&#45;&gt;cucurbit_distanceNA_raster -->
<g id="edge33" class="edge"><title>bioclimNA_raster&#45;&gt;cucurbit_distanceNA_raster</title>
<g id="a_edge33"><a xlink:title="test">
<path fill="none" stroke="black" d="M923.243,-361.465C942.47,-351.641 967.569,-338.816 988.581,-328.08"/>
<polygon fill="black" stroke="black" points="990.297,-331.134 997.609,-323.467 987.112,-324.9 990.297,-331.134"/>
</a>
</g>
</g>
<!-- worldclim_2050_rcp26 -->
<g id="worldclim_2050_rcp26" class="node"><title>worldclim_2050_rcp26</title>
<g id="a_worldclim_2050_rcp26"><a xlink:href="javascript:void();" xlink:title="worldclim_2050_rcp26">
<ellipse fill="none" stroke="black" cx="292.838" cy="-450" rx="93.6835" ry="18"/>
<text text-anchor="middle" x="292.838" y="-446.3" font-family="Times,serif" font-size="14.00">worldclim_2050_rcp26</text>
</a>
</g>
</g>
<!-- worldclim_2050_rcp26&#45;&gt;worldclim_2050_rcp26_NA -->
<g id="edge36" class="edge"><title>worldclim_2050_rcp26&#45;&gt;worldclim_2050_rcp26_NA</title>
<g id="a_edge36"><a xlink:title="test">
<path fill="none" stroke="black" d="M292.838,-431.697C292.838,-423.983 292.838,-414.712 292.838,-406.112"/>
<polygon fill="black" stroke="black" points="296.338,-406.104 292.838,-396.104 289.338,-406.104 296.338,-406.104"/>
</a>
</g>
</g>
</g>
</svg>
