<?xml version="1.0" encoding="UTF-8" standalone="no"?>
<!DOCTYPE svg PUBLIC "-//W3C//DTD SVG 1.1//EN"
 "http://www.w3.org/Graphics/SVG/1.1/DTD/svg11.dtd">
<!-- Generated by graphviz version 2.38.0 (20140413.2041)
 -->
<!-- Title: %3 Pages: 1 -->
<svg width="590pt" height="476pt"
 viewBox="0.00 0.00 590.44 476.00" xmlns="http://www.w3.org/2000/svg" xmlns:xlink="http://www.w3.org/1999/xlink">
<g id="graph0" class="graph" transform="scale(1 1) rotate(0) translate(4 472)">
<title>%3</title>
<polygon fill="white" stroke="none" points="-4,4 -4,-472 586.44,-472 586.44,4 -4,4"/>
<!-- eastern_boundaries -->
<g id="eastern_boundaries" class="node"><title>eastern_boundaries</title>
<g id="a_eastern_boundaries"><a xlink:href="javascript:void();" xlink:title="eastern_boundaries">
<ellipse fill="none" stroke="black" cx="91.3945" cy="-306" rx="78.7863" ry="18"/>
<text text-anchor="middle" x="91.3945" y="-302.3" font-family="Times,serif" font-size="14.00">eastern_boundaries</text>
</a>
</g>
</g>
<!-- latlon_eastern -->
<g id="latlon_eastern" class="node"><title>latlon_eastern</title>
<g id="a_latlon_eastern"><a xlink:href="javascript:void();" xlink:title="latlon_eastern">
<ellipse fill="none" stroke="black" cx="218.394" cy="-234" rx="59.5901" ry="18"/>
<text text-anchor="middle" x="218.394" y="-230.3" font-family="Times,serif" font-size="14.00">latlon_eastern</text>
</a>
</g>
</g>
<!-- eastern_boundaries&#45;&gt;latlon_eastern -->
<g id="edge1" class="edge"><title>eastern_boundaries&#45;&gt;latlon_eastern</title>
<g id="a_edge1"><a xlink:title="test">
<path fill="none" stroke="black" d="M120.213,-289.116C138.535,-279.017 162.413,-265.856 182.034,-255.041"/>
<polygon fill="black" stroke="black" points="183.928,-257.994 190.996,-250.101 180.549,-251.863 183.928,-257.994"/>
</a>
</g>
</g>
<!-- gbif_data -->
<g id="gbif_data" class="node"><title>gbif_data</title>
<g id="a_gbif_data"><a xlink:href="javascript:void();" xlink:title="gbif_data">
<ellipse fill="none" stroke="black" cx="209.394" cy="-450" rx="44.393" ry="18"/>
<text text-anchor="middle" x="209.394" y="-446.3" font-family="Times,serif" font-size="14.00">gbif_data</text>
</a>
</g>
</g>
<!-- latlon_gbif -->
<g id="latlon_gbif" class="node"><title>latlon_gbif</title>
<g id="a_latlon_gbif"><a xlink:href="javascript:void();" xlink:title="latlon_gbif">
<ellipse fill="none" stroke="black" cx="209.394" cy="-378" rx="49.2915" ry="18"/>
<text text-anchor="middle" x="209.394" y="-374.3" font-family="Times,serif" font-size="14.00">latlon_gbif</text>
</a>
</g>
</g>
<!-- gbif_data&#45;&gt;latlon_gbif -->
<g id="edge2" class="edge"><title>gbif_data&#45;&gt;latlon_gbif</title>
<g id="a_edge2"><a xlink:title="test">
<path fill="none" stroke="black" d="M209.394,-431.697C209.394,-423.983 209.394,-414.712 209.394,-406.112"/>
<polygon fill="black" stroke="black" points="212.895,-406.104 209.394,-396.104 205.895,-406.104 212.895,-406.104"/>
</a>
</g>
</g>
<!-- dist_eastern_nosoil -->
<g id="dist_eastern_nosoil" class="node"><title>dist_eastern_nosoil</title>
<g id="a_dist_eastern_nosoil"><a xlink:href="javascript:void();" xlink:title="dist_eastern_nosoil">
<ellipse fill="none" stroke="black" cx="308.394" cy="-18" rx="78.7863" ry="18"/>
<text text-anchor="middle" x="308.394" y="-14.3" font-family="Times,serif" font-size="14.00">dist_eastern_nosoil</text>
</a>
</g>
</g>
<!-- model_eastern_nosoil -->
<g id="model_eastern_nosoil" class="node"><title>model_eastern_nosoil</title>
<g id="a_model_eastern_nosoil"><a xlink:href="javascript:void();" xlink:title="model_eastern_nosoil">
<ellipse fill="none" stroke="black" cx="231.394" cy="-90" rx="88.2844" ry="18"/>
<text text-anchor="middle" x="231.394" y="-86.3" font-family="Times,serif" font-size="14.00">model_eastern_nosoil</text>
</a>
</g>
</g>
<!-- model_eastern_nosoil&#45;&gt;dist_eastern_nosoil -->
<g id="edge3" class="edge"><title>model_eastern_nosoil&#45;&gt;dist_eastern_nosoil</title>
<g id="a_edge3"><a xlink:title="test">
<path fill="none" stroke="black" d="M250.034,-72.055C259.847,-63.1336 272.032,-52.0572 282.725,-42.3361"/>
<polygon fill="black" stroke="black" points="285.147,-44.864 290.192,-35.5475 280.438,-39.6844 285.147,-44.864"/>
</a>
</g>
</g>
<!-- bioclim_raster -->
<g id="bioclim_raster" class="node"><title>bioclim_raster</title>
<g id="a_bioclim_raster"><a xlink:href="javascript:void();" xlink:title="bioclim_raster">
<ellipse fill="none" stroke="black" cx="347.394" cy="-450" rx="61.99" ry="18"/>
<text text-anchor="middle" x="347.394" y="-446.3" font-family="Times,serif" font-size="14.00">bioclim_raster</text>
</a>
</g>
</g>
<!-- bioclimNA_raster -->
<g id="bioclimNA_raster" class="node"><title>bioclimNA_raster</title>
<g id="a_bioclimNA_raster"><a xlink:href="javascript:void();" xlink:title="bioclimNA_raster">
<ellipse fill="none" stroke="black" cx="351.394" cy="-378" rx="74.9875" ry="18"/>
<text text-anchor="middle" x="351.394" y="-374.3" font-family="Times,serif" font-size="14.00">bioclimNA_raster</text>
</a>
</g>
</g>
<!-- bioclim_raster&#45;&gt;bioclimNA_raster -->
<g id="edge4" class="edge"><title>bioclim_raster&#45;&gt;bioclimNA_raster</title>
<g id="a_edge4"><a xlink:title="test">
<path fill="none" stroke="black" d="M348.383,-431.697C348.824,-423.983 349.354,-414.712 349.845,-406.112"/>
<polygon fill="black" stroke="black" points="353.341,-406.288 350.417,-396.104 346.352,-405.888 353.341,-406.288"/>
</a>
</g>
</g>
<!-- ext -->
<g id="ext" class="node"><title>ext</title>
<g id="a_ext"><a xlink:href="javascript:void();" xlink:title="ext">
<ellipse fill="none" stroke="black" cx="454.394" cy="-450" rx="27" ry="18"/>
<text text-anchor="middle" x="454.394" y="-446.3" font-family="Times,serif" font-size="14.00">ext</text>
</a>
</g>
</g>
<!-- ext&#45;&gt;bioclimNA_raster -->
<g id="edge5" class="edge"><title>ext&#45;&gt;bioclimNA_raster</title>
<g id="a_edge5"><a xlink:title="test">
<path fill="none" stroke="black" d="M435.98,-436.485C421.493,-426.64 400.949,-412.678 383.736,-400.979"/>
<polygon fill="black" stroke="black" points="385.325,-397.828 375.087,-395.102 381.391,-403.618 385.325,-397.828"/>
</a>
</g>
</g>
<!-- hwsdNA_raster -->
<g id="hwsdNA_raster" class="node"><title>hwsdNA_raster</title>
<g id="a_hwsdNA_raster"><a xlink:href="javascript:void();" xlink:title="hwsdNA_raster">
<ellipse fill="none" stroke="black" cx="450.394" cy="-306" rx="65.7887" ry="18"/>
<text text-anchor="middle" x="450.394" y="-302.3" font-family="Times,serif" font-size="14.00">hwsdNA_raster</text>
</a>
</g>
</g>
<!-- ext&#45;&gt;hwsdNA_raster -->
<g id="edge6" class="edge"><title>ext&#45;&gt;hwsdNA_raster</title>
<g id="a_edge6"><a xlink:title="test">
<path fill="none" stroke="black" d="M453.912,-431.871C453.23,-407.67 451.978,-363.211 451.166,-334.393"/>
<polygon fill="black" stroke="black" points="454.659,-334.087 450.879,-324.189 447.662,-334.284 454.659,-334.087"/>
</a>
</g>
</g>
<!-- latlon -->
<g id="latlon" class="node"><title>latlon</title>
<g id="a_latlon"><a xlink:href="javascript:void();" xlink:title="latlon">
<ellipse fill="none" stroke="black" cx="218.394" cy="-306" rx="30.5947" ry="18"/>
<text text-anchor="middle" x="218.394" y="-302.3" font-family="Times,serif" font-size="14.00">latlon</text>
</a>
</g>
</g>
<!-- latlon&#45;&gt;latlon_eastern -->
<g id="edge7" class="edge"><title>latlon&#45;&gt;latlon_eastern</title>
<g id="a_edge7"><a xlink:title="test">
<path fill="none" stroke="black" d="M218.394,-287.697C218.394,-279.983 218.394,-270.712 218.394,-262.112"/>
<polygon fill="black" stroke="black" points="221.895,-262.104 218.394,-252.104 214.895,-262.104 221.895,-262.104"/>
</a>
</g>
</g>
<!-- predictors -->
<g id="predictors" class="node"><title>predictors</title>
<g id="a_predictors"><a xlink:href="javascript:void();" xlink:title="predictors">
<ellipse fill="none" stroke="black" cx="351.394" cy="-234" rx="46.2923" ry="18"/>
<text text-anchor="middle" x="351.394" y="-230.3" font-family="Times,serif" font-size="14.00">predictors</text>
</a>
</g>
</g>
<!-- bioclimNA_raster&#45;&gt;predictors -->
<g id="edge8" class="edge"><title>bioclimNA_raster&#45;&gt;predictors</title>
<g id="a_edge8"><a xlink:title="test">
<path fill="none" stroke="black" d="M351.394,-359.871C351.394,-335.67 351.394,-291.211 351.394,-262.393"/>
<polygon fill="black" stroke="black" points="354.895,-262.189 351.394,-252.189 347.895,-262.189 354.895,-262.189"/>
</a>
</g>
</g>
<!-- bioclimNA_raster&#45;&gt;hwsdNA_raster -->
<g id="edge9" class="edge"><title>bioclimNA_raster&#45;&gt;hwsdNA_raster</title>
<g id="a_edge9"><a xlink:title="test">
<path fill="none" stroke="black" d="M374.356,-360.765C387.726,-351.311 404.763,-339.265 419.32,-328.972"/>
<polygon fill="black" stroke="black" points="421.413,-331.778 427.558,-323.147 417.372,-326.063 421.413,-331.778"/>
</a>
</g>
</g>
<!-- latlon_eastern_vals -->
<g id="latlon_eastern_vals" class="node"><title>latlon_eastern_vals</title>
<g id="a_latlon_eastern_vals"><a xlink:href="javascript:void();" xlink:title="latlon_eastern_vals">
<ellipse fill="none" stroke="black" cx="226.394" cy="-162" rx="78.7863" ry="18"/>
<text text-anchor="middle" x="226.394" y="-158.3" font-family="Times,serif" font-size="14.00">latlon_eastern_vals</text>
</a>
</g>
</g>
<!-- latlon_eastern&#45;&gt;latlon_eastern_vals -->
<g id="edge10" class="edge"><title>latlon_eastern&#45;&gt;latlon_eastern_vals</title>
<g id="a_edge10"><a xlink:title="test">
<path fill="none" stroke="black" d="M220.372,-215.697C221.254,-207.983 222.313,-198.712 223.296,-190.112"/>
<polygon fill="black" stroke="black" points="226.781,-190.437 224.44,-180.104 219.827,-189.642 226.781,-190.437"/>
</a>
</g>
</g>
<!-- latlon_gbif&#45;&gt;latlon -->
<g id="edge11" class="edge"><title>latlon_gbif&#45;&gt;latlon</title>
<g id="a_edge11"><a xlink:title="test">
<path fill="none" stroke="black" d="M211.619,-359.697C212.611,-351.983 213.803,-342.712 214.909,-334.112"/>
<polygon fill="black" stroke="black" points="218.391,-334.469 216.195,-324.104 211.449,-333.576 218.391,-334.469"/>
</a>
</g>
</g>
<!-- predictors&#45;&gt;dist_eastern_nosoil -->
<g id="edge14" class="edge"><title>predictors&#45;&gt;dist_eastern_nosoil</title>
<g id="a_edge14"><a xlink:title="test">
<path fill="none" stroke="black" d="M357.253,-215.737C366.546,-185.351 381.65,-120.901 361.394,-72 356.696,-60.6559 348.26,-50.474 339.481,-42.1386"/>
<polygon fill="black" stroke="black" points="341.57,-39.3139 331.763,-35.3062 336.93,-44.5552 341.57,-39.3139"/>
</a>
</g>
</g>
<!-- predictors&#45;&gt;latlon_eastern_vals -->
<g id="edge12" class="edge"><title>predictors&#45;&gt;latlon_eastern_vals</title>
<g id="a_edge12"><a xlink:title="test">
<path fill="none" stroke="black" d="M326.099,-218.834C308.158,-208.788 283.787,-195.14 263.631,-183.853"/>
<polygon fill="black" stroke="black" points="265.14,-180.686 254.705,-178.854 261.72,-186.794 265.14,-180.686"/>
</a>
</g>
</g>
<!-- dist_eastern -->
<g id="dist_eastern" class="node"><title>dist_eastern</title>
<g id="a_dist_eastern"><a xlink:href="javascript:void();" xlink:title="dist_eastern">
<ellipse fill="none" stroke="black" cx="149.394" cy="-18" rx="52.7911" ry="18"/>
<text text-anchor="middle" x="149.394" y="-14.3" font-family="Times,serif" font-size="14.00">dist_eastern</text>
</a>
</g>
</g>
<!-- predictors&#45;&gt;dist_eastern -->
<g id="edge13" class="edge"><title>predictors&#45;&gt;dist_eastern</title>
<g id="a_edge13"><a xlink:title="test">
<path fill="none" stroke="black" d="M354.445,-215.536C359.05,-183.076 363.831,-113.027 328.394,-72 319.872,-62.133 251.34,-43.7298 201.607,-31.4202"/>
<polygon fill="black" stroke="black" points="202.168,-27.9539 191.621,-28.9675 200.498,-34.7519 202.168,-27.9539"/>
</a>
</g>
</g>
<!-- latlon_eastern_vals&#45;&gt;model_eastern_nosoil -->
<g id="edge15" class="edge"><title>latlon_eastern_vals&#45;&gt;model_eastern_nosoil</title>
<g id="a_edge15"><a xlink:title="test">
<path fill="none" stroke="black" d="M227.63,-143.697C228.181,-135.983 228.844,-126.712 229.458,-118.112"/>
<polygon fill="black" stroke="black" points="232.951,-118.328 230.173,-108.104 225.969,-117.83 232.951,-118.328"/>
</a>
</g>
</g>
<!-- model_eastern -->
<g id="model_eastern" class="node"><title>model_eastern</title>
<g id="a_model_eastern"><a xlink:href="javascript:void();" xlink:title="model_eastern">
<ellipse fill="none" stroke="black" cx="62.3945" cy="-90" rx="62.2891" ry="18"/>
<text text-anchor="middle" x="62.3945" y="-86.3" font-family="Times,serif" font-size="14.00">model_eastern</text>
</a>
</g>
</g>
<!-- latlon_eastern_vals&#45;&gt;model_eastern -->
<g id="edge16" class="edge"><title>latlon_eastern_vals&#45;&gt;model_eastern</title>
<g id="a_edge16"><a xlink:title="test">
<path fill="none" stroke="black" d="M190.809,-145.811C165.722,-135.103 131.993,-120.707 105.398,-109.355"/>
<polygon fill="black" stroke="black" points="106.523,-106.03 95.9517,-105.323 103.775,-112.468 106.523,-106.03"/>
</a>
</g>
</g>
<!-- hwsdNA_raster&#45;&gt;predictors -->
<g id="edge17" class="edge"><title>hwsdNA_raster&#45;&gt;predictors</title>
<g id="a_edge17"><a xlink:title="test">
<path fill="none" stroke="black" d="M427.433,-288.765C413.681,-279.041 396.05,-266.575 381.228,-256.094"/>
<polygon fill="black" stroke="black" points="383.062,-253.105 372.876,-250.189 379.02,-258.82 383.062,-253.105"/>
</a>
</g>
</g>
<!-- model_eastern&#45;&gt;dist_eastern -->
<g id="edge18" class="edge"><title>model_eastern&#45;&gt;dist_eastern</title>
<g id="a_edge18"><a xlink:title="test">
<path fill="none" stroke="black" d="M82.5727,-72.7646C94.1846,-63.4217 108.944,-51.5461 121.637,-41.3336"/>
<polygon fill="black" stroke="black" points="124.028,-43.9017 129.626,-34.906 119.64,-38.4478 124.028,-43.9017"/>
</a>
</g>
</g>
<!-- hwsdNAsp -->
<g id="hwsdNAsp" class="node"><title>hwsdNAsp</title>
<g id="a_hwsdNAsp"><a xlink:href="javascript:void();" xlink:title="hwsdNAsp">
<ellipse fill="none" stroke="black" cx="532.394" cy="-378" rx="50.0912" ry="18"/>
<text text-anchor="middle" x="532.394" y="-374.3" font-family="Times,serif" font-size="14.00">hwsdNAsp</text>
</a>
</g>
</g>
<!-- hwsdNAsp&#45;&gt;hwsdNA_raster -->
<g id="edge19" class="edge"><title>hwsdNAsp&#45;&gt;hwsdNA_raster</title>
<g id="a_edge19"><a xlink:title="test">
<path fill="none" stroke="black" d="M513.787,-361.116C503.037,-351.939 489.325,-340.233 477.405,-330.057"/>
<polygon fill="black" stroke="black" points="479.375,-327.138 469.497,-323.307 474.83,-332.462 479.375,-327.138"/>
</a>
</g>
</g>
</g>
</svg>
