<?xml version="1.0" encoding="UTF-8" standalone="no"?>
<!DOCTYPE svg PUBLIC "-//W3C//DTD SVG 1.1//EN"
 "http://www.w3.org/Graphics/SVG/1.1/DTD/svg11.dtd">
<!-- Generated by graphviz version 2.38.0 (20140413.2041)
 -->
<!-- Title: %3 Pages: 1 -->
<svg width="841pt" height="548pt"
 viewBox="0.00 0.00 840.88 548.00" xmlns="http://www.w3.org/2000/svg" xmlns:xlink="http://www.w3.org/1999/xlink">
<g id="graph0" class="graph" transform="scale(1 1) rotate(0) translate(4 544)">
<title>%3</title>
<polygon fill="white" stroke="none" points="-4,4 -4,-544 836.88,-544 836.88,4 -4,4"/>
<!-- latlon_eastern -->
<g id="latlon_eastern" class="node"><title>latlon_eastern</title>
<g id="a_latlon_eastern"><a xlink:href="javascript:void();" xlink:title="latlon_eastern">
<ellipse fill="none" stroke="black" cx="333.69" cy="-234" rx="59.5901" ry="18"/>
<text text-anchor="middle" x="333.69" y="-230.3" font-family="Times,serif" font-size="14.00">latlon_eastern</text>
</a>
</g>
</g>
<!-- latlon_eastern_vals -->
<g id="latlon_eastern_vals" class="node"><title>latlon_eastern_vals</title>
<g id="a_latlon_eastern_vals"><a xlink:href="javascript:void();" xlink:title="latlon_eastern_vals">
<ellipse fill="none" stroke="black" cx="423.69" cy="-162" rx="78.7863" ry="18"/>
<text text-anchor="middle" x="423.69" y="-158.3" font-family="Times,serif" font-size="14.00">latlon_eastern_vals</text>
</a>
</g>
</g>
<!-- latlon_eastern&#45;&gt;latlon_eastern_vals -->
<g id="edge1" class="edge"><title>latlon_eastern&#45;&gt;latlon_eastern_vals</title>
<g id="a_edge1"><a xlink:title="test">
<path fill="none" stroke="black" d="M354.564,-216.765C366.406,-207.554 381.412,-195.882 394.415,-185.769"/>
<polygon fill="black" stroke="black" points="396.872,-188.292 402.617,-179.39 392.575,-182.766 396.872,-188.292"/>
</a>
</g>
</g>
<!-- latlon_discoverlife -->
<g id="latlon_discoverlife" class="node"><title>latlon_discoverlife</title>
<g id="a_latlon_discoverlife"><a xlink:href="javascript:void();" xlink:title="latlon_discoverlife">
<ellipse fill="none" stroke="black" cx="262.69" cy="-450" rx="76.8869" ry="18"/>
<text text-anchor="middle" x="262.69" y="-446.3" font-family="Times,serif" font-size="14.00">latlon_discoverlife</text>
</a>
</g>
</g>
<!-- latlon -->
<g id="latlon" class="node"><title>latlon</title>
<g id="a_latlon"><a xlink:href="javascript:void();" xlink:title="latlon">
<ellipse fill="none" stroke="black" cx="297.69" cy="-378" rx="30.5947" ry="18"/>
<text text-anchor="middle" x="297.69" y="-374.3" font-family="Times,serif" font-size="14.00">latlon</text>
</a>
</g>
</g>
<!-- latlon_discoverlife&#45;&gt;latlon -->
<g id="edge2" class="edge"><title>latlon_discoverlife&#45;&gt;latlon</title>
<g id="a_edge2"><a xlink:title="test">
<path fill="none" stroke="black" d="M271.162,-432.055C275.246,-423.887 280.234,-413.912 284.778,-404.824"/>
<polygon fill="black" stroke="black" points="287.954,-406.299 289.295,-395.789 281.693,-403.168 287.954,-406.299"/>
</a>
</g>
</g>
<!-- bison_data -->
<g id="bison_data" class="node"><title>bison_data</title>
<g id="a_bison_data"><a xlink:href="javascript:void();" xlink:title="bison_data">
<ellipse fill="none" stroke="black" cx="411.69" cy="-522" rx="48.9926" ry="18"/>
<text text-anchor="middle" x="411.69" y="-518.3" font-family="Times,serif" font-size="14.00">bison_data</text>
</a>
</g>
</g>
<!-- latlon_bison -->
<g id="latlon_bison" class="node"><title>latlon_bison</title>
<g id="a_latlon_bison"><a xlink:href="javascript:void();" xlink:title="latlon_bison">
<ellipse fill="none" stroke="black" cx="411.69" cy="-450" rx="53.8905" ry="18"/>
<text text-anchor="middle" x="411.69" y="-446.3" font-family="Times,serif" font-size="14.00">latlon_bison</text>
</a>
</g>
</g>
<!-- bison_data&#45;&gt;latlon_bison -->
<g id="edge3" class="edge"><title>bison_data&#45;&gt;latlon_bison</title>
<g id="a_edge3"><a xlink:title="test">
<path fill="none" stroke="black" d="M411.69,-503.697C411.69,-495.983 411.69,-486.712 411.69,-478.112"/>
<polygon fill="black" stroke="black" points="415.19,-478.104 411.69,-468.104 408.19,-478.104 415.19,-478.104"/>
</a>
</g>
</g>
<!-- predictors -->
<g id="predictors" class="node"><title>predictors</title>
<g id="a_predictors"><a xlink:href="javascript:void();" xlink:title="predictors">
<ellipse fill="none" stroke="black" cx="539.69" cy="-234" rx="46.2923" ry="18"/>
<text text-anchor="middle" x="539.69" y="-230.3" font-family="Times,serif" font-size="14.00">predictors</text>
</a>
</g>
</g>
<!-- predictors&#45;&gt;latlon_eastern_vals -->
<g id="edge6" class="edge"><title>predictors&#45;&gt;latlon_eastern_vals</title>
<g id="a_edge6"><a xlink:title="test">
<path fill="none" stroke="black" d="M515.654,-218.496C499.344,-208.653 477.501,-195.472 459.195,-184.426"/>
<polygon fill="black" stroke="black" points="460.903,-181.368 450.532,-179.198 457.286,-187.362 460.903,-181.368"/>
</a>
</g>
</g>
<!-- dist_eastern_nosoil -->
<g id="dist_eastern_nosoil" class="node"><title>dist_eastern_nosoil</title>
<g id="a_dist_eastern_nosoil"><a xlink:href="javascript:void();" xlink:title="dist_eastern_nosoil">
<ellipse fill="none" stroke="black" cx="481.69" cy="-18" rx="78.7863" ry="18"/>
<text text-anchor="middle" x="481.69" y="-14.3" font-family="Times,serif" font-size="14.00">dist_eastern_nosoil</text>
</a>
</g>
</g>
<!-- predictors&#45;&gt;dist_eastern_nosoil -->
<g id="edge4" class="edge"><title>predictors&#45;&gt;dist_eastern_nosoil</title>
<g id="a_edge4"><a xlink:title="test">
<path fill="none" stroke="black" d="M540.48,-215.856C541.268,-185.654 540.219,-121.48 520.69,-72 516.726,-61.9581 510.375,-52.1079 503.938,-43.6763"/>
<polygon fill="black" stroke="black" points="506.56,-41.3514 497.558,-35.7629 501.11,-45.7448 506.56,-41.3514"/>
</a>
</g>
</g>
<!-- dist_eastern_nosquash -->
<g id="dist_eastern_nosquash" class="node"><title>dist_eastern_nosquash</title>
<g id="a_dist_eastern_nosquash"><a xlink:href="javascript:void();" xlink:title="dist_eastern_nosquash">
<ellipse fill="none" stroke="black" cx="729.69" cy="-18" rx="89.8845" ry="18"/>
<text text-anchor="middle" x="729.69" y="-14.3" font-family="Times,serif" font-size="14.00">dist_eastern_nosquash</text>
</a>
</g>
</g>
<!-- predictors&#45;&gt;dist_eastern_nosquash -->
<g id="edge7" class="edge"><title>predictors&#45;&gt;dist_eastern_nosquash</title>
<g id="a_edge7"><a xlink:title="test">
<path fill="none" stroke="black" d="M580.047,-224.896C635.264,-211.4 732.33,-178.511 774.69,-108 787.485,-86.7019 771.796,-61.3161 755.536,-43.1173"/>
<polygon fill="black" stroke="black" points="758.025,-40.6559 748.613,-35.7908 752.937,-45.4633 758.025,-40.6559"/>
</a>
</g>
</g>
<!-- dist_eastern_nosquash_nosoil -->
<g id="dist_eastern_nosquash_nosoil" class="node"><title>dist_eastern_nosquash_nosoil</title>
<g id="a_dist_eastern_nosquash_nosoil"><a xlink:href="javascript:void();" xlink:title="dist_eastern_nosquash_nosoil">
<ellipse fill="none" stroke="black" cx="115.69" cy="-18" rx="115.88" ry="18"/>
<text text-anchor="middle" x="115.69" y="-14.3" font-family="Times,serif" font-size="14.00">dist_eastern_nosquash_nosoil</text>
</a>
</g>
</g>
<!-- predictors&#45;&gt;dist_eastern_nosquash_nosoil -->
<g id="edge5" class="edge"><title>predictors&#45;&gt;dist_eastern_nosquash_nosoil</title>
<g id="a_edge5"><a xlink:title="test">
<path fill="none" stroke="black" d="M498.913,-225.368C387.65,-204.142 85.2651,-143.639 57.6897,-108 41.1044,-86.5649 62.6722,-60.4118 84.0558,-42.0205"/>
<polygon fill="black" stroke="black" points="86.3456,-44.6691 91.8546,-35.6191 81.9044,-39.2584 86.3456,-44.6691"/>
</a>
</g>
</g>
<!-- model_eastern_nosquash_nosoil -->
<g id="model_eastern_nosquash_nosoil" class="node"><title>model_eastern_nosquash_nosoil</title>
<g id="a_model_eastern_nosquash_nosoil"><a xlink:href="javascript:void();" xlink:title="model_eastern_nosquash_nosoil">
<ellipse fill="none" stroke="black" cx="191.69" cy="-90" rx="125.378" ry="18"/>
<text text-anchor="middle" x="191.69" y="-86.3" font-family="Times,serif" font-size="14.00">model_eastern_nosquash_nosoil</text>
</a>
</g>
</g>
<!-- model_eastern_nosquash_nosoil&#45;&gt;dist_eastern_nosquash_nosoil -->
<g id="edge8" class="edge"><title>model_eastern_nosquash_nosoil&#45;&gt;dist_eastern_nosquash_nosoil</title>
<g id="a_edge8"><a xlink:title="test">
<path fill="none" stroke="black" d="M173.292,-72.055C163.77,-63.2847 151.987,-52.4318 141.564,-42.8312"/>
<polygon fill="black" stroke="black" points="143.644,-39.9894 133.918,-35.789 138.902,-45.1382 143.644,-39.9894"/>
</a>
</g>
</g>
<!-- model_eastern_nosquash -->
<g id="model_eastern_nosquash" class="node"><title>model_eastern_nosquash</title>
<g id="a_model_eastern_nosquash"><a xlink:href="javascript:void();" xlink:title="model_eastern_nosquash">
<ellipse fill="none" stroke="black" cx="666.69" cy="-90" rx="99.3824" ry="18"/>
<text text-anchor="middle" x="666.69" y="-86.3" font-family="Times,serif" font-size="14.00">model_eastern_nosquash</text>
</a>
</g>
</g>
<!-- model_eastern_nosquash&#45;&gt;dist_eastern_nosquash -->
<g id="edge9" class="edge"><title>model_eastern_nosquash&#45;&gt;dist_eastern_nosquash</title>
<g id="a_edge9"><a xlink:title="test">
<path fill="none" stroke="black" d="M681.94,-72.055C689.679,-63.4567 699.219,-52.8566 707.732,-43.3974"/>
<polygon fill="black" stroke="black" points="710.491,-45.5634 714.58,-35.789 705.288,-40.8806 710.491,-45.5634"/>
</a>
</g>
</g>
<!-- cucurbit_points -->
<g id="cucurbit_points" class="node"><title>cucurbit_points</title>
<g id="a_cucurbit_points"><a xlink:href="javascript:void();" xlink:title="cucurbit_points">
<ellipse fill="none" stroke="black" cx="753.69" cy="-378" rx="65.7887" ry="18"/>
<text text-anchor="middle" x="753.69" y="-374.3" font-family="Times,serif" font-size="14.00">cucurbit_points</text>
</a>
</g>
</g>
<!-- cucurbit_distanceNA_raster -->
<g id="cucurbit_distanceNA_raster" class="node"><title>cucurbit_distanceNA_raster</title>
<g id="a_cucurbit_distanceNA_raster"><a xlink:href="javascript:void();" xlink:title="cucurbit_distanceNA_raster">
<ellipse fill="none" stroke="black" cx="723.69" cy="-306" rx="109.381" ry="18"/>
<text text-anchor="middle" x="723.69" y="-302.3" font-family="Times,serif" font-size="14.00">cucurbit_distanceNA_raster</text>
</a>
</g>
</g>
<!-- cucurbit_points&#45;&gt;cucurbit_distanceNA_raster -->
<g id="edge10" class="edge"><title>cucurbit_points&#45;&gt;cucurbit_distanceNA_raster</title>
<g id="a_edge10"><a xlink:title="test">
<path fill="none" stroke="black" d="M746.428,-360.055C743.015,-352.091 738.866,-342.411 735.051,-333.51"/>
<polygon fill="black" stroke="black" points="738.25,-332.088 731.093,-324.275 731.816,-334.845 738.25,-332.088"/>
</a>
</g>
</g>
<!-- hwsdNAsp -->
<g id="hwsdNAsp" class="node"><title>hwsdNAsp</title>
<g id="a_hwsdNAsp"><a xlink:href="javascript:void();" xlink:title="hwsdNAsp">
<ellipse fill="none" stroke="black" cx="414.69" cy="-378" rx="50.0912" ry="18"/>
<text text-anchor="middle" x="414.69" y="-374.3" font-family="Times,serif" font-size="14.00">hwsdNAsp</text>
</a>
</g>
</g>
<!-- hwsdNA_raster -->
<g id="hwsdNA_raster" class="node"><title>hwsdNA_raster</title>
<g id="a_hwsdNA_raster"><a xlink:href="javascript:void();" xlink:title="hwsdNA_raster">
<ellipse fill="none" stroke="black" cx="492.69" cy="-306" rx="65.7887" ry="18"/>
<text text-anchor="middle" x="492.69" y="-302.3" font-family="Times,serif" font-size="14.00">hwsdNA_raster</text>
</a>
</g>
</g>
<!-- hwsdNAsp&#45;&gt;hwsdNA_raster -->
<g id="edge11" class="edge"><title>hwsdNAsp&#45;&gt;hwsdNA_raster</title>
<g id="a_edge11"><a xlink:title="test">
<path fill="none" stroke="black" d="M432.389,-361.116C442.615,-351.939 455.659,-340.233 466.997,-330.057"/>
<polygon fill="black" stroke="black" points="469.414,-332.591 474.519,-323.307 464.739,-327.381 469.414,-332.591"/>
</a>
</g>
</g>
<!-- latlon_sparse -->
<g id="latlon_sparse" class="node"><title>latlon_sparse</title>
<g id="a_latlon_sparse"><a xlink:href="javascript:void();" xlink:title="latlon_sparse">
<ellipse fill="none" stroke="black" cx="333.69" cy="-306" rx="57.3905" ry="18"/>
<text text-anchor="middle" x="333.69" y="-302.3" font-family="Times,serif" font-size="14.00">latlon_sparse</text>
</a>
</g>
</g>
<!-- latlon_sparse&#45;&gt;latlon_eastern -->
<g id="edge12" class="edge"><title>latlon_sparse&#45;&gt;latlon_eastern</title>
<g id="a_edge12"><a xlink:title="test">
<path fill="none" stroke="black" d="M333.69,-287.697C333.69,-279.983 333.69,-270.712 333.69,-262.112"/>
<polygon fill="black" stroke="black" points="337.19,-262.104 333.69,-252.104 330.19,-262.104 337.19,-262.104"/>
</a>
</g>
</g>
<!-- latlon_eastern_vals&#45;&gt;model_eastern_nosquash_nosoil -->
<g id="edge14" class="edge"><title>latlon_eastern_vals&#45;&gt;model_eastern_nosquash_nosoil</title>
<g id="a_edge14"><a xlink:title="test">
<path fill="none" stroke="black" d="M378.131,-147.254C342.365,-136.462 292.221,-121.333 252.943,-109.481"/>
<polygon fill="black" stroke="black" points="253.791,-106.082 243.206,-106.544 251.769,-112.783 253.791,-106.082"/>
</a>
</g>
</g>
<!-- latlon_eastern_vals&#45;&gt;model_eastern_nosquash -->
<g id="edge15" class="edge"><title>latlon_eastern_vals&#45;&gt;model_eastern_nosquash</title>
<g id="a_edge15"><a xlink:title="test">
<path fill="none" stroke="black" d="M470.543,-147.503C509.23,-136.359 564.402,-120.466 606.384,-108.372"/>
<polygon fill="black" stroke="black" points="607.57,-111.673 616.211,-105.541 605.633,-104.946 607.57,-111.673"/>
</a>
</g>
</g>
<!-- model_eastern_nosoil -->
<g id="model_eastern_nosoil" class="node"><title>model_eastern_nosoil</title>
<g id="a_model_eastern_nosoil"><a xlink:href="javascript:void();" xlink:title="model_eastern_nosoil">
<ellipse fill="none" stroke="black" cx="423.69" cy="-90" rx="88.2844" ry="18"/>
<text text-anchor="middle" x="423.69" y="-86.3" font-family="Times,serif" font-size="14.00">model_eastern_nosoil</text>
</a>
</g>
</g>
<!-- latlon_eastern_vals&#45;&gt;model_eastern_nosoil -->
<g id="edge13" class="edge"><title>latlon_eastern_vals&#45;&gt;model_eastern_nosoil</title>
<g id="a_edge13"><a xlink:title="test">
<path fill="none" stroke="black" d="M423.69,-143.697C423.69,-135.983 423.69,-126.712 423.69,-118.112"/>
<polygon fill="black" stroke="black" points="427.19,-118.104 423.69,-108.104 420.19,-118.104 427.19,-118.104"/>
</a>
</g>
</g>
<!-- gbif_data -->
<g id="gbif_data" class="node"><title>gbif_data</title>
<g id="a_gbif_data"><a xlink:href="javascript:void();" xlink:title="gbif_data">
<ellipse fill="none" stroke="black" cx="118.69" cy="-522" rx="44.393" ry="18"/>
<text text-anchor="middle" x="118.69" y="-518.3" font-family="Times,serif" font-size="14.00">gbif_data</text>
</a>
</g>
</g>
<!-- latlon_gbif -->
<g id="latlon_gbif" class="node"><title>latlon_gbif</title>
<g id="a_latlon_gbif"><a xlink:href="javascript:void();" xlink:title="latlon_gbif">
<ellipse fill="none" stroke="black" cx="118.69" cy="-450" rx="49.2915" ry="18"/>
<text text-anchor="middle" x="118.69" y="-446.3" font-family="Times,serif" font-size="14.00">latlon_gbif</text>
</a>
</g>
</g>
<!-- gbif_data&#45;&gt;latlon_gbif -->
<g id="edge16" class="edge"><title>gbif_data&#45;&gt;latlon_gbif</title>
<g id="a_edge16"><a xlink:title="test">
<path fill="none" stroke="black" d="M118.69,-503.697C118.69,-495.983 118.69,-486.712 118.69,-478.112"/>
<polygon fill="black" stroke="black" points="122.19,-478.104 118.69,-468.104 115.19,-478.104 122.19,-478.104"/>
</a>
</g>
</g>
<!-- ext -->
<g id="ext" class="node"><title>ext</title>
<g id="a_ext"><a xlink:href="javascript:void();" xlink:title="ext">
<ellipse fill="none" stroke="black" cx="510.69" cy="-450" rx="27" ry="18"/>
<text text-anchor="middle" x="510.69" y="-446.3" font-family="Times,serif" font-size="14.00">ext</text>
</a>
</g>
</g>
<!-- bioclimNA_raster -->
<g id="bioclimNA_raster" class="node"><title>bioclimNA_raster</title>
<g id="a_bioclimNA_raster"><a xlink:href="javascript:void();" xlink:title="bioclimNA_raster">
<ellipse fill="none" stroke="black" cx="595.69" cy="-378" rx="74.9875" ry="18"/>
<text text-anchor="middle" x="595.69" y="-374.3" font-family="Times,serif" font-size="14.00">bioclimNA_raster</text>
</a>
</g>
</g>
<!-- ext&#45;&gt;bioclimNA_raster -->
<g id="edge18" class="edge"><title>ext&#45;&gt;bioclimNA_raster</title>
<g id="a_edge18"><a xlink:title="test">
<path fill="none" stroke="black" d="M527.079,-435.503C538.584,-426.028 554.259,-413.12 567.721,-402.033"/>
<polygon fill="black" stroke="black" points="570.267,-404.471 575.761,-395.412 565.817,-399.067 570.267,-404.471"/>
</a>
</g>
</g>
<!-- ext&#45;&gt;hwsdNA_raster -->
<g id="edge17" class="edge"><title>ext&#45;&gt;hwsdNA_raster</title>
<g id="a_edge17"><a xlink:title="test">
<path fill="none" stroke="black" d="M508.519,-431.871C505.451,-407.67 499.815,-363.211 496.162,-334.393"/>
<polygon fill="black" stroke="black" points="499.598,-333.67 494.869,-324.189 492.654,-334.55 499.598,-333.67"/>
</a>
</g>
</g>
<!-- bioclim_raster -->
<g id="bioclim_raster" class="node"><title>bioclim_raster</title>
<g id="a_bioclim_raster"><a xlink:href="javascript:void();" xlink:title="bioclim_raster">
<ellipse fill="none" stroke="black" cx="617.69" cy="-450" rx="61.99" ry="18"/>
<text text-anchor="middle" x="617.69" y="-446.3" font-family="Times,serif" font-size="14.00">bioclim_raster</text>
</a>
</g>
</g>
<!-- bioclim_raster&#45;&gt;bioclimNA_raster -->
<g id="edge19" class="edge"><title>bioclim_raster&#45;&gt;bioclimNA_raster</title>
<g id="a_edge19"><a xlink:title="test">
<path fill="none" stroke="black" d="M612.364,-432.055C609.915,-424.261 606.948,-414.822 604.2,-406.079"/>
<polygon fill="black" stroke="black" points="607.456,-404.766 601.119,-396.275 600.778,-406.865 607.456,-404.766"/>
</a>
</g>
</g>
<!-- bioclimNA_raster&#45;&gt;predictors -->
<g id="edge20" class="edge"><title>bioclimNA_raster&#45;&gt;predictors</title>
<g id="a_edge20"><a xlink:title="test">
<path fill="none" stroke="black" d="M591.315,-359.944C586.431,-341.785 577.86,-312.365 567.69,-288 563.863,-278.832 558.996,-269.131 554.398,-260.569"/>
<polygon fill="black" stroke="black" points="557.462,-258.879 549.575,-251.806 551.33,-262.254 557.462,-258.879"/>
</a>
</g>
</g>
<!-- bioclimNA_raster&#45;&gt;hwsdNA_raster -->
<g id="edge22" class="edge"><title>bioclimNA_raster&#45;&gt;hwsdNA_raster</title>
<g id="a_edge22"><a xlink:title="test">
<path fill="none" stroke="black" d="M571.801,-360.765C557.791,-351.244 539.912,-339.093 524.696,-328.752"/>
<polygon fill="black" stroke="black" points="526.332,-325.632 516.094,-322.906 522.398,-331.422 526.332,-325.632"/>
</a>
</g>
</g>
<!-- bioclimNA_raster&#45;&gt;cucurbit_distanceNA_raster -->
<g id="edge21" class="edge"><title>bioclimNA_raster&#45;&gt;cucurbit_distanceNA_raster</title>
<g id="a_edge21"><a xlink:title="test">
<path fill="none" stroke="black" d="M624.415,-361.291C642.232,-351.547 665.353,-338.903 684.798,-328.269"/>
<polygon fill="black" stroke="black" points="686.631,-331.256 693.725,-323.387 683.272,-325.114 686.631,-331.256"/>
</a>
</g>
</g>
<!-- model_eastern_nosoil&#45;&gt;dist_eastern_nosoil -->
<g id="edge23" class="edge"><title>model_eastern_nosoil&#45;&gt;dist_eastern_nosoil</title>
<g id="a_edge23"><a xlink:title="test">
<path fill="none" stroke="black" d="M437.73,-72.055C444.783,-63.5427 453.462,-53.0684 461.239,-43.6815"/>
<polygon fill="black" stroke="black" points="464.094,-45.7223 467.779,-35.789 458.704,-41.2562 464.094,-45.7223"/>
</a>
</g>
</g>
<!-- hwsdNA_raster&#45;&gt;predictors -->
<g id="edge24" class="edge"><title>hwsdNA_raster&#45;&gt;predictors</title>
<g id="a_edge24"><a xlink:title="test">
<path fill="none" stroke="black" d="M504.067,-288.055C509.667,-279.715 516.532,-269.491 522.735,-260.252"/>
<polygon fill="black" stroke="black" points="525.749,-262.042 528.417,-251.789 519.937,-258.14 525.749,-262.042"/>
</a>
</g>
</g>
<!-- latlon_bison&#45;&gt;latlon -->
<g id="edge25" class="edge"><title>latlon_bison&#45;&gt;latlon</title>
<g id="a_edge25"><a xlink:title="test">
<path fill="none" stroke="black" d="M386.953,-433.811C369.283,-422.961 345.444,-408.323 326.846,-396.903"/>
<polygon fill="black" stroke="black" points="328.541,-393.837 318.188,-391.587 324.878,-399.802 328.541,-393.837"/>
</a>
</g>
</g>
<!-- latlon_gbif&#45;&gt;latlon -->
<g id="edge26" class="edge"><title>latlon_gbif&#45;&gt;latlon</title>
<g id="a_edge26"><a xlink:title="test">
<path fill="none" stroke="black" d="M151.105,-436.324C182.879,-423.898 231.126,-405.031 263.497,-392.372"/>
<polygon fill="black" stroke="black" points="264.959,-395.558 272.997,-388.656 262.409,-389.039 264.959,-395.558"/>
</a>
</g>
</g>
<!-- latlon&#45;&gt;latlon_sparse -->
<g id="edge27" class="edge"><title>latlon&#45;&gt;latlon_sparse</title>
<g id="a_edge27"><a xlink:title="test">
<path fill="none" stroke="black" d="M306.221,-360.411C310.419,-352.249 315.576,-342.22 320.285,-333.065"/>
<polygon fill="black" stroke="black" points="323.508,-334.45 324.969,-323.956 317.283,-331.248 323.508,-334.45"/>
</a>
</g>
</g>
<!-- latlon_constraint -->
<g id="latlon_constraint" class="node"><title>latlon_constraint</title>
<g id="a_latlon_constraint"><a xlink:href="javascript:void();" xlink:title="latlon_constraint">
<ellipse fill="none" stroke="black" cx="188.69" cy="-306" rx="69.5877" ry="18"/>
<text text-anchor="middle" x="188.69" y="-302.3" font-family="Times,serif" font-size="14.00">latlon_constraint</text>
</a>
</g>
</g>
<!-- latlon_constraint&#45;&gt;latlon_eastern -->
<g id="edge28" class="edge"><title>latlon_constraint&#45;&gt;latlon_eastern</title>
<g id="a_edge28"><a xlink:title="test">
<path fill="none" stroke="black" d="M220.153,-289.811C241.822,-279.35 270.783,-265.369 294.032,-254.145"/>
<polygon fill="black" stroke="black" points="295.798,-257.179 303.282,-249.68 292.755,-250.875 295.798,-257.179"/>
</a>
</g>
</g>
<!-- cucurbit_distanceNA_raster&#45;&gt;predictors -->
<g id="edge29" class="edge"><title>cucurbit_distanceNA_raster&#45;&gt;predictors</title>
<g id="a_edge29"><a xlink:title="test">
<path fill="none" stroke="black" d="M682.397,-289.291C652.184,-277.797 611.362,-262.267 581.118,-250.761"/>
<polygon fill="black" stroke="black" points="582.288,-247.461 571.697,-247.177 579.799,-254.004 582.288,-247.461"/>
</a>
</g>
</g>
</g>
</svg>
