<?xml version="1.0" encoding="UTF-8" standalone="no"?>
<!DOCTYPE svg PUBLIC "-//W3C//DTD SVG 1.1//EN"
 "http://www.w3.org/Graphics/SVG/1.1/DTD/svg11.dtd">
<!-- Generated by graphviz version 2.38.0 (20140413.2041)
 -->
<!-- Title: %3 Pages: 1 -->
<svg width="891pt" height="548pt"
 viewBox="0.00 0.00 890.88 548.00" xmlns="http://www.w3.org/2000/svg" xmlns:xlink="http://www.w3.org/1999/xlink">
<g id="graph0" class="graph" transform="scale(1 1) rotate(0) translate(4 544)">
<title>%3</title>
<polygon fill="white" stroke="none" points="-4,4 -4,-544 886.882,-544 886.882,4 -4,4"/>
<!-- predictors -->
<g id="predictors" class="node"><title>predictors</title>
<g id="a_predictors"><a xlink:href="javascript:void();" xlink:title="predictors">
<ellipse fill="none" stroke="black" cx="548.692" cy="-234" rx="46.2923" ry="18"/>
<text text-anchor="middle" x="548.692" y="-230.3" font-family="Times,serif" font-size="14.00">predictors</text>
</a>
</g>
</g>
<!-- latlon_eastern_vals -->
<g id="latlon_eastern_vals" class="node"><title>latlon_eastern_vals</title>
<g id="a_latlon_eastern_vals"><a xlink:href="javascript:void();" xlink:title="latlon_eastern_vals">
<ellipse fill="none" stroke="black" cx="395.692" cy="-162" rx="78.7863" ry="18"/>
<text text-anchor="middle" x="395.692" y="-158.3" font-family="Times,serif" font-size="14.00">latlon_eastern_vals</text>
</a>
</g>
</g>
<!-- predictors&#45;&gt;latlon_eastern_vals -->
<g id="edge1" class="edge"><title>predictors&#45;&gt;latlon_eastern_vals</title>
<g id="a_edge1"><a xlink:title="test">
<path fill="none" stroke="black" d="M519.914,-219.834C496.939,-209.322 464.404,-194.437 438.393,-182.537"/>
<polygon fill="black" stroke="black" points="439.685,-179.279 429.136,-178.301 436.773,-185.644 439.685,-179.279"/>
</a>
</g>
</g>
<!-- dist_eastern_nosquash -->
<g id="dist_eastern_nosquash" class="node"><title>dist_eastern_nosquash</title>
<g id="a_dist_eastern_nosquash"><a xlink:href="javascript:void();" xlink:title="dist_eastern_nosquash">
<ellipse fill="none" stroke="black" cx="89.692" cy="-18" rx="89.8845" ry="18"/>
<text text-anchor="middle" x="89.692" y="-14.3" font-family="Times,serif" font-size="14.00">dist_eastern_nosquash</text>
</a>
</g>
</g>
<!-- predictors&#45;&gt;dist_eastern_nosquash -->
<g id="edge2" class="edge"><title>predictors&#45;&gt;dist_eastern_nosquash</title>
<g id="a_edge2"><a xlink:title="test">
<path fill="none" stroke="black" d="M507.269,-225.768C391.87,-205.208 73.2999,-145.492 44.692,-108 29.4365,-88.0067 45.979,-62.0499 63.1473,-43.3332"/>
<polygon fill="black" stroke="black" points="66.0076,-45.4108 70.4526,-35.7934 60.9803,-40.5398 66.0076,-45.4108"/>
</a>
</g>
</g>
<!-- dist_eastern_nosoil -->
<g id="dist_eastern_nosoil" class="node"><title>dist_eastern_nosoil</title>
<g id="a_dist_eastern_nosoil"><a xlink:href="javascript:void();" xlink:title="dist_eastern_nosoil">
<ellipse fill="none" stroke="black" cx="722.692" cy="-18" rx="78.7863" ry="18"/>
<text text-anchor="middle" x="722.692" y="-14.3" font-family="Times,serif" font-size="14.00">dist_eastern_nosoil</text>
</a>
</g>
</g>
<!-- predictors&#45;&gt;dist_eastern_nosoil -->
<g id="edge4" class="edge"><title>predictors&#45;&gt;dist_eastern_nosoil</title>
<g id="a_edge4"><a xlink:title="test">
<path fill="none" stroke="black" d="M586.251,-223.451C636.593,-208.402 723.98,-173.858 761.692,-108 773.614,-87.1799 760.253,-62.0249 746.022,-43.777"/>
<polygon fill="black" stroke="black" points="748.585,-41.3852 739.509,-35.9193 743.196,-45.8521 748.585,-41.3852"/>
</a>
</g>
</g>
<!-- dist_eastern_nosquash_nosoil -->
<g id="dist_eastern_nosquash_nosoil" class="node"><title>dist_eastern_nosquash_nosoil</title>
<g id="a_dist_eastern_nosquash_nosoil"><a xlink:href="javascript:void();" xlink:title="dist_eastern_nosquash_nosoil">
<ellipse fill="none" stroke="black" cx="452.692" cy="-18" rx="115.88" ry="18"/>
<text text-anchor="middle" x="452.692" y="-14.3" font-family="Times,serif" font-size="14.00">dist_eastern_nosquash_nosoil</text>
</a>
</g>
</g>
<!-- predictors&#45;&gt;dist_eastern_nosquash_nosoil -->
<g id="edge3" class="edge"><title>predictors&#45;&gt;dist_eastern_nosquash_nosoil</title>
<g id="a_edge3"><a xlink:title="test">
<path fill="none" stroke="black" d="M551.062,-215.545C554.399,-184.297 557.31,-117.792 529.692,-72 521.929,-59.1281 509.703,-48.6324 497.26,-40.4786"/>
<polygon fill="black" stroke="black" points="499.018,-37.4509 488.664,-35.2073 495.359,-43.4184 499.018,-37.4509"/>
</a>
</g>
</g>
<!-- model_eastern_nosquash -->
<g id="model_eastern_nosquash" class="node"><title>model_eastern_nosquash</title>
<g id="a_model_eastern_nosquash"><a xlink:href="javascript:void();" xlink:title="model_eastern_nosquash">
<ellipse fill="none" stroke="black" cx="152.692" cy="-90" rx="99.3824" ry="18"/>
<text text-anchor="middle" x="152.692" y="-86.3" font-family="Times,serif" font-size="14.00">model_eastern_nosquash</text>
</a>
</g>
</g>
<!-- latlon_eastern_vals&#45;&gt;model_eastern_nosquash -->
<g id="edge5" class="edge"><title>latlon_eastern_vals&#45;&gt;model_eastern_nosquash</title>
<g id="a_edge5"><a xlink:title="test">
<path fill="none" stroke="black" d="M348.839,-147.503C310.152,-136.359 254.98,-120.466 212.998,-108.372"/>
<polygon fill="black" stroke="black" points="213.749,-104.946 203.171,-105.541 211.811,-111.673 213.749,-104.946"/>
</a>
</g>
</g>
<!-- model_eastern_nosquash_nosoil -->
<g id="model_eastern_nosquash_nosoil" class="node"><title>model_eastern_nosquash_nosoil</title>
<g id="a_model_eastern_nosquash_nosoil"><a xlink:href="javascript:void();" xlink:title="model_eastern_nosquash_nosoil">
<ellipse fill="none" stroke="black" cx="395.692" cy="-90" rx="125.378" ry="18"/>
<text text-anchor="middle" x="395.692" y="-86.3" font-family="Times,serif" font-size="14.00">model_eastern_nosquash_nosoil</text>
</a>
</g>
</g>
<!-- latlon_eastern_vals&#45;&gt;model_eastern_nosquash_nosoil -->
<g id="edge6" class="edge"><title>latlon_eastern_vals&#45;&gt;model_eastern_nosquash_nosoil</title>
<g id="a_edge6"><a xlink:title="test">
<path fill="none" stroke="black" d="M395.692,-143.697C395.692,-135.983 395.692,-126.712 395.692,-118.112"/>
<polygon fill="black" stroke="black" points="399.192,-118.104 395.692,-108.104 392.192,-118.104 399.192,-118.104"/>
</a>
</g>
</g>
<!-- model_eastern_nosoil -->
<g id="model_eastern_nosoil" class="node"><title>model_eastern_nosoil</title>
<g id="a_model_eastern_nosoil"><a xlink:href="javascript:void();" xlink:title="model_eastern_nosoil">
<ellipse fill="none" stroke="black" cx="664.692" cy="-90" rx="88.2844" ry="18"/>
<text text-anchor="middle" x="664.692" y="-86.3" font-family="Times,serif" font-size="14.00">model_eastern_nosoil</text>
</a>
</g>
</g>
<!-- latlon_eastern_vals&#45;&gt;model_eastern_nosoil -->
<g id="edge7" class="edge"><title>latlon_eastern_vals&#45;&gt;model_eastern_nosoil</title>
<g id="a_edge7"><a xlink:title="test">
<path fill="none" stroke="black" d="M445.658,-147.998C489.915,-136.481 554.708,-119.62 602.346,-107.224"/>
<polygon fill="black" stroke="black" points="603.441,-110.556 612.238,-104.65 601.678,-103.781 603.441,-110.556"/>
</a>
</g>
</g>
<!-- latlon_sparse -->
<g id="latlon_sparse" class="node"><title>latlon_sparse</title>
<g id="a_latlon_sparse"><a xlink:href="javascript:void();" xlink:title="latlon_sparse">
<ellipse fill="none" stroke="black" cx="380.692" cy="-306" rx="57.3905" ry="18"/>
<text text-anchor="middle" x="380.692" y="-302.3" font-family="Times,serif" font-size="14.00">latlon_sparse</text>
</a>
</g>
</g>
<!-- latlon_eastern -->
<g id="latlon_eastern" class="node"><title>latlon_eastern</title>
<g id="a_latlon_eastern"><a xlink:href="javascript:void();" xlink:title="latlon_eastern">
<ellipse fill="none" stroke="black" cx="380.692" cy="-234" rx="59.5901" ry="18"/>
<text text-anchor="middle" x="380.692" y="-230.3" font-family="Times,serif" font-size="14.00">latlon_eastern</text>
</a>
</g>
</g>
<!-- latlon_sparse&#45;&gt;latlon_eastern -->
<g id="edge8" class="edge"><title>latlon_sparse&#45;&gt;latlon_eastern</title>
<g id="a_edge8"><a xlink:title="test">
<path fill="none" stroke="black" d="M380.692,-287.697C380.692,-279.983 380.692,-270.712 380.692,-262.112"/>
<polygon fill="black" stroke="black" points="384.192,-262.104 380.692,-252.104 377.192,-262.104 384.192,-262.104"/>
</a>
</g>
</g>
<!-- hwsdNA_raster -->
<g id="hwsdNA_raster" class="node"><title>hwsdNA_raster</title>
<g id="a_hwsdNA_raster"><a xlink:href="javascript:void();" xlink:title="hwsdNA_raster">
<ellipse fill="none" stroke="black" cx="542.692" cy="-306" rx="65.7887" ry="18"/>
<text text-anchor="middle" x="542.692" y="-302.3" font-family="Times,serif" font-size="14.00">hwsdNA_raster</text>
</a>
</g>
</g>
<!-- hwsdNA_raster&#45;&gt;predictors -->
<g id="edge9" class="edge"><title>hwsdNA_raster&#45;&gt;predictors</title>
<g id="a_edge9"><a xlink:title="test">
<path fill="none" stroke="black" d="M544.175,-287.697C544.836,-279.983 545.631,-270.712 546.368,-262.112"/>
<polygon fill="black" stroke="black" points="549.859,-262.367 547.226,-252.104 542.885,-261.769 549.859,-262.367"/>
</a>
</g>
</g>
<!-- ext -->
<g id="ext" class="node"><title>ext</title>
<g id="a_ext"><a xlink:href="javascript:void();" xlink:title="ext">
<ellipse fill="none" stroke="black" cx="552.692" cy="-450" rx="27" ry="18"/>
<text text-anchor="middle" x="552.692" y="-446.3" font-family="Times,serif" font-size="14.00">ext</text>
</a>
</g>
</g>
<!-- ext&#45;&gt;hwsdNA_raster -->
<g id="edge11" class="edge"><title>ext&#45;&gt;hwsdNA_raster</title>
<g id="a_edge11"><a xlink:title="test">
<path fill="none" stroke="black" d="M551.486,-431.871C549.781,-407.67 546.651,-363.211 544.621,-334.393"/>
<polygon fill="black" stroke="black" points="548.096,-333.919 543.903,-324.189 541.114,-334.41 548.096,-333.919"/>
</a>
</g>
</g>
<!-- bioclimNA_raster -->
<g id="bioclimNA_raster" class="node"><title>bioclimNA_raster</title>
<g id="a_bioclimNA_raster"><a xlink:href="javascript:void();" xlink:title="bioclimNA_raster">
<ellipse fill="none" stroke="black" cx="645.692" cy="-378" rx="74.9875" ry="18"/>
<text text-anchor="middle" x="645.692" y="-374.3" font-family="Times,serif" font-size="14.00">bioclimNA_raster</text>
</a>
</g>
</g>
<!-- ext&#45;&gt;bioclimNA_raster -->
<g id="edge10" class="edge"><title>ext&#45;&gt;bioclimNA_raster</title>
<g id="a_edge10"><a xlink:title="test">
<path fill="none" stroke="black" d="M570.185,-435.834C583.059,-426.143 600.874,-412.734 615.966,-401.375"/>
<polygon fill="black" stroke="black" points="618.137,-404.121 624.022,-395.311 613.927,-398.529 618.137,-404.121"/>
</a>
</g>
</g>
<!-- bioclim_raster -->
<g id="bioclim_raster" class="node"><title>bioclim_raster</title>
<g id="a_bioclim_raster"><a xlink:href="javascript:void();" xlink:title="bioclim_raster">
<ellipse fill="none" stroke="black" cx="659.692" cy="-450" rx="61.99" ry="18"/>
<text text-anchor="middle" x="659.692" y="-446.3" font-family="Times,serif" font-size="14.00">bioclim_raster</text>
</a>
</g>
</g>
<!-- bioclim_raster&#45;&gt;bioclimNA_raster -->
<g id="edge12" class="edge"><title>bioclim_raster&#45;&gt;bioclimNA_raster</title>
<g id="a_edge12"><a xlink:title="test">
<path fill="none" stroke="black" d="M656.231,-431.697C654.689,-423.983 652.835,-414.712 651.115,-406.112"/>
<polygon fill="black" stroke="black" points="654.506,-405.224 649.113,-396.104 647.642,-406.597 654.506,-405.224"/>
</a>
</g>
</g>
<!-- latlon_bison -->
<g id="latlon_bison" class="node"><title>latlon_bison</title>
<g id="a_latlon_bison"><a xlink:href="javascript:void();" xlink:title="latlon_bison">
<ellipse fill="none" stroke="black" cx="337.692" cy="-450" rx="53.8905" ry="18"/>
<text text-anchor="middle" x="337.692" y="-446.3" font-family="Times,serif" font-size="14.00">latlon_bison</text>
</a>
</g>
</g>
<!-- latlon -->
<g id="latlon" class="node"><title>latlon</title>
<g id="a_latlon"><a xlink:href="javascript:void();" xlink:title="latlon">
<ellipse fill="none" stroke="black" cx="346.692" cy="-378" rx="30.5947" ry="18"/>
<text text-anchor="middle" x="346.692" y="-374.3" font-family="Times,serif" font-size="14.00">latlon</text>
</a>
</g>
</g>
<!-- latlon_bison&#45;&gt;latlon -->
<g id="edge13" class="edge"><title>latlon_bison&#45;&gt;latlon</title>
<g id="a_edge13"><a xlink:title="test">
<path fill="none" stroke="black" d="M339.917,-431.697C340.909,-423.983 342.1,-414.712 343.206,-406.112"/>
<polygon fill="black" stroke="black" points="346.689,-406.469 344.493,-396.104 339.746,-405.576 346.689,-406.469"/>
</a>
</g>
</g>
<!-- cucurbit_distanceNA_raster -->
<g id="cucurbit_distanceNA_raster" class="node"><title>cucurbit_distanceNA_raster</title>
<g id="a_cucurbit_distanceNA_raster"><a xlink:href="javascript:void();" xlink:title="cucurbit_distanceNA_raster">
<ellipse fill="none" stroke="black" cx="773.692" cy="-306" rx="109.381" ry="18"/>
<text text-anchor="middle" x="773.692" y="-302.3" font-family="Times,serif" font-size="14.00">cucurbit_distanceNA_raster</text>
</a>
</g>
</g>
<!-- cucurbit_distanceNA_raster&#45;&gt;predictors -->
<g id="edge14" class="edge"><title>cucurbit_distanceNA_raster&#45;&gt;predictors</title>
<g id="a_edge14"><a xlink:title="test">
<path fill="none" stroke="black" d="M724.87,-289.811C685.836,-277.667 631.552,-260.779 593.59,-248.968"/>
<polygon fill="black" stroke="black" points="594.415,-245.56 583.827,-245.931 592.336,-252.244 594.415,-245.56"/>
</a>
</g>
</g>
<!-- bison_data -->
<g id="bison_data" class="node"><title>bison_data</title>
<g id="a_bison_data"><a xlink:href="javascript:void();" xlink:title="bison_data">
<ellipse fill="none" stroke="black" cx="337.692" cy="-522" rx="48.9926" ry="18"/>
<text text-anchor="middle" x="337.692" y="-518.3" font-family="Times,serif" font-size="14.00">bison_data</text>
</a>
</g>
</g>
<!-- bison_data&#45;&gt;latlon_bison -->
<g id="edge15" class="edge"><title>bison_data&#45;&gt;latlon_bison</title>
<g id="a_edge15"><a xlink:title="test">
<path fill="none" stroke="black" d="M337.692,-503.697C337.692,-495.983 337.692,-486.712 337.692,-478.112"/>
<polygon fill="black" stroke="black" points="341.192,-478.104 337.692,-468.104 334.192,-478.104 341.192,-478.104"/>
</a>
</g>
</g>
<!-- cucurbit_points -->
<g id="cucurbit_points" class="node"><title>cucurbit_points</title>
<g id="a_cucurbit_points"><a xlink:href="javascript:void();" xlink:title="cucurbit_points">
<ellipse fill="none" stroke="black" cx="803.692" cy="-378" rx="65.7887" ry="18"/>
<text text-anchor="middle" x="803.692" y="-374.3" font-family="Times,serif" font-size="14.00">cucurbit_points</text>
</a>
</g>
</g>
<!-- cucurbit_points&#45;&gt;cucurbit_distanceNA_raster -->
<g id="edge16" class="edge"><title>cucurbit_points&#45;&gt;cucurbit_distanceNA_raster</title>
<g id="a_edge16"><a xlink:title="test">
<path fill="none" stroke="black" d="M796.43,-360.055C793.017,-352.091 788.868,-342.411 785.053,-333.51"/>
<polygon fill="black" stroke="black" points="788.252,-332.088 781.096,-324.275 781.818,-334.845 788.252,-332.088"/>
</a>
</g>
</g>
<!-- gbif_data -->
<g id="gbif_data" class="node"><title>gbif_data</title>
<g id="a_gbif_data"><a xlink:href="javascript:void();" xlink:title="gbif_data">
<ellipse fill="none" stroke="black" cx="458.692" cy="-522" rx="44.393" ry="18"/>
<text text-anchor="middle" x="458.692" y="-518.3" font-family="Times,serif" font-size="14.00">gbif_data</text>
</a>
</g>
</g>
<!-- latlon_gbif -->
<g id="latlon_gbif" class="node"><title>latlon_gbif</title>
<g id="a_latlon_gbif"><a xlink:href="javascript:void();" xlink:title="latlon_gbif">
<ellipse fill="none" stroke="black" cx="458.692" cy="-450" rx="49.2915" ry="18"/>
<text text-anchor="middle" x="458.692" y="-446.3" font-family="Times,serif" font-size="14.00">latlon_gbif</text>
</a>
</g>
</g>
<!-- gbif_data&#45;&gt;latlon_gbif -->
<g id="edge17" class="edge"><title>gbif_data&#45;&gt;latlon_gbif</title>
<g id="a_edge17"><a xlink:title="test">
<path fill="none" stroke="black" d="M458.692,-503.697C458.692,-495.983 458.692,-486.712 458.692,-478.112"/>
<polygon fill="black" stroke="black" points="462.192,-478.104 458.692,-468.104 455.192,-478.104 462.192,-478.104"/>
</a>
</g>
</g>
<!-- model_eastern_nosquash&#45;&gt;dist_eastern_nosquash -->
<g id="edge18" class="edge"><title>model_eastern_nosquash&#45;&gt;dist_eastern_nosquash</title>
<g id="a_edge18"><a xlink:title="test">
<path fill="none" stroke="black" d="M137.441,-72.055C129.703,-63.4567 120.163,-52.8566 111.65,-43.3974"/>
<polygon fill="black" stroke="black" points="114.093,-40.8806 104.802,-35.789 108.89,-45.5634 114.093,-40.8806"/>
</a>
</g>
</g>
<!-- model_eastern_nosquash_nosoil&#45;&gt;dist_eastern_nosquash_nosoil -->
<g id="edge19" class="edge"><title>model_eastern_nosquash_nosoil&#45;&gt;dist_eastern_nosquash_nosoil</title>
<g id="a_edge19"><a xlink:title="test">
<path fill="none" stroke="black" d="M409.49,-72.055C416.32,-63.6679 424.7,-53.376 432.256,-44.0963"/>
<polygon fill="black" stroke="black" points="435.025,-46.2397 438.625,-36.2753 429.597,-41.8197 435.025,-46.2397"/>
</a>
</g>
</g>
<!-- hwsdNAsp -->
<g id="hwsdNAsp" class="node"><title>hwsdNAsp</title>
<g id="a_hwsdNAsp"><a xlink:href="javascript:void();" xlink:title="hwsdNAsp">
<ellipse fill="none" stroke="black" cx="464.692" cy="-378" rx="50.0912" ry="18"/>
<text text-anchor="middle" x="464.692" y="-374.3" font-family="Times,serif" font-size="14.00">hwsdNAsp</text>
</a>
</g>
</g>
<!-- hwsdNAsp&#45;&gt;hwsdNA_raster -->
<g id="edge20" class="edge"><title>hwsdNAsp&#45;&gt;hwsdNA_raster</title>
<g id="a_edge20"><a xlink:title="test">
<path fill="none" stroke="black" d="M482.391,-361.116C492.617,-351.939 505.661,-340.233 517,-330.057"/>
<polygon fill="black" stroke="black" points="519.417,-332.591 524.521,-323.307 514.741,-327.381 519.417,-332.591"/>
</a>
</g>
</g>
<!-- latlon&#45;&gt;latlon_sparse -->
<g id="edge21" class="edge"><title>latlon&#45;&gt;latlon_sparse</title>
<g id="a_edge21"><a xlink:title="test">
<path fill="none" stroke="black" d="M354.75,-360.411C358.714,-352.249 363.585,-342.22 368.032,-333.065"/>
<polygon fill="black" stroke="black" points="371.235,-334.48 372.456,-323.956 364.939,-331.422 371.235,-334.48"/>
</a>
</g>
</g>
<!-- latlon_gbif&#45;&gt;latlon -->
<g id="edge22" class="edge"><title>latlon_gbif&#45;&gt;latlon</title>
<g id="a_edge22"><a xlink:title="test">
<path fill="none" stroke="black" d="M434.94,-434.155C417.612,-423.325 394.037,-408.591 375.612,-397.075"/>
<polygon fill="black" stroke="black" points="377.366,-394.044 367.031,-391.712 373.656,-399.98 377.366,-394.044"/>
</a>
</g>
</g>
<!-- latlon_discoverlife -->
<g id="latlon_discoverlife" class="node"><title>latlon_discoverlife</title>
<g id="a_latlon_discoverlife"><a xlink:href="javascript:void();" xlink:title="latlon_discoverlife">
<ellipse fill="none" stroke="black" cx="188.692" cy="-450" rx="76.8869" ry="18"/>
<text text-anchor="middle" x="188.692" y="-446.3" font-family="Times,serif" font-size="14.00">latlon_discoverlife</text>
</a>
</g>
</g>
<!-- latlon_discoverlife&#45;&gt;latlon -->
<g id="edge23" class="edge"><title>latlon_discoverlife&#45;&gt;latlon</title>
<g id="a_edge23"><a xlink:title="test">
<path fill="none" stroke="black" d="M222.976,-433.811C249.812,-421.921 286.914,-405.484 313.474,-393.717"/>
<polygon fill="black" stroke="black" points="315.018,-396.861 322.744,-389.61 312.183,-390.461 315.018,-396.861"/>
</a>
</g>
</g>
<!-- bioclimNA_raster&#45;&gt;predictors -->
<g id="edge24" class="edge"><title>bioclimNA_raster&#45;&gt;predictors</title>
<g id="a_edge24"><a xlink:title="test">
<path fill="none" stroke="black" d="M643.457,-359.904C640.301,-340.915 633.102,-310.035 617.692,-288 608.548,-274.925 595.203,-263.617 582.681,-254.844"/>
<polygon fill="black" stroke="black" points="584.465,-251.826 574.205,-249.184 580.578,-257.648 584.465,-251.826"/>
</a>
</g>
</g>
<!-- bioclimNA_raster&#45;&gt;hwsdNA_raster -->
<g id="edge26" class="edge"><title>bioclimNA_raster&#45;&gt;hwsdNA_raster</title>
<g id="a_edge26"><a xlink:title="test">
<path fill="none" stroke="black" d="M621.803,-360.765C607.794,-351.244 589.914,-339.093 574.698,-328.752"/>
<polygon fill="black" stroke="black" points="576.335,-325.632 566.097,-322.906 572.4,-331.422 576.335,-325.632"/>
</a>
</g>
</g>
<!-- bioclimNA_raster&#45;&gt;cucurbit_distanceNA_raster -->
<g id="edge25" class="edge"><title>bioclimNA_raster&#45;&gt;cucurbit_distanceNA_raster</title>
<g id="a_edge25"><a xlink:title="test">
<path fill="none" stroke="black" d="M674.418,-361.291C692.234,-351.547 715.355,-338.903 734.801,-328.269"/>
<polygon fill="black" stroke="black" points="736.633,-331.256 743.727,-323.387 733.274,-325.114 736.633,-331.256"/>
</a>
</g>
</g>
<!-- model_eastern_nosoil&#45;&gt;dist_eastern_nosoil -->
<g id="edge27" class="edge"><title>model_eastern_nosoil&#45;&gt;dist_eastern_nosoil</title>
<g id="a_edge27"><a xlink:title="test">
<path fill="none" stroke="black" d="M678.732,-72.055C685.785,-63.5427 694.464,-53.0684 702.242,-43.6815"/>
<polygon fill="black" stroke="black" points="705.096,-45.7223 708.781,-35.789 699.706,-41.2562 705.096,-45.7223"/>
</a>
</g>
</g>
<!-- latlon_constraint -->
<g id="latlon_constraint" class="node"><title>latlon_constraint</title>
<g id="a_latlon_constraint"><a xlink:href="javascript:void();" xlink:title="latlon_constraint">
<ellipse fill="none" stroke="black" cx="235.692" cy="-306" rx="69.5877" ry="18"/>
<text text-anchor="middle" x="235.692" y="-302.3" font-family="Times,serif" font-size="14.00">latlon_constraint</text>
</a>
</g>
</g>
<!-- latlon_constraint&#45;&gt;latlon_eastern -->
<g id="edge28" class="edge"><title>latlon_constraint&#45;&gt;latlon_eastern</title>
<g id="a_edge28"><a xlink:title="test">
<path fill="none" stroke="black" d="M267.155,-289.811C288.824,-279.35 317.786,-265.369 341.034,-254.145"/>
<polygon fill="black" stroke="black" points="342.8,-257.179 350.284,-249.68 339.757,-250.875 342.8,-257.179"/>
</a>
</g>
</g>
<!-- latlon_eastern&#45;&gt;latlon_eastern_vals -->
<g id="edge29" class="edge"><title>latlon_eastern&#45;&gt;latlon_eastern_vals</title>
<g id="a_edge29"><a xlink:title="test">
<path fill="none" stroke="black" d="M384.4,-215.697C386.053,-207.983 388.039,-198.712 389.882,-190.112"/>
<polygon fill="black" stroke="black" points="393.354,-190.616 392.027,-180.104 386.509,-189.149 393.354,-190.616"/>
</a>
</g>
</g>
</g>
</svg>
