<?xml version="1.0" encoding="UTF-8" standalone="no"?>
<!DOCTYPE svg PUBLIC "-//W3C//DTD SVG 1.1//EN"
 "http://www.w3.org/Graphics/SVG/1.1/DTD/svg11.dtd">
<!-- Generated by graphviz version 2.38.0 (20140413.2041)
 -->
<!-- Title: %3 Pages: 1 -->
<svg width="1261pt" height="548pt"
 viewBox="0.00 0.00 1261.48 548.00" xmlns="http://www.w3.org/2000/svg" xmlns:xlink="http://www.w3.org/1999/xlink">
<g id="graph0" class="graph" transform="scale(1 1) rotate(0) translate(4 544)">
<title>%3</title>
<polygon fill="white" stroke="none" points="-4,4 -4,-544 1257.48,-544 1257.48,4 -4,4"/>
<!-- latlon -->
<g id="latlon" class="node"><title>latlon</title>
<g id="a_latlon"><a xlink:href="javascript:void();" xlink:title="latlon">
<ellipse fill="none" stroke="black" cx="792.836" cy="-378" rx="30.5947" ry="18"/>
<text text-anchor="middle" x="792.836" y="-374.3" font-family="Times,serif" font-size="14.00">latlon</text>
</a>
</g>
</g>
<!-- latlon_sparse -->
<g id="latlon_sparse" class="node"><title>latlon_sparse</title>
<g id="a_latlon_sparse"><a xlink:href="javascript:void();" xlink:title="latlon_sparse">
<ellipse fill="none" stroke="black" cx="830.836" cy="-306" rx="57.3905" ry="18"/>
<text text-anchor="middle" x="830.836" y="-302.3" font-family="Times,serif" font-size="14.00">latlon_sparse</text>
</a>
</g>
</g>
<!-- latlon&#45;&gt;latlon_sparse -->
<g id="edge1" class="edge"><title>latlon&#45;&gt;latlon_sparse</title>
<g id="a_edge1"><a xlink:title="test">
<path fill="none" stroke="black" d="M801.649,-360.765C806.122,-352.525 811.664,-342.317 816.713,-333.016"/>
<polygon fill="black" stroke="black" points="819.845,-334.582 821.54,-324.124 813.693,-331.243 819.845,-334.582"/>
</a>
</g>
</g>
<!-- latlon_eastern_vals -->
<g id="latlon_eastern_vals" class="node"><title>latlon_eastern_vals</title>
<g id="a_latlon_eastern_vals"><a xlink:href="javascript:void();" xlink:title="latlon_eastern_vals">
<ellipse fill="none" stroke="black" cx="782.836" cy="-162" rx="78.7863" ry="18"/>
<text text-anchor="middle" x="782.836" y="-158.3" font-family="Times,serif" font-size="14.00">latlon_eastern_vals</text>
</a>
</g>
</g>
<!-- bc_model_eastern_nosquash_nosoil -->
<g id="bc_model_eastern_nosquash_nosoil" class="node"><title>bc_model_eastern_nosquash_nosoil</title>
<g id="a_bc_model_eastern_nosquash_nosoil"><a xlink:href="javascript:void();" xlink:title="bc_model_eastern_nosquash_nosoil">
<ellipse fill="none" stroke="black" cx="506.836" cy="-90" rx="137.576" ry="18"/>
<text text-anchor="middle" x="506.836" y="-86.3" font-family="Times,serif" font-size="14.00">bc_model_eastern_nosquash_nosoil</text>
</a>
</g>
</g>
<!-- latlon_eastern_vals&#45;&gt;bc_model_eastern_nosquash_nosoil -->
<g id="edge3" class="edge"><title>latlon_eastern_vals&#45;&gt;bc_model_eastern_nosquash_nosoil</title>
<g id="a_edge3"><a xlink:title="test">
<path fill="none" stroke="black" d="M732.213,-148.161C688.681,-137.12 625.442,-121.081 577.024,-108.802"/>
<polygon fill="black" stroke="black" points="577.793,-105.386 567.24,-106.32 576.072,-112.171 577.793,-105.386"/>
</a>
</g>
</g>
<!-- bc_model_eastern_nosquash -->
<g id="bc_model_eastern_nosquash" class="node"><title>bc_model_eastern_nosquash</title>
<g id="a_bc_model_eastern_nosquash"><a xlink:href="javascript:void();" xlink:title="bc_model_eastern_nosquash">
<ellipse fill="none" stroke="black" cx="774.836" cy="-90" rx="112.38" ry="18"/>
<text text-anchor="middle" x="774.836" y="-86.3" font-family="Times,serif" font-size="14.00">bc_model_eastern_nosquash</text>
</a>
</g>
</g>
<!-- latlon_eastern_vals&#45;&gt;bc_model_eastern_nosquash -->
<g id="edge2" class="edge"><title>latlon_eastern_vals&#45;&gt;bc_model_eastern_nosquash</title>
<g id="a_edge2"><a xlink:title="test">
<path fill="none" stroke="black" d="M780.858,-143.697C779.977,-135.983 778.917,-126.712 777.934,-118.112"/>
<polygon fill="black" stroke="black" points="781.403,-117.642 776.79,-108.104 774.449,-118.437 781.403,-117.642"/>
</a>
</g>
</g>
<!-- bc_model_eastern_nosoil -->
<g id="bc_model_eastern_nosoil" class="node"><title>bc_model_eastern_nosoil</title>
<g id="a_bc_model_eastern_nosoil"><a xlink:href="javascript:void();" xlink:title="bc_model_eastern_nosoil">
<ellipse fill="none" stroke="black" cx="1081.84" cy="-90" rx="100.983" ry="18"/>
<text text-anchor="middle" x="1081.84" y="-86.3" font-family="Times,serif" font-size="14.00">bc_model_eastern_nosoil</text>
</a>
</g>
</g>
<!-- latlon_eastern_vals&#45;&gt;bc_model_eastern_nosoil -->
<g id="edge4" class="edge"><title>latlon_eastern_vals&#45;&gt;bc_model_eastern_nosoil</title>
<g id="a_edge4"><a xlink:title="test">
<path fill="none" stroke="black" d="M835.603,-148.647C885.081,-137.063 959.334,-119.679 1013.36,-107.031"/>
<polygon fill="black" stroke="black" points="1014.26,-110.415 1023.2,-104.727 1012.67,-103.599 1014.26,-110.415"/>
</a>
</g>
</g>
<!-- future_predictors_2050_rcp26 -->
<g id="future_predictors_2050_rcp26" class="node"><title>future_predictors_2050_rcp26</title>
<g id="a_future_predictors_2050_rcp26"><a xlink:href="javascript:void();" xlink:title="future_predictors_2050_rcp26">
<ellipse fill="none" stroke="black" cx="339.836" cy="-162" rx="117.779" ry="18"/>
<text text-anchor="middle" x="339.836" y="-158.3" font-family="Times,serif" font-size="14.00">future_predictors_2050_rcp26</text>
</a>
</g>
</g>
<!-- dist_2050_rcp26_eastern_nosquash -->
<g id="dist_2050_rcp26_eastern_nosquash" class="node"><title>dist_2050_rcp26_eastern_nosquash</title>
<g id="a_dist_2050_rcp26_eastern_nosquash"><a xlink:href="javascript:void();" xlink:title="dist_2050_rcp26_eastern_nosquash">
<ellipse fill="none" stroke="black" cx="477.836" cy="-18" rx="135.676" ry="18"/>
<text text-anchor="middle" x="477.836" y="-14.3" font-family="Times,serif" font-size="14.00">dist_2050_rcp26_eastern_nosquash</text>
</a>
</g>
</g>
<!-- future_predictors_2050_rcp26&#45;&gt;dist_2050_rcp26_eastern_nosquash -->
<g id="edge6" class="edge"><title>future_predictors_2050_rcp26&#45;&gt;dist_2050_rcp26_eastern_nosquash</title>
<g id="a_edge6"><a xlink:title="test">
<path fill="none" stroke="black" d="M339.335,-143.985C339.652,-124.496 343.006,-92.6065 359.836,-72 372.175,-56.8918 389.725,-45.9345 407.529,-38.0506"/>
<polygon fill="black" stroke="black" points="408.933,-41.2576 416.837,-34.2022 406.258,-34.7888 408.933,-41.2576"/>
</a>
</g>
</g>
<!-- dist_2050_rcp26_eastern_nosquash_nosoil -->
<g id="dist_2050_rcp26_eastern_nosquash_nosoil" class="node"><title>dist_2050_rcp26_eastern_nosquash_nosoil</title>
<g id="a_dist_2050_rcp26_eastern_nosquash_nosoil"><a xlink:href="javascript:void();" xlink:title="dist_2050_rcp26_eastern_nosquash_nosoil">
<ellipse fill="none" stroke="black" cx="161.836" cy="-18" rx="161.671" ry="18"/>
<text text-anchor="middle" x="161.836" y="-14.3" font-family="Times,serif" font-size="14.00">dist_2050_rcp26_eastern_nosquash_nosoil</text>
</a>
</g>
</g>
<!-- future_predictors_2050_rcp26&#45;&gt;dist_2050_rcp26_eastern_nosquash_nosoil -->
<g id="edge5" class="edge"><title>future_predictors_2050_rcp26&#45;&gt;dist_2050_rcp26_eastern_nosquash_nosoil</title>
<g id="a_edge5"><a xlink:title="test">
<path fill="none" stroke="black" d="M318.718,-144.153C287.088,-118.92 227.296,-71.2209 191.359,-42.5524"/>
<polygon fill="black" stroke="black" points="193.203,-39.546 183.203,-36.0458 188.838,-45.0181 193.203,-39.546"/>
</a>
</g>
</g>
<!-- dist_eastern_nosoil -->
<g id="dist_eastern_nosoil" class="node"><title>dist_eastern_nosoil</title>
<g id="a_dist_eastern_nosoil"><a xlink:href="javascript:void();" xlink:title="dist_eastern_nosoil">
<ellipse fill="none" stroke="black" cx="1174.84" cy="-18" rx="78.7863" ry="18"/>
<text text-anchor="middle" x="1174.84" y="-14.3" font-family="Times,serif" font-size="14.00">dist_eastern_nosoil</text>
</a>
</g>
</g>
<!-- gbif_data -->
<g id="gbif_data" class="node"><title>gbif_data</title>
<g id="a_gbif_data"><a xlink:href="javascript:void();" xlink:title="gbif_data">
<ellipse fill="none" stroke="black" cx="802.836" cy="-522" rx="44.393" ry="18"/>
<text text-anchor="middle" x="802.836" y="-518.3" font-family="Times,serif" font-size="14.00">gbif_data</text>
</a>
</g>
</g>
<!-- latlon_gbif -->
<g id="latlon_gbif" class="node"><title>latlon_gbif</title>
<g id="a_latlon_gbif"><a xlink:href="javascript:void();" xlink:title="latlon_gbif">
<ellipse fill="none" stroke="black" cx="802.836" cy="-450" rx="49.2915" ry="18"/>
<text text-anchor="middle" x="802.836" y="-446.3" font-family="Times,serif" font-size="14.00">latlon_gbif</text>
</a>
</g>
</g>
<!-- gbif_data&#45;&gt;latlon_gbif -->
<g id="edge7" class="edge"><title>gbif_data&#45;&gt;latlon_gbif</title>
<g id="a_edge7"><a xlink:title="test">
<path fill="none" stroke="black" d="M802.836,-503.697C802.836,-495.983 802.836,-486.712 802.836,-478.112"/>
<polygon fill="black" stroke="black" points="806.336,-478.104 802.836,-468.104 799.336,-478.104 806.336,-478.104"/>
</a>
</g>
</g>
<!-- latlon_eastern -->
<g id="latlon_eastern" class="node"><title>latlon_eastern</title>
<g id="a_latlon_eastern"><a xlink:href="javascript:void();" xlink:title="latlon_eastern">
<ellipse fill="none" stroke="black" cx="782.836" cy="-234" rx="59.5901" ry="18"/>
<text text-anchor="middle" x="782.836" y="-230.3" font-family="Times,serif" font-size="14.00">latlon_eastern</text>
</a>
</g>
</g>
<!-- latlon_sparse&#45;&gt;latlon_eastern -->
<g id="edge8" class="edge"><title>latlon_sparse&#45;&gt;latlon_eastern</title>
<g id="a_edge8"><a xlink:title="test">
<path fill="none" stroke="black" d="M819.216,-288.055C813.497,-279.715 806.486,-269.491 800.151,-260.252"/>
<polygon fill="black" stroke="black" points="802.89,-258.057 794.348,-251.789 797.117,-262.016 802.89,-258.057"/>
</a>
</g>
</g>
<!-- cucurbit_points -->
<g id="cucurbit_points" class="node"><title>cucurbit_points</title>
<g id="a_cucurbit_points"><a xlink:href="javascript:void();" xlink:title="cucurbit_points">
<ellipse fill="none" stroke="black" cx="1073.84" cy="-378" rx="65.7887" ry="18"/>
<text text-anchor="middle" x="1073.84" y="-374.3" font-family="Times,serif" font-size="14.00">cucurbit_points</text>
</a>
</g>
</g>
<!-- cucurbit_distanceNA_raster -->
<g id="cucurbit_distanceNA_raster" class="node"><title>cucurbit_distanceNA_raster</title>
<g id="a_cucurbit_distanceNA_raster"><a xlink:href="javascript:void();" xlink:title="cucurbit_distanceNA_raster">
<ellipse fill="none" stroke="black" cx="1052.84" cy="-306" rx="109.381" ry="18"/>
<text text-anchor="middle" x="1052.84" y="-302.3" font-family="Times,serif" font-size="14.00">cucurbit_distanceNA_raster</text>
</a>
</g>
</g>
<!-- cucurbit_points&#45;&gt;cucurbit_distanceNA_raster -->
<g id="edge9" class="edge"><title>cucurbit_points&#45;&gt;cucurbit_distanceNA_raster</title>
<g id="a_edge9"><a xlink:title="test">
<path fill="none" stroke="black" d="M1068.64,-359.697C1066.31,-351.898 1063.49,-342.509 1060.88,-333.829"/>
<polygon fill="black" stroke="black" points="1064.19,-332.677 1057.97,-324.104 1057.49,-334.688 1064.19,-332.677"/>
</a>
</g>
</g>
<!-- worldclim_2050_rcp26 -->
<g id="worldclim_2050_rcp26" class="node"><title>worldclim_2050_rcp26</title>
<g id="a_worldclim_2050_rcp26"><a xlink:href="javascript:void();" xlink:title="worldclim_2050_rcp26">
<ellipse fill="none" stroke="black" cx="335.836" cy="-450" rx="93.6835" ry="18"/>
<text text-anchor="middle" x="335.836" y="-446.3" font-family="Times,serif" font-size="14.00">worldclim_2050_rcp26</text>
</a>
</g>
</g>
<!-- worldclim_2050_rcp26_NA -->
<g id="worldclim_2050_rcp26_NA" class="node"><title>worldclim_2050_rcp26_NA</title>
<g id="a_worldclim_2050_rcp26_NA"><a xlink:href="javascript:void();" xlink:title="worldclim_2050_rcp26_NA">
<ellipse fill="none" stroke="black" cx="335.836" cy="-378" rx="110.48" ry="18"/>
<text text-anchor="middle" x="335.836" y="-374.3" font-family="Times,serif" font-size="14.00">worldclim_2050_rcp26_NA</text>
</a>
</g>
</g>
<!-- worldclim_2050_rcp26&#45;&gt;worldclim_2050_rcp26_NA -->
<g id="edge10" class="edge"><title>worldclim_2050_rcp26&#45;&gt;worldclim_2050_rcp26_NA</title>
<g id="a_edge10"><a xlink:title="test">
<path fill="none" stroke="black" d="M335.836,-431.697C335.836,-423.983 335.836,-414.712 335.836,-406.112"/>
<polygon fill="black" stroke="black" points="339.336,-406.104 335.836,-396.104 332.336,-406.104 339.336,-406.104"/>
</a>
</g>
</g>
<!-- dist_eastern_nosquash_nosoil -->
<g id="dist_eastern_nosquash_nosoil" class="node"><title>dist_eastern_nosquash_nosoil</title>
<g id="a_dist_eastern_nosquash_nosoil"><a xlink:href="javascript:void();" xlink:title="dist_eastern_nosquash_nosoil">
<ellipse fill="none" stroke="black" cx="747.836" cy="-18" rx="115.88" ry="18"/>
<text text-anchor="middle" x="747.836" y="-14.3" font-family="Times,serif" font-size="14.00">dist_eastern_nosquash_nosoil</text>
</a>
</g>
</g>
<!-- bc_model_eastern_nosquash_nosoil&#45;&gt;dist_eastern_nosquash_nosoil -->
<g id="edge12" class="edge"><title>bc_model_eastern_nosquash_nosoil&#45;&gt;dist_eastern_nosquash_nosoil</title>
<g id="a_edge12"><a xlink:title="test">
<path fill="none" stroke="black" d="M560.621,-73.3778C597.836,-62.5682 647.449,-48.1578 686.252,-36.8875"/>
<polygon fill="black" stroke="black" points="687.243,-40.2443 695.87,-34.0939 685.29,-33.5221 687.243,-40.2443"/>
</a>
</g>
</g>
<!-- bc_model_eastern_nosquash_nosoil&#45;&gt;dist_2050_rcp26_eastern_nosquash_nosoil -->
<g id="edge11" class="edge"><title>bc_model_eastern_nosquash_nosoil&#45;&gt;dist_2050_rcp26_eastern_nosquash_nosoil</title>
<g id="a_edge11"><a xlink:title="test">
<path fill="none" stroke="black" d="M435.351,-74.496C380.219,-63.3096 303.829,-47.8103 245.789,-36.0341"/>
<polygon fill="black" stroke="black" points="246.404,-32.5876 235.908,-34.0292 245.012,-39.4478 246.404,-32.5876"/>
</a>
</g>
</g>
<!-- hwsdNAsp -->
<g id="hwsdNAsp" class="node"><title>hwsdNAsp</title>
<g id="a_hwsdNAsp"><a xlink:href="javascript:void();" xlink:title="hwsdNAsp">
<ellipse fill="none" stroke="black" cx="514.836" cy="-378" rx="50.0912" ry="18"/>
<text text-anchor="middle" x="514.836" y="-374.3" font-family="Times,serif" font-size="14.00">hwsdNAsp</text>
</a>
</g>
</g>
<!-- hwsdNA_raster -->
<g id="hwsdNA_raster" class="node"><title>hwsdNA_raster</title>
<g id="a_hwsdNA_raster"><a xlink:href="javascript:void();" xlink:title="hwsdNA_raster">
<ellipse fill="none" stroke="black" cx="514.836" cy="-306" rx="65.7887" ry="18"/>
<text text-anchor="middle" x="514.836" y="-302.3" font-family="Times,serif" font-size="14.00">hwsdNA_raster</text>
</a>
</g>
</g>
<!-- hwsdNAsp&#45;&gt;hwsdNA_raster -->
<g id="edge13" class="edge"><title>hwsdNAsp&#45;&gt;hwsdNA_raster</title>
<g id="a_edge13"><a xlink:title="test">
<path fill="none" stroke="black" d="M514.836,-359.697C514.836,-351.983 514.836,-342.712 514.836,-334.112"/>
<polygon fill="black" stroke="black" points="518.336,-334.104 514.836,-324.104 511.336,-334.104 518.336,-334.104"/>
</a>
</g>
</g>
<!-- bison_data -->
<g id="bison_data" class="node"><title>bison_data</title>
<g id="a_bison_data"><a xlink:href="javascript:void();" xlink:title="bison_data">
<ellipse fill="none" stroke="black" cx="681.836" cy="-522" rx="48.9926" ry="18"/>
<text text-anchor="middle" x="681.836" y="-518.3" font-family="Times,serif" font-size="14.00">bison_data</text>
</a>
</g>
</g>
<!-- latlon_bison -->
<g id="latlon_bison" class="node"><title>latlon_bison</title>
<g id="a_latlon_bison"><a xlink:href="javascript:void();" xlink:title="latlon_bison">
<ellipse fill="none" stroke="black" cx="681.836" cy="-450" rx="53.8905" ry="18"/>
<text text-anchor="middle" x="681.836" y="-446.3" font-family="Times,serif" font-size="14.00">latlon_bison</text>
</a>
</g>
</g>
<!-- bison_data&#45;&gt;latlon_bison -->
<g id="edge14" class="edge"><title>bison_data&#45;&gt;latlon_bison</title>
<g id="a_edge14"><a xlink:title="test">
<path fill="none" stroke="black" d="M681.836,-503.697C681.836,-495.983 681.836,-486.712 681.836,-478.112"/>
<polygon fill="black" stroke="black" points="685.336,-478.104 681.836,-468.104 678.336,-478.104 685.336,-478.104"/>
</a>
</g>
</g>
<!-- eastern_boundaries -->
<g id="eastern_boundaries" class="node"><title>eastern_boundaries</title>
<g id="a_eastern_boundaries"><a xlink:href="javascript:void();" xlink:title="eastern_boundaries">
<ellipse fill="none" stroke="black" cx="676.836" cy="-306" rx="78.7863" ry="18"/>
<text text-anchor="middle" x="676.836" y="-302.3" font-family="Times,serif" font-size="14.00">eastern_boundaries</text>
</a>
</g>
</g>
<!-- eastern_boundaries&#45;&gt;latlon_eastern -->
<g id="edge15" class="edge"><title>eastern_boundaries&#45;&gt;latlon_eastern</title>
<g id="a_edge15"><a xlink:title="test">
<path fill="none" stroke="black" d="M701.421,-288.765C716.076,-279.087 734.846,-266.691 750.67,-256.241"/>
<polygon fill="black" stroke="black" points="752.697,-259.097 759.113,-250.666 748.84,-253.256 752.697,-259.097"/>
</a>
</g>
</g>
<!-- latlon_bison&#45;&gt;latlon -->
<g id="edge16" class="edge"><title>latlon_bison&#45;&gt;latlon</title>
<g id="a_edge16"><a xlink:title="test">
<path fill="none" stroke="black" d="M705.921,-433.811C722.862,-423.128 745.625,-408.773 763.606,-397.433"/>
<polygon fill="black" stroke="black" points="765.925,-400.108 772.517,-391.814 762.191,-394.187 765.925,-400.108"/>
</a>
</g>
</g>
<!-- predictors -->
<g id="predictors" class="node"><title>predictors</title>
<g id="a_predictors"><a xlink:href="javascript:void();" xlink:title="predictors">
<ellipse fill="none" stroke="black" cx="915.836" cy="-234" rx="46.2923" ry="18"/>
<text text-anchor="middle" x="915.836" y="-230.3" font-family="Times,serif" font-size="14.00">predictors</text>
</a>
</g>
</g>
<!-- predictors&#45;&gt;latlon_eastern_vals -->
<g id="edge17" class="edge"><title>predictors&#45;&gt;latlon_eastern_vals</title>
<g id="a_edge17"><a xlink:title="test">
<path fill="none" stroke="black" d="M889.559,-219.17C870.217,-208.99 843.602,-194.982 821.79,-183.502"/>
<polygon fill="black" stroke="black" points="823.251,-180.316 812.771,-178.756 819.991,-186.51 823.251,-180.316"/>
</a>
</g>
</g>
<!-- predictors&#45;&gt;dist_eastern_nosoil -->
<g id="edge18" class="edge"><title>predictors&#45;&gt;dist_eastern_nosoil</title>
<g id="a_edge18"><a xlink:title="test">
<path fill="none" stroke="black" d="M959.208,-227.788C1022.99,-217.532 1140.09,-188.235 1191.84,-108 1203.89,-89.312 1197.45,-64.1257 1189.26,-45.3156"/>
<polygon fill="black" stroke="black" points="1192.35,-43.6682 1184.91,-36.1286 1186.03,-46.6644 1192.35,-43.6682"/>
</a>
</g>
</g>
<!-- predictors&#45;&gt;dist_eastern_nosquash_nosoil -->
<g id="edge20" class="edge"><title>predictors&#45;&gt;dist_eastern_nosquash_nosoil</title>
<g id="a_edge20"><a xlink:title="test">
<path fill="none" stroke="black" d="M919.049,-215.758C923.988,-183.668 929.64,-114.211 895.836,-72 881.346,-53.907 860.181,-41.9857 838.364,-34.1324"/>
<polygon fill="black" stroke="black" points="839.249,-30.7383 828.655,-30.9064 837.041,-37.3811 839.249,-30.7383"/>
</a>
</g>
</g>
<!-- dist_eastern_nosquash -->
<g id="dist_eastern_nosquash" class="node"><title>dist_eastern_nosquash</title>
<g id="a_dist_eastern_nosquash"><a xlink:href="javascript:void();" xlink:title="dist_eastern_nosquash">
<ellipse fill="none" stroke="black" cx="970.836" cy="-18" rx="89.8845" ry="18"/>
<text text-anchor="middle" x="970.836" y="-14.3" font-family="Times,serif" font-size="14.00">dist_eastern_nosquash</text>
</a>
</g>
</g>
<!-- predictors&#45;&gt;dist_eastern_nosquash -->
<g id="edge19" class="edge"><title>predictors&#45;&gt;dist_eastern_nosquash</title>
<g id="a_edge19"><a xlink:title="test">
<path fill="none" stroke="black" d="M920.244,-215.849C929.778,-178.753 952.38,-90.8101 963.87,-46.1027"/>
<polygon fill="black" stroke="black" points="967.307,-46.7889 966.407,-36.2325 960.528,-45.0465 967.307,-46.7889"/>
</a>
</g>
</g>
<!-- latlon_eastern&#45;&gt;latlon_eastern_vals -->
<g id="edge21" class="edge"><title>latlon_eastern&#45;&gt;latlon_eastern_vals</title>
<g id="a_edge21"><a xlink:title="test">
<path fill="none" stroke="black" d="M782.836,-215.697C782.836,-207.983 782.836,-198.712 782.836,-190.112"/>
<polygon fill="black" stroke="black" points="786.336,-190.104 782.836,-180.104 779.336,-190.104 786.336,-190.104"/>
</a>
</g>
</g>
<!-- hwsdNA_raster&#45;&gt;future_predictors_2050_rcp26 -->
<g id="edge23" class="edge"><title>hwsdNA_raster&#45;&gt;future_predictors_2050_rcp26</title>
<g id="a_edge23"><a xlink:title="test">
<path fill="none" stroke="black" d="M494.761,-288.711C463.759,-263.555 404.103,-215.148 368.547,-186.297"/>
<polygon fill="black" stroke="black" points="370.458,-183.34 360.487,-179.757 366.047,-188.776 370.458,-183.34"/>
</a>
</g>
</g>
<!-- hwsdNA_raster&#45;&gt;predictors -->
<g id="edge22" class="edge"><title>hwsdNA_raster&#45;&gt;predictors</title>
<g id="a_edge22"><a xlink:title="test">
<path fill="none" stroke="black" d="M562.077,-293.482C570.939,-291.511 580.148,-289.589 588.836,-288 704.889,-266.771 736.158,-275.188 851.836,-252 857.685,-250.827 863.792,-249.432 869.813,-247.952"/>
<polygon fill="black" stroke="black" points="870.977,-251.267 879.803,-245.405 869.248,-244.484 870.977,-251.267"/>
</a>
</g>
</g>
<!-- ext -->
<g id="ext" class="node"><title>ext</title>
<g id="a_ext"><a xlink:href="javascript:void();" xlink:title="ext">
<ellipse fill="none" stroke="black" cx="582.836" cy="-450" rx="27" ry="18"/>
<text text-anchor="middle" x="582.836" y="-446.3" font-family="Times,serif" font-size="14.00">ext</text>
</a>
</g>
</g>
<!-- ext&#45;&gt;hwsdNA_raster -->
<g id="edge25" class="edge"><title>ext&#45;&gt;hwsdNA_raster</title>
<g id="a_edge25"><a xlink:title="test">
<path fill="none" stroke="black" d="M584.63,-431.919C585.823,-413.216 585.437,-382.848 573.836,-360 567.785,-348.085 557.842,-337.586 547.828,-329.143"/>
<polygon fill="black" stroke="black" points="549.866,-326.292 539.854,-322.824 545.518,-331.778 549.866,-326.292"/>
</a>
</g>
</g>
<!-- bioclimNA_raster -->
<g id="bioclimNA_raster" class="node"><title>bioclimNA_raster</title>
<g id="a_bioclimNA_raster"><a xlink:href="javascript:void();" xlink:title="bioclimNA_raster">
<ellipse fill="none" stroke="black" cx="915.836" cy="-378" rx="74.9875" ry="18"/>
<text text-anchor="middle" x="915.836" y="-374.3" font-family="Times,serif" font-size="14.00">bioclimNA_raster</text>
</a>
</g>
</g>
<!-- ext&#45;&gt;bioclimNA_raster -->
<g id="edge24" class="edge"><title>ext&#45;&gt;bioclimNA_raster</title>
<g id="a_edge24"><a xlink:title="test">
<path fill="none" stroke="black" d="M603.385,-438.113C608.34,-435.822 613.692,-433.613 618.836,-432 710.863,-403.137 738.022,-413.679 832.836,-396 838.909,-394.868 845.223,-393.649 851.536,-392.403"/>
<polygon fill="black" stroke="black" points="852.299,-395.82 861.421,-390.432 850.929,-388.956 852.299,-395.82"/>
</a>
</g>
</g>
<!-- ext&#45;&gt;worldclim_2050_rcp26_NA -->
<g id="edge26" class="edge"><title>ext&#45;&gt;worldclim_2050_rcp26_NA</title>
<g id="a_edge26"><a xlink:title="test">
<path fill="none" stroke="black" d="M558.249,-442.032C521.222,-431.539 449.962,-411.343 398.051,-396.632"/>
<polygon fill="black" stroke="black" points="398.845,-393.219 388.27,-393.86 396.937,-399.954 398.845,-393.219"/>
</a>
</g>
</g>
<!-- future_predictors_2070_rcp26 -->
<g id="future_predictors_2070_rcp26" class="node"><title>future_predictors_2070_rcp26</title>
<g id="a_future_predictors_2070_rcp26"><a xlink:href="javascript:void();" xlink:title="future_predictors_2070_rcp26">
<ellipse fill="none" stroke="black" cx="982.836" cy="-522" rx="117.779" ry="18"/>
<text text-anchor="middle" x="982.836" y="-518.3" font-family="Times,serif" font-size="14.00">future_predictors_2070_rcp26</text>
</a>
</g>
</g>
<!-- latlon_gbif&#45;&gt;latlon -->
<g id="edge27" class="edge"><title>latlon_gbif&#45;&gt;latlon</title>
<g id="a_edge27"><a xlink:title="test">
<path fill="none" stroke="black" d="M800.364,-431.697C799.262,-423.983 797.937,-414.712 796.709,-406.112"/>
<polygon fill="black" stroke="black" points="800.158,-405.509 795.279,-396.104 793.229,-406.499 800.158,-405.509"/>
</a>
</g>
</g>
<!-- bioclimNA_raster&#45;&gt;predictors -->
<g id="edge28" class="edge"><title>bioclimNA_raster&#45;&gt;predictors</title>
<g id="a_edge28"><a xlink:title="test">
<path fill="none" stroke="black" d="M915.836,-359.871C915.836,-335.67 915.836,-291.211 915.836,-262.393"/>
<polygon fill="black" stroke="black" points="919.336,-262.189 915.836,-252.189 912.336,-262.189 919.336,-262.189"/>
</a>
</g>
</g>
<!-- bioclimNA_raster&#45;&gt;hwsdNA_raster -->
<g id="edge29" class="edge"><title>bioclimNA_raster&#45;&gt;hwsdNA_raster</title>
<g id="a_edge29"><a xlink:title="test">
<path fill="none" stroke="black" d="M861.895,-365.499C852.237,-363.569 842.252,-361.658 832.836,-360 724.877,-340.995 696.56,-344.288 588.836,-324 583.492,-322.994 577.949,-321.87 572.41,-320.694"/>
<polygon fill="black" stroke="black" points="573.003,-317.241 562.487,-318.532 571.513,-324.08 573.003,-317.241"/>
</a>
</g>
</g>
<!-- bioclimNA_raster&#45;&gt;cucurbit_distanceNA_raster -->
<g id="edge30" class="edge"><title>bioclimNA_raster&#45;&gt;cucurbit_distanceNA_raster</title>
<g id="a_edge30"><a xlink:title="test">
<path fill="none" stroke="black" d="M946.24,-361.465C965.468,-351.641 990.566,-338.816 1011.58,-328.08"/>
<polygon fill="black" stroke="black" points="1013.29,-331.134 1020.61,-323.467 1010.11,-324.9 1013.29,-331.134"/>
</a>
</g>
</g>
<!-- bc_model_eastern_nosquash&#45;&gt;dist_eastern_nosquash -->
<g id="edge32" class="edge"><title>bc_model_eastern_nosquash&#45;&gt;dist_eastern_nosquash</title>
<g id="a_edge32"><a xlink:title="test">
<path fill="none" stroke="black" d="M818.822,-73.2906C848.689,-62.6238 888.29,-48.4806 919.585,-37.3039"/>
<polygon fill="black" stroke="black" points="920.77,-40.5971 929.01,-33.9376 918.416,-34.0049 920.77,-40.5971"/>
</a>
</g>
</g>
<!-- bc_model_eastern_nosquash&#45;&gt;dist_2050_rcp26_eastern_nosquash -->
<g id="edge31" class="edge"><title>bc_model_eastern_nosquash&#45;&gt;dist_2050_rcp26_eastern_nosquash</title>
<g id="a_edge31"><a xlink:title="test">
<path fill="none" stroke="black" d="M714.375,-74.7501C667.151,-63.6197 601.335,-48.1075 551.114,-36.2711"/>
<polygon fill="black" stroke="black" points="551.825,-32.8427 541.288,-33.9552 550.219,-39.656 551.825,-32.8427"/>
</a>
</g>
</g>
<!-- worldclim_2050_rcp26_NA&#45;&gt;future_predictors_2050_rcp26 -->
<g id="edge33" class="edge"><title>worldclim_2050_rcp26_NA&#45;&gt;future_predictors_2050_rcp26</title>
<g id="a_edge33"><a xlink:title="test">
<path fill="none" stroke="black" d="M336.156,-359.849C336.848,-322.832 338.486,-235.181 339.324,-190.386"/>
<polygon fill="black" stroke="black" points="342.826,-190.296 339.514,-180.232 335.827,-190.165 342.826,-190.296"/>
</a>
</g>
</g>
<!-- bioclim_raster -->
<g id="bioclim_raster" class="node"><title>bioclim_raster</title>
<g id="a_bioclim_raster"><a xlink:href="javascript:void();" xlink:title="bioclim_raster">
<ellipse fill="none" stroke="black" cx="931.836" cy="-450" rx="61.99" ry="18"/>
<text text-anchor="middle" x="931.836" y="-446.3" font-family="Times,serif" font-size="14.00">bioclim_raster</text>
</a>
</g>
</g>
<!-- bioclim_raster&#45;&gt;bioclimNA_raster -->
<g id="edge34" class="edge"><title>bioclim_raster&#45;&gt;bioclimNA_raster</title>
<g id="a_edge34"><a xlink:title="test">
<path fill="none" stroke="black" d="M927.881,-431.697C926.117,-423.983 923.998,-414.712 922.033,-406.112"/>
<polygon fill="black" stroke="black" points="925.386,-405.073 919.745,-396.104 918.562,-406.633 925.386,-405.073"/>
</a>
</g>
</g>
<!-- cucurbit_distanceNA_raster&#45;&gt;predictors -->
<g id="edge35" class="edge"><title>cucurbit_distanceNA_raster&#45;&gt;predictors</title>
<g id="a_edge35"><a xlink:title="test">
<path fill="none" stroke="black" d="M1021.06,-288.765C1000.4,-278.21 973.421,-264.423 951.952,-253.453"/>
<polygon fill="black" stroke="black" points="953.318,-250.221 942.821,-248.788 950.133,-256.455 953.318,-250.221"/>
</a>
</g>
</g>
<!-- bc_model_eastern_nosoil&#45;&gt;dist_eastern_nosoil -->
<g id="edge36" class="edge"><title>bc_model_eastern_nosoil&#45;&gt;dist_eastern_nosoil</title>
<g id="a_edge36"><a xlink:title="test">
<path fill="none" stroke="black" d="M1103.88,-72.411C1116.15,-63.1703 1131.61,-51.536 1144.96,-41.4867"/>
<polygon fill="black" stroke="black" points="1147.07,-44.2801 1152.95,-35.4699 1142.86,-38.6873 1147.07,-44.2801"/>
</a>
</g>
</g>
</g>
</svg>
