<?xml version="1.0" encoding="UTF-8" standalone="no"?>
<!DOCTYPE svg PUBLIC "-//W3C//DTD SVG 1.1//EN"
 "http://www.w3.org/Graphics/SVG/1.1/DTD/svg11.dtd">
<!-- Generated by graphviz version 2.38.0 (20140413.2041)
 -->
<!-- Title: %3 Pages: 1 -->
<svg width="549pt" height="476pt"
 viewBox="0.00 0.00 549.14 476.00" xmlns="http://www.w3.org/2000/svg" xmlns:xlink="http://www.w3.org/1999/xlink">
<g id="graph0" class="graph" transform="scale(1 1) rotate(0) translate(4 472)">
<title>%3</title>
<polygon fill="white" stroke="none" points="-4,4 -4,-472 545.138,-472 545.138,4 -4,4"/>
<!-- predictors -->
<g id="predictors" class="node"><title>predictors</title>
<g id="a_predictors"><a xlink:href="javascript:void();" xlink:title="predictors">
<ellipse fill="none" stroke="black" cx="174.743" cy="-234" rx="46.2923" ry="18"/>
<text text-anchor="middle" x="174.743" y="-230.3" font-family="Times,serif" font-size="14.00">predictors</text>
</a>
</g>
</g>
<!-- latlon_eastern_vals -->
<g id="latlon_eastern_vals" class="node"><title>latlon_eastern_vals</title>
<g id="a_latlon_eastern_vals"><a xlink:href="javascript:void();" xlink:title="latlon_eastern_vals">
<ellipse fill="none" stroke="black" cx="322.743" cy="-162" rx="78.7863" ry="18"/>
<text text-anchor="middle" x="322.743" y="-158.3" font-family="Times,serif" font-size="14.00">latlon_eastern_vals</text>
</a>
</g>
</g>
<!-- predictors&#45;&gt;latlon_eastern_vals -->
<g id="edge1" class="edge"><title>predictors&#45;&gt;latlon_eastern_vals</title>
<g id="a_edge1"><a xlink:title="test">
<path fill="none" stroke="black" d="M202.929,-219.669C224.942,-209.257 255.872,-194.628 280.792,-182.842"/>
<polygon fill="black" stroke="black" points="282.474,-185.918 290.018,-178.478 279.482,-179.59 282.474,-185.918"/>
</a>
</g>
</g>
<!-- dist_eastern -->
<g id="dist_eastern" class="node"><title>dist_eastern</title>
<g id="a_dist_eastern"><a xlink:href="javascript:void();" xlink:title="dist_eastern">
<ellipse fill="none" stroke="black" cx="429.743" cy="-18" rx="52.7911" ry="18"/>
<text text-anchor="middle" x="429.743" y="-14.3" font-family="Times,serif" font-size="14.00">dist_eastern</text>
</a>
</g>
</g>
<!-- predictors&#45;&gt;dist_eastern -->
<g id="edge3" class="edge"><title>predictors&#45;&gt;dist_eastern</title>
<g id="a_edge3"><a xlink:title="test">
<path fill="none" stroke="black" d="M176.531,-215.906C180.759,-178.752 192.565,-92.3354 212.743,-72 224.218,-60.436 314.116,-41.2192 374.546,-29.3776"/>
<polygon fill="black" stroke="black" points="375.569,-32.7443 384.717,-27.3995 374.232,-25.8731 375.569,-32.7443"/>
</a>
</g>
</g>
<!-- dist_eastern_nosoil -->
<g id="dist_eastern_nosoil" class="node"><title>dist_eastern_nosoil</title>
<g id="a_dist_eastern_nosoil"><a xlink:href="javascript:void();" xlink:title="dist_eastern_nosoil">
<ellipse fill="none" stroke="black" cx="232.743" cy="-18" rx="78.7863" ry="18"/>
<text text-anchor="middle" x="232.743" y="-14.3" font-family="Times,serif" font-size="14.00">dist_eastern_nosoil</text>
</a>
</g>
</g>
<!-- predictors&#45;&gt;dist_eastern_nosoil -->
<g id="edge2" class="edge"><title>predictors&#45;&gt;dist_eastern_nosoil</title>
<g id="a_edge2"><a xlink:title="test">
<path fill="none" stroke="black" d="M171.28,-215.657C166.035,-185.147 158.762,-120.511 179.743,-72 184.618,-60.7302 193.099,-50.5678 201.867,-42.2275"/>
<polygon fill="black" stroke="black" points="204.414,-44.6457 209.562,-35.3851 199.763,-39.4146 204.414,-44.6457"/>
</a>
</g>
</g>
<!-- latlon_gbif -->
<g id="latlon_gbif" class="node"><title>latlon_gbif</title>
<g id="a_latlon_gbif"><a xlink:href="javascript:void();" xlink:title="latlon_gbif">
<ellipse fill="none" stroke="black" cx="463.743" cy="-378" rx="49.2915" ry="18"/>
<text text-anchor="middle" x="463.743" y="-374.3" font-family="Times,serif" font-size="14.00">latlon_gbif</text>
</a>
</g>
</g>
<!-- latlon -->
<g id="latlon" class="node"><title>latlon</title>
<g id="a_latlon"><a xlink:href="javascript:void();" xlink:title="latlon">
<ellipse fill="none" stroke="black" cx="463.743" cy="-306" rx="30.5947" ry="18"/>
<text text-anchor="middle" x="463.743" y="-302.3" font-family="Times,serif" font-size="14.00">latlon</text>
</a>
</g>
</g>
<!-- latlon_gbif&#45;&gt;latlon -->
<g id="edge4" class="edge"><title>latlon_gbif&#45;&gt;latlon</title>
<g id="a_edge4"><a xlink:title="test">
<path fill="none" stroke="black" d="M463.743,-359.697C463.743,-351.983 463.743,-342.712 463.743,-334.112"/>
<polygon fill="black" stroke="black" points="467.243,-334.104 463.743,-324.104 460.243,-334.104 467.243,-334.104"/>
</a>
</g>
</g>
<!-- model_eastern_nosoil -->
<g id="model_eastern_nosoil" class="node"><title>model_eastern_nosoil</title>
<g id="a_model_eastern_nosoil"><a xlink:href="javascript:void();" xlink:title="model_eastern_nosoil">
<ellipse fill="none" stroke="black" cx="309.743" cy="-90" rx="88.2844" ry="18"/>
<text text-anchor="middle" x="309.743" y="-86.3" font-family="Times,serif" font-size="14.00">model_eastern_nosoil</text>
</a>
</g>
</g>
<!-- latlon_eastern_vals&#45;&gt;model_eastern_nosoil -->
<g id="edge5" class="edge"><title>latlon_eastern_vals&#45;&gt;model_eastern_nosoil</title>
<g id="a_edge5"><a xlink:title="test">
<path fill="none" stroke="black" d="M319.53,-143.697C318.097,-135.983 316.376,-126.712 314.779,-118.112"/>
<polygon fill="black" stroke="black" points="318.187,-117.297 312.92,-108.104 311.305,-118.575 318.187,-117.297"/>
</a>
</g>
</g>
<!-- model_eastern -->
<g id="model_eastern" class="node"><title>model_eastern</title>
<g id="a_model_eastern"><a xlink:href="javascript:void();" xlink:title="model_eastern">
<ellipse fill="none" stroke="black" cx="478.743" cy="-90" rx="62.2891" ry="18"/>
<text text-anchor="middle" x="478.743" y="-86.3" font-family="Times,serif" font-size="14.00">model_eastern</text>
</a>
</g>
</g>
<!-- latlon_eastern_vals&#45;&gt;model_eastern -->
<g id="edge6" class="edge"><title>latlon_eastern_vals&#45;&gt;model_eastern</title>
<g id="a_edge6"><a xlink:title="test">
<path fill="none" stroke="black" d="M356.978,-145.638C380.599,-135.039 412.136,-120.888 437.196,-109.643"/>
<polygon fill="black" stroke="black" points="438.763,-112.776 446.453,-105.489 435.897,-106.39 438.763,-112.776"/>
</a>
</g>
</g>
<!-- bioclimNA_raster -->
<g id="bioclimNA_raster" class="node"><title>bioclimNA_raster</title>
<g id="a_bioclimNA_raster"><a xlink:href="javascript:void();" xlink:title="bioclimNA_raster">
<ellipse fill="none" stroke="black" cx="74.7434" cy="-378" rx="74.9875" ry="18"/>
<text text-anchor="middle" x="74.7434" y="-374.3" font-family="Times,serif" font-size="14.00">bioclimNA_raster</text>
</a>
</g>
</g>
<!-- bioclimNA_raster&#45;&gt;predictors -->
<g id="edge8" class="edge"><title>bioclimNA_raster&#45;&gt;predictors</title>
<g id="a_edge8"><a xlink:title="test">
<path fill="none" stroke="black" d="M76.1432,-359.804C78.4278,-340.725 84.378,-309.765 99.7434,-288 109.549,-274.11 124.2,-262.595 137.958,-253.887"/>
<polygon fill="black" stroke="black" points="140.037,-256.721 146.81,-248.573 136.435,-250.719 140.037,-256.721"/>
</a>
</g>
</g>
<!-- hwsdNA_raster -->
<g id="hwsdNA_raster" class="node"><title>hwsdNA_raster</title>
<g id="a_hwsdNA_raster"><a xlink:href="javascript:void();" xlink:title="hwsdNA_raster">
<ellipse fill="none" stroke="black" cx="174.743" cy="-306" rx="65.7887" ry="18"/>
<text text-anchor="middle" x="174.743" y="-302.3" font-family="Times,serif" font-size="14.00">hwsdNA_raster</text>
</a>
</g>
</g>
<!-- bioclimNA_raster&#45;&gt;hwsdNA_raster -->
<g id="edge7" class="edge"><title>bioclimNA_raster&#45;&gt;hwsdNA_raster</title>
<g id="a_edge7"><a xlink:title="test">
<path fill="none" stroke="black" d="M97.9367,-360.765C111.538,-351.244 128.897,-339.093 143.669,-328.752"/>
<polygon fill="black" stroke="black" points="145.835,-331.508 152.021,-322.906 141.821,-325.773 145.835,-331.508"/>
</a>
</g>
</g>
<!-- bioclim_raster -->
<g id="bioclim_raster" class="node"><title>bioclim_raster</title>
<g id="a_bioclim_raster"><a xlink:href="javascript:void();" xlink:title="bioclim_raster">
<ellipse fill="none" stroke="black" cx="70.7434" cy="-450" rx="61.99" ry="18"/>
<text text-anchor="middle" x="70.7434" y="-446.3" font-family="Times,serif" font-size="14.00">bioclim_raster</text>
</a>
</g>
</g>
<!-- bioclim_raster&#45;&gt;bioclimNA_raster -->
<g id="edge9" class="edge"><title>bioclim_raster&#45;&gt;bioclimNA_raster</title>
<g id="a_edge9"><a xlink:title="test">
<path fill="none" stroke="black" d="M71.7321,-431.697C72.1729,-423.983 72.7027,-414.712 73.1941,-406.112"/>
<polygon fill="black" stroke="black" points="76.6897,-406.288 73.766,-396.104 69.7011,-405.888 76.6897,-406.288"/>
</a>
</g>
</g>
<!-- eastern_boundaries -->
<g id="eastern_boundaries" class="node"><title>eastern_boundaries</title>
<g id="a_eastern_boundaries"><a xlink:href="javascript:void();" xlink:title="eastern_boundaries">
<ellipse fill="none" stroke="black" cx="336.743" cy="-306" rx="78.7863" ry="18"/>
<text text-anchor="middle" x="336.743" y="-302.3" font-family="Times,serif" font-size="14.00">eastern_boundaries</text>
</a>
</g>
</g>
<!-- latlon_eastern -->
<g id="latlon_eastern" class="node"><title>latlon_eastern</title>
<g id="a_latlon_eastern"><a xlink:href="javascript:void();" xlink:title="latlon_eastern">
<ellipse fill="none" stroke="black" cx="336.743" cy="-234" rx="59.5901" ry="18"/>
<text text-anchor="middle" x="336.743" y="-230.3" font-family="Times,serif" font-size="14.00">latlon_eastern</text>
</a>
</g>
</g>
<!-- eastern_boundaries&#45;&gt;latlon_eastern -->
<g id="edge10" class="edge"><title>eastern_boundaries&#45;&gt;latlon_eastern</title>
<g id="a_edge10"><a xlink:title="test">
<path fill="none" stroke="black" d="M336.743,-287.697C336.743,-279.983 336.743,-270.712 336.743,-262.112"/>
<polygon fill="black" stroke="black" points="340.243,-262.104 336.743,-252.104 333.243,-262.104 340.243,-262.104"/>
</a>
</g>
</g>
<!-- hwsdNA_raster&#45;&gt;predictors -->
<g id="edge11" class="edge"><title>hwsdNA_raster&#45;&gt;predictors</title>
<g id="a_edge11"><a xlink:title="test">
<path fill="none" stroke="black" d="M174.743,-287.697C174.743,-279.983 174.743,-270.712 174.743,-262.112"/>
<polygon fill="black" stroke="black" points="178.243,-262.104 174.743,-252.104 171.243,-262.104 178.243,-262.104"/>
</a>
</g>
</g>
<!-- latlon_eastern&#45;&gt;latlon_eastern_vals -->
<g id="edge12" class="edge"><title>latlon_eastern&#45;&gt;latlon_eastern_vals</title>
<g id="a_edge12"><a xlink:title="test">
<path fill="none" stroke="black" d="M333.283,-215.697C331.74,-207.983 329.886,-198.712 328.166,-190.112"/>
<polygon fill="black" stroke="black" points="331.558,-189.224 326.164,-180.104 324.693,-190.597 331.558,-189.224"/>
</a>
</g>
</g>
<!-- gbif_data -->
<g id="gbif_data" class="node"><title>gbif_data</title>
<g id="a_gbif_data"><a xlink:href="javascript:void();" xlink:title="gbif_data">
<ellipse fill="none" stroke="black" cx="463.743" cy="-450" rx="44.393" ry="18"/>
<text text-anchor="middle" x="463.743" y="-446.3" font-family="Times,serif" font-size="14.00">gbif_data</text>
</a>
</g>
</g>
<!-- gbif_data&#45;&gt;latlon_gbif -->
<g id="edge13" class="edge"><title>gbif_data&#45;&gt;latlon_gbif</title>
<g id="a_edge13"><a xlink:title="test">
<path fill="none" stroke="black" d="M463.743,-431.697C463.743,-423.983 463.743,-414.712 463.743,-406.112"/>
<polygon fill="black" stroke="black" points="467.243,-406.104 463.743,-396.104 460.243,-406.104 467.243,-406.104"/>
</a>
</g>
</g>
<!-- ext -->
<g id="ext" class="node"><title>ext</title>
<g id="a_ext"><a xlink:href="javascript:void();" xlink:title="ext">
<ellipse fill="none" stroke="black" cx="177.743" cy="-450" rx="27" ry="18"/>
<text text-anchor="middle" x="177.743" y="-446.3" font-family="Times,serif" font-size="14.00">ext</text>
</a>
</g>
</g>
<!-- ext&#45;&gt;bioclimNA_raster -->
<g id="edge15" class="edge"><title>ext&#45;&gt;bioclimNA_raster</title>
<g id="a_edge15"><a xlink:title="test">
<path fill="none" stroke="black" d="M159.329,-436.485C144.842,-426.64 124.298,-412.678 107.085,-400.979"/>
<polygon fill="black" stroke="black" points="108.674,-397.828 98.4363,-395.102 104.74,-403.618 108.674,-397.828"/>
</a>
</g>
</g>
<!-- ext&#45;&gt;hwsdNA_raster -->
<g id="edge14" class="edge"><title>ext&#45;&gt;hwsdNA_raster</title>
<g id="a_edge14"><a xlink:title="test">
<path fill="none" stroke="black" d="M177.381,-431.871C176.87,-407.67 175.931,-363.211 175.322,-334.393"/>
<polygon fill="black" stroke="black" points="178.817,-334.113 175.107,-324.189 171.819,-334.261 178.817,-334.113"/>
</a>
</g>
</g>
<!-- hwsdNAsp -->
<g id="hwsdNAsp" class="node"><title>hwsdNAsp</title>
<g id="a_hwsdNAsp"><a xlink:href="javascript:void();" xlink:title="hwsdNAsp">
<ellipse fill="none" stroke="black" cx="255.743" cy="-378" rx="50.0912" ry="18"/>
<text text-anchor="middle" x="255.743" y="-374.3" font-family="Times,serif" font-size="14.00">hwsdNAsp</text>
</a>
</g>
</g>
<!-- hwsdNAsp&#45;&gt;hwsdNA_raster -->
<g id="edge16" class="edge"><title>hwsdNAsp&#45;&gt;hwsdNA_raster</title>
<g id="a_edge16"><a xlink:title="test">
<path fill="none" stroke="black" d="M237.363,-361.116C226.744,-351.939 213.199,-340.233 201.424,-330.057"/>
<polygon fill="black" stroke="black" points="203.468,-327.198 193.613,-323.307 198.891,-332.494 203.468,-327.198"/>
</a>
</g>
</g>
<!-- latlon&#45;&gt;latlon_eastern -->
<g id="edge17" class="edge"><title>latlon&#45;&gt;latlon_eastern</title>
<g id="a_edge17"><a xlink:title="test">
<path fill="none" stroke="black" d="M442.2,-293.125C423.291,-282.703 395.399,-267.33 373.048,-255.011"/>
<polygon fill="black" stroke="black" points="374.611,-251.875 364.164,-250.114 371.232,-258.006 374.611,-251.875"/>
</a>
</g>
</g>
<!-- model_eastern_nosoil&#45;&gt;dist_eastern_nosoil -->
<g id="edge18" class="edge"><title>model_eastern_nosoil&#45;&gt;dist_eastern_nosoil</title>
<g id="a_edge18"><a xlink:title="test">
<path fill="none" stroke="black" d="M291.104,-72.055C281.29,-63.1336 269.106,-52.0572 258.413,-42.3361"/>
<polygon fill="black" stroke="black" points="260.699,-39.6844 250.946,-35.5475 255.991,-44.864 260.699,-39.6844"/>
</a>
</g>
</g>
<!-- model_eastern&#45;&gt;dist_eastern -->
<g id="edge19" class="edge"><title>model_eastern&#45;&gt;dist_eastern</title>
<g id="a_edge19"><a xlink:title="test">
<path fill="none" stroke="black" d="M466.882,-72.055C461.044,-63.7147 453.887,-53.4908 447.42,-44.2517"/>
<polygon fill="black" stroke="black" points="450.098,-41.9742 441.496,-35.789 444.363,-45.9885 450.098,-41.9742"/>
</a>
</g>
</g>
</g>
</svg>
