<?xml version="1.0" encoding="UTF-8" standalone="no"?>
<!DOCTYPE svg PUBLIC "-//W3C//DTD SVG 1.1//EN"
 "http://www.w3.org/Graphics/SVG/1.1/DTD/svg11.dtd">
<!-- Generated by graphviz version 2.38.0 (20140413.2041)
 -->
<!-- Title: %3 Pages: 1 -->
<svg width="866pt" height="548pt"
 viewBox="0.00 0.00 865.74 548.00" xmlns="http://www.w3.org/2000/svg" xmlns:xlink="http://www.w3.org/1999/xlink">
<g id="graph0" class="graph" transform="scale(1 1) rotate(0) translate(4 544)">
<title>%3</title>
<polygon fill="white" stroke="none" points="-4,4 -4,-544 861.735,-544 861.735,4 -4,4"/>
<!-- model_eastern_nosoil -->
<g id="model_eastern_nosoil" class="node"><title>model_eastern_nosoil</title>
<g id="a_model_eastern_nosoil"><a xlink:href="javascript:void();" xlink:title="model_eastern_nosoil">
<ellipse fill="none" stroke="black" cx="180.046" cy="-90" rx="88.2844" ry="18"/>
<text text-anchor="middle" x="180.046" y="-86.3" font-family="Times,serif" font-size="14.00">model_eastern_nosoil</text>
</a>
</g>
</g>
<!-- dist_eastern_nosoil -->
<g id="dist_eastern_nosoil" class="node"><title>dist_eastern_nosoil</title>
<g id="a_dist_eastern_nosoil"><a xlink:href="javascript:void();" xlink:title="dist_eastern_nosoil">
<ellipse fill="none" stroke="black" cx="133.046" cy="-18" rx="78.7863" ry="18"/>
<text text-anchor="middle" x="133.046" y="-14.3" font-family="Times,serif" font-size="14.00">dist_eastern_nosoil</text>
</a>
</g>
</g>
<!-- model_eastern_nosoil&#45;&gt;dist_eastern_nosoil -->
<g id="edge1" class="edge"><title>model_eastern_nosoil&#45;&gt;dist_eastern_nosoil</title>
<g id="a_edge1"><a xlink:title="test">
<path fill="none" stroke="black" d="M168.668,-72.055C163.151,-63.8373 156.405,-53.7911 150.274,-44.6599"/>
<polygon fill="black" stroke="black" points="153.125,-42.6265 144.645,-36.2753 147.313,-46.5286 153.125,-42.6265"/>
</a>
</g>
</g>
<!-- latlon_gbif -->
<g id="latlon_gbif" class="node"><title>latlon_gbif</title>
<g id="a_latlon_gbif"><a xlink:href="javascript:void();" xlink:title="latlon_gbif">
<ellipse fill="none" stroke="black" cx="664.046" cy="-450" rx="49.2915" ry="18"/>
<text text-anchor="middle" x="664.046" y="-446.3" font-family="Times,serif" font-size="14.00">latlon_gbif</text>
</a>
</g>
</g>
<!-- latlon -->
<g id="latlon" class="node"><title>latlon</title>
<g id="a_latlon"><a xlink:href="javascript:void();" xlink:title="latlon">
<ellipse fill="none" stroke="black" cx="725.046" cy="-378" rx="30.5947" ry="18"/>
<text text-anchor="middle" x="725.046" y="-374.3" font-family="Times,serif" font-size="14.00">latlon</text>
</a>
</g>
</g>
<!-- latlon_gbif&#45;&gt;latlon -->
<g id="edge2" class="edge"><title>latlon_gbif&#45;&gt;latlon</title>
<g id="a_edge2"><a xlink:title="test">
<path fill="none" stroke="black" d="M678.502,-432.411C686.397,-423.351 696.297,-411.99 704.935,-402.078"/>
<polygon fill="black" stroke="black" points="707.598,-404.349 711.529,-394.511 702.32,-399.751 707.598,-404.349"/>
</a>
</g>
</g>
<!-- dist_eastern_nosquash_nosoil -->
<g id="dist_eastern_nosquash_nosoil" class="node"><title>dist_eastern_nosquash_nosoil</title>
<g id="a_dist_eastern_nosquash_nosoil"><a xlink:href="javascript:void();" xlink:title="dist_eastern_nosquash_nosoil">
<ellipse fill="none" stroke="black" cx="742.046" cy="-18" rx="115.88" ry="18"/>
<text text-anchor="middle" x="742.046" y="-14.3" font-family="Times,serif" font-size="14.00">dist_eastern_nosquash_nosoil</text>
</a>
</g>
</g>
<!-- ext -->
<g id="ext" class="node"><title>ext</title>
<g id="a_ext"><a xlink:href="javascript:void();" xlink:title="ext">
<ellipse fill="none" stroke="black" cx="128.046" cy="-450" rx="27" ry="18"/>
<text text-anchor="middle" x="128.046" y="-446.3" font-family="Times,serif" font-size="14.00">ext</text>
</a>
</g>
</g>
<!-- bioclimNA_raster -->
<g id="bioclimNA_raster" class="node"><title>bioclimNA_raster</title>
<g id="a_bioclimNA_raster"><a xlink:href="javascript:void();" xlink:title="bioclimNA_raster">
<ellipse fill="none" stroke="black" cx="231.046" cy="-378" rx="74.9875" ry="18"/>
<text text-anchor="middle" x="231.046" y="-374.3" font-family="Times,serif" font-size="14.00">bioclimNA_raster</text>
</a>
</g>
</g>
<!-- ext&#45;&gt;bioclimNA_raster -->
<g id="edge4" class="edge"><title>ext&#45;&gt;bioclimNA_raster</title>
<g id="a_edge4"><a xlink:title="test">
<path fill="none" stroke="black" d="M146.46,-436.485C160.947,-426.64 181.491,-412.678 198.704,-400.979"/>
<polygon fill="black" stroke="black" points="201.049,-403.618 207.353,-395.102 197.115,-397.828 201.049,-403.618"/>
</a>
</g>
</g>
<!-- hwsdNA_raster -->
<g id="hwsdNA_raster" class="node"><title>hwsdNA_raster</title>
<g id="a_hwsdNA_raster"><a xlink:href="javascript:void();" xlink:title="hwsdNA_raster">
<ellipse fill="none" stroke="black" cx="130.046" cy="-306" rx="65.7887" ry="18"/>
<text text-anchor="middle" x="130.046" y="-302.3" font-family="Times,serif" font-size="14.00">hwsdNA_raster</text>
</a>
</g>
</g>
<!-- ext&#45;&gt;hwsdNA_raster -->
<g id="edge3" class="edge"><title>ext&#45;&gt;hwsdNA_raster</title>
<g id="a_edge3"><a xlink:title="test">
<path fill="none" stroke="black" d="M128.287,-431.871C128.628,-407.67 129.254,-363.211 129.66,-334.393"/>
<polygon fill="black" stroke="black" points="133.162,-334.238 129.803,-324.189 126.163,-334.139 133.162,-334.238"/>
</a>
</g>
</g>
<!-- eastern_boundaries -->
<g id="eastern_boundaries" class="node"><title>eastern_boundaries</title>
<g id="a_eastern_boundaries"><a xlink:href="javascript:void();" xlink:title="eastern_boundaries">
<ellipse fill="none" stroke="black" cx="571.046" cy="-306" rx="78.7863" ry="18"/>
<text text-anchor="middle" x="571.046" y="-302.3" font-family="Times,serif" font-size="14.00">eastern_boundaries</text>
</a>
</g>
</g>
<!-- latlon_eastern -->
<g id="latlon_eastern" class="node"><title>latlon_eastern</title>
<g id="a_latlon_eastern"><a xlink:href="javascript:void();" xlink:title="latlon_eastern">
<ellipse fill="none" stroke="black" cx="571.046" cy="-234" rx="59.5901" ry="18"/>
<text text-anchor="middle" x="571.046" y="-230.3" font-family="Times,serif" font-size="14.00">latlon_eastern</text>
</a>
</g>
</g>
<!-- eastern_boundaries&#45;&gt;latlon_eastern -->
<g id="edge5" class="edge"><title>eastern_boundaries&#45;&gt;latlon_eastern</title>
<g id="a_edge5"><a xlink:title="test">
<path fill="none" stroke="black" d="M571.046,-287.697C571.046,-279.983 571.046,-270.712 571.046,-262.112"/>
<polygon fill="black" stroke="black" points="574.546,-262.104 571.046,-252.104 567.546,-262.104 574.546,-262.104"/>
</a>
</g>
</g>
<!-- cucurbit_distanceNA_raster -->
<g id="cucurbit_distanceNA_raster" class="node"><title>cucurbit_distanceNA_raster</title>
<g id="a_cucurbit_distanceNA_raster"><a xlink:href="javascript:void();" xlink:title="cucurbit_distanceNA_raster">
<ellipse fill="none" stroke="black" cx="365.046" cy="-306" rx="109.381" ry="18"/>
<text text-anchor="middle" x="365.046" y="-302.3" font-family="Times,serif" font-size="14.00">cucurbit_distanceNA_raster</text>
</a>
</g>
</g>
<!-- predictors -->
<g id="predictors" class="node"><title>predictors</title>
<g id="a_predictors"><a xlink:href="javascript:void();" xlink:title="predictors">
<ellipse fill="none" stroke="black" cx="296.046" cy="-234" rx="46.2923" ry="18"/>
<text text-anchor="middle" x="296.046" y="-230.3" font-family="Times,serif" font-size="14.00">predictors</text>
</a>
</g>
</g>
<!-- cucurbit_distanceNA_raster&#45;&gt;predictors -->
<g id="edge6" class="edge"><title>cucurbit_distanceNA_raster&#45;&gt;predictors</title>
<g id="a_edge6"><a xlink:title="test">
<path fill="none" stroke="black" d="M348.343,-288.055C339.657,-279.243 328.898,-268.328 319.401,-258.694"/>
<polygon fill="black" stroke="black" points="321.632,-255.972 312.12,-251.307 316.647,-260.886 321.632,-255.972"/>
</a>
</g>
</g>
<!-- latlon_sparse -->
<g id="latlon_sparse" class="node"><title>latlon_sparse</title>
<g id="a_latlon_sparse"><a xlink:href="javascript:void();" xlink:title="latlon_sparse">
<ellipse fill="none" stroke="black" cx="725.046" cy="-306" rx="57.3905" ry="18"/>
<text text-anchor="middle" x="725.046" y="-302.3" font-family="Times,serif" font-size="14.00">latlon_sparse</text>
</a>
</g>
</g>
<!-- latlon&#45;&gt;latlon_sparse -->
<g id="edge7" class="edge"><title>latlon&#45;&gt;latlon_sparse</title>
<g id="a_edge7"><a xlink:title="test">
<path fill="none" stroke="black" d="M725.046,-359.697C725.046,-351.983 725.046,-342.712 725.046,-334.112"/>
<polygon fill="black" stroke="black" points="728.546,-334.104 725.046,-324.104 721.546,-334.104 728.546,-334.104"/>
</a>
</g>
</g>
<!-- bison_data -->
<g id="bison_data" class="node"><title>bison_data</title>
<g id="a_bison_data"><a xlink:href="javascript:void();" xlink:title="bison_data">
<ellipse fill="none" stroke="black" cx="785.046" cy="-522" rx="48.9926" ry="18"/>
<text text-anchor="middle" x="785.046" y="-518.3" font-family="Times,serif" font-size="14.00">bison_data</text>
</a>
</g>
</g>
<!-- latlon_bison -->
<g id="latlon_bison" class="node"><title>latlon_bison</title>
<g id="a_latlon_bison"><a xlink:href="javascript:void();" xlink:title="latlon_bison">
<ellipse fill="none" stroke="black" cx="785.046" cy="-450" rx="53.8905" ry="18"/>
<text text-anchor="middle" x="785.046" y="-446.3" font-family="Times,serif" font-size="14.00">latlon_bison</text>
</a>
</g>
</g>
<!-- bison_data&#45;&gt;latlon_bison -->
<g id="edge8" class="edge"><title>bison_data&#45;&gt;latlon_bison</title>
<g id="a_edge8"><a xlink:title="test">
<path fill="none" stroke="black" d="M785.046,-503.697C785.046,-495.983 785.046,-486.712 785.046,-478.112"/>
<polygon fill="black" stroke="black" points="788.546,-478.104 785.046,-468.104 781.546,-478.104 788.546,-478.104"/>
</a>
</g>
</g>
<!-- model_eastern_nosquash_nosoil -->
<g id="model_eastern_nosquash_nosoil" class="node"><title>model_eastern_nosquash_nosoil</title>
<g id="a_model_eastern_nosquash_nosoil"><a xlink:href="javascript:void();" xlink:title="model_eastern_nosquash_nosoil">
<ellipse fill="none" stroke="black" cx="666.046" cy="-90" rx="125.378" ry="18"/>
<text text-anchor="middle" x="666.046" y="-86.3" font-family="Times,serif" font-size="14.00">model_eastern_nosquash_nosoil</text>
</a>
</g>
</g>
<!-- model_eastern_nosquash_nosoil&#45;&gt;dist_eastern_nosquash_nosoil -->
<g id="edge9" class="edge"><title>model_eastern_nosquash_nosoil&#45;&gt;dist_eastern_nosquash_nosoil</title>
<g id="a_edge9"><a xlink:title="test">
<path fill="none" stroke="black" d="M684.443,-72.055C693.965,-63.2847 705.748,-52.4318 716.172,-42.8312"/>
<polygon fill="black" stroke="black" points="718.833,-45.1382 723.818,-35.789 714.091,-39.9894 718.833,-45.1382"/>
</a>
</g>
</g>
<!-- hwsdNAsp -->
<g id="hwsdNAsp" class="node"><title>hwsdNAsp</title>
<g id="a_hwsdNAsp"><a xlink:href="javascript:void();" xlink:title="hwsdNAsp">
<ellipse fill="none" stroke="black" cx="50.0456" cy="-378" rx="50.0912" ry="18"/>
<text text-anchor="middle" x="50.0456" y="-374.3" font-family="Times,serif" font-size="14.00">hwsdNAsp</text>
</a>
</g>
</g>
<!-- hwsdNAsp&#45;&gt;hwsdNA_raster -->
<g id="edge10" class="edge"><title>hwsdNAsp&#45;&gt;hwsdNA_raster</title>
<g id="a_edge10"><a xlink:title="test">
<path fill="none" stroke="black" d="M68.1988,-361.116C78.6866,-351.939 92.0649,-340.233 103.694,-330.057"/>
<polygon fill="black" stroke="black" points="106.188,-332.526 111.409,-323.307 101.578,-327.258 106.188,-332.526"/>
</a>
</g>
</g>
<!-- bioclimNA_raster&#45;&gt;cucurbit_distanceNA_raster -->
<g id="edge13" class="edge"><title>bioclimNA_raster&#45;&gt;cucurbit_distanceNA_raster</title>
<g id="a_edge13"><a xlink:title="test">
<path fill="none" stroke="black" d="M260.785,-361.465C279.506,-351.685 303.92,-338.931 324.416,-328.225"/>
<polygon fill="black" stroke="black" points="326.28,-331.2 333.523,-323.467 323.039,-324.995 326.28,-331.2"/>
</a>
</g>
</g>
<!-- bioclimNA_raster&#45;&gt;predictors -->
<g id="edge11" class="edge"><title>bioclimNA_raster&#45;&gt;predictors</title>
<g id="a_edge11"><a xlink:title="test">
<path fill="none" stroke="black" d="M231.313,-359.708C232.23,-341.091 235.568,-311.047 247.046,-288 252.576,-276.895 261.157,-266.453 269.602,-257.821"/>
<polygon fill="black" stroke="black" points="272.169,-260.207 276.908,-250.731 267.294,-255.184 272.169,-260.207"/>
</a>
</g>
</g>
<!-- bioclimNA_raster&#45;&gt;hwsdNA_raster -->
<g id="edge12" class="edge"><title>bioclimNA_raster&#45;&gt;hwsdNA_raster</title>
<g id="a_edge12"><a xlink:title="test">
<path fill="none" stroke="black" d="M207.62,-360.765C193.883,-351.244 176.351,-339.093 161.43,-328.752"/>
<polygon fill="black" stroke="black" points="163.208,-325.726 152.996,-322.906 159.221,-331.479 163.208,-325.726"/>
</a>
</g>
</g>
<!-- cucurbit_points -->
<g id="cucurbit_points" class="node"><title>cucurbit_points</title>
<g id="a_cucurbit_points"><a xlink:href="javascript:void();" xlink:title="cucurbit_points">
<ellipse fill="none" stroke="black" cx="389.046" cy="-378" rx="65.7887" ry="18"/>
<text text-anchor="middle" x="389.046" y="-374.3" font-family="Times,serif" font-size="14.00">cucurbit_points</text>
</a>
</g>
</g>
<!-- cucurbit_points&#45;&gt;cucurbit_distanceNA_raster -->
<g id="edge14" class="edge"><title>cucurbit_points&#45;&gt;cucurbit_distanceNA_raster</title>
<g id="a_edge14"><a xlink:title="test">
<path fill="none" stroke="black" d="M383.236,-360.055C380.535,-352.176 377.257,-342.617 374.232,-333.794"/>
<polygon fill="black" stroke="black" points="377.523,-332.6 370.969,-324.275 370.901,-334.87 377.523,-332.6"/>
</a>
</g>
</g>
<!-- model_eastern_nosquash -->
<g id="model_eastern_nosquash" class="node"><title>model_eastern_nosquash</title>
<g id="a_model_eastern_nosquash"><a xlink:href="javascript:void();" xlink:title="model_eastern_nosquash">
<ellipse fill="none" stroke="black" cx="423.046" cy="-90" rx="99.3824" ry="18"/>
<text text-anchor="middle" x="423.046" y="-86.3" font-family="Times,serif" font-size="14.00">model_eastern_nosquash</text>
</a>
</g>
</g>
<!-- dist_eastern_nosquash -->
<g id="dist_eastern_nosquash" class="node"><title>dist_eastern_nosquash</title>
<g id="a_dist_eastern_nosquash"><a xlink:href="javascript:void();" xlink:title="dist_eastern_nosquash">
<ellipse fill="none" stroke="black" cx="342.046" cy="-18" rx="89.8845" ry="18"/>
<text text-anchor="middle" x="342.046" y="-14.3" font-family="Times,serif" font-size="14.00">dist_eastern_nosquash</text>
</a>
</g>
</g>
<!-- model_eastern_nosquash&#45;&gt;dist_eastern_nosquash -->
<g id="edge15" class="edge"><title>model_eastern_nosquash&#45;&gt;dist_eastern_nosquash</title>
<g id="a_edge15"><a xlink:title="test">
<path fill="none" stroke="black" d="M403.438,-72.055C393.19,-63.1988 380.484,-52.2188 369.295,-42.5492"/>
<polygon fill="black" stroke="black" points="371.328,-39.6795 361.473,-35.789 366.75,-44.9758 371.328,-39.6795"/>
</a>
</g>
</g>
<!-- latlon_eastern_vals -->
<g id="latlon_eastern_vals" class="node"><title>latlon_eastern_vals</title>
<g id="a_latlon_eastern_vals"><a xlink:href="javascript:void();" xlink:title="latlon_eastern_vals">
<ellipse fill="none" stroke="black" cx="423.046" cy="-162" rx="78.7863" ry="18"/>
<text text-anchor="middle" x="423.046" y="-158.3" font-family="Times,serif" font-size="14.00">latlon_eastern_vals</text>
</a>
</g>
</g>
<!-- latlon_eastern&#45;&gt;latlon_eastern_vals -->
<g id="edge16" class="edge"><title>latlon_eastern&#45;&gt;latlon_eastern_vals</title>
<g id="a_edge16"><a xlink:title="test">
<path fill="none" stroke="black" d="M540.38,-218.496C518.554,-208.173 488.963,-194.177 464.958,-182.823"/>
<polygon fill="black" stroke="black" points="466.262,-179.568 455.725,-178.457 463.269,-185.896 466.262,-179.568"/>
</a>
</g>
</g>
<!-- gbif_data -->
<g id="gbif_data" class="node"><title>gbif_data</title>
<g id="a_gbif_data"><a xlink:href="javascript:void();" xlink:title="gbif_data">
<ellipse fill="none" stroke="black" cx="664.046" cy="-522" rx="44.393" ry="18"/>
<text text-anchor="middle" x="664.046" y="-518.3" font-family="Times,serif" font-size="14.00">gbif_data</text>
</a>
</g>
</g>
<!-- gbif_data&#45;&gt;latlon_gbif -->
<g id="edge17" class="edge"><title>gbif_data&#45;&gt;latlon_gbif</title>
<g id="a_edge17"><a xlink:title="test">
<path fill="none" stroke="black" d="M664.046,-503.697C664.046,-495.983 664.046,-486.712 664.046,-478.112"/>
<polygon fill="black" stroke="black" points="667.546,-478.104 664.046,-468.104 660.546,-478.104 667.546,-478.104"/>
</a>
</g>
</g>
<!-- latlon_sparse&#45;&gt;latlon_eastern -->
<g id="edge18" class="edge"><title>latlon_sparse&#45;&gt;latlon_eastern</title>
<g id="a_edge18"><a xlink:title="test">
<path fill="none" stroke="black" d="M693.881,-290.834C670.242,-280.089 637.54,-265.225 611.822,-253.535"/>
<polygon fill="black" stroke="black" points="613.244,-250.337 602.692,-249.385 610.347,-256.709 613.244,-250.337"/>
</a>
</g>
</g>
<!-- predictors&#45;&gt;dist_eastern_nosquash_nosoil -->
<g id="edge20" class="edge"><title>predictors&#45;&gt;dist_eastern_nosquash_nosoil</title>
<g id="a_edge20"><a xlink:title="test">
<path fill="none" stroke="black" d="M340.487,-228.847C452.775,-217.344 743.01,-180.988 800.046,-108 816.733,-86.6446 795.15,-60.4797 773.735,-42.0639"/>
<polygon fill="black" stroke="black" points="775.875,-39.2919 765.924,-35.653 771.434,-44.7028 775.875,-39.2919"/>
</a>
</g>
</g>
<!-- predictors&#45;&gt;dist_eastern_nosoil -->
<g id="edge19" class="edge"><title>predictors&#45;&gt;dist_eastern_nosoil</title>
<g id="a_edge19"><a xlink:title="test">
<path fill="none" stroke="black" d="M258.487,-223.451C208.144,-208.402 120.758,-173.858 83.0456,-108 75.0948,-94.1153 77.1385,-86.8696 83.0456,-72 87.4885,-60.8161 95.5341,-50.6252 103.891,-42.2338"/>
<polygon fill="black" stroke="black" points="106.337,-44.7388 111.233,-35.3431 101.546,-39.6347 106.337,-44.7388"/>
</a>
</g>
</g>
<!-- predictors&#45;&gt;dist_eastern_nosquash -->
<g id="edge21" class="edge"><title>predictors&#45;&gt;dist_eastern_nosquash</title>
<g id="a_edge21"><a xlink:title="test">
<path fill="none" stroke="black" d="M296.106,-215.674C296.644,-185.73 299.696,-122.638 315.046,-72 317.831,-62.8092 322.157,-53.3016 326.535,-44.9202"/>
<polygon fill="black" stroke="black" points="329.68,-46.4635 331.421,-36.0128 323.543,-43.0967 329.68,-46.4635"/>
</a>
</g>
</g>
<!-- predictors&#45;&gt;latlon_eastern_vals -->
<g id="edge22" class="edge"><title>predictors&#45;&gt;latlon_eastern_vals</title>
<g id="a_edge22"><a xlink:title="test">
<path fill="none" stroke="black" d="M321.746,-218.834C340.056,-208.742 364.958,-195.017 385.489,-183.7"/>
<polygon fill="black" stroke="black" points="387.214,-186.746 394.282,-178.854 383.835,-180.616 387.214,-186.746"/>
</a>
</g>
</g>
<!-- hwsdNA_raster&#45;&gt;predictors -->
<g id="edge23" class="edge"><title>hwsdNA_raster&#45;&gt;predictors</title>
<g id="a_edge23"><a xlink:title="test">
<path fill="none" stroke="black" d="M164.441,-290.496C191.2,-279.212 228.366,-263.54 256.38,-251.727"/>
<polygon fill="black" stroke="black" points="258.02,-254.833 265.874,-247.723 255.3,-248.383 258.02,-254.833"/>
</a>
</g>
</g>
<!-- latlon_eastern_vals&#45;&gt;model_eastern_nosoil -->
<g id="edge24" class="edge"><title>latlon_eastern_vals&#45;&gt;model_eastern_nosoil</title>
<g id="a_edge24"><a xlink:title="test">
<path fill="none" stroke="black" d="M376.193,-147.503C336.995,-136.212 280.874,-120.045 238.696,-107.895"/>
<polygon fill="black" stroke="black" points="239.415,-104.46 228.837,-105.055 237.477,-111.186 239.415,-104.46"/>
</a>
</g>
</g>
<!-- latlon_eastern_vals&#45;&gt;model_eastern_nosquash_nosoil -->
<g id="edge26" class="edge"><title>latlon_eastern_vals&#45;&gt;model_eastern_nosquash_nosoil</title>
<g id="a_edge26"><a xlink:title="test">
<path fill="none" stroke="black" d="M469.898,-147.503C507.692,-136.616 561.218,-121.197 602.809,-109.216"/>
<polygon fill="black" stroke="black" points="603.927,-112.537 612.568,-106.405 601.99,-105.81 603.927,-112.537"/>
</a>
</g>
</g>
<!-- latlon_eastern_vals&#45;&gt;model_eastern_nosquash -->
<g id="edge25" class="edge"><title>latlon_eastern_vals&#45;&gt;model_eastern_nosquash</title>
<g id="a_edge25"><a xlink:title="test">
<path fill="none" stroke="black" d="M423.046,-143.697C423.046,-135.983 423.046,-126.712 423.046,-118.112"/>
<polygon fill="black" stroke="black" points="426.546,-118.104 423.046,-108.104 419.546,-118.104 426.546,-118.104"/>
</a>
</g>
</g>
<!-- bioclim_raster -->
<g id="bioclim_raster" class="node"><title>bioclim_raster</title>
<g id="a_bioclim_raster"><a xlink:href="javascript:void();" xlink:title="bioclim_raster">
<ellipse fill="none" stroke="black" cx="235.046" cy="-450" rx="61.99" ry="18"/>
<text text-anchor="middle" x="235.046" y="-446.3" font-family="Times,serif" font-size="14.00">bioclim_raster</text>
</a>
</g>
</g>
<!-- bioclim_raster&#45;&gt;bioclimNA_raster -->
<g id="edge27" class="edge"><title>bioclim_raster&#45;&gt;bioclimNA_raster</title>
<g id="a_edge27"><a xlink:title="test">
<path fill="none" stroke="black" d="M234.057,-431.697C233.616,-423.983 233.086,-414.712 232.595,-406.112"/>
<polygon fill="black" stroke="black" points="236.088,-405.888 232.023,-396.104 229.099,-406.288 236.088,-405.888"/>
</a>
</g>
</g>
<!-- latlon_bison&#45;&gt;latlon -->
<g id="edge28" class="edge"><title>latlon_bison&#45;&gt;latlon</title>
<g id="a_edge28"><a xlink:title="test">
<path fill="none" stroke="black" d="M770.826,-432.411C763.138,-423.441 753.515,-412.215 745.079,-402.373"/>
<polygon fill="black" stroke="black" points="747.506,-399.826 738.341,-394.511 742.191,-404.381 747.506,-399.826"/>
</a>
</g>
</g>
</g>
</svg>
