<?xml version="1.0" encoding="UTF-8" standalone="no"?>
<!DOCTYPE svg PUBLIC "-//W3C//DTD SVG 1.1//EN"
 "http://www.w3.org/Graphics/SVG/1.1/DTD/svg11.dtd">
<!-- Generated by graphviz version 2.38.0 (20140413.2041)
 -->
<!-- Title: %3 Pages: 1 -->
<svg width="758pt" height="332pt"
 viewBox="0.00 0.00 757.88 332.00" xmlns="http://www.w3.org/2000/svg" xmlns:xlink="http://www.w3.org/1999/xlink">
<g id="graph0" class="graph" transform="scale(1 1) rotate(0) translate(4 328)">
<title>%3</title>
<polygon fill="white" stroke="none" points="-4,4 -4,-328 753.88,-328 753.88,4 -4,4"/>
<!-- worldclim_2050_rcp26 -->
<g id="worldclim_2050_rcp26" class="node"><title>worldclim_2050_rcp26</title>
<g id="a_worldclim_2050_rcp26"><a xlink:href="javascript:void();" xlink:title="worldclim_2050_rcp26">
<ellipse fill="none" stroke="black" cx="205.441" cy="-234" rx="93.6835" ry="18"/>
<text text-anchor="middle" x="205.441" y="-230.3" font-family="Times,serif" font-size="14.00">worldclim_2050_rcp26</text>
</a>
</g>
</g>
<!-- worldclim_2050_rcp26_NA -->
<g id="worldclim_2050_rcp26_NA" class="node"><title>worldclim_2050_rcp26_NA</title>
<g id="a_worldclim_2050_rcp26_NA"><a xlink:href="javascript:void();" xlink:title="worldclim_2050_rcp26_NA">
<ellipse fill="none" stroke="black" cx="343.441" cy="-162" rx="110.48" ry="18"/>
<text text-anchor="middle" x="343.441" y="-158.3" font-family="Times,serif" font-size="14.00">worldclim_2050_rcp26_NA</text>
</a>
</g>
</g>
<!-- worldclim_2050_rcp26&#45;&gt;worldclim_2050_rcp26_NA -->
<g id="edge1" class="edge"><title>worldclim_2050_rcp26&#45;&gt;worldclim_2050_rcp26_NA</title>
<g id="a_edge1"><a xlink:title="test">
<path fill="none" stroke="black" d="M237.101,-216.941C256.371,-207.166 281.202,-194.571 302.022,-184.01"/>
<polygon fill="black" stroke="black" points="303.636,-187.116 310.97,-179.471 300.469,-180.873 303.636,-187.116"/>
</a>
</g>
</g>
<!-- dist_2050_rcp26_eastern_nosquash -->
<g id="dist_2050_rcp26_eastern_nosquash" class="node"><title>dist_2050_rcp26_eastern_nosquash</title>
<g id="a_dist_2050_rcp26_eastern_nosquash"><a xlink:href="javascript:void();" xlink:title="dist_2050_rcp26_eastern_nosquash">
<ellipse fill="none" stroke="black" cx="174.441" cy="-18" rx="135.676" ry="18"/>
<text text-anchor="middle" x="174.441" y="-14.3" font-family="Times,serif" font-size="14.00">dist_2050_rcp26_eastern_nosquash</text>
</a>
</g>
</g>
<!-- model_eastern_nosquash -->
<g id="model_eastern_nosquash" class="node"><title>model_eastern_nosquash</title>
<g id="a_model_eastern_nosquash"><a xlink:href="javascript:void();" xlink:title="model_eastern_nosquash">
<ellipse fill="none" stroke="black" cx="99.4412" cy="-162" rx="99.3824" ry="18"/>
<text text-anchor="middle" x="99.4412" y="-158.3" font-family="Times,serif" font-size="14.00">model_eastern_nosquash</text>
</a>
</g>
</g>
<!-- model_eastern_nosquash&#45;&gt;dist_2050_rcp26_eastern_nosquash -->
<g id="edge2" class="edge"><title>model_eastern_nosquash&#45;&gt;dist_2050_rcp26_eastern_nosquash</title>
<g id="a_edge2"><a xlink:title="test">
<path fill="none" stroke="black" d="M108.488,-143.871C121.439,-119.35 145.375,-74.0321 160.572,-45.2589"/>
<polygon fill="black" stroke="black" points="163.787,-46.6663 165.362,-36.1893 157.597,-43.3971 163.787,-46.6663"/>
</a>
</g>
</g>
<!-- squash_bee_sdm_pipeline -->
<g id="squash_bee_sdm_pipeline" class="node"><title>squash_bee_sdm_pipeline</title>
<g id="a_squash_bee_sdm_pipeline"><a xlink:href="javascript:void();" xlink:title="squash_bee_sdm_pipeline">
<ellipse fill="none" stroke="black" cx="538.441" cy="-306" rx="103.182" ry="18"/>
<text text-anchor="middle" x="538.441" y="-302.3" font-family="Times,serif" font-size="14.00">squash_bee_sdm_pipeline</text>
</a>
</g>
</g>
<!-- squash_bee_sdm_pipeline&#45;&gt;model_eastern_nosquash -->
<g id="edge5" class="edge"><title>squash_bee_sdm_pipeline&#45;&gt;model_eastern_nosquash</title>
<g id="a_edge5"><a xlink:title="test">
<path fill="none" stroke="black" d="M441.363,-299.795C319.888,-292.286 124.947,-276.561 102.441,-252 87.4787,-235.671 88.3224,-209.748 91.9677,-190.081"/>
<polygon fill="black" stroke="black" points="95.4167,-190.692 94.1292,-180.176 88.5777,-189.2 95.4167,-190.692"/>
</a>
</g>
</g>
<!-- model_eastern_nosoil -->
<g id="model_eastern_nosoil" class="node"><title>model_eastern_nosoil</title>
<g id="a_model_eastern_nosoil"><a xlink:href="javascript:void();" xlink:title="model_eastern_nosoil">
<ellipse fill="none" stroke="black" cx="405.441" cy="-234" rx="88.2844" ry="18"/>
<text text-anchor="middle" x="405.441" y="-230.3" font-family="Times,serif" font-size="14.00">model_eastern_nosoil</text>
</a>
</g>
</g>
<!-- squash_bee_sdm_pipeline&#45;&gt;model_eastern_nosoil -->
<g id="edge3" class="edge"><title>squash_bee_sdm_pipeline&#45;&gt;model_eastern_nosoil</title>
<g id="a_edge3"><a xlink:title="test">
<path fill="none" stroke="black" d="M507.594,-288.765C488.961,-278.958 465.027,-266.361 445.009,-255.825"/>
<polygon fill="black" stroke="black" points="446.6,-252.708 436.121,-251.147 443.34,-258.902 446.6,-252.708"/>
</a>
</g>
</g>
<!-- ext -->
<g id="ext" class="node"><title>ext</title>
<g id="a_ext"><a xlink:href="javascript:void();" xlink:title="ext">
<ellipse fill="none" stroke="black" cx="538.441" cy="-234" rx="27" ry="18"/>
<text text-anchor="middle" x="538.441" y="-230.3" font-family="Times,serif" font-size="14.00">ext</text>
</a>
</g>
</g>
<!-- squash_bee_sdm_pipeline&#45;&gt;ext -->
<g id="edge4" class="edge"><title>squash_bee_sdm_pipeline&#45;&gt;ext</title>
<g id="a_edge4"><a xlink:title="test">
<path fill="none" stroke="black" d="M538.441,-287.697C538.441,-279.983 538.441,-270.712 538.441,-262.112"/>
<polygon fill="black" stroke="black" points="541.941,-262.104 538.441,-252.104 534.941,-262.104 541.941,-262.104"/>
</a>
</g>
</g>
<!-- hwsdNA_raster -->
<g id="hwsdNA_raster" class="node"><title>hwsdNA_raster</title>
<g id="a_hwsdNA_raster"><a xlink:href="javascript:void();" xlink:title="hwsdNA_raster">
<ellipse fill="none" stroke="black" cx="537.441" cy="-162" rx="65.7887" ry="18"/>
<text text-anchor="middle" x="537.441" y="-158.3" font-family="Times,serif" font-size="14.00">hwsdNA_raster</text>
</a>
</g>
</g>
<!-- squash_bee_sdm_pipeline&#45;&gt;hwsdNA_raster -->
<g id="edge6" class="edge"><title>squash_bee_sdm_pipeline&#45;&gt;hwsdNA_raster</title>
<g id="a_edge6"><a xlink:title="test">
<path fill="none" stroke="black" d="M554.051,-287.774C561.814,-278.03 570.387,-265.184 574.441,-252 579.144,-236.707 579.242,-231.263 574.441,-216 571.259,-205.884 565.385,-196.014 559.239,-187.588"/>
<polygon fill="black" stroke="black" points="561.995,-185.431 553.093,-179.686 556.47,-189.729 561.995,-185.431"/>
</a>
</g>
</g>
<!-- model_eastern_nosquash_nosoil -->
<g id="model_eastern_nosquash_nosoil" class="node"><title>model_eastern_nosquash_nosoil</title>
<g id="a_model_eastern_nosquash_nosoil"><a xlink:href="javascript:void();" xlink:title="model_eastern_nosquash_nosoil">
<ellipse fill="none" stroke="black" cx="624.441" cy="-90" rx="125.378" ry="18"/>
<text text-anchor="middle" x="624.441" y="-86.3" font-family="Times,serif" font-size="14.00">model_eastern_nosquash_nosoil</text>
</a>
</g>
</g>
<!-- squash_bee_sdm_pipeline&#45;&gt;model_eastern_nosquash_nosoil -->
<g id="edge7" class="edge"><title>squash_bee_sdm_pipeline&#45;&gt;model_eastern_nosquash_nosoil</title>
<g id="a_edge7"><a xlink:title="test">
<path fill="none" stroke="black" d="M559.146,-288.218C569.82,-278.605 582.275,-265.741 590.441,-252 615.463,-209.896 622.22,-151.977 623.953,-118.31"/>
<polygon fill="black" stroke="black" points="627.452,-118.414 624.356,-108.282 620.457,-118.133 627.452,-118.414"/>
</a>
</g>
</g>
<!-- future_predictors_2050_rcp26 -->
<g id="future_predictors_2050_rcp26" class="node"><title>future_predictors_2050_rcp26</title>
<g id="a_future_predictors_2050_rcp26"><a xlink:href="javascript:void();" xlink:title="future_predictors_2050_rcp26">
<ellipse fill="none" stroke="black" cx="350.441" cy="-90" rx="117.779" ry="18"/>
<text text-anchor="middle" x="350.441" y="-86.3" font-family="Times,serif" font-size="14.00">future_predictors_2050_rcp26</text>
</a>
</g>
</g>
<!-- worldclim_2050_rcp26_NA&#45;&gt;future_predictors_2050_rcp26 -->
<g id="edge8" class="edge"><title>worldclim_2050_rcp26_NA&#45;&gt;future_predictors_2050_rcp26</title>
<g id="a_edge8"><a xlink:title="test">
<path fill="none" stroke="black" d="M345.172,-143.697C345.943,-135.983 346.87,-126.712 347.73,-118.112"/>
<polygon fill="black" stroke="black" points="351.218,-118.403 348.731,-108.104 344.253,-117.706 351.218,-118.403"/>
</a>
</g>
</g>
<!-- dist_2050_rcp26_eastern_nosquash_nosoil -->
<g id="dist_2050_rcp26_eastern_nosquash_nosoil" class="node"><title>dist_2050_rcp26_eastern_nosquash_nosoil</title>
<g id="a_dist_2050_rcp26_eastern_nosquash_nosoil"><a xlink:href="javascript:void();" xlink:title="dist_2050_rcp26_eastern_nosquash_nosoil">
<ellipse fill="none" stroke="black" cx="576.441" cy="-18" rx="161.671" ry="18"/>
<text text-anchor="middle" x="576.441" y="-14.3" font-family="Times,serif" font-size="14.00">dist_2050_rcp26_eastern_nosquash_nosoil</text>
</a>
</g>
</g>
<!-- future_predictors_2050_rcp26&#45;&gt;dist_2050_rcp26_eastern_nosquash -->
<g id="edge10" class="edge"><title>future_predictors_2050_rcp26&#45;&gt;dist_2050_rcp26_eastern_nosquash</title>
<g id="a_edge10"><a xlink:title="test">
<path fill="none" stroke="black" d="M310.063,-72.9406C284.644,-62.8307 251.639,-49.7035 224.552,-38.9306"/>
<polygon fill="black" stroke="black" points="225.826,-35.6706 215.241,-35.2271 223.239,-42.1751 225.826,-35.6706"/>
</a>
</g>
</g>
<!-- future_predictors_2050_rcp26&#45;&gt;dist_2050_rcp26_eastern_nosquash_nosoil -->
<g id="edge9" class="edge"><title>future_predictors_2050_rcp26&#45;&gt;dist_2050_rcp26_eastern_nosquash_nosoil</title>
<g id="a_edge9"><a xlink:title="test">
<path fill="none" stroke="black" d="M400.038,-73.6382C433.768,-63.1907 478.642,-49.2917 514.689,-38.1267"/>
<polygon fill="black" stroke="black" points="516.089,-41.3573 524.606,-35.0553 514.018,-34.6707 516.089,-41.3573"/>
</a>
</g>
</g>
<!-- ext&#45;&gt;worldclim_2050_rcp26_NA -->
<g id="edge11" class="edge"><title>ext&#45;&gt;worldclim_2050_rcp26_NA</title>
<g id="a_edge11"><a xlink:title="test">
<path fill="none" stroke="black" d="M517.307,-222.506C512.47,-220.248 507.317,-217.956 502.441,-216 470.293,-203.105 433.661,-190.742 403.668,-181.205"/>
<polygon fill="black" stroke="black" points="404.357,-177.752 393.767,-178.082 402.251,-184.428 404.357,-177.752"/>
</a>
</g>
</g>
<!-- hwsdNA_raster&#45;&gt;future_predictors_2050_rcp26 -->
<g id="edge12" class="edge"><title>hwsdNA_raster&#45;&gt;future_predictors_2050_rcp26</title>
<g id="a_edge12"><a xlink:title="test">
<path fill="none" stroke="black" d="M500.048,-147.003C471.94,-136.481 433.096,-121.94 402.033,-110.313"/>
<polygon fill="black" stroke="black" points="403.256,-107.033 392.664,-106.805 400.802,-113.589 403.256,-107.033"/>
</a>
</g>
</g>
<!-- model_eastern_nosquash_nosoil&#45;&gt;dist_2050_rcp26_eastern_nosquash_nosoil -->
<g id="edge13" class="edge"><title>model_eastern_nosquash_nosoil&#45;&gt;dist_2050_rcp26_eastern_nosquash_nosoil</title>
<g id="a_edge13"><a xlink:title="test">
<path fill="none" stroke="black" d="M612.822,-72.055C607.187,-63.8373 600.298,-53.7911 594.037,-44.6599"/>
<polygon fill="black" stroke="black" points="596.829,-42.5432 588.287,-36.2753 591.056,-46.502 596.829,-42.5432"/>
</a>
</g>
</g>
</g>
</svg>
