<?xml version="1.0" encoding="UTF-8" standalone="no"?>
<!DOCTYPE svg PUBLIC "-//W3C//DTD SVG 1.1//EN"
 "http://www.w3.org/Graphics/SVG/1.1/DTD/svg11.dtd">
<!-- Generated by graphviz version 2.38.0 (20140413.2041)
 -->
<!-- Title: %3 Pages: 1 -->
<svg width="867pt" height="548pt"
 viewBox="0.00 0.00 866.74 548.00" xmlns="http://www.w3.org/2000/svg" xmlns:xlink="http://www.w3.org/1999/xlink">
<g id="graph0" class="graph" transform="scale(1 1) rotate(0) translate(4 544)">
<title>%3</title>
<polygon fill="white" stroke="none" points="-4,4 -4,-544 862.735,-544 862.735,4 -4,4"/>
<!-- model_eastern_nosquash -->
<g id="model_eastern_nosquash" class="node"><title>model_eastern_nosquash</title>
<g id="a_model_eastern_nosquash"><a xlink:href="javascript:void();" xlink:title="model_eastern_nosquash">
<ellipse fill="none" stroke="black" cx="434.69" cy="-90" rx="99.3824" ry="18"/>
<text text-anchor="middle" x="434.69" y="-86.3" font-family="Times,serif" font-size="14.00">model_eastern_nosquash</text>
</a>
</g>
</g>
<!-- dist_eastern_nosquash -->
<g id="dist_eastern_nosquash" class="node"><title>dist_eastern_nosquash</title>
<g id="a_dist_eastern_nosquash"><a xlink:href="javascript:void();" xlink:title="dist_eastern_nosquash">
<ellipse fill="none" stroke="black" cx="491.69" cy="-18" rx="89.8845" ry="18"/>
<text text-anchor="middle" x="491.69" y="-14.3" font-family="Times,serif" font-size="14.00">dist_eastern_nosquash</text>
</a>
</g>
</g>
<!-- model_eastern_nosquash&#45;&gt;dist_eastern_nosquash -->
<g id="edge1" class="edge"><title>model_eastern_nosquash&#45;&gt;dist_eastern_nosquash</title>
<g id="a_edge1"><a xlink:title="test">
<path fill="none" stroke="black" d="M448.488,-72.055C455.317,-63.6679 463.698,-53.376 471.254,-44.0963"/>
<polygon fill="black" stroke="black" points="474.022,-46.2397 477.623,-36.2753 468.594,-41.8197 474.022,-46.2397"/>
</a>
</g>
</g>
<!-- latlon_bison -->
<g id="latlon_bison" class="node"><title>latlon_bison</title>
<g id="a_latlon_bison"><a xlink:href="javascript:void();" xlink:title="latlon_bison">
<ellipse fill="none" stroke="black" cx="249.69" cy="-450" rx="53.8905" ry="18"/>
<text text-anchor="middle" x="249.69" y="-446.3" font-family="Times,serif" font-size="14.00">latlon_bison</text>
</a>
</g>
</g>
<!-- latlon -->
<g id="latlon" class="node"><title>latlon</title>
<g id="a_latlon"><a xlink:href="javascript:void();" xlink:title="latlon">
<ellipse fill="none" stroke="black" cx="309.69" cy="-378" rx="30.5947" ry="18"/>
<text text-anchor="middle" x="309.69" y="-374.3" font-family="Times,serif" font-size="14.00">latlon</text>
</a>
</g>
</g>
<!-- latlon_bison&#45;&gt;latlon -->
<g id="edge2" class="edge"><title>latlon_bison&#45;&gt;latlon</title>
<g id="a_edge2"><a xlink:title="test">
<path fill="none" stroke="black" d="M263.909,-432.411C271.598,-423.441 281.22,-412.215 289.656,-402.373"/>
<polygon fill="black" stroke="black" points="292.544,-404.381 296.395,-394.511 287.229,-399.826 292.544,-404.381"/>
</a>
</g>
</g>
<!-- gbif_data -->
<g id="gbif_data" class="node"><title>gbif_data</title>
<g id="a_gbif_data"><a xlink:href="javascript:void();" xlink:title="gbif_data">
<ellipse fill="none" stroke="black" cx="370.69" cy="-522" rx="44.393" ry="18"/>
<text text-anchor="middle" x="370.69" y="-518.3" font-family="Times,serif" font-size="14.00">gbif_data</text>
</a>
</g>
</g>
<!-- latlon_gbif -->
<g id="latlon_gbif" class="node"><title>latlon_gbif</title>
<g id="a_latlon_gbif"><a xlink:href="javascript:void();" xlink:title="latlon_gbif">
<ellipse fill="none" stroke="black" cx="370.69" cy="-450" rx="49.2915" ry="18"/>
<text text-anchor="middle" x="370.69" y="-446.3" font-family="Times,serif" font-size="14.00">latlon_gbif</text>
</a>
</g>
</g>
<!-- gbif_data&#45;&gt;latlon_gbif -->
<g id="edge3" class="edge"><title>gbif_data&#45;&gt;latlon_gbif</title>
<g id="a_edge3"><a xlink:title="test">
<path fill="none" stroke="black" d="M370.69,-503.697C370.69,-495.983 370.69,-486.712 370.69,-478.112"/>
<polygon fill="black" stroke="black" points="374.19,-478.104 370.69,-468.104 367.19,-478.104 374.19,-478.104"/>
</a>
</g>
</g>
<!-- bison_data -->
<g id="bison_data" class="node"><title>bison_data</title>
<g id="a_bison_data"><a xlink:href="javascript:void();" xlink:title="bison_data">
<ellipse fill="none" stroke="black" cx="249.69" cy="-522" rx="48.9926" ry="18"/>
<text text-anchor="middle" x="249.69" y="-518.3" font-family="Times,serif" font-size="14.00">bison_data</text>
</a>
</g>
</g>
<!-- bison_data&#45;&gt;latlon_bison -->
<g id="edge4" class="edge"><title>bison_data&#45;&gt;latlon_bison</title>
<g id="a_edge4"><a xlink:title="test">
<path fill="none" stroke="black" d="M249.69,-503.697C249.69,-495.983 249.69,-486.712 249.69,-478.112"/>
<polygon fill="black" stroke="black" points="253.19,-478.104 249.69,-468.104 246.19,-478.104 253.19,-478.104"/>
</a>
</g>
</g>
<!-- bioclimNA_raster -->
<g id="bioclimNA_raster" class="node"><title>bioclimNA_raster</title>
<g id="a_bioclimNA_raster"><a xlink:href="javascript:void();" xlink:title="bioclimNA_raster">
<ellipse fill="none" stroke="black" cx="627.69" cy="-378" rx="74.9875" ry="18"/>
<text text-anchor="middle" x="627.69" y="-374.3" font-family="Times,serif" font-size="14.00">bioclimNA_raster</text>
</a>
</g>
</g>
<!-- cucurbit_distanceNA_raster -->
<g id="cucurbit_distanceNA_raster" class="node"><title>cucurbit_distanceNA_raster</title>
<g id="a_cucurbit_distanceNA_raster"><a xlink:href="javascript:void();" xlink:title="cucurbit_distanceNA_raster">
<ellipse fill="none" stroke="black" cx="493.69" cy="-306" rx="109.381" ry="18"/>
<text text-anchor="middle" x="493.69" y="-302.3" font-family="Times,serif" font-size="14.00">cucurbit_distanceNA_raster</text>
</a>
</g>
</g>
<!-- bioclimNA_raster&#45;&gt;cucurbit_distanceNA_raster -->
<g id="edge5" class="edge"><title>bioclimNA_raster&#45;&gt;cucurbit_distanceNA_raster</title>
<g id="a_edge5"><a xlink:title="test">
<path fill="none" stroke="black" d="M597.951,-361.465C579.229,-351.685 554.815,-338.931 534.319,-328.225"/>
<polygon fill="black" stroke="black" points="535.697,-324.995 525.213,-323.467 532.456,-331.2 535.697,-324.995"/>
</a>
</g>
</g>
<!-- hwsdNA_raster -->
<g id="hwsdNA_raster" class="node"><title>hwsdNA_raster</title>
<g id="a_hwsdNA_raster"><a xlink:href="javascript:void();" xlink:title="hwsdNA_raster">
<ellipse fill="none" stroke="black" cx="726.69" cy="-306" rx="65.7887" ry="18"/>
<text text-anchor="middle" x="726.69" y="-302.3" font-family="Times,serif" font-size="14.00">hwsdNA_raster</text>
</a>
</g>
</g>
<!-- bioclimNA_raster&#45;&gt;hwsdNA_raster -->
<g id="edge7" class="edge"><title>bioclimNA_raster&#45;&gt;hwsdNA_raster</title>
<g id="a_edge7"><a xlink:title="test">
<path fill="none" stroke="black" d="M650.651,-360.765C664.021,-351.311 681.058,-339.265 695.615,-328.972"/>
<polygon fill="black" stroke="black" points="697.708,-331.778 703.853,-323.147 693.667,-326.063 697.708,-331.778"/>
</a>
</g>
</g>
<!-- predictors -->
<g id="predictors" class="node"><title>predictors</title>
<g id="a_predictors"><a xlink:href="javascript:void();" xlink:title="predictors">
<ellipse fill="none" stroke="black" cx="561.69" cy="-234" rx="46.2923" ry="18"/>
<text text-anchor="middle" x="561.69" y="-230.3" font-family="Times,serif" font-size="14.00">predictors</text>
</a>
</g>
</g>
<!-- bioclimNA_raster&#45;&gt;predictors -->
<g id="edge6" class="edge"><title>bioclimNA_raster&#45;&gt;predictors</title>
<g id="a_edge6"><a xlink:title="test">
<path fill="none" stroke="black" d="M627.468,-359.685C626.589,-341.049 623.283,-310.989 611.69,-288 606.051,-276.818 597.296,-266.358 588.678,-257.735"/>
<polygon fill="black" stroke="black" points="590.884,-255.003 581.222,-250.657 586.065,-260.08 590.884,-255.003"/>
</a>
</g>
</g>
<!-- latlon_sparse -->
<g id="latlon_sparse" class="node"><title>latlon_sparse</title>
<g id="a_latlon_sparse"><a xlink:href="javascript:void();" xlink:title="latlon_sparse">
<ellipse fill="none" stroke="black" cx="309.69" cy="-306" rx="57.3905" ry="18"/>
<text text-anchor="middle" x="309.69" y="-302.3" font-family="Times,serif" font-size="14.00">latlon_sparse</text>
</a>
</g>
</g>
<!-- latlon&#45;&gt;latlon_sparse -->
<g id="edge8" class="edge"><title>latlon&#45;&gt;latlon_sparse</title>
<g id="a_edge8"><a xlink:title="test">
<path fill="none" stroke="black" d="M309.69,-359.697C309.69,-351.983 309.69,-342.712 309.69,-334.112"/>
<polygon fill="black" stroke="black" points="313.19,-334.104 309.69,-324.104 306.19,-334.104 313.19,-334.104"/>
</a>
</g>
</g>
<!-- model_eastern_nosquash_nosoil -->
<g id="model_eastern_nosquash_nosoil" class="node"><title>model_eastern_nosquash_nosoil</title>
<g id="a_model_eastern_nosquash_nosoil"><a xlink:href="javascript:void();" xlink:title="model_eastern_nosquash_nosoil">
<ellipse fill="none" stroke="black" cx="191.69" cy="-90" rx="125.378" ry="18"/>
<text text-anchor="middle" x="191.69" y="-86.3" font-family="Times,serif" font-size="14.00">model_eastern_nosquash_nosoil</text>
</a>
</g>
</g>
<!-- dist_eastern_nosquash_nosoil -->
<g id="dist_eastern_nosquash_nosoil" class="node"><title>dist_eastern_nosquash_nosoil</title>
<g id="a_dist_eastern_nosquash_nosoil"><a xlink:href="javascript:void();" xlink:title="dist_eastern_nosquash_nosoil">
<ellipse fill="none" stroke="black" cx="115.69" cy="-18" rx="115.88" ry="18"/>
<text text-anchor="middle" x="115.69" y="-14.3" font-family="Times,serif" font-size="14.00">dist_eastern_nosquash_nosoil</text>
</a>
</g>
</g>
<!-- model_eastern_nosquash_nosoil&#45;&gt;dist_eastern_nosquash_nosoil -->
<g id="edge9" class="edge"><title>model_eastern_nosquash_nosoil&#45;&gt;dist_eastern_nosquash_nosoil</title>
<g id="a_edge9"><a xlink:title="test">
<path fill="none" stroke="black" d="M173.292,-72.055C163.77,-63.2847 151.987,-52.4318 141.564,-42.8312"/>
<polygon fill="black" stroke="black" points="143.644,-39.9894 133.918,-35.789 138.902,-45.1382 143.644,-39.9894"/>
</a>
</g>
</g>
<!-- bioclim_raster -->
<g id="bioclim_raster" class="node"><title>bioclim_raster</title>
<g id="a_bioclim_raster"><a xlink:href="javascript:void();" xlink:title="bioclim_raster">
<ellipse fill="none" stroke="black" cx="623.69" cy="-450" rx="61.99" ry="18"/>
<text text-anchor="middle" x="623.69" y="-446.3" font-family="Times,serif" font-size="14.00">bioclim_raster</text>
</a>
</g>
</g>
<!-- bioclim_raster&#45;&gt;bioclimNA_raster -->
<g id="edge10" class="edge"><title>bioclim_raster&#45;&gt;bioclimNA_raster</title>
<g id="a_edge10"><a xlink:title="test">
<path fill="none" stroke="black" d="M624.678,-431.697C625.119,-423.983 625.649,-414.712 626.14,-406.112"/>
<polygon fill="black" stroke="black" points="629.636,-406.288 626.712,-396.104 622.647,-405.888 629.636,-406.288"/>
</a>
</g>
</g>
<!-- cucurbit_distanceNA_raster&#45;&gt;predictors -->
<g id="edge11" class="edge"><title>cucurbit_distanceNA_raster&#45;&gt;predictors</title>
<g id="a_edge11"><a xlink:title="test">
<path fill="none" stroke="black" d="M510.151,-288.055C518.711,-279.243 529.314,-268.328 538.672,-258.694"/>
<polygon fill="black" stroke="black" points="541.391,-260.919 545.849,-251.307 536.37,-256.041 541.391,-260.919"/>
</a>
</g>
</g>
<!-- latlon_gbif&#45;&gt;latlon -->
<g id="edge12" class="edge"><title>latlon_gbif&#45;&gt;latlon</title>
<g id="a_edge12"><a xlink:title="test">
<path fill="none" stroke="black" d="M356.234,-432.411C348.338,-423.351 338.438,-411.99 329.8,-402.078"/>
<polygon fill="black" stroke="black" points="332.415,-399.751 323.206,-394.511 327.137,-404.349 332.415,-399.751"/>
</a>
</g>
</g>
<!-- hwsdNA_raster&#45;&gt;predictors -->
<g id="edge13" class="edge"><title>hwsdNA_raster&#45;&gt;predictors</title>
<g id="a_edge13"><a xlink:title="test">
<path fill="none" stroke="black" d="M692.502,-290.496C665.904,-279.212 628.961,-263.54 601.117,-251.727"/>
<polygon fill="black" stroke="black" points="602.252,-248.406 591.679,-247.723 599.518,-254.85 602.252,-248.406"/>
</a>
</g>
</g>
<!-- model_eastern_nosoil -->
<g id="model_eastern_nosoil" class="node"><title>model_eastern_nosoil</title>
<g id="a_model_eastern_nosoil"><a xlink:href="javascript:void();" xlink:title="model_eastern_nosoil">
<ellipse fill="none" stroke="black" cx="677.69" cy="-90" rx="88.2844" ry="18"/>
<text text-anchor="middle" x="677.69" y="-86.3" font-family="Times,serif" font-size="14.00">model_eastern_nosoil</text>
</a>
</g>
</g>
<!-- dist_eastern_nosoil -->
<g id="dist_eastern_nosoil" class="node"><title>dist_eastern_nosoil</title>
<g id="a_dist_eastern_nosoil"><a xlink:href="javascript:void();" xlink:title="dist_eastern_nosoil">
<ellipse fill="none" stroke="black" cx="735.69" cy="-18" rx="78.7863" ry="18"/>
<text text-anchor="middle" x="735.69" y="-14.3" font-family="Times,serif" font-size="14.00">dist_eastern_nosoil</text>
</a>
</g>
</g>
<!-- model_eastern_nosoil&#45;&gt;dist_eastern_nosoil -->
<g id="edge14" class="edge"><title>model_eastern_nosoil&#45;&gt;dist_eastern_nosoil</title>
<g id="a_edge14"><a xlink:title="test">
<path fill="none" stroke="black" d="M691.73,-72.055C698.783,-63.5427 707.462,-53.0684 715.239,-43.6815"/>
<polygon fill="black" stroke="black" points="718.094,-45.7223 721.779,-35.789 712.704,-41.2562 718.094,-45.7223"/>
</a>
</g>
</g>
<!-- latlon_eastern_vals -->
<g id="latlon_eastern_vals" class="node"><title>latlon_eastern_vals</title>
<g id="a_latlon_eastern_vals"><a xlink:href="javascript:void();" xlink:title="latlon_eastern_vals">
<ellipse fill="none" stroke="black" cx="434.69" cy="-162" rx="78.7863" ry="18"/>
<text text-anchor="middle" x="434.69" y="-158.3" font-family="Times,serif" font-size="14.00">latlon_eastern_vals</text>
</a>
</g>
</g>
<!-- latlon_eastern_vals&#45;&gt;model_eastern_nosquash -->
<g id="edge16" class="edge"><title>latlon_eastern_vals&#45;&gt;model_eastern_nosquash</title>
<g id="a_edge16"><a xlink:title="test">
<path fill="none" stroke="black" d="M434.69,-143.697C434.69,-135.983 434.69,-126.712 434.69,-118.112"/>
<polygon fill="black" stroke="black" points="438.19,-118.104 434.69,-108.104 431.19,-118.104 438.19,-118.104"/>
</a>
</g>
</g>
<!-- latlon_eastern_vals&#45;&gt;model_eastern_nosquash_nosoil -->
<g id="edge17" class="edge"><title>latlon_eastern_vals&#45;&gt;model_eastern_nosquash_nosoil</title>
<g id="a_edge17"><a xlink:title="test">
<path fill="none" stroke="black" d="M387.837,-147.503C350.044,-136.616 296.518,-121.197 254.926,-109.216"/>
<polygon fill="black" stroke="black" points="255.746,-105.81 245.167,-106.405 253.808,-112.537 255.746,-105.81"/>
</a>
</g>
</g>
<!-- latlon_eastern_vals&#45;&gt;model_eastern_nosoil -->
<g id="edge15" class="edge"><title>latlon_eastern_vals&#45;&gt;model_eastern_nosoil</title>
<g id="a_edge15"><a xlink:title="test">
<path fill="none" stroke="black" d="M481.543,-147.503C520.74,-136.212 576.862,-120.045 619.039,-107.895"/>
<polygon fill="black" stroke="black" points="620.258,-111.186 628.899,-105.055 618.32,-104.46 620.258,-111.186"/>
</a>
</g>
</g>
<!-- hwsdNAsp -->
<g id="hwsdNAsp" class="node"><title>hwsdNAsp</title>
<g id="a_hwsdNAsp"><a xlink:href="javascript:void();" xlink:title="hwsdNAsp">
<ellipse fill="none" stroke="black" cx="808.69" cy="-378" rx="50.0912" ry="18"/>
<text text-anchor="middle" x="808.69" y="-374.3" font-family="Times,serif" font-size="14.00">hwsdNAsp</text>
</a>
</g>
</g>
<!-- hwsdNAsp&#45;&gt;hwsdNA_raster -->
<g id="edge18" class="edge"><title>hwsdNAsp&#45;&gt;hwsdNA_raster</title>
<g id="a_edge18"><a xlink:title="test">
<path fill="none" stroke="black" d="M790.083,-361.116C779.333,-351.939 765.62,-340.233 753.7,-330.057"/>
<polygon fill="black" stroke="black" points="755.67,-327.138 745.792,-323.307 751.125,-332.462 755.67,-327.138"/>
</a>
</g>
</g>
<!-- latlon_eastern -->
<g id="latlon_eastern" class="node"><title>latlon_eastern</title>
<g id="a_latlon_eastern"><a xlink:href="javascript:void();" xlink:title="latlon_eastern">
<ellipse fill="none" stroke="black" cx="309.69" cy="-234" rx="59.5901" ry="18"/>
<text text-anchor="middle" x="309.69" y="-230.3" font-family="Times,serif" font-size="14.00">latlon_eastern</text>
</a>
</g>
</g>
<!-- latlon_sparse&#45;&gt;latlon_eastern -->
<g id="edge19" class="edge"><title>latlon_sparse&#45;&gt;latlon_eastern</title>
<g id="a_edge19"><a xlink:title="test">
<path fill="none" stroke="black" d="M309.69,-287.697C309.69,-279.983 309.69,-270.712 309.69,-262.112"/>
<polygon fill="black" stroke="black" points="313.19,-262.104 309.69,-252.104 306.19,-262.104 313.19,-262.104"/>
</a>
</g>
</g>
<!-- cucurbit_points -->
<g id="cucurbit_points" class="node"><title>cucurbit_points</title>
<g id="a_cucurbit_points"><a xlink:href="javascript:void();" xlink:title="cucurbit_points">
<ellipse fill="none" stroke="black" cx="469.69" cy="-378" rx="65.7887" ry="18"/>
<text text-anchor="middle" x="469.69" y="-374.3" font-family="Times,serif" font-size="14.00">cucurbit_points</text>
</a>
</g>
</g>
<!-- cucurbit_points&#45;&gt;cucurbit_distanceNA_raster -->
<g id="edge20" class="edge"><title>cucurbit_points&#45;&gt;cucurbit_distanceNA_raster</title>
<g id="a_edge20"><a xlink:title="test">
<path fill="none" stroke="black" d="M475.499,-360.055C478.201,-352.176 481.478,-342.617 484.503,-333.794"/>
<polygon fill="black" stroke="black" points="487.834,-334.87 487.767,-324.275 481.213,-332.6 487.834,-334.87"/>
</a>
</g>
</g>
<!-- eastern_boundaries -->
<g id="eastern_boundaries" class="node"><title>eastern_boundaries</title>
<g id="a_eastern_boundaries"><a xlink:href="javascript:void();" xlink:title="eastern_boundaries">
<ellipse fill="none" stroke="black" cx="155.69" cy="-306" rx="78.7863" ry="18"/>
<text text-anchor="middle" x="155.69" y="-302.3" font-family="Times,serif" font-size="14.00">eastern_boundaries</text>
</a>
</g>
</g>
<!-- eastern_boundaries&#45;&gt;latlon_eastern -->
<g id="edge21" class="edge"><title>eastern_boundaries&#45;&gt;latlon_eastern</title>
<g id="a_edge21"><a xlink:title="test">
<path fill="none" stroke="black" d="M189.486,-289.638C212.882,-279.004 244.146,-264.793 268.925,-253.53"/>
<polygon fill="black" stroke="black" points="270.419,-256.695 278.074,-249.371 267.522,-250.323 270.419,-256.695"/>
</a>
</g>
</g>
<!-- ext -->
<g id="ext" class="node"><title>ext</title>
<g id="a_ext"><a xlink:href="javascript:void();" xlink:title="ext">
<ellipse fill="none" stroke="black" cx="730.69" cy="-450" rx="27" ry="18"/>
<text text-anchor="middle" x="730.69" y="-446.3" font-family="Times,serif" font-size="14.00">ext</text>
</a>
</g>
</g>
<!-- ext&#45;&gt;bioclimNA_raster -->
<g id="edge23" class="edge"><title>ext&#45;&gt;bioclimNA_raster</title>
<g id="a_edge23"><a xlink:title="test">
<path fill="none" stroke="black" d="M712.275,-436.485C697.789,-426.64 677.245,-412.678 660.031,-400.979"/>
<polygon fill="black" stroke="black" points="661.621,-397.828 651.383,-395.102 657.686,-403.618 661.621,-397.828"/>
</a>
</g>
</g>
<!-- ext&#45;&gt;hwsdNA_raster -->
<g id="edge22" class="edge"><title>ext&#45;&gt;hwsdNA_raster</title>
<g id="a_edge22"><a xlink:title="test">
<path fill="none" stroke="black" d="M730.207,-431.871C729.526,-407.67 728.273,-363.211 727.461,-334.393"/>
<polygon fill="black" stroke="black" points="730.954,-334.087 727.174,-324.189 723.957,-334.284 730.954,-334.087"/>
</a>
</g>
</g>
<!-- predictors&#45;&gt;dist_eastern_nosquash -->
<g id="edge27" class="edge"><title>predictors&#45;&gt;dist_eastern_nosquash</title>
<g id="a_edge27"><a xlink:title="test">
<path fill="none" stroke="black" d="M563.141,-215.57C564.952,-184.925 565.435,-120.087 542.69,-72 537.495,-61.0185 529.119,-50.8796 520.642,-42.4736"/>
<polygon fill="black" stroke="black" points="522.939,-39.8297 513.245,-35.555 518.158,-44.9421 522.939,-39.8297"/>
</a>
</g>
</g>
<!-- predictors&#45;&gt;dist_eastern_nosquash_nosoil -->
<g id="edge24" class="edge"><title>predictors&#45;&gt;dist_eastern_nosquash_nosoil</title>
<g id="a_edge24"><a xlink:title="test">
<path fill="none" stroke="black" d="M517.248,-228.847C404.961,-217.344 114.725,-180.988 57.6897,-108 41.0019,-86.6446 62.5849,-60.4797 84,-42.0639"/>
<polygon fill="black" stroke="black" points="86.3016,-44.7028 91.8109,-35.653 81.8606,-39.2919 86.3016,-44.7028"/>
</a>
</g>
</g>
<!-- predictors&#45;&gt;latlon_eastern_vals -->
<g id="edge25" class="edge"><title>predictors&#45;&gt;latlon_eastern_vals</title>
<g id="a_edge25"><a xlink:title="test">
<path fill="none" stroke="black" d="M535.989,-218.834C517.68,-208.742 492.778,-195.017 472.246,-183.7"/>
<polygon fill="black" stroke="black" points="473.901,-180.616 463.453,-178.854 470.522,-186.746 473.901,-180.616"/>
</a>
</g>
</g>
<!-- predictors&#45;&gt;dist_eastern_nosoil -->
<g id="edge26" class="edge"><title>predictors&#45;&gt;dist_eastern_nosoil</title>
<g id="a_edge26"><a xlink:title="test">
<path fill="none" stroke="black" d="M599.249,-223.451C649.591,-208.402 736.977,-173.858 774.69,-108 786.612,-87.1799 773.251,-62.0249 759.019,-43.777"/>
<polygon fill="black" stroke="black" points="761.583,-41.3852 752.507,-35.9193 756.193,-45.8521 761.583,-41.3852"/>
</a>
</g>
</g>
<!-- latlon_eastern&#45;&gt;latlon_eastern_vals -->
<g id="edge28" class="edge"><title>latlon_eastern&#45;&gt;latlon_eastern_vals</title>
<g id="a_edge28"><a xlink:title="test">
<path fill="none" stroke="black" d="M336.813,-217.811C354.541,-207.883 377.932,-194.785 397.401,-183.882"/>
<polygon fill="black" stroke="black" points="399.303,-186.828 406.318,-178.888 395.883,-180.72 399.303,-186.828"/>
</a>
</g>
</g>
</g>
</svg>
