<?xml version="1.0" encoding="UTF-8" standalone="no"?>
<!DOCTYPE svg PUBLIC "-//W3C//DTD SVG 1.1//EN"
 "http://www.w3.org/Graphics/SVG/1.1/DTD/svg11.dtd">
<!-- Generated by graphviz version 2.38.0 (20140413.2041)
 -->
<!-- Title: %3 Pages: 1 -->
<svg width="863pt" height="548pt"
 viewBox="0.00 0.00 862.88 548.00" xmlns="http://www.w3.org/2000/svg" xmlns:xlink="http://www.w3.org/1999/xlink">
<g id="graph0" class="graph" transform="scale(1 1) rotate(0) translate(4 544)">
<title>%3</title>
<polygon fill="white" stroke="none" points="-4,4 -4,-544 858.88,-544 858.88,4 -4,4"/>
<!-- bioclimNA_raster -->
<g id="bioclimNA_raster" class="node"><title>bioclimNA_raster</title>
<g id="a_bioclimNA_raster"><a xlink:href="javascript:void();" xlink:title="bioclimNA_raster">
<ellipse fill="none" stroke="black" cx="612.69" cy="-378" rx="74.9875" ry="18"/>
<text text-anchor="middle" x="612.69" y="-374.3" font-family="Times,serif" font-size="14.00">bioclimNA_raster</text>
</a>
</g>
</g>
<!-- hwsdNA_raster -->
<g id="hwsdNA_raster" class="node"><title>hwsdNA_raster</title>
<g id="a_hwsdNA_raster"><a xlink:href="javascript:void();" xlink:title="hwsdNA_raster">
<ellipse fill="none" stroke="black" cx="514.69" cy="-306" rx="65.7887" ry="18"/>
<text text-anchor="middle" x="514.69" y="-302.3" font-family="Times,serif" font-size="14.00">hwsdNA_raster</text>
</a>
</g>
</g>
<!-- bioclimNA_raster&#45;&gt;hwsdNA_raster -->
<g id="edge2" class="edge"><title>bioclimNA_raster&#45;&gt;hwsdNA_raster</title>
<g id="a_edge2"><a xlink:title="test">
<path fill="none" stroke="black" d="M589.96,-360.765C576.726,-351.311 559.861,-339.265 545.451,-328.972"/>
<polygon fill="black" stroke="black" points="547.468,-326.112 537.296,-323.147 543.399,-331.808 547.468,-326.112"/>
</a>
</g>
</g>
<!-- predictors -->
<g id="predictors" class="node"><title>predictors</title>
<g id="a_predictors"><a xlink:href="javascript:void();" xlink:title="predictors">
<ellipse fill="none" stroke="black" cx="561.69" cy="-234" rx="46.2923" ry="18"/>
<text text-anchor="middle" x="561.69" y="-230.3" font-family="Times,serif" font-size="14.00">predictors</text>
</a>
</g>
</g>
<!-- bioclimNA_raster&#45;&gt;predictors -->
<g id="edge3" class="edge"><title>bioclimNA_raster&#45;&gt;predictors</title>
<g id="a_edge3"><a xlink:title="test">
<path fill="none" stroke="black" d="M609.508,-359.901C605.839,-341.706 599.083,-312.258 589.69,-288 586.102,-278.735 581.296,-269.01 576.68,-260.456"/>
<polygon fill="black" stroke="black" points="579.733,-258.745 571.811,-251.711 573.617,-262.15 579.733,-258.745"/>
</a>
</g>
</g>
<!-- cucurbit_distanceNA_raster -->
<g id="cucurbit_distanceNA_raster" class="node"><title>cucurbit_distanceNA_raster</title>
<g id="a_cucurbit_distanceNA_raster"><a xlink:href="javascript:void();" xlink:title="cucurbit_distanceNA_raster">
<ellipse fill="none" stroke="black" cx="745.69" cy="-306" rx="109.381" ry="18"/>
<text text-anchor="middle" x="745.69" y="-302.3" font-family="Times,serif" font-size="14.00">cucurbit_distanceNA_raster</text>
</a>
</g>
</g>
<!-- bioclimNA_raster&#45;&gt;cucurbit_distanceNA_raster -->
<g id="edge1" class="edge"><title>bioclimNA_raster&#45;&gt;cucurbit_distanceNA_raster</title>
<g id="a_edge1"><a xlink:title="test">
<path fill="none" stroke="black" d="M642.538,-361.291C661.134,-351.503 685.292,-338.789 705.553,-328.125"/>
<polygon fill="black" stroke="black" points="707.335,-331.142 714.554,-323.387 704.075,-324.947 707.335,-331.142"/>
</a>
</g>
</g>
<!-- hwsdNA_raster&#45;&gt;predictors -->
<g id="edge4" class="edge"><title>hwsdNA_raster&#45;&gt;predictors</title>
<g id="a_edge4"><a xlink:title="test">
<path fill="none" stroke="black" d="M526.067,-288.055C531.667,-279.715 538.532,-269.491 544.735,-260.252"/>
<polygon fill="black" stroke="black" points="547.749,-262.042 550.417,-251.789 541.937,-258.14 547.749,-262.042"/>
</a>
</g>
</g>
<!-- dist_eastern_nosquash_nosoil -->
<g id="dist_eastern_nosquash_nosoil" class="node"><title>dist_eastern_nosquash_nosoil</title>
<g id="a_dist_eastern_nosquash_nosoil"><a xlink:href="javascript:void();" xlink:title="dist_eastern_nosquash_nosoil">
<ellipse fill="none" stroke="black" cx="115.69" cy="-18" rx="115.88" ry="18"/>
<text text-anchor="middle" x="115.69" y="-14.3" font-family="Times,serif" font-size="14.00">dist_eastern_nosquash_nosoil</text>
</a>
</g>
</g>
<!-- predictors&#45;&gt;dist_eastern_nosquash_nosoil -->
<g id="edge6" class="edge"><title>predictors&#45;&gt;dist_eastern_nosquash_nosoil</title>
<g id="a_edge6"><a xlink:title="test">
<path fill="none" stroke="black" d="M520.31,-225.734C405.025,-205.086 86.7279,-145.16 57.6897,-108 41.0019,-86.6446 62.5849,-60.4797 84,-42.0639"/>
<polygon fill="black" stroke="black" points="86.3016,-44.7028 91.8109,-35.653 81.8606,-39.2919 86.3016,-44.7028"/>
</a>
</g>
</g>
<!-- latlon_eastern_vals -->
<g id="latlon_eastern_vals" class="node"><title>latlon_eastern_vals</title>
<g id="a_latlon_eastern_vals"><a xlink:href="javascript:void();" xlink:title="latlon_eastern_vals">
<ellipse fill="none" stroke="black" cx="434.69" cy="-162" rx="78.7863" ry="18"/>
<text text-anchor="middle" x="434.69" y="-158.3" font-family="Times,serif" font-size="14.00">latlon_eastern_vals</text>
</a>
</g>
</g>
<!-- predictors&#45;&gt;latlon_eastern_vals -->
<g id="edge7" class="edge"><title>predictors&#45;&gt;latlon_eastern_vals</title>
<g id="a_edge7"><a xlink:title="test">
<path fill="none" stroke="black" d="M535.989,-218.834C517.68,-208.742 492.778,-195.017 472.246,-183.7"/>
<polygon fill="black" stroke="black" points="473.901,-180.616 463.453,-178.854 470.522,-186.746 473.901,-180.616"/>
</a>
</g>
</g>
<!-- dist_eastern_nosquash -->
<g id="dist_eastern_nosquash" class="node"><title>dist_eastern_nosquash</title>
<g id="a_dist_eastern_nosquash"><a xlink:href="javascript:void();" xlink:title="dist_eastern_nosquash">
<ellipse fill="none" stroke="black" cx="491.69" cy="-18" rx="89.8845" ry="18"/>
<text text-anchor="middle" x="491.69" y="-14.3" font-family="Times,serif" font-size="14.00">dist_eastern_nosquash</text>
</a>
</g>
</g>
<!-- predictors&#45;&gt;dist_eastern_nosquash -->
<g id="edge5" class="edge"><title>predictors&#45;&gt;dist_eastern_nosquash</title>
<g id="a_edge5"><a xlink:title="test">
<path fill="none" stroke="black" d="M563.141,-215.57C564.952,-184.925 565.435,-120.087 542.69,-72 537.495,-61.0185 529.119,-50.8796 520.642,-42.4736"/>
<polygon fill="black" stroke="black" points="522.939,-39.8297 513.245,-35.555 518.158,-44.9421 522.939,-39.8297"/>
</a>
</g>
</g>
<!-- dist_eastern_nosoil -->
<g id="dist_eastern_nosoil" class="node"><title>dist_eastern_nosoil</title>
<g id="a_dist_eastern_nosoil"><a xlink:href="javascript:void();" xlink:title="dist_eastern_nosoil">
<ellipse fill="none" stroke="black" cx="735.69" cy="-18" rx="78.7863" ry="18"/>
<text text-anchor="middle" x="735.69" y="-14.3" font-family="Times,serif" font-size="14.00">dist_eastern_nosoil</text>
</a>
</g>
</g>
<!-- predictors&#45;&gt;dist_eastern_nosoil -->
<g id="edge8" class="edge"><title>predictors&#45;&gt;dist_eastern_nosoil</title>
<g id="a_edge8"><a xlink:title="test">
<path fill="none" stroke="black" d="M599.249,-223.451C649.591,-208.402 736.977,-173.858 774.69,-108 786.612,-87.1799 773.251,-62.0249 759.019,-43.777"/>
<polygon fill="black" stroke="black" points="761.583,-41.3852 752.507,-35.9193 756.193,-45.8521 761.583,-41.3852"/>
</a>
</g>
</g>
<!-- eastern_boundaries -->
<g id="eastern_boundaries" class="node"><title>eastern_boundaries</title>
<g id="a_eastern_boundaries"><a xlink:href="javascript:void();" xlink:title="eastern_boundaries">
<ellipse fill="none" stroke="black" cx="352.69" cy="-306" rx="78.7863" ry="18"/>
<text text-anchor="middle" x="352.69" y="-302.3" font-family="Times,serif" font-size="14.00">eastern_boundaries</text>
</a>
</g>
</g>
<!-- latlon_eastern -->
<g id="latlon_eastern" class="node"><title>latlon_eastern</title>
<g id="a_latlon_eastern"><a xlink:href="javascript:void();" xlink:title="latlon_eastern">
<ellipse fill="none" stroke="black" cx="352.69" cy="-234" rx="59.5901" ry="18"/>
<text text-anchor="middle" x="352.69" y="-230.3" font-family="Times,serif" font-size="14.00">latlon_eastern</text>
</a>
</g>
</g>
<!-- eastern_boundaries&#45;&gt;latlon_eastern -->
<g id="edge9" class="edge"><title>eastern_boundaries&#45;&gt;latlon_eastern</title>
<g id="a_edge9"><a xlink:title="test">
<path fill="none" stroke="black" d="M352.69,-287.697C352.69,-279.983 352.69,-270.712 352.69,-262.112"/>
<polygon fill="black" stroke="black" points="356.19,-262.104 352.69,-252.104 349.19,-262.104 356.19,-262.104"/>
</a>
</g>
</g>
<!-- hwsdNAsp -->
<g id="hwsdNAsp" class="node"><title>hwsdNAsp</title>
<g id="a_hwsdNAsp"><a xlink:href="javascript:void();" xlink:title="hwsdNAsp">
<ellipse fill="none" stroke="black" cx="431.69" cy="-378" rx="50.0912" ry="18"/>
<text text-anchor="middle" x="431.69" y="-374.3" font-family="Times,serif" font-size="14.00">hwsdNAsp</text>
</a>
</g>
</g>
<!-- hwsdNAsp&#45;&gt;hwsdNA_raster -->
<g id="edge10" class="edge"><title>hwsdNAsp&#45;&gt;hwsdNA_raster</title>
<g id="a_edge10"><a xlink:title="test">
<path fill="none" stroke="black" d="M450.524,-361.116C461.509,-351.851 475.552,-340.008 487.698,-329.764"/>
<polygon fill="black" stroke="black" points="489.966,-332.43 495.354,-323.307 485.453,-327.079 489.966,-332.43"/>
</a>
</g>
</g>
<!-- latlon_sparse -->
<g id="latlon_sparse" class="node"><title>latlon_sparse</title>
<g id="a_latlon_sparse"><a xlink:href="javascript:void();" xlink:title="latlon_sparse">
<ellipse fill="none" stroke="black" cx="198.69" cy="-306" rx="57.3905" ry="18"/>
<text text-anchor="middle" x="198.69" y="-302.3" font-family="Times,serif" font-size="14.00">latlon_sparse</text>
</a>
</g>
</g>
<!-- latlon_sparse&#45;&gt;latlon_eastern -->
<g id="edge11" class="edge"><title>latlon_sparse&#45;&gt;latlon_eastern</title>
<g id="a_edge11"><a xlink:title="test">
<path fill="none" stroke="black" d="M229.854,-290.834C253.493,-280.089 286.195,-265.225 311.914,-253.535"/>
<polygon fill="black" stroke="black" points="313.388,-256.709 321.043,-249.385 310.491,-250.337 313.388,-256.709"/>
</a>
</g>
</g>
<!-- latlon_gbif -->
<g id="latlon_gbif" class="node"><title>latlon_gbif</title>
<g id="a_latlon_gbif"><a xlink:href="javascript:void();" xlink:title="latlon_gbif">
<ellipse fill="none" stroke="black" cx="138.69" cy="-450" rx="49.2915" ry="18"/>
<text text-anchor="middle" x="138.69" y="-446.3" font-family="Times,serif" font-size="14.00">latlon_gbif</text>
</a>
</g>
</g>
<!-- latlon -->
<g id="latlon" class="node"><title>latlon</title>
<g id="a_latlon"><a xlink:href="javascript:void();" xlink:title="latlon">
<ellipse fill="none" stroke="black" cx="198.69" cy="-378" rx="30.5947" ry="18"/>
<text text-anchor="middle" x="198.69" y="-374.3" font-family="Times,serif" font-size="14.00">latlon</text>
</a>
</g>
</g>
<!-- latlon_gbif&#45;&gt;latlon -->
<g id="edge12" class="edge"><title>latlon_gbif&#45;&gt;latlon</title>
<g id="a_edge12"><a xlink:title="test">
<path fill="none" stroke="black" d="M152.909,-432.411C160.598,-423.441 170.22,-412.215 178.656,-402.373"/>
<polygon fill="black" stroke="black" points="181.544,-404.381 185.395,-394.511 176.229,-399.826 181.544,-404.381"/>
</a>
</g>
</g>
<!-- model_eastern_nosquash -->
<g id="model_eastern_nosquash" class="node"><title>model_eastern_nosquash</title>
<g id="a_model_eastern_nosquash"><a xlink:href="javascript:void();" xlink:title="model_eastern_nosquash">
<ellipse fill="none" stroke="black" cx="434.69" cy="-90" rx="99.3824" ry="18"/>
<text text-anchor="middle" x="434.69" y="-86.3" font-family="Times,serif" font-size="14.00">model_eastern_nosquash</text>
</a>
</g>
</g>
<!-- latlon_eastern_vals&#45;&gt;model_eastern_nosquash -->
<g id="edge15" class="edge"><title>latlon_eastern_vals&#45;&gt;model_eastern_nosquash</title>
<g id="a_edge15"><a xlink:title="test">
<path fill="none" stroke="black" d="M434.69,-143.697C434.69,-135.983 434.69,-126.712 434.69,-118.112"/>
<polygon fill="black" stroke="black" points="438.19,-118.104 434.69,-108.104 431.19,-118.104 438.19,-118.104"/>
</a>
</g>
</g>
<!-- model_eastern_nosquash_nosoil -->
<g id="model_eastern_nosquash_nosoil" class="node"><title>model_eastern_nosquash_nosoil</title>
<g id="a_model_eastern_nosquash_nosoil"><a xlink:href="javascript:void();" xlink:title="model_eastern_nosquash_nosoil">
<ellipse fill="none" stroke="black" cx="191.69" cy="-90" rx="125.378" ry="18"/>
<text text-anchor="middle" x="191.69" y="-86.3" font-family="Times,serif" font-size="14.00">model_eastern_nosquash_nosoil</text>
</a>
</g>
</g>
<!-- latlon_eastern_vals&#45;&gt;model_eastern_nosquash_nosoil -->
<g id="edge14" class="edge"><title>latlon_eastern_vals&#45;&gt;model_eastern_nosquash_nosoil</title>
<g id="a_edge14"><a xlink:title="test">
<path fill="none" stroke="black" d="M387.837,-147.503C350.044,-136.616 296.518,-121.197 254.926,-109.216"/>
<polygon fill="black" stroke="black" points="255.746,-105.81 245.167,-106.405 253.808,-112.537 255.746,-105.81"/>
</a>
</g>
</g>
<!-- model_eastern_nosoil -->
<g id="model_eastern_nosoil" class="node"><title>model_eastern_nosoil</title>
<g id="a_model_eastern_nosoil"><a xlink:href="javascript:void();" xlink:title="model_eastern_nosoil">
<ellipse fill="none" stroke="black" cx="677.69" cy="-90" rx="88.2844" ry="18"/>
<text text-anchor="middle" x="677.69" y="-86.3" font-family="Times,serif" font-size="14.00">model_eastern_nosoil</text>
</a>
</g>
</g>
<!-- latlon_eastern_vals&#45;&gt;model_eastern_nosoil -->
<g id="edge13" class="edge"><title>latlon_eastern_vals&#45;&gt;model_eastern_nosoil</title>
<g id="a_edge13"><a xlink:title="test">
<path fill="none" stroke="black" d="M481.543,-147.503C520.74,-136.212 576.862,-120.045 619.039,-107.895"/>
<polygon fill="black" stroke="black" points="620.258,-111.186 628.899,-105.055 618.32,-104.46 620.258,-111.186"/>
</a>
</g>
</g>
<!-- model_eastern_nosquash&#45;&gt;dist_eastern_nosquash -->
<g id="edge16" class="edge"><title>model_eastern_nosquash&#45;&gt;dist_eastern_nosquash</title>
<g id="a_edge16"><a xlink:title="test">
<path fill="none" stroke="black" d="M448.488,-72.055C455.317,-63.6679 463.698,-53.376 471.254,-44.0963"/>
<polygon fill="black" stroke="black" points="474.022,-46.2397 477.623,-36.2753 468.594,-41.8197 474.022,-46.2397"/>
</a>
</g>
</g>
<!-- bison_data -->
<g id="bison_data" class="node"><title>bison_data</title>
<g id="a_bison_data"><a xlink:href="javascript:void();" xlink:title="bison_data">
<ellipse fill="none" stroke="black" cx="259.69" cy="-522" rx="48.9926" ry="18"/>
<text text-anchor="middle" x="259.69" y="-518.3" font-family="Times,serif" font-size="14.00">bison_data</text>
</a>
</g>
</g>
<!-- latlon_bison -->
<g id="latlon_bison" class="node"><title>latlon_bison</title>
<g id="a_latlon_bison"><a xlink:href="javascript:void();" xlink:title="latlon_bison">
<ellipse fill="none" stroke="black" cx="259.69" cy="-450" rx="53.8905" ry="18"/>
<text text-anchor="middle" x="259.69" y="-446.3" font-family="Times,serif" font-size="14.00">latlon_bison</text>
</a>
</g>
</g>
<!-- bison_data&#45;&gt;latlon_bison -->
<g id="edge17" class="edge"><title>bison_data&#45;&gt;latlon_bison</title>
<g id="a_edge17"><a xlink:title="test">
<path fill="none" stroke="black" d="M259.69,-503.697C259.69,-495.983 259.69,-486.712 259.69,-478.112"/>
<polygon fill="black" stroke="black" points="263.19,-478.104 259.69,-468.104 256.19,-478.104 263.19,-478.104"/>
</a>
</g>
</g>
<!-- gbif_data -->
<g id="gbif_data" class="node"><title>gbif_data</title>
<g id="a_gbif_data"><a xlink:href="javascript:void();" xlink:title="gbif_data">
<ellipse fill="none" stroke="black" cx="138.69" cy="-522" rx="44.393" ry="18"/>
<text text-anchor="middle" x="138.69" y="-518.3" font-family="Times,serif" font-size="14.00">gbif_data</text>
</a>
</g>
</g>
<!-- gbif_data&#45;&gt;latlon_gbif -->
<g id="edge18" class="edge"><title>gbif_data&#45;&gt;latlon_gbif</title>
<g id="a_edge18"><a xlink:title="test">
<path fill="none" stroke="black" d="M138.69,-503.697C138.69,-495.983 138.69,-486.712 138.69,-478.112"/>
<polygon fill="black" stroke="black" points="142.19,-478.104 138.69,-468.104 135.19,-478.104 142.19,-478.104"/>
</a>
</g>
</g>
<!-- latlon&#45;&gt;latlon_sparse -->
<g id="edge19" class="edge"><title>latlon&#45;&gt;latlon_sparse</title>
<g id="a_edge19"><a xlink:title="test">
<path fill="none" stroke="black" d="M198.69,-359.697C198.69,-351.983 198.69,-342.712 198.69,-334.112"/>
<polygon fill="black" stroke="black" points="202.19,-334.104 198.69,-324.104 195.19,-334.104 202.19,-334.104"/>
</a>
</g>
</g>
<!-- latlon_bison&#45;&gt;latlon -->
<g id="edge20" class="edge"><title>latlon_bison&#45;&gt;latlon</title>
<g id="a_edge20"><a xlink:title="test">
<path fill="none" stroke="black" d="M245.234,-432.411C237.338,-423.351 227.438,-411.99 218.8,-402.078"/>
<polygon fill="black" stroke="black" points="221.415,-399.751 212.206,-394.511 216.137,-404.349 221.415,-399.751"/>
</a>
</g>
</g>
<!-- bioclim_raster -->
<g id="bioclim_raster" class="node"><title>bioclim_raster</title>
<g id="a_bioclim_raster"><a xlink:href="javascript:void();" xlink:title="bioclim_raster">
<ellipse fill="none" stroke="black" cx="616.69" cy="-450" rx="61.99" ry="18"/>
<text text-anchor="middle" x="616.69" y="-446.3" font-family="Times,serif" font-size="14.00">bioclim_raster</text>
</a>
</g>
</g>
<!-- bioclim_raster&#45;&gt;bioclimNA_raster -->
<g id="edge21" class="edge"><title>bioclim_raster&#45;&gt;bioclimNA_raster</title>
<g id="a_edge21"><a xlink:title="test">
<path fill="none" stroke="black" d="M615.701,-431.697C615.26,-423.983 614.73,-414.712 614.239,-406.112"/>
<polygon fill="black" stroke="black" points="617.732,-405.888 613.667,-396.104 610.743,-406.288 617.732,-405.888"/>
</a>
</g>
</g>
<!-- cucurbit_distanceNA_raster&#45;&gt;predictors -->
<g id="edge22" class="edge"><title>cucurbit_distanceNA_raster&#45;&gt;predictors</title>
<g id="a_edge22"><a xlink:title="test">
<path fill="none" stroke="black" d="M704.397,-289.291C674.184,-277.797 633.362,-262.267 603.118,-250.761"/>
<polygon fill="black" stroke="black" points="604.288,-247.461 593.697,-247.177 601.799,-254.004 604.288,-247.461"/>
</a>
</g>
</g>
<!-- model_eastern_nosquash_nosoil&#45;&gt;dist_eastern_nosquash_nosoil -->
<g id="edge23" class="edge"><title>model_eastern_nosquash_nosoil&#45;&gt;dist_eastern_nosquash_nosoil</title>
<g id="a_edge23"><a xlink:title="test">
<path fill="none" stroke="black" d="M173.292,-72.055C163.77,-63.2847 151.987,-52.4318 141.564,-42.8312"/>
<polygon fill="black" stroke="black" points="143.644,-39.9894 133.918,-35.789 138.902,-45.1382 143.644,-39.9894"/>
</a>
</g>
</g>
<!-- model_eastern_nosoil&#45;&gt;dist_eastern_nosoil -->
<g id="edge24" class="edge"><title>model_eastern_nosoil&#45;&gt;dist_eastern_nosoil</title>
<g id="a_edge24"><a xlink:title="test">
<path fill="none" stroke="black" d="M691.73,-72.055C698.783,-63.5427 707.462,-53.0684 715.239,-43.6815"/>
<polygon fill="black" stroke="black" points="718.094,-45.7223 721.779,-35.789 712.704,-41.2562 718.094,-45.7223"/>
</a>
</g>
</g>
<!-- latlon_eastern&#45;&gt;latlon_eastern_vals -->
<g id="edge25" class="edge"><title>latlon_eastern&#45;&gt;latlon_eastern_vals</title>
<g id="a_edge25"><a xlink:title="test">
<path fill="none" stroke="black" d="M371.708,-216.765C382.318,-207.708 395.716,-196.27 407.424,-186.276"/>
<polygon fill="black" stroke="black" points="409.872,-188.788 415.205,-179.633 405.327,-183.464 409.872,-188.788"/>
</a>
</g>
</g>
<!-- ext -->
<g id="ext" class="node"><title>ext</title>
<g id="a_ext"><a xlink:href="javascript:void();" xlink:title="ext">
<ellipse fill="none" stroke="black" cx="509.69" cy="-450" rx="27" ry="18"/>
<text text-anchor="middle" x="509.69" y="-446.3" font-family="Times,serif" font-size="14.00">ext</text>
</a>
</g>
</g>
<!-- ext&#45;&gt;bioclimNA_raster -->
<g id="edge26" class="edge"><title>ext&#45;&gt;bioclimNA_raster</title>
<g id="a_edge26"><a xlink:title="test">
<path fill="none" stroke="black" d="M528.104,-436.485C542.591,-426.64 563.135,-412.678 580.349,-400.979"/>
<polygon fill="black" stroke="black" points="582.693,-403.618 588.997,-395.102 578.759,-397.828 582.693,-403.618"/>
</a>
</g>
</g>
<!-- ext&#45;&gt;hwsdNA_raster -->
<g id="edge27" class="edge"><title>ext&#45;&gt;hwsdNA_raster</title>
<g id="a_edge27"><a xlink:title="test">
<path fill="none" stroke="black" d="M510.293,-431.871C511.145,-407.67 512.71,-363.211 513.725,-334.393"/>
<polygon fill="black" stroke="black" points="517.23,-334.306 514.084,-324.189 510.235,-334.06 517.23,-334.306"/>
</a>
</g>
</g>
<!-- cucurbit_points -->
<g id="cucurbit_points" class="node"><title>cucurbit_points</title>
<g id="a_cucurbit_points"><a xlink:href="javascript:void();" xlink:title="cucurbit_points">
<ellipse fill="none" stroke="black" cx="770.69" cy="-378" rx="65.7887" ry="18"/>
<text text-anchor="middle" x="770.69" y="-374.3" font-family="Times,serif" font-size="14.00">cucurbit_points</text>
</a>
</g>
</g>
<!-- cucurbit_points&#45;&gt;cucurbit_distanceNA_raster -->
<g id="edge28" class="edge"><title>cucurbit_points&#45;&gt;cucurbit_distanceNA_raster</title>
<g id="a_edge28"><a xlink:title="test">
<path fill="none" stroke="black" d="M764.638,-360.055C761.824,-352.176 758.41,-342.617 755.259,-333.794"/>
<polygon fill="black" stroke="black" points="758.519,-332.516 751.859,-324.275 751.927,-334.87 758.519,-332.516"/>
</a>
</g>
</g>
</g>
</svg>
