<?xml version="1.0" encoding="UTF-8" standalone="no"?>
<!DOCTYPE svg PUBLIC "-//W3C//DTD SVG 1.1//EN"
 "http://www.w3.org/Graphics/SVG/1.1/DTD/svg11.dtd">
<!-- Generated by graphviz version 2.38.0 (20140413.2041)
 -->
<!-- Title: %3 Pages: 1 -->
<svg width="581pt" height="332pt"
 viewBox="0.00 0.00 581.43 332.00" xmlns="http://www.w3.org/2000/svg" xmlns:xlink="http://www.w3.org/1999/xlink">
<g id="graph0" class="graph" transform="scale(1 1) rotate(0) translate(4 328)">
<title>%3</title>
<polygon fill="white" stroke="none" points="-4,4 -4,-328 577.432,-328 577.432,4 -4,4"/>
<!-- hwsdNA_raster -->
<g id="hwsdNA_raster" class="node"><title>hwsdNA_raster</title>
<g id="a_hwsdNA_raster"><a xlink:href="javascript:void();" xlink:title="hwsdNA_raster">
<ellipse fill="none" stroke="black" cx="65.6442" cy="-162" rx="65.7887" ry="18"/>
<text text-anchor="middle" x="65.6442" y="-158.3" font-family="Times,serif" font-size="14.00">hwsdNA_raster</text>
</a>
</g>
</g>
<!-- future_predictors_2050_rcp26 -->
<g id="future_predictors_2050_rcp26" class="node"><title>future_predictors_2050_rcp26</title>
<g id="a_future_predictors_2050_rcp26"><a xlink:href="javascript:void();" xlink:title="future_predictors_2050_rcp26">
<ellipse fill="none" stroke="black" cx="162.644" cy="-90" rx="117.779" ry="18"/>
<text text-anchor="middle" x="162.644" y="-86.3" font-family="Times,serif" font-size="14.00">future_predictors_2050_rcp26</text>
</a>
</g>
</g>
<!-- hwsdNA_raster&#45;&gt;future_predictors_2050_rcp26 -->
<g id="edge1" class="edge"><title>hwsdNA_raster&#45;&gt;future_predictors_2050_rcp26</title>
<g id="a_edge1"><a xlink:title="test">
<path fill="none" stroke="black" d="M88.1417,-144.765C100.841,-135.6 116.917,-123.999 130.882,-113.921"/>
<polygon fill="black" stroke="black" points="133.195,-116.568 139.256,-107.878 129.099,-110.892 133.195,-116.568"/>
</a>
</g>
</g>
<!-- dist_2050_rcp26_eastern_nosquash_nosoil -->
<g id="dist_2050_rcp26_eastern_nosquash_nosoil" class="node"><title>dist_2050_rcp26_eastern_nosquash_nosoil</title>
<g id="a_dist_2050_rcp26_eastern_nosquash_nosoil"><a xlink:href="javascript:void();" xlink:title="dist_2050_rcp26_eastern_nosquash_nosoil">
<ellipse fill="none" stroke="black" cx="298.644" cy="-18" rx="161.671" ry="18"/>
<text text-anchor="middle" x="298.644" y="-14.3" font-family="Times,serif" font-size="14.00">dist_2050_rcp26_eastern_nosquash_nosoil</text>
</a>
</g>
</g>
<!-- future_predictors_2050_rcp26&#45;&gt;dist_2050_rcp26_eastern_nosquash_nosoil -->
<g id="edge2" class="edge"><title>future_predictors_2050_rcp26&#45;&gt;dist_2050_rcp26_eastern_nosquash_nosoil</title>
<g id="a_edge2"><a xlink:title="test">
<path fill="none" stroke="black" d="M194.53,-72.5881C213.185,-62.9863 236.948,-50.7552 257.061,-40.4032"/>
<polygon fill="black" stroke="black" points="258.724,-43.4837 266.013,-35.7953 255.52,-37.2598 258.724,-43.4837"/>
</a>
</g>
</g>
<!-- worldclim_2050_rcp26_NA -->
<g id="worldclim_2050_rcp26_NA" class="node"><title>worldclim_2050_rcp26_NA</title>
<g id="a_worldclim_2050_rcp26_NA"><a xlink:href="javascript:void();" xlink:title="worldclim_2050_rcp26_NA">
<ellipse fill="none" stroke="black" cx="259.644" cy="-162" rx="110.48" ry="18"/>
<text text-anchor="middle" x="259.644" y="-158.3" font-family="Times,serif" font-size="14.00">worldclim_2050_rcp26_NA</text>
</a>
</g>
</g>
<!-- worldclim_2050_rcp26_NA&#45;&gt;future_predictors_2050_rcp26 -->
<g id="edge3" class="edge"><title>worldclim_2050_rcp26_NA&#45;&gt;future_predictors_2050_rcp26</title>
<g id="a_edge3"><a xlink:title="test">
<path fill="none" stroke="black" d="M236.163,-144.055C223.534,-134.941 207.787,-123.577 194.111,-113.708"/>
<polygon fill="black" stroke="black" points="196.066,-110.803 185.909,-107.789 191.97,-116.479 196.066,-110.803"/>
</a>
</g>
</g>
<!-- ext -->
<g id="ext" class="node"><title>ext</title>
<g id="a_ext"><a xlink:href="javascript:void();" xlink:title="ext">
<ellipse fill="none" stroke="black" cx="110.644" cy="-234" rx="27" ry="18"/>
<text text-anchor="middle" x="110.644" y="-230.3" font-family="Times,serif" font-size="14.00">ext</text>
</a>
</g>
</g>
<!-- ext&#45;&gt;worldclim_2050_rcp26_NA -->
<g id="edge4" class="edge"><title>ext&#45;&gt;worldclim_2050_rcp26_NA</title>
<g id="a_edge4"><a xlink:title="test">
<path fill="none" stroke="black" d="M131.96,-222.923C136.788,-220.644 141.891,-218.237 146.644,-216 169.427,-205.278 194.809,-193.369 215.737,-183.561"/>
<polygon fill="black" stroke="black" points="217.444,-186.626 225.014,-179.214 214.474,-180.288 217.444,-186.626"/>
</a>
</g>
</g>
<!-- squash_bee_sdm_pipeline -->
<g id="squash_bee_sdm_pipeline" class="node"><title>squash_bee_sdm_pipeline</title>
<g id="a_squash_bee_sdm_pipeline"><a xlink:href="javascript:void();" xlink:title="squash_bee_sdm_pipeline">
<ellipse fill="none" stroke="black" cx="168.644" cy="-306" rx="103.182" ry="18"/>
<text text-anchor="middle" x="168.644" y="-302.3" font-family="Times,serif" font-size="14.00">squash_bee_sdm_pipeline</text>
</a>
</g>
</g>
<!-- squash_bee_sdm_pipeline&#45;&gt;ext -->
<g id="edge5" class="edge"><title>squash_bee_sdm_pipeline&#45;&gt;ext</title>
<g id="a_edge5"><a xlink:title="test">
<path fill="none" stroke="black" d="M154.604,-288.055C147.165,-279.077 137.919,-267.917 129.828,-258.152"/>
<polygon fill="black" stroke="black" points="132.443,-255.824 123.368,-250.356 127.053,-260.29 132.443,-255.824"/>
</a>
</g>
</g>
<!-- squash_bee_sdm -->
<g id="squash_bee_sdm" class="node"><title>squash_bee_sdm</title>
<g id="a_squash_bee_sdm"><a xlink:href="javascript:void();" xlink:title="squash_bee_sdm">
<ellipse fill="none" stroke="black" cx="226.644" cy="-234" rx="70.6878" ry="18"/>
<text text-anchor="middle" x="226.644" y="-230.3" font-family="Times,serif" font-size="14.00">squash_bee_sdm</text>
</a>
</g>
</g>
<!-- squash_bee_sdm_pipeline&#45;&gt;squash_bee_sdm -->
<g id="edge6" class="edge"><title>squash_bee_sdm_pipeline&#45;&gt;squash_bee_sdm</title>
<g id="a_edge6"><a xlink:title="test">
<path fill="none" stroke="black" d="M182.684,-288.055C189.737,-279.543 198.416,-269.068 206.194,-259.681"/>
<polygon fill="black" stroke="black" points="209.048,-261.722 212.733,-251.789 203.658,-257.256 209.048,-261.722"/>
</a>
</g>
</g>
<!-- worldclim_2050_rcp26 -->
<g id="worldclim_2050_rcp26" class="node"><title>worldclim_2050_rcp26</title>
<g id="a_worldclim_2050_rcp26"><a xlink:href="javascript:void();" xlink:title="worldclim_2050_rcp26">
<ellipse fill="none" stroke="black" cx="408.644" cy="-234" rx="93.6835" ry="18"/>
<text text-anchor="middle" x="408.644" y="-230.3" font-family="Times,serif" font-size="14.00">worldclim_2050_rcp26</text>
</a>
</g>
</g>
<!-- worldclim_2050_rcp26&#45;&gt;worldclim_2050_rcp26_NA -->
<g id="edge7" class="edge"><title>worldclim_2050_rcp26&#45;&gt;worldclim_2050_rcp26_NA</title>
<g id="a_edge7"><a xlink:title="test">
<path fill="none" stroke="black" d="M374.834,-217.116C353.628,-207.154 326.078,-194.211 303.239,-183.481"/>
<polygon fill="black" stroke="black" points="304.635,-180.269 294.095,-179.185 301.658,-186.605 304.635,-180.269"/>
</a>
</g>
</g>
<!-- bc_model_eastern_nosquash_nosoil -->
<g id="bc_model_eastern_nosquash_nosoil" class="node"><title>bc_model_eastern_nosquash_nosoil</title>
<g id="a_bc_model_eastern_nosquash_nosoil"><a xlink:href="javascript:void();" xlink:title="bc_model_eastern_nosquash_nosoil">
<ellipse fill="none" stroke="black" cx="435.644" cy="-90" rx="137.576" ry="18"/>
<text text-anchor="middle" x="435.644" y="-86.3" font-family="Times,serif" font-size="14.00">bc_model_eastern_nosquash_nosoil</text>
</a>
</g>
</g>
<!-- bc_model_eastern_nosquash_nosoil&#45;&gt;dist_2050_rcp26_eastern_nosquash_nosoil -->
<g id="edge8" class="edge"><title>bc_model_eastern_nosquash_nosoil&#45;&gt;dist_2050_rcp26_eastern_nosquash_nosoil</title>
<g id="a_edge8"><a xlink:title="test">
<path fill="none" stroke="black" d="M403.177,-72.411C384.376,-62.8045 360.512,-50.6112 340.333,-40.3011"/>
<polygon fill="black" stroke="black" points="341.85,-37.1458 331.353,-35.7125 338.665,-43.3793 341.85,-37.1458"/>
</a>
</g>
</g>
</g>
</svg>
