<?xml version="1.0" encoding="UTF-8" standalone="no"?>
<!DOCTYPE svg PUBLIC "-//W3C//DTD SVG 1.1//EN"
 "http://www.w3.org/Graphics/SVG/1.1/DTD/svg11.dtd">
<!-- Generated by graphviz version 2.38.0 (20140413.2041)
 -->
<!-- Title: %3 Pages: 1 -->
<svg width="625pt" height="476pt"
 viewBox="0.00 0.00 625.09 476.00" xmlns="http://www.w3.org/2000/svg" xmlns:xlink="http://www.w3.org/1999/xlink">
<g id="graph0" class="graph" transform="scale(1 1) rotate(0) translate(4 472)">
<title>%3</title>
<polygon fill="white" stroke="none" points="-4,4 -4,-472 621.088,-472 621.088,4 -4,4"/>
<!-- pumpkinSpatialPoints2013 -->
<g id="pumpkinSpatialPoints2013" class="node"><title>pumpkinSpatialPoints2013</title>
<g id="a_pumpkinSpatialPoints2013"><a xlink:href="javascript:void();" xlink:title="pumpkinSpatialPoints2013">
<ellipse fill="none" stroke="black" cx="175.194" cy="-162" rx="106.681" ry="18"/>
<text text-anchor="middle" x="175.194" y="-158.3" font-family="Times,serif" font-size="14.00">pumpkinSpatialPoints2013</text>
</a>
</g>
</g>
<!-- pumpkinDistances -->
<g id="pumpkinDistances" class="node"><title>pumpkinDistances</title>
<g id="a_pumpkinDistances"><a xlink:href="javascript:void();" xlink:title="pumpkinDistances">
<ellipse fill="none" stroke="black" cx="122.194" cy="-90" rx="76.8869" ry="18"/>
<text text-anchor="middle" x="122.194" y="-86.3" font-family="Times,serif" font-size="14.00">pumpkinDistances</text>
</a>
</g>
</g>
<!-- pumpkinSpatialPoints2013&#45;&gt;pumpkinDistances -->
<g id="edge3" class="edge"><title>pumpkinSpatialPoints2013&#45;&gt;pumpkinDistances</title>
<g id="a_edge3"><a xlink:title="test">
<path fill="none" stroke="black" d="M162.364,-144.055C155.984,-135.629 148.148,-125.28 141.097,-115.966"/>
<polygon fill="black" stroke="black" points="143.732,-113.649 134.905,-107.789 138.151,-117.874 143.732,-113.649"/>
</a>
</g>
</g>
<!-- cucurbitSpatialPoints2013 -->
<g id="cucurbitSpatialPoints2013" class="node"><title>cucurbitSpatialPoints2013</title>
<g id="a_cucurbitSpatialPoints2013"><a xlink:href="javascript:void();" xlink:title="cucurbitSpatialPoints2013">
<ellipse fill="none" stroke="black" cx="320.194" cy="-90" rx="103.182" ry="18"/>
<text text-anchor="middle" x="320.194" y="-86.3" font-family="Times,serif" font-size="14.00">cucurbitSpatialPoints2013</text>
</a>
</g>
</g>
<!-- pumpkinSpatialPoints2013&#45;&gt;cucurbitSpatialPoints2013 -->
<g id="edge1" class="edge"><title>pumpkinSpatialPoints2013&#45;&gt;cucurbitSpatialPoints2013</title>
<g id="a_edge1"><a xlink:title="test">
<path fill="none" stroke="black" d="M208.824,-144.765C229.321,-134.87 255.703,-122.134 277.644,-111.541"/>
<polygon fill="black" stroke="black" points="279.262,-114.647 286.746,-107.147 276.219,-108.343 279.262,-114.647"/>
</a>
</g>
</g>
<!-- closestPumpkins -->
<g id="closestPumpkins" class="node"><title>closestPumpkins</title>
<g id="a_closestPumpkins"><a xlink:href="javascript:void();" xlink:title="closestPumpkins">
<ellipse fill="none" stroke="black" cx="70.1938" cy="-18" rx="70.3881" ry="18"/>
<text text-anchor="middle" x="70.1938" y="-14.3" font-family="Times,serif" font-size="14.00">closestPumpkins</text>
</a>
</g>
</g>
<!-- pumpkinSpatialPoints2013&#45;&gt;closestPumpkins -->
<g id="edge2" class="edge"><title>pumpkinSpatialPoints2013&#45;&gt;closestPumpkins</title>
<g id="a_edge2"><a xlink:title="test">
<path fill="none" stroke="black" d="M98.8461,-149.406C74.7736,-141.752 50.6995,-129.055 36.1938,-108 22.6853,-88.3922 35.1198,-62.6942 48.5922,-43.9552"/>
<polygon fill="black" stroke="black" points="51.4716,-45.9516 54.7658,-35.8819 45.911,-41.6995 51.4716,-45.9516"/>
</a>
</g>
</g>
<!-- cropCells -->
<g id="cropCells" class="node"><title>cropCells</title>
<g id="a_cropCells"><a xlink:href="javascript:void();" xlink:title="cropCells">
<ellipse fill="none" stroke="black" cx="335.194" cy="-306" rx="44.393" ry="18"/>
<text text-anchor="middle" x="335.194" y="-302.3" font-family="Times,serif" font-size="14.00">cropCells</text>
</a>
</g>
</g>
<!-- cropCells&#45;&gt;pumpkinSpatialPoints2013 -->
<g id="edge4" class="edge"><title>cropCells&#45;&gt;pumpkinSpatialPoints2013</title>
<g id="a_edge4"><a xlink:title="test">
<path fill="none" stroke="black" d="M339.396,-288.025C343.146,-268.573 345.902,-236.718 330.194,-216 315.319,-196.381 292.778,-183.97 269.458,-176.136"/>
<polygon fill="black" stroke="black" points="270.381,-172.757 259.793,-173.151 268.315,-179.446 270.381,-172.757"/>
</a>
</g>
</g>
<!-- squashSpatialPoints2013 -->
<g id="squashSpatialPoints2013" class="node"><title>squashSpatialPoints2013</title>
<g id="a_squashSpatialPoints2013"><a xlink:href="javascript:void();" xlink:title="squashSpatialPoints2013">
<ellipse fill="none" stroke="black" cx="406.194" cy="-162" rx="98.5829" ry="18"/>
<text text-anchor="middle" x="406.194" y="-158.3" font-family="Times,serif" font-size="14.00">squashSpatialPoints2013</text>
</a>
</g>
</g>
<!-- cropCells&#45;&gt;squashSpatialPoints2013 -->
<g id="edge6" class="edge"><title>cropCells&#45;&gt;squashSpatialPoints2013</title>
<g id="a_edge6"><a xlink:title="test">
<path fill="none" stroke="black" d="M344.176,-288.371C349.746,-277.967 356.997,-264.259 363.194,-252 373.776,-231.067 385.316,-207.115 393.775,-189.335"/>
<polygon fill="black" stroke="black" points="397.008,-190.687 398.132,-180.151 390.683,-187.686 397.008,-190.687"/>
</a>
</g>
</g>
<!-- cropSpatialPoints -->
<g id="cropSpatialPoints" class="node"><title>cropSpatialPoints</title>
<g id="a_cropSpatialPoints"><a xlink:href="javascript:void();" xlink:title="cropSpatialPoints">
<ellipse fill="none" stroke="black" cx="248.194" cy="-234" rx="72.5877" ry="18"/>
<text text-anchor="middle" x="248.194" y="-230.3" font-family="Times,serif" font-size="14.00">cropSpatialPoints</text>
</a>
</g>
</g>
<!-- cropCells&#45;&gt;cropSpatialPoints -->
<g id="edge5" class="edge"><title>cropCells&#45;&gt;cropSpatialPoints</title>
<g id="a_edge5"><a xlink:title="test">
<path fill="none" stroke="black" d="M315.886,-289.465C304.387,-280.213 289.583,-268.301 276.752,-257.978"/>
<polygon fill="black" stroke="black" points="278.645,-255.009 268.66,-251.467 274.257,-260.463 278.645,-255.009"/>
</a>
</g>
</g>
<!-- rasterObjects -->
<g id="rasterObjects" class="node"><title>rasterObjects</title>
<g id="a_rasterObjects"><a xlink:href="javascript:void();" xlink:title="rasterObjects">
<ellipse fill="none" stroke="black" cx="301.194" cy="-378" rx="57.3905" ry="18"/>
<text text-anchor="middle" x="301.194" y="-374.3" font-family="Times,serif" font-size="14.00">rasterObjects</text>
</a>
</g>
</g>
<!-- rasterObjects&#45;&gt;cropCells -->
<g id="edge8" class="edge"><title>rasterObjects&#45;&gt;cropCells</title>
<g id="a_edge8"><a xlink:title="test">
<path fill="none" stroke="black" d="M309.424,-360.055C313.392,-351.887 318.237,-341.912 322.65,-332.824"/>
<polygon fill="black" stroke="black" points="325.818,-334.313 327.039,-323.789 319.522,-331.255 325.818,-334.313"/>
</a>
</g>
</g>
<!-- rasterObjects&#45;&gt;cropSpatialPoints -->
<g id="edge7" class="edge"><title>rasterObjects&#45;&gt;cropSpatialPoints</title>
<g id="a_edge7"><a xlink:title="test">
<path fill="none" stroke="black" d="M294.801,-359.871C285.688,-335.457 268.881,-290.426 258.135,-261.635"/>
<polygon fill="black" stroke="black" points="261.385,-260.334 254.609,-252.189 254.827,-262.782 261.385,-260.334"/>
</a>
</g>
</g>
<!-- closestSquash -->
<g id="closestSquash" class="node"><title>closestSquash</title>
<g id="a_closestSquash"><a xlink:href="javascript:void();" xlink:title="closestSquash">
<ellipse fill="none" stroke="black" cx="499.194" cy="-18" rx="59.5901" ry="18"/>
<text text-anchor="middle" x="499.194" y="-14.3" font-family="Times,serif" font-size="14.00">closestSquash</text>
</a>
</g>
</g>
<!-- squashSpatialPoints2013&#45;&gt;closestSquash -->
<g id="edge10" class="edge"><title>squashSpatialPoints2013&#45;&gt;closestSquash</title>
<g id="a_edge10"><a xlink:title="test">
<path fill="none" stroke="black" d="M417.412,-143.871C433.628,-119.111 463.733,-73.144 482.546,-44.4198"/>
<polygon fill="black" stroke="black" points="485.674,-46.0315 488.225,-35.7483 479.818,-42.1963 485.674,-46.0315"/>
</a>
</g>
</g>
<!-- squashSpatialPoints2013&#45;&gt;cucurbitSpatialPoints2013 -->
<g id="edge9" class="edge"><title>squashSpatialPoints2013&#45;&gt;cucurbitSpatialPoints2013</title>
<g id="a_edge9"><a xlink:title="test">
<path fill="none" stroke="black" d="M385.376,-144.055C374.389,-135.113 360.743,-124.005 348.78,-114.268"/>
<polygon fill="black" stroke="black" points="350.785,-111.387 340.82,-107.789 346.366,-116.816 350.785,-111.387"/>
</a>
</g>
</g>
<!-- squashDistances -->
<g id="squashDistances" class="node"><title>squashDistances</title>
<g id="a_squashDistances"><a xlink:href="javascript:void();" xlink:title="squashDistances">
<ellipse fill="none" stroke="black" cx="548.194" cy="-90" rx="68.7879" ry="18"/>
<text text-anchor="middle" x="548.194" y="-86.3" font-family="Times,serif" font-size="14.00">squashDistances</text>
</a>
</g>
</g>
<!-- squashSpatialPoints2013&#45;&gt;squashDistances -->
<g id="edge11" class="edge"><title>squashSpatialPoints2013&#45;&gt;squashDistances</title>
<g id="a_edge11"><a xlink:title="test">
<path fill="none" stroke="black" d="M438.771,-144.941C459.406,-134.769 486.235,-121.543 508.163,-110.733"/>
<polygon fill="black" stroke="black" points="509.807,-113.825 517.229,-106.264 506.712,-107.547 509.807,-113.825"/>
</a>
</g>
</g>
<!-- pumpkinDistances&#45;&gt;closestPumpkins -->
<g id="edge12" class="edge"><title>pumpkinDistances&#45;&gt;closestPumpkins</title>
<g id="a_edge12"><a xlink:title="test">
<path fill="none" stroke="black" d="M109.606,-72.055C103.347,-63.6287 95.6588,-53.2798 88.7401,-43.9663"/>
<polygon fill="black" stroke="black" points="91.4385,-41.7293 82.6656,-35.789 85.8193,-45.9036 91.4385,-41.7293"/>
</a>
</g>
</g>
<!-- cropSpatialPoints&#45;&gt;pumpkinSpatialPoints2013 -->
<g id="edge13" class="edge"><title>cropSpatialPoints&#45;&gt;pumpkinSpatialPoints2013</title>
<g id="a_edge13"><a xlink:title="test">
<path fill="none" stroke="black" d="M230.894,-216.411C221.755,-207.648 210.372,-196.732 200.282,-187.057"/>
<polygon fill="black" stroke="black" points="202.517,-184.351 192.877,-179.956 197.672,-189.404 202.517,-184.351"/>
</a>
</g>
</g>
<!-- cropSpatialPoints&#45;&gt;squashSpatialPoints2013 -->
<g id="edge14" class="edge"><title>cropSpatialPoints&#45;&gt;squashSpatialPoints2013</title>
<g id="a_edge14"><a xlink:title="test">
<path fill="none" stroke="black" d="M282.089,-217.983C305.164,-207.76 335.962,-194.116 361.103,-182.977"/>
<polygon fill="black" stroke="black" points="362.709,-186.093 370.434,-178.843 359.874,-179.693 362.709,-186.093"/>
</a>
</g>
</g>
<!-- squashDistances&#45;&gt;closestSquash -->
<g id="edge15" class="edge"><title>squashDistances&#45;&gt;closestSquash</title>
<g id="a_edge15"><a xlink:title="test">
<path fill="none" stroke="black" d="M536.332,-72.055C530.494,-63.7147 523.337,-53.4908 516.87,-44.2517"/>
<polygon fill="black" stroke="black" points="519.548,-41.9742 510.946,-35.789 513.813,-45.9885 519.548,-41.9742"/>
</a>
</g>
</g>
<!-- rasterFiles -->
<g id="rasterFiles" class="node"><title>rasterFiles</title>
<g id="a_rasterFiles"><a xlink:href="javascript:void();" xlink:title="rasterFiles">
<ellipse fill="none" stroke="black" cx="301.194" cy="-450" rx="47.3916" ry="18"/>
<text text-anchor="middle" x="301.194" y="-446.3" font-family="Times,serif" font-size="14.00">rasterFiles</text>
</a>
</g>
</g>
<!-- rasterFiles&#45;&gt;pumpkinSpatialPoints2013 -->
<g id="edge16" class="edge"><title>rasterFiles&#45;&gt;pumpkinSpatialPoints2013</title>
<g id="a_edge16"><a xlink:title="test">
<path fill="none" stroke="black" d="M277.91,-434.22C264.159,-424.608 247.156,-411.083 235.194,-396 191.094,-340.397 181.918,-321.204 166.194,-252 161.556,-231.587 164.297,-207.997 167.932,-190.234"/>
<polygon fill="black" stroke="black" points="171.395,-190.789 170.19,-180.263 164.568,-189.243 171.395,-190.789"/>
</a>
</g>
</g>
<!-- rasterFiles&#45;&gt;rasterObjects -->
<g id="edge17" class="edge"><title>rasterFiles&#45;&gt;rasterObjects</title>
<g id="a_edge17"><a xlink:title="test">
<path fill="none" stroke="black" d="M301.194,-431.697C301.194,-423.983 301.194,-414.712 301.194,-406.112"/>
<polygon fill="black" stroke="black" points="304.694,-406.104 301.194,-396.104 297.694,-406.104 304.694,-406.104"/>
</a>
</g>
</g>
<!-- rasterFiles&#45;&gt;squashSpatialPoints2013 -->
<g id="edge18" class="edge"><title>rasterFiles&#45;&gt;squashSpatialPoints2013</title>
<g id="a_edge18"><a xlink:title="test">
<path fill="none" stroke="black" d="M326.031,-434.449C339.986,-425.098 356.662,-411.763 367.194,-396 409.908,-332.067 410.977,-236.819 408.489,-190.406"/>
<polygon fill="black" stroke="black" points="411.969,-189.984 407.841,-180.227 404.983,-190.429 411.969,-189.984"/>
</a>
</g>
</g>
</g>
</svg>
