<?xml version="1.0" encoding="UTF-8" standalone="no"?>
<!DOCTYPE svg PUBLIC "-//W3C//DTD SVG 1.1//EN"
 "http://www.w3.org/Graphics/SVG/1.1/DTD/svg11.dtd">
<!-- Generated by graphviz version 2.38.0 (20140413.2041)
 -->
<!-- Title: %3 Pages: 1 -->
<svg width="713pt" height="332pt"
 viewBox="0.00 0.00 712.88 332.00" xmlns="http://www.w3.org/2000/svg" xmlns:xlink="http://www.w3.org/1999/xlink">
<g id="graph0" class="graph" transform="scale(1 1) rotate(0) translate(4 328)">
<title>%3</title>
<polygon fill="white" stroke="none" points="-4,4 -4,-328 708.88,-328 708.88,4 -4,4"/>
<!-- future_predictors_2050_rcp26 -->
<g id="future_predictors_2050_rcp26" class="node"><title>future_predictors_2050_rcp26</title>
<g id="a_future_predictors_2050_rcp26"><a xlink:href="javascript:void();" xlink:title="future_predictors_2050_rcp26">
<ellipse fill="none" stroke="black" cx="404.439" cy="-90" rx="117.779" ry="18"/>
<text text-anchor="middle" x="404.439" y="-86.3" font-family="Times,serif" font-size="14.00">future_predictors_2050_rcp26</text>
</a>
</g>
</g>
<!-- dist_2050_rcp26_eastern_nosquash -->
<g id="dist_2050_rcp26_eastern_nosquash" class="node"><title>dist_2050_rcp26_eastern_nosquash</title>
<g id="a_dist_2050_rcp26_eastern_nosquash"><a xlink:href="javascript:void();" xlink:title="dist_2050_rcp26_eastern_nosquash">
<ellipse fill="none" stroke="black" cx="543.439" cy="-18" rx="135.676" ry="18"/>
<text text-anchor="middle" x="543.439" y="-14.3" font-family="Times,serif" font-size="14.00">dist_2050_rcp26_eastern_nosquash</text>
</a>
</g>
</g>
<!-- future_predictors_2050_rcp26&#45;&gt;dist_2050_rcp26_eastern_nosquash -->
<g id="edge2" class="edge"><title>future_predictors_2050_rcp26&#45;&gt;dist_2050_rcp26_eastern_nosquash</title>
<g id="a_edge2"><a xlink:title="test">
<path fill="none" stroke="black" d="M437.028,-72.5881C456.234,-62.9162 480.737,-50.5765 501.388,-40.1768"/>
<polygon fill="black" stroke="black" points="503.215,-43.1755 510.572,-35.5516 500.066,-36.9235 503.215,-43.1755"/>
</a>
</g>
</g>
<!-- dist_2050_rcp26_eastern_nosquash_nosoil -->
<g id="dist_2050_rcp26_eastern_nosquash_nosoil" class="node"><title>dist_2050_rcp26_eastern_nosquash_nosoil</title>
<g id="a_dist_2050_rcp26_eastern_nosquash_nosoil"><a xlink:href="javascript:void();" xlink:title="dist_2050_rcp26_eastern_nosquash_nosoil">
<ellipse fill="none" stroke="black" cx="193.439" cy="-18" rx="161.671" ry="18"/>
<text text-anchor="middle" x="193.439" y="-14.3" font-family="Times,serif" font-size="14.00">dist_2050_rcp26_eastern_nosquash_nosoil</text>
</a>
</g>
</g>
<!-- future_predictors_2050_rcp26&#45;&gt;dist_2050_rcp26_eastern_nosquash_nosoil -->
<g id="edge1" class="edge"><title>future_predictors_2050_rcp26&#45;&gt;dist_2050_rcp26_eastern_nosquash_nosoil</title>
<g id="a_edge1"><a xlink:title="test">
<path fill="none" stroke="black" d="M357.611,-73.4647C326.449,-63.1267 285.274,-49.4666 251.955,-38.4131"/>
<polygon fill="black" stroke="black" points="252.929,-35.0485 242.335,-35.2216 250.725,-41.6924 252.929,-35.0485"/>
</a>
</g>
</g>
<!-- worldclim_2050_rcp26_NA -->
<g id="worldclim_2050_rcp26_NA" class="node"><title>worldclim_2050_rcp26_NA</title>
<g id="a_worldclim_2050_rcp26_NA"><a xlink:href="javascript:void();" xlink:title="worldclim_2050_rcp26_NA">
<ellipse fill="none" stroke="black" cx="228.439" cy="-162" rx="110.48" ry="18"/>
<text text-anchor="middle" x="228.439" y="-158.3" font-family="Times,serif" font-size="14.00">worldclim_2050_rcp26_NA</text>
</a>
</g>
</g>
<!-- worldclim_2050_rcp26_NA&#45;&gt;future_predictors_2050_rcp26 -->
<g id="edge3" class="edge"><title>worldclim_2050_rcp26_NA&#45;&gt;future_predictors_2050_rcp26</title>
<g id="a_edge3"><a xlink:title="test">
<path fill="none" stroke="black" d="M268.376,-145.116C294.051,-134.904 327.6,-121.561 354.959,-110.679"/>
<polygon fill="black" stroke="black" points="356.357,-113.89 364.356,-106.942 353.77,-107.386 356.357,-113.89"/>
</a>
</g>
</g>
<!-- model_eastern_nosquash -->
<g id="model_eastern_nosquash" class="node"><title>model_eastern_nosquash</title>
<g id="a_model_eastern_nosquash"><a xlink:href="javascript:void();" xlink:title="model_eastern_nosquash">
<ellipse fill="none" stroke="black" cx="605.439" cy="-162" rx="99.3824" ry="18"/>
<text text-anchor="middle" x="605.439" y="-158.3" font-family="Times,serif" font-size="14.00">model_eastern_nosquash</text>
</a>
</g>
</g>
<!-- model_eastern_nosquash&#45;&gt;dist_2050_rcp26_eastern_nosquash -->
<g id="edge4" class="edge"><title>model_eastern_nosquash&#45;&gt;dist_2050_rcp26_eastern_nosquash</title>
<g id="a_edge4"><a xlink:title="test">
<path fill="none" stroke="black" d="M597.96,-143.871C587.3,-119.457 567.639,-74.4258 555.068,-45.6351"/>
<polygon fill="black" stroke="black" points="558.153,-43.9533 550.944,-36.1893 551.738,-46.7543 558.153,-43.9533"/>
</a>
</g>
</g>
<!-- worldclim_2050_rcp26 -->
<g id="worldclim_2050_rcp26" class="node"><title>worldclim_2050_rcp26</title>
<g id="a_worldclim_2050_rcp26"><a xlink:href="javascript:void();" xlink:title="worldclim_2050_rcp26">
<ellipse fill="none" stroke="black" cx="228.439" cy="-234" rx="93.6835" ry="18"/>
<text text-anchor="middle" x="228.439" y="-230.3" font-family="Times,serif" font-size="14.00">worldclim_2050_rcp26</text>
</a>
</g>
</g>
<!-- worldclim_2050_rcp26&#45;&gt;worldclim_2050_rcp26_NA -->
<g id="edge5" class="edge"><title>worldclim_2050_rcp26&#45;&gt;worldclim_2050_rcp26_NA</title>
<g id="a_edge5"><a xlink:title="test">
<path fill="none" stroke="black" d="M228.439,-215.697C228.439,-207.983 228.439,-198.712 228.439,-190.112"/>
<polygon fill="black" stroke="black" points="231.939,-190.104 228.439,-180.104 224.939,-190.104 231.939,-190.104"/>
</a>
</g>
</g>
<!-- hwsdNA_raster -->
<g id="hwsdNA_raster" class="node"><title>hwsdNA_raster</title>
<g id="a_hwsdNA_raster"><a xlink:href="javascript:void();" xlink:title="hwsdNA_raster">
<ellipse fill="none" stroke="black" cx="422.439" cy="-162" rx="65.7887" ry="18"/>
<text text-anchor="middle" x="422.439" y="-158.3" font-family="Times,serif" font-size="14.00">hwsdNA_raster</text>
</a>
</g>
</g>
<!-- hwsdNA_raster&#45;&gt;future_predictors_2050_rcp26 -->
<g id="edge6" class="edge"><title>hwsdNA_raster&#45;&gt;future_predictors_2050_rcp26</title>
<g id="a_edge6"><a xlink:title="test">
<path fill="none" stroke="black" d="M417.989,-143.697C415.984,-135.898 413.57,-126.509 411.338,-117.829"/>
<polygon fill="black" stroke="black" points="414.717,-116.918 408.837,-108.104 407.938,-118.661 414.717,-116.918"/>
</a>
</g>
</g>
<!-- model_eastern_nosquash_nosoil -->
<g id="model_eastern_nosquash_nosoil" class="node"><title>model_eastern_nosquash_nosoil</title>
<g id="a_model_eastern_nosquash_nosoil"><a xlink:href="javascript:void();" xlink:title="model_eastern_nosquash_nosoil">
<ellipse fill="none" stroke="black" cx="125.439" cy="-90" rx="125.378" ry="18"/>
<text text-anchor="middle" x="125.439" y="-86.3" font-family="Times,serif" font-size="14.00">model_eastern_nosquash_nosoil</text>
</a>
</g>
</g>
<!-- model_eastern_nosquash_nosoil&#45;&gt;dist_2050_rcp26_eastern_nosquash_nosoil -->
<g id="edge7" class="edge"><title>model_eastern_nosquash_nosoil&#45;&gt;dist_2050_rcp26_eastern_nosquash_nosoil</title>
<g id="a_edge7"><a xlink:title="test">
<path fill="none" stroke="black" d="M141.9,-72.055C150.212,-63.4984 160.45,-52.9594 169.605,-43.5352"/>
<polygon fill="black" stroke="black" points="172.2,-45.8869 176.657,-36.2753 167.179,-41.0094 172.2,-45.8869"/>
</a>
</g>
</g>
<!-- ext -->
<g id="ext" class="node"><title>ext</title>
<g id="a_ext"><a xlink:href="javascript:void();" xlink:title="ext">
<ellipse fill="none" stroke="black" cx="367.439" cy="-234" rx="27" ry="18"/>
<text text-anchor="middle" x="367.439" y="-230.3" font-family="Times,serif" font-size="14.00">ext</text>
</a>
</g>
</g>
<!-- ext&#45;&gt;worldclim_2050_rcp26_NA -->
<g id="edge8" class="edge"><title>ext&#45;&gt;worldclim_2050_rcp26_NA</title>
<g id="a_edge8"><a xlink:title="test">
<path fill="none" stroke="black" d="M346.629,-222.52C326.394,-212.33 295.091,-196.566 269.784,-183.821"/>
<polygon fill="black" stroke="black" points="271.268,-180.65 260.762,-179.278 268.12,-186.902 271.268,-180.65"/>
</a>
</g>
</g>
<!-- squash_bee_sdm_pipeline -->
<g id="squash_bee_sdm_pipeline" class="node"><title>squash_bee_sdm_pipeline</title>
<g id="a_squash_bee_sdm_pipeline"><a xlink:href="javascript:void();" xlink:title="squash_bee_sdm_pipeline">
<ellipse fill="none" stroke="black" cx="394.439" cy="-306" rx="103.182" ry="18"/>
<text text-anchor="middle" x="394.439" y="-302.3" font-family="Times,serif" font-size="14.00">squash_bee_sdm_pipeline</text>
</a>
</g>
</g>
<!-- squash_bee_sdm_pipeline&#45;&gt;model_eastern_nosquash -->
<g id="edge12" class="edge"><title>squash_bee_sdm_pipeline&#45;&gt;model_eastern_nosquash</title>
<g id="a_edge12"><a xlink:title="test">
<path fill="none" stroke="black" d="M419.056,-288.433C457.093,-262.835 530.186,-213.644 572.658,-185.061"/>
<polygon fill="black" stroke="black" points="574.636,-187.949 580.978,-179.462 570.728,-182.141 574.636,-187.949"/>
</a>
</g>
</g>
<!-- squash_bee_sdm_pipeline&#45;&gt;hwsdNA_raster -->
<g id="edge9" class="edge"><title>squash_bee_sdm_pipeline&#45;&gt;hwsdNA_raster</title>
<g id="a_edge9"><a xlink:title="test">
<path fill="none" stroke="black" d="M397.816,-287.871C402.609,-263.564 411.432,-218.819 417.112,-190.013"/>
<polygon fill="black" stroke="black" points="420.549,-190.677 419.049,-180.189 413.681,-189.323 420.549,-190.677"/>
</a>
</g>
</g>
<!-- squash_bee_sdm_pipeline&#45;&gt;model_eastern_nosquash_nosoil -->
<g id="edge10" class="edge"><title>squash_bee_sdm_pipeline&#45;&gt;model_eastern_nosquash_nosoil</title>
<g id="a_edge10"><a xlink:title="test">
<path fill="none" stroke="black" d="M302.936,-297.611C235.166,-290.239 150.431,-276.397 125.439,-252 90.1218,-217.525 103.523,-154.015 115.239,-117.923"/>
<polygon fill="black" stroke="black" points="118.678,-118.686 118.611,-108.091 112.056,-116.415 118.678,-118.686"/>
</a>
</g>
</g>
<!-- squash_bee_sdm_pipeline&#45;&gt;ext -->
<g id="edge11" class="edge"><title>squash_bee_sdm_pipeline&#45;&gt;ext</title>
<g id="a_edge11"><a xlink:title="test">
<path fill="none" stroke="black" d="M387.765,-287.697C384.679,-279.696 380.947,-270.02 377.527,-261.155"/>
<polygon fill="black" stroke="black" points="380.715,-259.693 373.85,-251.622 374.184,-262.212 380.715,-259.693"/>
</a>
</g>
</g>
</g>
</svg>
