<?xml version="1.0" encoding="UTF-8" standalone="no"?>
<!DOCTYPE svg PUBLIC "-//W3C//DTD SVG 1.1//EN"
 "http://www.w3.org/Graphics/SVG/1.1/DTD/svg11.dtd">
<!-- Generated by graphviz version 2.38.0 (20140413.2041)
 -->
<!-- Title: %3 Pages: 1 -->
<svg width="626pt" height="476pt"
 viewBox="0.00 0.00 625.99 476.00" xmlns="http://www.w3.org/2000/svg" xmlns:xlink="http://www.w3.org/1999/xlink">
<g id="graph0" class="graph" transform="scale(1 1) rotate(0) translate(4 472)">
<title>%3</title>
<polygon fill="white" stroke="none" points="-4,4 -4,-472 621.988,-472 621.988,4 -4,4"/>
<!-- cropCells -->
<g id="cropCells" class="node"><title>cropCells</title>
<g id="a_cropCells"><a xlink:href="javascript:void();" xlink:title="cropCells">
<ellipse fill="none" stroke="black" cx="364.194" cy="-306" rx="44.393" ry="18"/>
<text text-anchor="middle" x="364.194" y="-302.3" font-family="Times,serif" font-size="14.00">cropCells</text>
</a>
</g>
</g>
<!-- pumpkinSpatialPoints2014 -->
<g id="pumpkinSpatialPoints2014" class="node"><title>pumpkinSpatialPoints2014</title>
<g id="a_pumpkinSpatialPoints2014"><a xlink:href="javascript:void();" xlink:title="pumpkinSpatialPoints2014">
<ellipse fill="none" stroke="black" cx="204.194" cy="-162" rx="106.681" ry="18"/>
<text text-anchor="middle" x="204.194" y="-158.3" font-family="Times,serif" font-size="14.00">pumpkinSpatialPoints2014</text>
</a>
</g>
</g>
<!-- cropCells&#45;&gt;pumpkinSpatialPoints2014 -->
<g id="edge2" class="edge"><title>cropCells&#45;&gt;pumpkinSpatialPoints2014</title>
<g id="a_edge2"><a xlink:title="test">
<path fill="none" stroke="black" d="M368.396,-288.025C372.146,-268.573 374.902,-236.718 359.194,-216 344.319,-196.381 321.778,-183.97 298.458,-176.136"/>
<polygon fill="black" stroke="black" points="299.381,-172.757 288.793,-173.151 297.315,-179.446 299.381,-172.757"/>
</a>
</g>
</g>
<!-- cropSpatialPoints -->
<g id="cropSpatialPoints" class="node"><title>cropSpatialPoints</title>
<g id="a_cropSpatialPoints"><a xlink:href="javascript:void();" xlink:title="cropSpatialPoints">
<ellipse fill="none" stroke="black" cx="277.194" cy="-234" rx="72.5877" ry="18"/>
<text text-anchor="middle" x="277.194" y="-230.3" font-family="Times,serif" font-size="14.00">cropSpatialPoints</text>
</a>
</g>
</g>
<!-- cropCells&#45;&gt;cropSpatialPoints -->
<g id="edge1" class="edge"><title>cropCells&#45;&gt;cropSpatialPoints</title>
<g id="a_edge1"><a xlink:title="test">
<path fill="none" stroke="black" d="M344.886,-289.465C333.387,-280.213 318.583,-268.301 305.752,-257.978"/>
<polygon fill="black" stroke="black" points="307.645,-255.009 297.66,-251.467 303.257,-260.463 307.645,-255.009"/>
</a>
</g>
</g>
<!-- squashSpatialPoints2014 -->
<g id="squashSpatialPoints2014" class="node"><title>squashSpatialPoints2014</title>
<g id="a_squashSpatialPoints2014"><a xlink:href="javascript:void();" xlink:title="squashSpatialPoints2014">
<ellipse fill="none" stroke="black" cx="435.194" cy="-162" rx="98.5829" ry="18"/>
<text text-anchor="middle" x="435.194" y="-158.3" font-family="Times,serif" font-size="14.00">squashSpatialPoints2014</text>
</a>
</g>
</g>
<!-- cropCells&#45;&gt;squashSpatialPoints2014 -->
<g id="edge3" class="edge"><title>cropCells&#45;&gt;squashSpatialPoints2014</title>
<g id="a_edge3"><a xlink:title="test">
<path fill="none" stroke="black" d="M373.176,-288.371C378.746,-277.967 385.997,-264.259 392.194,-252 402.776,-231.067 414.316,-207.115 422.775,-189.335"/>
<polygon fill="black" stroke="black" points="426.008,-190.687 427.132,-180.151 419.683,-187.686 426.008,-190.687"/>
</a>
</g>
</g>
<!-- rasterObjects -->
<g id="rasterObjects" class="node"><title>rasterObjects</title>
<g id="a_rasterObjects"><a xlink:href="javascript:void();" xlink:title="rasterObjects">
<ellipse fill="none" stroke="black" cx="330.194" cy="-378" rx="57.3905" ry="18"/>
<text text-anchor="middle" x="330.194" y="-374.3" font-family="Times,serif" font-size="14.00">rasterObjects</text>
</a>
</g>
</g>
<!-- rasterObjects&#45;&gt;cropCells -->
<g id="edge5" class="edge"><title>rasterObjects&#45;&gt;cropCells</title>
<g id="a_edge5"><a xlink:title="test">
<path fill="none" stroke="black" d="M338.424,-360.055C342.392,-351.887 347.237,-341.912 351.65,-332.824"/>
<polygon fill="black" stroke="black" points="354.818,-334.313 356.039,-323.789 348.522,-331.255 354.818,-334.313"/>
</a>
</g>
</g>
<!-- rasterObjects&#45;&gt;cropSpatialPoints -->
<g id="edge4" class="edge"><title>rasterObjects&#45;&gt;cropSpatialPoints</title>
<g id="a_edge4"><a xlink:title="test">
<path fill="none" stroke="black" d="M323.801,-359.871C314.688,-335.457 297.881,-290.426 287.135,-261.635"/>
<polygon fill="black" stroke="black" points="290.385,-260.334 283.609,-252.189 283.827,-262.782 290.385,-260.334"/>
</a>
</g>
</g>
<!-- pumpkinDistances -->
<g id="pumpkinDistances" class="node"><title>pumpkinDistances</title>
<g id="a_pumpkinDistances"><a xlink:href="javascript:void();" xlink:title="pumpkinDistances">
<ellipse fill="none" stroke="black" cx="122.194" cy="-90" rx="76.8869" ry="18"/>
<text text-anchor="middle" x="122.194" y="-86.3" font-family="Times,serif" font-size="14.00">pumpkinDistances</text>
</a>
</g>
</g>
<!-- pumpkinSpatialPoints2014&#45;&gt;pumpkinDistances -->
<g id="edge8" class="edge"><title>pumpkinSpatialPoints2014&#45;&gt;pumpkinDistances</title>
<g id="a_edge8"><a xlink:title="test">
<path fill="none" stroke="black" d="M184.344,-144.055C173.792,-135.047 160.666,-123.842 149.199,-114.053"/>
<polygon fill="black" stroke="black" points="151.456,-111.378 141.578,-107.547 146.911,-116.702 151.456,-111.378"/>
</a>
</g>
</g>
<!-- cucurbitSpatialPoints2014 -->
<g id="cucurbitSpatialPoints2014" class="node"><title>cucurbitSpatialPoints2014</title>
<g id="a_cucurbitSpatialPoints2014"><a xlink:href="javascript:void();" xlink:title="cucurbitSpatialPoints2014">
<ellipse fill="none" stroke="black" cx="320.194" cy="-90" rx="103.182" ry="18"/>
<text text-anchor="middle" x="320.194" y="-86.3" font-family="Times,serif" font-size="14.00">cucurbitSpatialPoints2014</text>
</a>
</g>
</g>
<!-- pumpkinSpatialPoints2014&#45;&gt;cucurbitSpatialPoints2014 -->
<g id="edge6" class="edge"><title>pumpkinSpatialPoints2014&#45;&gt;cucurbitSpatialPoints2014</title>
<g id="a_edge6"><a xlink:title="test">
<path fill="none" stroke="black" d="M231.391,-144.588C247.129,-135.091 267.131,-123.02 284.166,-112.741"/>
<polygon fill="black" stroke="black" points="286.012,-115.715 292.765,-107.552 282.395,-109.722 286.012,-115.715"/>
</a>
</g>
</g>
<!-- closestPumpkins -->
<g id="closestPumpkins" class="node"><title>closestPumpkins</title>
<g id="a_closestPumpkins"><a xlink:href="javascript:void();" xlink:title="closestPumpkins">
<ellipse fill="none" stroke="black" cx="70.1938" cy="-18" rx="70.3881" ry="18"/>
<text text-anchor="middle" x="70.1938" y="-14.3" font-family="Times,serif" font-size="14.00">closestPumpkins</text>
</a>
</g>
</g>
<!-- pumpkinSpatialPoints2014&#45;&gt;closestPumpkins -->
<g id="edge7" class="edge"><title>pumpkinSpatialPoints2014&#45;&gt;closestPumpkins</title>
<g id="a_edge7"><a xlink:title="test">
<path fill="none" stroke="black" d="M111.454,-152.977C82.6875,-145.604 53.9145,-132.172 36.1938,-108 22.0311,-88.6813 34.7729,-62.738 48.5116,-43.8477"/>
<polygon fill="black" stroke="black" points="51.4528,-45.7657 54.8011,-35.7138 45.9152,-41.4837 51.4528,-45.7657"/>
</a>
</g>
</g>
<!-- pumpkinDistances&#45;&gt;closestPumpkins -->
<g id="edge9" class="edge"><title>pumpkinDistances&#45;&gt;closestPumpkins</title>
<g id="a_edge9"><a xlink:title="test">
<path fill="none" stroke="black" d="M109.606,-72.055C103.347,-63.6287 95.6588,-53.2798 88.7401,-43.9663"/>
<polygon fill="black" stroke="black" points="91.4385,-41.7293 82.6656,-35.789 85.8193,-45.9036 91.4385,-41.7293"/>
</a>
</g>
</g>
<!-- closestSquash -->
<g id="closestSquash" class="node"><title>closestSquash</title>
<g id="a_closestSquash"><a xlink:href="javascript:void();" xlink:title="closestSquash">
<ellipse fill="none" stroke="black" cx="558.194" cy="-18" rx="59.5901" ry="18"/>
<text text-anchor="middle" x="558.194" y="-14.3" font-family="Times,serif" font-size="14.00">closestSquash</text>
</a>
</g>
</g>
<!-- cropSpatialPoints&#45;&gt;pumpkinSpatialPoints2014 -->
<g id="edge10" class="edge"><title>cropSpatialPoints&#45;&gt;pumpkinSpatialPoints2014</title>
<g id="a_edge10"><a xlink:title="test">
<path fill="none" stroke="black" d="M259.894,-216.411C250.755,-207.648 239.372,-196.732 229.282,-187.057"/>
<polygon fill="black" stroke="black" points="231.517,-184.351 221.877,-179.956 226.672,-189.404 231.517,-184.351"/>
</a>
</g>
</g>
<!-- cropSpatialPoints&#45;&gt;squashSpatialPoints2014 -->
<g id="edge11" class="edge"><title>cropSpatialPoints&#45;&gt;squashSpatialPoints2014</title>
<g id="a_edge11"><a xlink:title="test">
<path fill="none" stroke="black" d="M311.089,-217.983C334.164,-207.76 364.962,-194.116 390.103,-182.977"/>
<polygon fill="black" stroke="black" points="391.709,-186.093 399.434,-178.843 388.874,-179.693 391.709,-186.093"/>
</a>
</g>
</g>
<!-- squashDistances -->
<g id="squashDistances" class="node"><title>squashDistances</title>
<g id="a_squashDistances"><a xlink:href="javascript:void();" xlink:title="squashDistances">
<ellipse fill="none" stroke="black" cx="510.194" cy="-90" rx="68.7879" ry="18"/>
<text text-anchor="middle" x="510.194" y="-86.3" font-family="Times,serif" font-size="14.00">squashDistances</text>
</a>
</g>
</g>
<!-- squashDistances&#45;&gt;closestSquash -->
<g id="edge12" class="edge"><title>squashDistances&#45;&gt;closestSquash</title>
<g id="a_edge12"><a xlink:title="test">
<path fill="none" stroke="black" d="M521.813,-72.055C527.532,-63.7147 534.543,-53.4908 540.878,-44.2517"/>
<polygon fill="black" stroke="black" points="543.913,-46.0157 546.681,-35.789 538.139,-42.0569 543.913,-46.0157"/>
</a>
</g>
</g>
<!-- rasterFiles -->
<g id="rasterFiles" class="node"><title>rasterFiles</title>
<g id="a_rasterFiles"><a xlink:href="javascript:void();" xlink:title="rasterFiles">
<ellipse fill="none" stroke="black" cx="330.194" cy="-450" rx="47.3916" ry="18"/>
<text text-anchor="middle" x="330.194" y="-446.3" font-family="Times,serif" font-size="14.00">rasterFiles</text>
</a>
</g>
</g>
<!-- rasterFiles&#45;&gt;rasterObjects -->
<g id="edge13" class="edge"><title>rasterFiles&#45;&gt;rasterObjects</title>
<g id="a_edge13"><a xlink:title="test">
<path fill="none" stroke="black" d="M330.194,-431.697C330.194,-423.983 330.194,-414.712 330.194,-406.112"/>
<polygon fill="black" stroke="black" points="333.694,-406.104 330.194,-396.104 326.694,-406.104 333.694,-406.104"/>
</a>
</g>
</g>
<!-- rasterFiles&#45;&gt;pumpkinSpatialPoints2014 -->
<g id="edge14" class="edge"><title>rasterFiles&#45;&gt;pumpkinSpatialPoints2014</title>
<g id="a_edge14"><a xlink:title="test">
<path fill="none" stroke="black" d="M306.91,-434.22C293.159,-424.608 276.156,-411.083 264.194,-396 220.094,-340.397 210.918,-321.204 195.194,-252 190.556,-231.587 193.297,-207.997 196.932,-190.234"/>
<polygon fill="black" stroke="black" points="200.395,-190.789 199.19,-180.263 193.568,-189.243 200.395,-190.789"/>
</a>
</g>
</g>
<!-- rasterFiles&#45;&gt;squashSpatialPoints2014 -->
<g id="edge15" class="edge"><title>rasterFiles&#45;&gt;squashSpatialPoints2014</title>
<g id="a_edge15"><a xlink:title="test">
<path fill="none" stroke="black" d="M355.031,-434.449C368.986,-425.098 385.662,-411.763 396.194,-396 438.908,-332.067 439.977,-236.819 437.489,-190.406"/>
<polygon fill="black" stroke="black" points="440.969,-189.984 436.841,-180.227 433.983,-190.429 440.969,-189.984"/>
</a>
</g>
</g>
<!-- squashSpatialPoints2014&#45;&gt;closestSquash -->
<g id="edge17" class="edge"><title>squashSpatialPoints2014&#45;&gt;closestSquash</title>
<g id="a_edge17"><a xlink:title="test">
<path fill="none" stroke="black" d="M517.03,-151.787C544.169,-144.388 571.646,-131.244 588.194,-108 601.827,-88.8496 590.59,-63.0426 578.172,-44.1499"/>
<polygon fill="black" stroke="black" points="580.885,-41.9237 572.277,-35.7479 575.155,-45.9442 580.885,-41.9237"/>
</a>
</g>
</g>
<!-- squashSpatialPoints2014&#45;&gt;cucurbitSpatialPoints2014 -->
<g id="edge16" class="edge"><title>squashSpatialPoints2014&#45;&gt;cucurbitSpatialPoints2014</title>
<g id="a_edge16"><a xlink:title="test">
<path fill="none" stroke="black" d="M408.231,-144.588C392.771,-135.178 373.162,-123.242 356.376,-113.024"/>
<polygon fill="black" stroke="black" points="357.748,-109.761 347.386,-107.552 354.108,-115.741 357.748,-109.761"/>
</a>
</g>
</g>
<!-- squashSpatialPoints2014&#45;&gt;squashDistances -->
<g id="edge18" class="edge"><title>squashSpatialPoints2014&#45;&gt;squashDistances</title>
<g id="a_edge18"><a xlink:title="test">
<path fill="none" stroke="black" d="M453.349,-144.055C462.815,-135.22 474.545,-124.272 484.887,-114.62"/>
<polygon fill="black" stroke="black" points="487.542,-116.929 492.464,-107.547 482.766,-111.812 487.542,-116.929"/>
</a>
</g>
</g>
</g>
</svg>
